<?xml version="1.0" encoding="UTF-8"?>
<svg version="1.1" xmlns="http://www.w3.org/2000/svg" width="1024" height="1024">
<path d="M0 0 C337.92 0 675.84 0 1024 0 C1024 337.92 1024 675.84 1024 1024 C686.08 1024 348.16 1024 0 1024 C0 686.08 0 348.16 0 0 Z " fill="#FEFCF2" transform="translate(0,0)"/>
<path d="M0 0 C2.11731336 0.00314393 4.23320149 -0.02033024 6.3503418 -0.0456543 C28.08801515 -0.14701197 50.86027393 5.15858703 67.13354492 20.35473633 C69.83884953 23.27530173 71.94995117 26.24062578 71.94995117 30.31567383 C72.57901367 30.46262695 73.20807617 30.60958008 73.85620117 30.76098633 C83.77268887 33.35958401 89.7550278 37.97825539 95.41088867 46.52661133 C106.36776545 66.38247433 103.5099803 93.48637077 98.08276367 114.70629883 C97.42860279 116.93667593 96.74178803 119.13110263 95.94995117 121.31567383 C97.02245117 121.39817383 98.09495117 121.48067383 99.19995117 121.56567383 C103.26403069 122.37848973 104.48067676 123.08662268 106.94995117 126.31567383 C111.70381246 140.5772577 106.34811872 159.65495985 100.42260742 172.84692383 C98.03086614 176.85642115 95.1871835 179.37134967 90.94995117 181.31567383 C88.179777 182.00939717 85.82827205 182.21287665 82.94995117 182.31567383 C82.88807617 183.61504883 82.82620117 184.91442383 82.76245117 186.25317383 C81.49728129 198.62372377 77.50944036 214.13589458 68.25073242 222.85864258 C65.0379935 226.62400133 65.72501277 230.40376628 65.97070312 235.1237793 C66.65007666 248.63764294 66.65007666 248.63764294 63.57983398 253.47387695 C59.94790758 257.14031579 55.58554335 259.61236313 51.08813477 262.08129883 C47.8199272 263.96803752 44.9839394 266.30038229 42.07495117 268.69067383 C40.94543007 269.58901411 39.81386348 270.48478764 38.68041992 271.37817383 C38.09180176 271.84352539 37.50318359 272.30887695 36.89672852 272.78833008 C34.69118862 274.51868593 32.47206733 276.23064478 30.25073242 277.94067383 C29.4442627 278.56280762 28.63779297 279.18494141 27.80688477 279.82592773 C26.23253764 281.03933473 24.65614301 282.25009134 23.07739258 283.45776367 C19.09086592 286.53572071 15.41180237 289.65502326 11.94995117 293.31567383 C12.66280273 294.08911133 13.3756543 294.86254883 14.11010742 295.65942383 C28.8778016 311.70744947 28.8778016 311.70744947 31.94995117 316.31567383 C31.61321872 320.11828667 29.43108645 323.15917451 27.51245117 326.37817383 C26.89499023 327.42102539 26.2775293 328.46387695 25.64135742 329.53833008 C24.45267693 331.49018188 23.21761854 333.41417278 21.94995117 335.31567383 C21.94995117 337.29567383 21.94995117 339.27567383 21.94995117 341.31567383 C11.38995117 341.31567383 0.82995117 341.31567383 -10.05004883 341.31567383 C-10.05004883 339.33567383 -10.05004883 337.35567383 -10.05004883 335.31567383 C-10.92057806 333.21390787 -10.92057806 333.21390787 -12.27270508 331.40551758 C-12.95623047 330.38554688 -12.95623047 330.38554688 -13.65356445 329.3449707 C-14.62933213 327.94597849 -15.60589999 326.54754407 -16.58325195 325.1496582 C-20.03347069 319.99635277 -20.03347069 319.99635277 -20.11645508 316.58911133 C-18.79146844 313.76441454 -17.21283823 312.12422604 -14.92504883 310.00317383 C-11.25163615 306.49939326 -7.84852853 302.90519347 -4.55786133 299.04223633 C-3.11731988 297.39270441 -1.61677958 295.84487809 -0.05004883 294.31567383 C-1.58531225 289.77385287 -5.32312411 287.60980178 -9.05004883 284.94067383 C-10.5043547 283.87587855 -11.9574329 282.80940493 -13.40942383 281.74145508 C-14.16932617 281.18409668 -14.92922852 280.62673828 -15.7121582 280.05249023 C-19.62669684 277.14438373 -23.46135251 274.13526137 -27.30004883 271.12817383 C-33.30308 266.43518581 -39.34158455 261.80657216 -45.47192383 257.28051758 C-46.32270508 256.63211914 -47.17348633 255.9837207 -48.05004883 255.31567383 C-49.13930664 254.66211914 -50.22856445 254.00856445 -51.35083008 253.33520508 C-53.52958732 251.50022285 -54.00605881 250.56634151 -54.50561523 247.71972656 C-54.65228097 243.3854413 -54.52286166 239.08196515 -54.37231445 234.74926758 C-54.33663706 226.23766089 -56.48004439 222.54313423 -62.05004883 216.31567383 C-68.09838324 205.75973862 -70.0255335 194.15313402 -72.05004883 182.31567383 C-73.31333008 182.17645508 -74.57661133 182.03723633 -75.87817383 181.89379883 C-80.77443451 181.35421092 -83.61478111 179.75094154 -87.11254883 176.25317383 C-95.14821737 164.07006346 -99.153511 144.77460747 -97.05004883 130.31567383 C-95.66505321 127.0943052 -94.52915834 124.79478334 -92.05004883 122.31567383 C-89.3946751 121.7504738 -86.7586017 121.57779185 -84.05004883 121.31567383 C-84.19627686 120.72665283 -84.34250488 120.13763184 -84.49316406 119.53076172 C-85.16387662 116.81465522 -85.82575141 114.09646571 -86.48754883 111.37817383 C-86.71764648 110.45198242 -86.94774414 109.52579102 -87.18481445 108.5715332 C-92.8446811 85.19382313 -90.80805822 61.53474163 -78.96411133 40.41723633 C-71.39827002 28.15748532 -61.52660444 18.45316285 -49.05004883 11.31567383 C-48.4184082 10.93797852 -47.78676758 10.5602832 -47.13598633 10.17114258 C-42.73301537 7.73690092 -38.01466573 6.2195746 -33.23754883 4.69067383 C-32.27812378 4.38105713 -32.27812378 4.38105713 -31.29931641 4.06518555 C-20.92713772 0.8783262 -10.7983532 -0.03335494 0 0 Z " fill="#1D1E1A" transform="translate(711.050048828125,77.684326171875)"/>
<path d="M0 0 C2 1 2 1 3.07571411 3.97859192 C3.47415824 5.32554623 3.86372007 6.67514532 4.24658203 8.02661133 C4.56888794 9.12909966 4.56888794 9.12909966 4.89770508 10.25386047 C5.60890074 12.69438788 6.30857176 15.1380541 7.0078125 17.58203125 C7.49766414 19.27511327 7.98805815 20.96803845 8.47897339 22.66081238 C9.50772903 26.21459855 10.53100513 29.76990305 11.55029297 33.32641602 C12.85721964 37.88552633 14.17580143 42.44116161 15.49829292 46.99577808 C16.51293547 50.49386873 17.52225114 53.99347825 18.52987289 57.49359703 C19.01406607 59.17373658 19.49970892 60.85345905 19.98682022 62.5327549 C20.66723039 64.88209281 21.34066478 67.23331935 22.01220703 69.58520508 C22.21478119 70.27990906 22.41735535 70.97461304 22.62606812 71.69036865 C23.55662307 74.97670262 24 77.54378072 24 81 C23.4016333 81.01981934 22.8032666 81.03963867 22.18676758 81.06005859 C-1.73677412 80.74737848 -1.73677412 80.74737848 -21.77734375 91.8203125 C-28.59207863 100.05131258 -29.44900435 109.58439472 -29.51171875 119.9140625 C-29.52835571 120.88690186 -29.54499268 121.85974121 -29.56213379 122.86206055 C-29.60710691 125.68030275 -29.63746685 128.49837418 -29.66369247 131.31684113 C-29.71647857 136.43449613 -29.78793627 141.55194604 -29.85473633 146.66943359 C-29.88248738 148.82961964 -29.91018638 150.98980635 -29.93782043 153.1499939 C-29.95854696 154.7666626 -29.97927348 156.3833313 -30 158 C-42.83889869 158.04630546 -55.67777757 158.08186013 -68.51674271 158.10362434 C-74.47815141 158.11406915 -80.43950305 158.12824116 -86.40087891 158.15087891 C-92.15208244 158.1725823 -97.90323103 158.18456337 -103.65447235 158.18975449 C-105.85055151 158.19345474 -108.0466276 158.20068023 -110.24268341 158.21146011 C-113.31452474 158.22594163 -116.38613794 158.22797933 -119.45800781 158.22705078 C-120.36934982 158.23424133 -121.28069183 158.24143188 -122.21965027 158.24884033 C-123.05815018 158.246091 -123.89665009 158.24334167 -124.76055908 158.24050903 C-125.48693195 158.24235262 -126.21330482 158.24419621 -126.961689 158.24609566 C-129.3595754 157.95658663 -130.95058653 157.26550182 -133 156 C-134.27511237 153.44977527 -134.14788971 151.62167469 -134.17700195 148.76611328 C-134.18983719 147.66961456 -134.20267242 146.57311584 -134.21589661 145.44338989 C-134.22328354 144.24777435 -134.23067047 143.05215881 -134.23828125 141.8203125 C-134.246353 140.58320526 -134.25442474 139.34609802 -134.26274109 138.07150269 C-134.27660756 135.43679047 -134.28761077 132.80220429 -134.29516602 130.16748047 C-134.30818397 126.20381117 -134.35599969 122.24078431 -134.40039062 118.27734375 C-134.5556408 92.9215133 -132.36103028 70.33187945 -114.9296875 50.6640625 C-97.48196522 33.33792714 -69.44309238 26.28409517 -46.70703125 18.40625 C-45.82906387 18.10160828 -44.9510965 17.79696655 -44.04652405 17.48309326 C-39.75116325 15.99551859 -35.45190652 14.52153997 -31.14379883 13.07128906 C-22.217556 10.03377454 -13.67252326 6.66797998 -5.24661255 2.41326904 C-3.52338473 1.55528798 -1.76424756 0.77011439 0 0 Z " fill="#1D1E19" transform="translate(644,338)"/>
<path d="M0 0 C0.74679396 -0.0488329 1.49358791 -0.0976658 2.26301199 -0.14797848 C4.77564931 -0.30930388 7.28867697 -0.46279503 9.80189514 -0.61479187 C10.68206614 -0.66905397 11.56223713 -0.72331608 12.46907997 -0.77922249 C30.0810705 -1.85384023 47.70187712 -2.51304519 65.33837032 -3.02752399 C76.53816323 -3.36291882 87.70297594 -3.82202389 98.8809967 -4.60697937 C178.94703047 -10.11528066 178.94703047 -10.11528066 210.52358687 17.17999756 C216.17812735 22.24752911 221.50134481 27.60027022 226.73573303 33.09736633 C227.45838246 33.84955814 228.18103189 34.60174995 228.92557979 35.37673545 C245.13139855 52.37763152 259.30433205 69.07307948 259.82702446 93.59514427 C259.43838857 105.77170917 257.42287833 116.16036404 248.48182678 124.89033508 C243.31039149 129.57783508 243.31039149 129.57783508 241.73182678 129.57783508 C241.73182678 112.74783508 241.73182678 95.91783508 241.73182678 78.57783508 C237.53077209 78.61263977 233.32971741 78.64744446 229.00135803 78.68330383 C225.64550799 78.70260523 222.2896737 78.7188706 218.93379974 78.73308563 C215.39460051 78.74890861 211.85561783 78.77004312 208.31654358 78.80415344 C204.25312741 78.84307111 200.18993958 78.85756055 196.12635803 78.87080383 C194.86161148 78.88628769 193.59686493 78.90177155 192.29379272 78.91772461 C191.11294601 78.9179512 189.9320993 78.9181778 188.71546936 78.91841125 C187.67844376 78.92507309 186.64141815 78.93173492 185.57296753 78.93859863 C182.22221051 78.51312482 180.4030271 77.62923248 177.73182678 75.57783508 C168.48460498 57.08339147 175.73182678 34.25525164 175.73182678 13.57783508 C116.99182678 13.57783508 58.25182678 13.57783508 -2.26817322 13.57783508 C-1.93817322 110.92783508 -1.60817322 208.27783508 -1.26817322 308.57783508 C118.52182678 309.07283508 118.52182678 309.07283508 240.73182678 309.57783508 C240.73182678 285.48783508 240.73182678 261.39783508 240.73182678 236.57783508 C245.02182678 232.28783508 249.31182678 227.99783508 253.73182678 223.57783508 C254.06182678 223.57783508 254.39182678 223.57783508 254.73182678 223.57783508 C254.80137033 235.07833064 254.85466029 246.57877607 254.8872633 258.07943916 C254.90291196 263.4198004 254.92413583 268.76001765 254.95814514 274.10029602 C254.99076681 279.25500273 255.00868581 284.40957104 255.01645851 289.56437302 C255.02199695 291.52994337 255.03281219 293.49550625 255.04901695 295.46101761 C255.07082841 298.21643124 255.07379214 300.97127464 255.07240295 303.72676086 C255.08318878 304.53740494 255.09397461 305.34804901 255.10508728 306.18325806 C255.07252704 312.16086452 253.93229406 316.19614893 249.75760841 320.71463966 C245.37349434 323.41425988 241.58412102 323.13229626 236.52810669 323.08576965 C235.49084566 323.09200962 234.45358463 323.09824958 233.38489145 323.10467863 C229.90403357 323.12065224 226.42387169 323.10798673 222.94300842 323.09541321 C220.44957063 323.10083239 217.95613603 323.1079539 215.46270752 323.11665344 C209.38993797 323.13301747 203.31744225 323.13059731 197.24468333 323.11900288 C192.3087197 323.10996912 187.37281149 323.1087443 182.43684196 323.11309814 C181.73431 323.11371108 181.03177803 323.11432401 180.30795721 323.11495551 C178.88076125 323.11623442 177.45356531 323.11753127 176.02636939 323.11884588 C162.64259771 323.13025275 149.25893561 323.11713676 135.87518191 323.09564441 C124.39350407 323.0777772 112.91198802 323.08087416 101.43031311 323.09931946 C88.09597387 323.12073104 74.76173072 323.12915 61.42737669 323.1168704 C60.00512693 323.11559622 58.58287715 323.11433873 57.16062737 323.11309814 C56.46086257 323.11248104 55.76109777 323.11186394 55.04012798 323.11122814 C50.11111025 323.1077758 45.1821535 323.11360114 40.25314522 323.12301636 C33.61699719 323.13541384 26.98110742 323.12657256 20.34497261 323.10343933 C17.90769458 323.09814508 15.47039087 323.09967817 13.03312302 323.10848999 C9.7092434 323.1194003 6.38634726 323.10573507 3.06253052 323.08576965 C1.61141069 323.09915398 1.61141069 323.09915398 0.13097531 323.1128087 C-5.4590479 323.04755969 -8.98016258 322.530851 -13.26817322 318.57783508 C-17.32841568 313.11459663 -16.68693624 306.94908473 -16.64912415 300.43159485 C-16.65380412 299.19746888 -16.65848409 297.96334291 -16.66330588 296.69181919 C-16.67319432 293.27350857 -16.66964539 289.85569316 -16.66034722 286.43741274 C-16.65355739 282.74819016 -16.66403763 279.05901075 -16.67228699 275.36979675 C-16.68562723 268.14552484 -16.6827453 260.92134642 -16.67404906 253.69707084 C-16.66727407 247.82578498 -16.666355 241.95452534 -16.66962051 236.08323669 C-16.67008021 235.24762288 -16.67053991 234.41200906 -16.67101354 233.55107361 C-16.67197272 231.85354319 -16.67294536 230.15601279 -16.67393132 228.45848238 C-16.68248606 212.54051927 -16.67264975 196.62260799 -16.65653022 180.70465338 C-16.64312695 167.04614372 -16.64545502 153.38771055 -16.6592865 139.72920227 C-16.67534082 123.86822087 -16.68166208 108.00728489 -16.67244971 92.1462965 C-16.67149406 90.45500883 -16.67055095 88.76372116 -16.66962051 87.07243347 C-16.66915769 86.24028637 -16.66869486 85.40813927 -16.66821801 84.55077559 C-16.66562768 78.68650348 -16.67000005 72.82226019 -16.67705917 66.95799255 C-16.68547272 59.81145405 -16.68319711 52.6650144 -16.66721694 45.51848722 C-16.65933224 41.87216708 -16.65624593 38.22601176 -16.6661644 34.57969284 C-16.67675169 30.62772711 -16.6641105 26.67603132 -16.64912415 22.72407532 C-16.65581631 21.5705787 -16.66250848 20.41708208 -16.66940343 19.22863102 C-16.62080522 12.64244118 -16.10834615 8.00971071 -11.76817322 2.76533508 C-8.34931107 0.05873588 -4.16249584 0.25860168 0 0 Z " fill="#1B1B17" transform="translate(645.2681732177734,435.4221649169922)"/>
<path d="M0 0 C3.99271364 1.30675105 7.87483554 2.74685932 11.75537109 4.35839844 C21.54364989 8.40629193 31.47406211 11.9568384 41.47943115 15.42016602 C53.57751859 19.61098863 65.64269552 23.86127885 77.55157471 28.56750488 C79.35917431 29.28155908 81.17047954 29.98621102 82.98193359 30.69042969 C102.69960202 38.60476829 119.89513727 49.78830548 128.75 69.875 C133.91716582 83.09886515 135.15559278 95.76910801 135.16796875 109.8359375 C135.17129715 111.15163727 135.17462555 112.46733704 135.17805481 113.82290649 C135.18400794 116.5914187 135.18589826 119.35989983 135.18530273 122.12841797 C135.18520041 125.67940951 135.19894167 129.23020427 135.21607494 132.78114891 C135.22982875 136.17441517 135.22928178 139.56764368 135.23046875 142.9609375 C135.23765427 144.23794525 135.24483978 145.514953 135.25224304 146.83065796 C135.24916641 148.00593048 135.24608978 149.181203 135.24291992 150.39208984 C135.24434494 151.42941254 135.24576996 152.46673523 135.24723816 153.53549194 C135 156 135 156 133 158 C129.6875 158.4375 129.6875 158.4375 126 158 C123.68522644 155.89529419 123.68522644 155.89529419 121 153 C119.96491399 151.9424304 118.92619061 150.88841254 117.88447571 149.83737183 C116.70583782 148.63761532 115.52731146 147.43774924 114.34887695 146.23779297 C107.75101233 139.52542677 101.13523616 132.83100537 94.50916767 126.14648247 C90.50751654 122.10826685 86.51268237 118.06375206 82.5324707 114.00439453 C78.6712243 110.06689161 74.79294589 106.14691939 70.90245628 102.23831558 C69.42797559 100.75095329 67.95964427 99.25746744 66.49779701 97.75768661 C64.44738573 95.65617904 62.37580507 93.57789314 60.2980957 91.50341797 C59.70605347 90.8862088 59.11401123 90.26899963 58.50402832 89.63308716 C52.10877837 83.34418078 44.64821557 81.65297505 35.80615234 81.56762695 C35.16095642 81.5574353 34.5157605 81.54724365 33.85101318 81.53674316 C31.76256132 81.50705138 29.67457102 81.49741623 27.5859375 81.48828125 C26.1204786 81.47140178 24.65503389 81.45324724 23.18960571 81.43388367 C19.36586952 81.38673146 15.54219086 81.35669878 11.71826172 81.33044434 C7.80294433 81.30046144 3.88782463 81.2539929 -0.02734375 81.20898438 C-7.68479697 81.12334799 -15.34226521 81.05582836 -23 81 C-19.87973865 67.98464265 -16.23957049 55.14280566 -12.50927734 42.2902832 C-11.49917216 38.80964742 -10.49337409 35.32778925 -9.48828125 31.84570312 C-6.41177101 21.20363457 -3.33544391 10.56445912 0 0 Z " fill="#1D1E19" transform="translate(788,338)"/>
<path d="M0 0 C2.36482395 0.95282036 3.62609375 2.05542225 5.41607666 3.86671448 C6.37661957 4.82759727 6.37661957 4.82759727 7.35656738 5.80789185 C8.03588318 6.5026915 8.71519897 7.19749115 9.4151001 7.91334534 C10.11971375 8.62220383 10.82432739 9.33106232 11.55029297 10.06140137 C13.79882294 12.32672189 16.03669748 14.60225117 18.2744751 16.87818909 C19.79722218 18.41598243 21.32065164 19.9531004 22.8447876 21.48951721 C26.5793032 25.2571071 30.3051236 29.03313173 34.0244751 32.81568909 C32.71285395 35.71372671 31.31192188 37.77544177 29.05970764 40.01423645 C28.14940796 40.92649239 28.14940796 40.92649239 27.22071838 41.85717773 C26.55630234 42.51283218 25.89188629 43.16848663 25.20733643 43.8440094 C24.50627777 44.54375381 23.80521912 45.24349823 23.08291626 45.96444702 C20.76200495 48.27886317 18.43420172 50.58622278 16.10650635 52.89381409 C14.48894766 54.50509981 12.87190475 56.11690348 11.25535583 57.72920227 C6.99283467 61.97841015 2.72479334 66.22202635 -1.54486084 70.46406555 C-8.36208214 77.23821834 -15.17271853 84.01897365 -21.97997475 90.80313873 C-24.35216251 93.16516008 -26.72776812 95.52370273 -29.10374451 97.88191223 C-30.57308647 99.34441889 -32.04231533 100.80703918 -33.51141357 102.26979065 C-34.49285591 103.24112694 -34.49285591 103.24112694 -35.49412537 104.23208618 C-40.85778142 109.5826506 -45.85627228 115.20159953 -50.64154053 121.07374573 C-59.32273067 131.15593169 -69.92044207 135.44472395 -82.18939209 140.02394104 C-85.51247326 141.26701041 -88.81001752 142.56514012 -92.1083374 143.87232971 C-94.21905948 144.68873825 -96.33099852 145.50200908 -98.4442749 146.31178284 C-99.42762817 146.69692551 -100.41098145 147.08206818 -101.4241333 147.47888184 C-102.34279175 147.81746719 -103.2614502 148.15605255 -104.20794678 148.50489807 C-105.0103479 148.80766159 -105.81274902 149.11042511 -106.63946533 149.42236328 C-109.65443536 149.92999825 -111.28297618 149.17642332 -113.9755249 147.81568909 C-114.3055249 147.48568909 -114.6355249 147.15568909 -114.9755249 146.81568909 C-114.72291386 138.73213568 -111.99845105 132.19154796 -108.8505249 124.81568909 C-108.38904053 123.71096252 -107.92755615 122.60623596 -107.4520874 121.46803284 C-106.50933298 119.21215617 -105.55200441 116.96231135 -104.57974243 114.71899414 C-103.50215742 112.17658646 -102.56920204 109.6367524 -101.73043823 107.00650024 C-97.3179918 93.86414076 -89.1730998 85.72180378 -79.3505249 76.24928284 C-77.71593054 74.63594347 -76.08364693 73.02025992 -74.45355225 71.40237427 C-70.19047865 67.18277158 -65.89869647 62.99366151 -61.5993042 58.81111145 C-56.38065682 53.72345227 -51.19687729 48.6003155 -46.00778198 43.48255253 C-41.97083204 39.50242028 -37.92915341 35.52753652 -33.871521 31.56848145 C-33.12465027 30.83804626 -32.37777954 30.10761108 -31.60827637 29.3550415 C-30.22947088 28.00707931 -28.84852975 26.66129597 -27.46484375 25.31834412 C-23.62383639 21.55807016 -20.01248968 17.66897601 -16.51400757 13.58747959 C-14.34983167 11.09511072 -12.06343543 8.7712477 -9.7255249 6.44068909 C-8.48029053 5.19158752 -8.48029053 5.19158752 -7.2098999 3.91725159 C-2.77029499 -0.25846073 -2.77029499 -0.25846073 0 0 Z " fill="#1C1D19" transform="translate(899.9755249023438,571.1843109130859)"/>
<path d="M0 0 C3.9998593 -0.08783475 7.99946704 -0.14067102 12 -0.1875 C13.12535156 -0.21263672 14.25070312 -0.23777344 15.41015625 -0.26367188 C23.64217768 -0.33588259 29.25292987 0.54999261 36.25 5.125 C42.57986501 11.74258615 43.60658149 18.97374873 43.53125 27.84375 C43.5350769 28.85288452 43.53890381 29.86201904 43.54284668 30.9017334 C43.54555337 33.02287806 43.53827989 35.14405682 43.52148438 37.26513672 C43.50005762 40.4913249 43.52132936 43.71528642 43.546875 46.94140625 C43.5442315 49.01302569 43.53910608 51.08464377 43.53125 53.15625 C43.53934692 54.10963257 43.54744385 55.06301514 43.55578613 56.04528809 C43.4446482 64.07740049 41.60513927 70.71468535 35.75 76.4375 C29.31190061 82.03099724 20.03748616 81.28273868 12.0625 81.1875 C11.00998047 81.18685547 9.95746094 81.18621094 8.87304688 81.18554688 C1.14061993 81.14061993 1.14061993 81.14061993 0 80 C-0.09502416 77.50507612 -0.12557566 75.03793986 -0.11352539 72.54272461 C-0.11367142 71.76229294 -0.11381744 70.98186127 -0.1139679 70.17778015 C-0.11326858 67.5859402 -0.10547536 64.99417122 -0.09765625 62.40234375 C-0.09579213 60.6101536 -0.0943682 58.81796294 -0.09336853 57.02577209 C-0.08954284 52.29929203 -0.07971212 47.57284248 -0.06866455 42.84637451 C-0.05845153 38.0271445 -0.05387115 33.20790958 -0.04882812 28.38867188 C-0.03808989 18.92576781 -0.02101286 9.46288644 0 0 Z " fill="#1B1B17" transform="translate(282,570)"/>
<path d="M0 0 C1.12083984 -0.020625 2.24167969 -0.04125 3.39648438 -0.0625 C11.28977986 -0.09957949 16.7698962 0.8820433 23.6875 4.8125 C29.66660154 11.28986 30.53624664 19.50795666 30.43359375 27.97265625 C30.43504898 28.95817978 30.43650421 29.94370331 30.43800354 30.95909119 C30.43635501 33.02720112 30.42491228 35.09532468 30.40405273 37.16333008 C30.37504161 40.30799021 30.38347844 43.45096579 30.39648438 46.59570312 C30.39024702 48.61719559 30.38185611 50.63868281 30.37109375 52.66015625 C30.37402939 53.58852798 30.37696503 54.51689972 30.37998962 55.47340393 C30.28434292 62.16947048 29.51431061 68.93434085 25.2890625 74.37109375 C24.71929687 74.80550781 24.14953125 75.23992187 23.5625 75.6875 C22.99789062 76.13996094 22.43328125 76.59242188 21.8515625 77.05859375 C17.34270162 79.8651296 13.61029208 80.49358714 8.32421875 80.4453125 C6.4534668 80.43564453 6.4534668 80.43564453 4.54492188 80.42578125 C3.25134766 80.40902344 1.95777344 80.39226562 0.625 80.375 C-1.34436523 80.36146484 -1.34436523 80.36146484 -3.35351562 80.34765625 C-6.59002913 80.32411797 -9.82617149 80.2912352 -13.0625 80.25 C-13.08562376 69.96695462 -13.10341525 59.68391538 -13.11431217 49.40084934 C-13.11954093 44.6265172 -13.12663844 39.85220279 -13.13793945 35.07788086 C-13.1487686 30.47433738 -13.15477689 25.87081101 -13.15737724 21.26725578 C-13.15923144 19.50690377 -13.16285196 17.74655274 -13.16823006 15.98620796 C-13.17544086 13.52927723 -13.17649093 11.07241805 -13.17602539 8.61547852 C-13.17962067 7.88036545 -13.18321594 7.14525238 -13.18692017 6.38786316 C-13.16879565 -2.39436288 -7.48374226 0.03361591 0 0 Z " fill="#1C1D18" transform="translate(94.0625,469.75)"/>
<path d="M0 0 C4.95 0 9.9 0 15 0 C17.11818471 6.06883666 19.23609845 12.13776779 21.35375977 18.20678711 C22.07438811 20.27191737 22.79509085 22.33702168 23.51586914 24.40209961 C24.55113919 27.36825875 25.58614278 30.33451076 26.62109375 33.30078125 C26.94403915 34.2258699 27.26698456 35.15095856 27.59971619 36.1040802 C27.89995193 36.96474594 28.20018768 37.82541168 28.50952148 38.7121582 C28.77377426 39.46938675 29.03802704 40.2266153 29.31028748 41.00679016 C29.8848783 42.6673082 30.4443495 44.3330485 31 46 C31.33 30.82 31.66 15.64 32 0 C36.62 0 41.24 0 46 0 C46 26.4 46 52.8 46 80 C41.05 80 36.1 80 31 80 C26.78460694 71.33891924 24.1303499 62.24581246 21.3125 53.0625 C20.56665567 50.64650314 19.81925795 48.23100056 19.07011414 45.81602478 C18.60713657 44.32204936 18.1462907 42.82741128 17.68782043 41.33204651 C16.54623974 37.5878179 16.54623974 37.5878179 15 34 C14.9845388 34.84231422 14.9845388 34.84231422 14.96876526 35.7016449 C14.86092315 41.52493466 14.74630792 47.34806264 14.62768555 53.17114258 C14.58426493 55.34688953 14.54259529 57.52267214 14.50268555 59.69848633 C14.44515498 62.81863168 14.38141177 65.93859633 14.31640625 69.05859375 C14.29969376 70.03775253 14.28298126 71.01691132 14.26576233 72.02574158 C14.24581711 72.92659988 14.22587189 73.82745819 14.20532227 74.75561523 C14.18977798 75.55281479 14.1742337 76.35001434 14.15821838 77.17137146 C14 79 14 79 13 80 C11.00200428 80.09873816 9.00042842 80.12971799 7 80.125 C5.906875 80.12757813 4.81375 80.13015625 3.6875 80.1328125 C1 80 1 80 0 79 C-0.09500548 76.53555943 -0.12557985 74.09925374 -0.11352539 71.63452148 C-0.11367142 70.86384338 -0.11381744 70.09316528 -0.1139679 69.2991333 C-0.1132686 66.73975861 -0.10547545 64.1804558 -0.09765625 61.62109375 C-0.09579213 59.85132385 -0.0943682 58.08155344 -0.09336853 56.31178284 C-0.08954288 51.64448634 -0.0797122 46.97722077 -0.06866455 42.30993652 C-0.05845144 37.55102965 -0.05387113 32.79211779 -0.04882812 28.03320312 C-0.03808997 18.68878629 -0.0204928 9.34440055 0 0 Z " fill="#1C1D18" transform="translate(411,571)"/>
<path d="M0 0 C30.13981043 0 30.13981043 0 36.12109375 4.6484375 C36.55550781 5.21820313 36.98992187 5.78796875 37.4375 6.375 C37.88996094 6.93960937 38.34242188 7.50421875 38.80859375 8.0859375 C42.84886594 14.5768666 43.68359496 22.2684506 42.6015625 29.7578125 C41.11171963 35.48932565 38.58188009 40.14560505 34 44 C33.34 44 32.68 44 32 44 C32.36875244 45.01425049 32.73750488 46.02850098 33.11743164 47.07348633 C34.48150663 50.83288072 35.83350997 54.59652121 37.18188477 58.36157227 C37.76745831 59.99134016 38.35631098 61.6199337 38.94848633 63.24731445 C39.79850716 65.58504988 40.63669332 67.92673795 41.47265625 70.26953125 C41.74030289 70.99775589 42.00794952 71.72598053 42.28370667 72.47627258 C44.11387171 77.65838488 44.11387171 77.65838488 43 81 C38.71 81 34.42 81 30 81 C29.2543689 78.98443236 28.50901281 76.96876264 27.76489258 74.95263672 C27.12729985 73.22700123 26.48779765 71.50207012 25.84643555 69.77783203 C24.35603437 65.75573405 22.89148737 61.7348664 21.5625 57.65625 C21.15 56.4084375 20.7375 55.160625 20.3125 53.875 C19.78076172 52.20050781 19.78076172 52.20050781 19.23828125 50.4921875 C18.82964844 49.66976562 18.42101562 48.84734375 18 48 C16.68 47.67 15.36 47.34 14 47 C14 58.22 14 69.44 14 81 C9.38 81 4.76 81 0 81 C0 54.27 0 27.54 0 0 Z " fill="#1D1E1A" transform="translate(185,368)"/>
<path d="M0 0 C0.73956955 -0.00467997 1.47913911 -0.00935994 2.24111986 -0.01418173 C4.72631646 -0.02617488 7.21096602 -0.01665792 9.69616699 -0.00723267 C11.47497378 -0.01129646 13.25377805 -0.01663725 15.03257751 -0.02316284 C19.8692866 -0.03686516 24.70580418 -0.03152579 29.54251671 -0.02202559 C34.59801128 -0.01444407 39.65348918 -0.02147039 44.70898438 -0.02618408 C53.19969637 -0.03164604 61.69033015 -0.02443848 70.18103027 -0.01016235 C80.00530086 0.00616499 89.8293847 0.0008768 99.65365076 -0.01564157 C108.08003163 -0.02924391 116.5063562 -0.03118224 124.9327445 -0.02332556 C129.96919664 -0.01864215 135.00556091 -0.01804251 140.04200745 -0.02793503 C144.77638071 -0.03658421 149.51051258 -0.03062038 154.2448597 -0.01325226 C155.98515992 -0.00927644 157.72548038 -0.0104401 159.46577263 -0.01704025 C161.83610108 -0.02520282 164.20564939 -0.01499904 166.57592773 0 C167.61614287 -0.01003825 167.61614287 -0.01003825 168.67737246 -0.02027929 C171.51094114 0.0146515 173.35155374 0.06438672 175.68402863 1.75632286 C177.23166321 4.03392982 177.65665562 5.62347784 177.78796387 8.38095093 C176.64637197 10.66413473 175.59783704 12.57107775 173.78796387 14.38095093 C171.46950058 14.48741227 169.18047151 14.52873744 166.86112976 14.52812195 C166.12805817 14.53179864 165.39498659 14.53547532 164.63970071 14.53926343 C162.1646194 14.55034332 159.68958 14.55415135 157.21447754 14.55795288 C155.44744227 14.56421428 153.68040833 14.57086078 151.91337585 14.5778656 C147.09927504 14.59530537 142.28518417 14.6058354 137.47105956 14.61407113 C134.46606442 14.61921483 131.46107242 14.62529084 128.45607948 14.63158226 C119.06200768 14.65064238 109.66794378 14.66487193 100.27385634 14.67319423 C89.41536707 14.68297156 78.55708139 14.70930058 67.69866389 14.74969512 C59.31563394 14.77981504 50.93266247 14.79465917 42.54957944 14.79797524 C37.53815623 14.80033042 32.52695031 14.80935133 27.51558495 14.83443642 C22.80173727 14.8576502 18.08825097 14.86197748 13.37436104 14.85167503 C11.64252905 14.85117793 9.91067969 14.85754959 8.17890167 14.87123108 C5.81741338 14.88884605 3.45723661 14.88189638 1.0957489 14.86869812 C0.40771169 14.87966737 -0.28032551 14.89063661 -0.98921233 14.90193826 C-4.27315974 14.8575167 -5.9775005 14.55548016 -8.64142895 12.57312298 C-10.9103793 9.40623976 -10.69513807 7.17675185 -10.21203613 3.38095093 C-7.7426203 -0.49783407 -4.16716396 -0.04021382 0 0 Z " fill="#1E1F1A" transform="translate(681.2120361328125,557.6190490722656)"/>
<path d="M0 0 C0.65804737 -0.0055344 1.31609473 -0.01106879 1.99408293 -0.0167709 C4.1976528 -0.03037725 6.40008992 -0.01540983 8.6036377 -0.00050354 C10.18392925 -0.00428676 11.7642175 -0.00978682 13.34449768 -0.01687622 C17.63585563 -0.0308479 21.92681342 -0.0196492 26.21814919 -0.00316501 C30.70728502 0.01067659 35.19639741 0.00422643 39.68554688 0.0007019 C47.22455297 -0.00200093 54.76339993 0.01148161 62.30236816 0.03465271 C71.02068728 0.06126293 79.73874028 0.06300983 88.45708609 0.05126435 C96.840978 0.04048819 105.22477357 0.04667235 113.60865784 0.06081963 C117.17796605 0.06658085 120.7472038 0.06649568 124.31651306 0.06175423 C128.51906651 0.05698475 132.72132826 0.06708474 136.92382622 0.08870888 C138.46696934 0.09427735 140.01014049 0.09474148 141.5532856 0.08975601 C143.65832552 0.0838077 145.76247224 0.09629815 147.86743164 0.11352539 C149.04581856 0.11595529 150.22420547 0.11838518 151.43830109 0.12088871 C154.74704621 0.54098785 156.15408275 1.08533534 158.43371582 3.50120544 C159.21526922 8.97207923 159.21526922 8.97207923 158.43371582 11.50120544 C154.6213523 15.25779223 152.1254604 16.00226364 146.82983398 16.00914001 C146.17980486 16.01537998 145.52977574 16.02161994 144.86004877 16.02804899 C142.68957014 16.04395919 140.5202177 16.0313839 138.34973145 16.01878357 C136.79061734 16.02420562 135.23150835 16.03132875 133.67240906 16.0400238 C129.44303754 16.05825042 125.21405656 16.05119249 120.98467827 16.03850746 C116.5574018 16.02837632 112.13015865 16.03777346 107.70288086 16.04405212 C100.26820882 16.0513282 92.83369575 16.04174189 85.39904785 16.02268982 C76.80507813 16.0009211 68.211488 16.0079725 59.61752748 16.02999544 C52.23733411 16.0481506 44.85725498 16.05070721 37.47704649 16.04024076 C33.06986488 16.03400645 28.66286166 16.03316844 24.25569153 16.04638672 C20.11215265 16.05794633 15.9691029 16.0499178 11.82561684 16.02680969 C10.30546696 16.02152315 8.78527589 16.02303551 7.26514244 16.03186035 C5.18873961 16.04280264 3.11390097 16.02907151 1.03759766 16.00914001 C-0.70452877 16.00687786 -0.70452877 16.00687786 -2.48184967 16.00457001 C-6.2495645 15.38969745 -7.92503331 14.22283631 -10.56628418 11.50120544 C-11.12878418 8.00120544 -11.12878418 8.00120544 -10.56628418 4.50120544 C-7.45933693 0.3183117 -5.07968717 0.00090216 0 0 Z " fill="#1B1B17" transform="translate(681.5662841796875,598.4987945556641)"/>
<path d="M0 0 C5.28 0 10.56 0 16 0 C16.41362793 1.95220459 16.82725586 3.90440918 17.25341797 5.91577148 C18.62603926 12.39382834 19.99914975 18.87178144 21.37249565 25.34968472 C22.20445515 29.2740081 23.03625412 33.19836536 23.86767578 37.12280273 C24.67129566 40.91598146 25.47535086 44.70906767 26.27969742 48.50209236 C26.58521895 49.94319491 26.89058834 51.38432973 27.19579697 52.82549858 C29.14762497 62.05770821 29.14762497 62.05770821 31.19189453 71.26977539 C31.85921811 74.35014909 32.29296242 76.87506755 32 80 C31 81 31 81 28.27734375 81.09765625 C27.17519531 81.08605469 26.07304687 81.07445312 24.9375 81.0625 C23.83277344 81.05347656 22.72804688 81.04445313 21.58984375 81.03515625 C20.73519531 81.02355469 19.88054687 81.01195312 19 81 C17.04681327 76.37964652 16.02403811 71.90075379 15 67 C9.72 66.67 4.44 66.34 -1 66 C-1.309375 68.10375 -1.61875 70.2075 -1.9375 72.375 C-2.875 78.75 -2.875 78.75 -4 81 C-7.96 81 -11.92 81 -16 81 C-15.38233746 71.86225676 -13.74752998 63.06679849 -11.875 54.12109375 C-11.5644911 52.61712273 -11.25444067 51.11305698 -10.94482422 49.60890198 C-10.29964622 46.48090926 -9.65046335 43.35378574 -8.99804688 40.22729492 C-8.16132634 36.21700122 -7.33255477 32.20511622 -6.50643921 28.192626 C-5.86878179 25.09786958 -5.22815189 22.00373494 -4.58648682 18.90980721 C-4.27963027 17.42953052 -3.9734337 15.94911687 -3.66790771 14.46856499 C-3.24239923 12.40999544 -2.8131732 10.35223757 -2.3828125 8.29467773 C-2.13934082 7.12428452 -1.89586914 5.9538913 -1.64501953 4.74803162 C-1 2 -1 2 0 0 Z " fill="#1B1B17" transform="translate(302,368)"/>
<path d="M0 0 C1.39456452 0.00667256 2.78911118 0.01863093 4.18359375 0.03515625 C4.89451172 0.03966797 5.60542969 0.04417969 6.33789062 0.04882812 C8.09899388 0.06064761 9.86005411 0.07858362 11.62109375 0.09765625 C14.52199858 8.05661935 16.26355655 16.18103354 17.9765625 24.45703125 C18.28583504 25.93441421 18.59543659 27.41172833 18.90534973 28.88897705 C19.54998253 31.96775474 20.19080864 35.04729272 20.82885742 38.12744141 C21.64554882 42.06853655 22.47157967 46.00760538 23.30041027 49.94616318 C23.93975361 52.98918378 24.57428578 56.03319211 25.20736122 59.07752228 C25.51011676 60.53064468 25.81432879 61.98346443 26.12004662 63.43596649 C26.54608621 65.4638218 26.96564864 67.49291406 27.38354492 69.52246094 C27.74303474 71.25045929 27.74303474 71.25045929 28.10978699 73.0133667 C28.62109375 76.09765625 28.62109375 76.09765625 28.62109375 81.09765625 C24.33109375 81.09765625 20.04109375 81.09765625 15.62109375 81.09765625 C13.58452119 76.00622485 13.10240835 72.47233595 12.62109375 67.09765625 C7.01109375 67.09765625 1.40109375 67.09765625 -4.37890625 67.09765625 C-4.68828125 69.22203125 -4.99765625 71.34640625 -5.31640625 73.53515625 C-6.25390625 79.97265625 -6.25390625 79.97265625 -7.37890625 81.09765625 C-9.39854824 81.17009678 -11.42057749 81.18142813 -13.44140625 81.16015625 C-14.54613281 81.15113281 -15.65085938 81.14210938 -16.7890625 81.1328125 C-17.64371094 81.12121094 -18.49835938 81.10960937 -19.37890625 81.09765625 C-18.84811951 72.44527661 -17.30155232 64.17004566 -15.47265625 55.70703125 C-15.184397 54.34959866 -14.89677092 52.99203148 -14.60974121 51.63433838 C-13.85933286 48.09155891 -13.10178971 44.55034753 -12.34222412 41.00952148 C-11.12520192 35.33083271 -9.91870556 29.64990265 -8.71321106 23.96875763 C-8.29411586 21.99913867 -7.8714014 20.03029092 -7.4486084 18.0614624 C-7.19164185 16.85620911 -6.93467529 15.65095581 -6.66992188 14.40917969 C-6.44421509 13.35647888 -6.2185083 12.30377808 -5.98596191 11.21917725 C-5.53773687 8.91437397 -5.1753662 6.59249075 -4.86071777 4.26568604 C-4.2305642 0.12227064 -4.2305642 0.12227064 0 0 Z " fill="#1B1B17" transform="translate(148.37890625,367.90234375)"/>
<path d="M0 0 C4.95 0 9.9 0 15 0 C17.59909832 7.24579652 19.30025528 14.49683435 20.84765625 22.03125 C21.23370277 23.87789246 21.23370277 23.87789246 21.62754822 25.76184082 C22.30623227 29.01260053 22.98037688 32.26423071 23.65216064 35.51641846 C24.33292918 38.8072554 25.01906895 42.09697096 25.70507812 45.38671875 C26.47886234 49.09763677 27.25200263 52.80866855 28.02076721 56.52062988 C28.2511821 57.63208374 28.48159698 58.7435376 28.71899414 59.88867188 C28.93580841 60.93659912 29.15262268 61.98452637 29.37600708 63.06420898 C30.08285888 66.3898383 30.85128181 69.69831986 31.65794373 73.00109863 C32 75 32 75 32 80 C27.71 80 23.42 80 19 80 C17 74 17 74 16 66 C10.39 66 4.78 66 -1 66 C-1.33 68.64 -1.66 71.28 -2 74 C-2.61238899 76.01728138 -3.25976679 78.02604477 -4 80 C-7.96 80 -11.92 80 -16 80 C-15.34399983 70.54028742 -13.31446356 61.43074931 -11.3125 52.1875 C-10.76951011 49.65263362 -10.22831194 47.11738852 -9.68711853 44.58213806 C-9.32275099 42.87615735 -8.95773005 41.17031607 -8.59205627 39.46461487 C-7.42910187 34.03569768 -6.28863511 28.60266573 -5.171875 23.1640625 C-5.03295334 22.48779312 -4.89403168 21.81152374 -4.75090027 21.11476135 C-4.10353953 17.95937662 -3.45878191 14.80347099 -2.81567383 11.6472168 C-2.58904053 10.54289307 -2.36240723 9.43856934 -2.12890625 8.30078125 C-1.93369385 7.34341064 -1.73848145 6.38604004 -1.53735352 5.3996582 C-1 3 -1 3 0 0 Z " fill="#1C1C18" transform="translate(372,571)"/>
<path d="M0 0 C4.83586399 2.22076157 8.27480009 5.99230792 10.3125 10.890625 C11.64118124 15.57791715 11.67299863 20.09353842 11.5 24.9375 C6.88 24.9375 2.26 24.9375 -2.5 24.9375 C-2.603125 23.535 -2.70625 22.1325 -2.8125 20.6875 C-3.13865584 17.96238212 -3.50580622 15.92349676 -4.5625 13.375 C-7.21194312 11.40928413 -9.32932187 11.41269229 -12.5625 11.30859375 C-14.672859 11.80544229 -14.672859 11.80544229 -16.09619141 13.82617188 C-18.12826284 18.32994898 -17.92910325 22.46028373 -17.8984375 27.34765625 C-17.90130768 28.35211288 -17.90417786 29.35656952 -17.90713501 30.39146423 C-17.90917269 32.51041224 -17.9036636 34.62937919 -17.89111328 36.74829102 C-17.87503902 39.99212628 -17.8909811 43.23471874 -17.91015625 46.47851562 C-17.9081741 48.53906525 -17.904331 50.5996141 -17.8984375 52.66015625 C-17.90451019 53.63001968 -17.91058289 54.59988312 -17.9168396 55.59913635 C-17.90265488 56.95590736 -17.90265488 56.95590736 -17.88818359 58.34008789 C-17.88579681 59.13330948 -17.88341003 59.92653107 -17.88095093 60.74378967 C-17.40297364 63.49622739 -16.3692774 64.89119051 -14.5 66.9375 C-12.56899083 67.60099794 -12.56899083 67.60099794 -10.5 67.5 C-9.4790625 67.53287109 -9.4790625 67.53287109 -8.4375 67.56640625 C-6.28916915 67.06145828 -6.28916915 67.06145828 -4.79296875 64.859375 C-3.2350876 61.338846 -2.99183427 58.46275334 -2.8125 54.625 C-2.74675781 53.37074219 -2.68101562 52.11648438 -2.61328125 50.82421875 C-2.57589844 49.87160156 -2.53851563 48.91898437 -2.5 47.9375 C-5.14 47.9375 -7.78 47.9375 -10.5 47.9375 C-10.5 44.3075 -10.5 40.6775 -10.5 36.9375 C-7.02078265 36.91066799 -3.54176961 36.8907433 -0.0625 36.875 C1.42733398 36.86243164 1.42733398 36.86243164 2.94726562 36.84960938 C4.36362305 36.84477539 4.36362305 36.84477539 5.80859375 36.83984375 C6.68314209 36.83460693 7.55769043 36.82937012 8.45874023 36.82397461 C10.5 36.9375 10.5 36.9375 11.5 37.9375 C11.65049829 42.29160105 11.44565203 46.64660554 11.3125 51 C11.29380859 52.21623047 11.27511719 53.43246094 11.25585938 54.68554688 C11.01885485 62.34869327 10.49692043 68.54464817 5.12475586 74.44897461 C-0.77266905 79.81070636 -6.86231368 80.40197086 -14.52734375 80.25 C-20.31206893 79.64188172 -24.48442259 77.34777367 -28.375 73.0625 C-32.78488296 66.57737801 -32.81924264 60.54496273 -32.8359375 52.94921875 C-32.8425943 51.8914473 -32.8492511 50.83367584 -32.85610962 49.74385071 C-32.86621242 47.51064791 -32.87092738 45.27741508 -32.87060547 43.04418945 C-32.874972 39.64678588 -32.91130002 36.25068908 -32.94921875 32.85351562 C-32.95508889 30.67708774 -32.95905696 28.50065373 -32.9609375 26.32421875 C-32.97530853 25.31767746 -32.98967957 24.31113617 -33.00448608 23.27409363 C-32.95970473 16.28047018 -31.92968794 9.70051031 -27.05258179 4.34941101 C-19.43577138 -2.27066396 -9.5708643 -3.00480623 0 0 Z " fill="#1A1A16" transform="translate(267.5,369.0625)"/>
<path d="M0 0 C4.29 0 8.58 0 13 0 C13.06796293 8.33678669 13.1229234 16.67335549 13.15543652 25.01034546 C13.17104659 28.88216502 13.19219875 32.75378408 13.22631836 36.62548828 C13.25907934 40.36672925 13.276888 44.10777819 13.28463173 47.84915161 C13.29014538 49.27160664 13.30091183 50.69405199 13.31719017 52.11642456 C13.50134044 68.88451315 13.50134044 68.88451315 8.0625 75.27734375 C7.381875 75.82519531 6.70125 76.37304688 6 76.9375 C5.319375 77.50339844 4.63875 78.06929687 3.9375 78.65234375 C-1.49298286 82.42959493 -8.69777135 81.4756399 -15 81 C-21.43263354 79.50544778 -24.45488654 75.65489445 -27.87109375 70.21875 C-29.98635876 66.06141255 -30.1227998 62.39989971 -30.11352539 57.76269531 C-30.11344986 56.50169006 -30.11337433 55.24068481 -30.11329651 53.94146729 C-30.10819028 52.57035279 -30.1029743 51.19923869 -30.09765625 49.828125 C-30.09579028 48.42136689 -30.09436722 47.01460812 -30.09336853 45.60784912 C-30.08955744 41.91219273 -30.0797392 38.21657587 -30.06866455 34.52093506 C-30.05842014 30.74703506 -30.05386442 26.97312865 -30.04882812 23.19921875 C-30.03811563 15.79945909 -30.02053027 8.39974013 -30 1 C-25.71 1 -21.42 1 -17 1 C-16.96036133 2.91780273 -16.92072266 4.83560547 -16.87988281 6.81152344 C-16.74430032 13.15028174 -16.59074903 19.48840558 -16.42494583 25.82644272 C-16.32508277 29.66897916 -16.2324255 33.51140739 -16.15625 37.35449219 C-16.08245978 41.06384026 -15.98972345 44.77227576 -15.88387299 48.48084259 C-15.84682863 49.89524566 -15.81659617 51.30984421 -15.79331207 52.72454071 C-15.75951475 54.70705052 -15.69917515 56.68905393 -15.63769531 58.67089844 C-15.61104797 59.79896912 -15.58440063 60.92703979 -15.5569458 62.08929443 C-14.8786196 65.63435724 -13.88619308 66.87855164 -11 69 C-7.32585605 69 -4.99389058 68.98158971 -2.31217957 66.33306885 C-0.60681781 63.300918 -0.60181404 61.14430679 -0.56762695 57.67089844 C-0.54783279 56.38987244 -0.52803864 55.10884644 -0.50764465 53.78900146 C-0.50087537 52.39579414 -0.49442845 51.00258521 -0.48828125 49.609375 C-0.47143132 48.18018043 -0.45328065 46.75100065 -0.43388367 45.32183838 C-0.38641104 41.56706362 -0.3565843 37.81234884 -0.33044434 34.05737305 C-0.30062478 30.22302405 -0.2540993 26.38888164 -0.20898438 22.5546875 C-0.12298235 15.03654317 -0.05716836 7.518429 0 0 Z " fill="#1C1C18" transform="translate(259,570)"/>
<path d="M0 0 C6.05162085 6.05162085 5.83763501 13.05615503 6.1875 21.1875 C4.04173363 21.21435938 1.89587355 21.23383088 -0.25 21.25 C-1.44496094 21.26160156 -2.63992187 21.27320313 -3.87109375 21.28515625 C-6.8125 21.1875 -6.8125 21.1875 -7.8125 20.1875 C-8.30581124 17.6447048 -8.71228037 15.0934331 -9.1171875 12.53515625 C-9.64361044 9.83767477 -9.64361044 9.83767477 -12.8125 8.1875 C-16.38426115 8.26917489 -16.38426115 8.26917489 -19.8125 9.1875 C-21.92462504 12.35568756 -22.14406464 14.31969252 -22.37109375 18.0546875 C-20.92589628 23.57271422 -14.32891338 27.18513392 -9.9375 30.5 C3.28169082 40.68304785 3.28169082 40.68304785 6.1875 48.1875 C7.01893693 56.03781152 7.22083174 63.73701661 2.1875 70.1875 C-4.04042208 76.10402598 -8.98263783 76.57223593 -17.390625 76.44140625 C-23.66466186 75.97586699 -28.3200765 73.6799235 -32.8125 69.1875 C-36.36267052 63.18893601 -36.06787269 58.08256273 -35.8125 51.1875 C-31.5225 51.1875 -27.2325 51.1875 -22.8125 51.1875 C-22.421875 53.69401042 -22.03125 56.20052083 -21.640625 58.70703125 C-20.61829452 61.76920038 -19.64754185 62.68897788 -16.8125 64.1875 C-14.66580075 64.33847805 -14.66580075 64.33847805 -12.5625 63.875 C-11.325 63.648125 -10.0875 63.42125 -8.8125 63.1875 C-7.71081177 55.14726239 -7.71081177 55.14726239 -10.4296875 47.82421875 C-12.78635107 45.73173632 -15.19942532 43.94963105 -17.8125 42.1875 C-19.71150938 40.83779086 -21.6073251 39.4835776 -23.5 38.125 C-24.42039063 37.46628906 -25.34078125 36.80757812 -26.2890625 36.12890625 C-31.53739647 32.09110132 -35.45888302 27.82022321 -36.8125 21.1875 C-37.41822538 13.79765038 -36.01466911 7.5641593 -31.9375 1.3125 C-22.98472156 -7.64027844 -10.04130878 -6.47106566 0 0 Z " fill="#191A16" transform="translate(163.8125,574.8125)"/>
<path d="M0 0 C4.01406188 4.01406188 6.05175256 8.90784187 6.28515625 14.546875 C6.27355469 15.33578125 6.26195312 16.1246875 6.25 16.9375 C6.24097656 17.73671875 6.23195313 18.5359375 6.22265625 19.359375 C6.21105469 19.96265625 6.19945312 20.5659375 6.1875 21.1875 C4.04173363 21.21435938 1.89587355 21.23383088 -0.25 21.25 C-1.44496094 21.26160156 -2.63992188 21.27320313 -3.87109375 21.28515625 C-6.8125 21.1875 -6.8125 21.1875 -7.8125 20.1875 C-8.30581124 17.6447048 -8.71228037 15.0934331 -9.1171875 12.53515625 C-9.64361044 9.83767477 -9.64361044 9.83767477 -12.8125 8.1875 C-15.8125 7.6875 -15.8125 7.6875 -18.8125 8.1875 C-21.59710056 10.50800046 -21.79367226 12.01491235 -22.1875 15.625 C-21.66141605 20.62279748 -20.06351397 23.14123156 -16.2109375 26.36328125 C-14.71433594 27.42095703 -14.71433594 27.42095703 -13.1875 28.5 C3.93859675 41.04393285 3.93859675 41.04393285 6.1875 50.1875 C7.40191274 58.15124507 5.88040592 64.61254327 1.1875 71.1875 C-4.29982965 76.37302652 -10.32864296 76.47833823 -17.51171875 76.3984375 C-23.26351717 76.03086695 -27.73772506 74.74172739 -31.6875 70.3125 C-36.12489107 63.7869249 -35.99897803 58.92633805 -35.8125 51.1875 C-31.5225 51.1875 -27.2325 51.1875 -22.8125 51.1875 C-22.1525 55.1475 -21.4925 59.1075 -20.8125 63.1875 C-15.36392846 64.45567539 -15.36392846 64.45567539 -10.3125 62.8125 C-8.15236718 59.03226757 -7.71029151 55.41833754 -8.8125 51.1875 C-12.15783048 46.44569576 -15.89058455 43.48544623 -20.6875 40.3125 C-27.13917093 35.86457888 -32.67679755 31.45890491 -36.25 24.3125 C-37.71389451 16.1797527 -37.35946572 9.28862548 -32.8125 2.1875 C-24.12339603 -7.81961412 -10.26959368 -6.61818259 0 0 Z " fill="#1B1B17" transform="translate(598.8125,574.8125)"/>
<path d="M0 0 C13.53 0 27.06 0 41 0 C41 3.63 41 7.26 41 11 C40 12 40 12 37.49975586 12.11352539 C36.41573486 12.10828857 35.33171387 12.10305176 34.21484375 12.09765625 C33.04501953 12.09443359 31.87519531 12.09121094 30.66992188 12.08789062 C29.43822266 12.07951172 28.20652344 12.07113281 26.9375 12.0625 C25.08415039 12.05573242 25.08415039 12.05573242 23.19335938 12.04882812 C20.12888587 12.03699618 17.06443707 12.01906008 14 12 C14 19.59 14 27.18 14 35 C19.61 35 25.22 35 31 35 C31 38.96 31 42.92 31 47 C25.39 47 19.78 47 14 47 C14 53.93 14 60.86 14 68 C15.86527344 67.98839844 17.73054688 67.97679687 19.65234375 67.96484375 C22.08072817 67.95546775 24.50911367 67.94636735 26.9375 67.9375 C28.78504883 67.92493164 28.78504883 67.92493164 30.66992188 67.91210938 C31.83974609 67.90888672 33.00957031 67.90566406 34.21484375 67.90234375 C35.84087524 67.89448853 35.84087524 67.89448853 37.49975586 67.88647461 C40 68 40 68 41 69 C41 72.63 41 76.26 41 80 C27.47 80 13.94 80 0 80 C0 53.6 0 27.2 0 0 Z " fill="#1F1F1A" transform="translate(133,470)"/>
<path d="M0 0 C13.2 0 26.4 0 40 0 C40 3.96 40 7.92 40 12 C31.42 12 22.84 12 14 12 C14 19.26 14 26.52 14 34 C19.28 34 24.56 34 30 34 C30 37.96 30 41.92 30 46 C24.72 46 19.44 46 14 46 C14 52.93 14 59.86 14 67 C22.58 67 31.16 67 40 67 C40 70.96 40 74.92 40 79 C38.15723491 80.84276509 35.57036241 80.12874411 33.11865234 80.13894653 C32.29574707 80.1369223 31.4728418 80.13489807 30.625 80.1328125 C29.78533691 80.13376923 28.94567383 80.13472595 28.08056641 80.13571167 C26.30175705 80.13639348 24.52294523 80.13453917 22.74414062 80.13037109 C20.01166224 80.12502283 17.27934824 80.13031605 14.546875 80.13671875 C12.8229163 80.13605797 11.09895771 80.13477681 9.375 80.1328125 C8.55209473 80.13483673 7.72918945 80.13686096 6.88134766 80.13894653 C1.11495054 80.11495054 1.11495054 80.11495054 0 79 C-0.09500548 76.53555943 -0.12557985 74.09925374 -0.11352539 71.63452148 C-0.11367142 70.86384338 -0.11381744 70.09316528 -0.1139679 69.2991333 C-0.1132686 66.73975861 -0.10547545 64.1804558 -0.09765625 61.62109375 C-0.09579213 59.85132385 -0.0943682 58.08155344 -0.09336853 56.31178284 C-0.08954288 51.64448634 -0.0797122 46.97722077 -0.06866455 42.30993652 C-0.05665707 36.714924 -0.05204841 31.11990116 -0.04621124 25.52487946 C-0.03650047 17.01656477 -0.01734425 8.50831798 0 0 Z " fill="#1D1D19" transform="translate(82,571)"/>
<path d="M0 0 C12.87 0 25.74 0 39 0 C39 3.96 39 7.92 39 12 C30.75 12 22.5 12 14 12 C14 19.26 14 26.52 14 34 C19.28 34 24.56 34 30 34 C30 37.96 30 41.92 30 46 C24.72 46 19.44 46 14 46 C14 52.93 14 59.86 14 67 C22.25 67 30.5 67 39 67 C39 71.29 39 75.58 39 80 C33.60653012 80.02464849 28.21309275 80.04283531 22.81958008 80.05493164 C20.98331125 80.05997231 19.14704646 80.06680477 17.31079102 80.07543945 C14.67723599 80.08751672 12.04373384 80.09323081 9.41015625 80.09765625 C8.17109276 80.10539818 8.17109276 80.10539818 6.90699768 80.11329651 C4.93763632 80.11349205 2.96838386 80.06204152 1 80 C-0.7082941 78.2917059 -0.11971926 76.13995623 -0.12442017 73.86213684 C-0.12082489 73.12702377 -0.11722961 72.39191071 -0.11352539 71.63452148 C-0.11367142 70.86384338 -0.11381744 70.09316528 -0.1139679 69.2991333 C-0.1132686 66.73975861 -0.10547545 64.1804558 -0.09765625 61.62109375 C-0.09579213 59.85132385 -0.0943682 58.08155344 -0.09336853 56.31178284 C-0.08954288 51.64448634 -0.0797122 46.97722077 -0.06866455 42.30993652 C-0.05665707 36.714924 -0.05204841 31.11990116 -0.04621124 25.52487946 C-0.03650047 17.01656477 -0.01734425 8.50831798 0 0 Z " fill="#1F1F1B" transform="translate(518,571)"/>
<path d="M0 0 C4.62960147 3.01759586 6.62282737 6.92548111 7.83984375 12.19921875 C7.98849913 15.2218781 7.93166741 18.16903804 7.83984375 21.19921875 C3.54984375 21.19921875 -0.74015625 21.19921875 -5.16015625 21.19921875 C-5.61588542 18.92057292 -6.07161458 16.64192708 -6.52734375 14.36328125 C-7.02674557 12.01247952 -7.02674557 12.01247952 -9.16015625 10.19921875 C-13.76898674 9.65446038 -13.76898674 9.65446038 -17.8575592 11.42030334 C-19.54952244 13.73096378 -19.54612687 15.12381172 -19.56420898 17.97436523 C-19.58323524 19.42618446 -19.58323524 19.42618446 -19.60264587 20.90733337 C-19.59971024 21.95111649 -19.5967746 22.9948996 -19.59375 24.0703125 C-19.60161278 25.6811245 -19.60161278 25.6811245 -19.6096344 27.32447815 C-19.61606072 29.59659968 -19.61470976 31.86875445 -19.60620117 34.14086914 C-19.59769735 37.61990575 -19.62643596 41.09729783 -19.65820312 44.57617188 C-19.65981532 46.78255159 -19.65923725 48.98893422 -19.65625 51.1953125 C-19.66748398 52.23707138 -19.67871796 53.27883026 -19.69029236 54.35215759 C-19.71208445 59.96314412 -19.71208445 59.96314412 -17.32055664 64.88305664 C-15.1457066 66.45622804 -15.1457066 66.45622804 -12.09765625 66.26171875 C-9.04708285 65.43906642 -9.04708285 65.43906642 -7.34765625 63.01171875 C-5.84946828 59.76715844 -5.84946828 59.76715844 -5.16015625 54.19921875 C-0.87015625 54.19921875 3.41984375 54.19921875 7.83984375 54.19921875 C8.12748056 60.33547062 8.2416189 65.87275502 4.83984375 71.19921875 C-1.63891299 77.40802729 -7.03685406 78.5082933 -15.859375 78.41015625 C-21.58149119 78.04448255 -26.06711323 76.7561534 -30.03515625 72.38671875 C-34.50374455 65.6838363 -34.46763832 59.51580337 -34.4609375 51.703125 C-34.46522263 50.59621811 -34.46950775 49.48931122 -34.47392273 48.34886169 C-34.47965351 46.01309898 -34.48017554 43.67731843 -34.47583008 41.34155273 C-34.47267026 37.77752101 -34.49614547 34.21431984 -34.52148438 30.65039062 C-34.52375757 28.37630313 -34.52446077 26.1022134 -34.5234375 23.828125 C-34.53264725 22.76751358 -34.54185699 21.70690216 -34.55134583 20.614151 C-34.505508 13.24656359 -33.69127631 8.29280993 -28.91015625 2.44921875 C-20.47227537 -4.45450197 -9.67078931 -4.98404151 0 0 Z " fill="#181815" transform="translate(114.16015625,370.80078125)"/>
<path d="M0 0 C1.68835968 -0.00810448 1.68835968 -0.00810448 3.41082764 -0.01637268 C7.13613069 -0.02889284 10.86066591 -0.01234609 14.5859375 0.00561523 C17.17138713 0.00546032 19.756837 0.00397267 22.34228516 0.00120544 C27.76280838 -0.00018003 33.18304779 0.0119714 38.60351562 0.03515625 C44.86794517 0.0617657 51.13200433 0.06351291 57.39647102 0.05176789 C63.42572677 0.04098391 69.45481294 0.04728288 75.48406982 0.06132317 C78.04855967 0.06584518 80.61306042 0.06616795 83.17755127 0.06225777 C86.75922106 0.05935324 90.34028205 0.07581727 93.921875 0.09765625 C94.98589539 0.0931546 96.04991577 0.08865295 97.1461792 0.08401489 C98.12193909 0.09391953 99.09769897 0.10382416 100.10302734 0.11402893 C100.94956879 0.11645883 101.79611023 0.11888872 102.66830444 0.12139225 C105.48716489 0.58900297 106.87861772 1.57673098 108.9609375 3.50170898 C109.45703125 5.43920898 109.45703125 5.43920898 109.3984375 7.50170898 C109.39714844 8.18233398 109.39585937 8.86295898 109.39453125 9.56420898 C108.82760987 12.0974793 107.98890527 12.89785185 105.9609375 14.50170898 C103.75732422 14.88202572 103.75732422 14.88202572 101.140625 14.88938904 C99.65163696 14.90424599 99.65163696 14.90424599 98.13256836 14.91940308 C97.04468018 14.91490143 95.95679199 14.91039978 94.8359375 14.90576172 C93.68939697 14.91262497 92.54285645 14.91948822 91.36157227 14.92655945 C87.56123569 14.94490231 83.76130895 14.94097944 79.9609375 14.93530273 C77.32682154 14.93986064 74.69270677 14.94516503 72.05859375 14.95118713 C66.53381408 14.96122219 61.00915142 14.95791091 55.484375 14.94775391 C49.09549907 14.93626796 42.70704269 14.95035443 36.31822205 14.97715038 C30.1741747 15.00195606 24.03032132 15.0044896 17.88623047 14.99803352 C15.27066347 14.99787974 12.65508861 15.00397078 10.03955078 15.016325 C6.38802538 15.03114235 2.73743297 15.02062536 -0.9140625 15.00341797 C-2.00195068 15.01308594 -3.08983887 15.02275391 -4.21069336 15.03271484 C-5.20335205 15.02288071 -6.19601074 15.01304657 -7.21875 15.00291443 C-8.08226074 15.00270514 -8.94577148 15.00249586 -9.83544922 15.00228024 C-12.0390625 14.50170898 -12.0390625 14.50170898 -13.81298828 12.65788364 C-15.4929502 9.70350188 -15.52713436 7.84848744 -15.0390625 4.50170898 C-11.56006684 -1.10708394 -5.89037984 -0.05352154 0 0 Z " fill="#181814" transform="translate(686.0390625,640.498291015625)"/>
<path d="M0 0 C4.16070988 2.45401008 7.5280392 5.28012157 10.92578125 8.6953125 C11.80427734 9.57574219 12.68277344 10.45617187 13.58789062 11.36328125 C14.48701172 12.27464844 15.38613281 13.18601562 16.3125 14.125 C17.23095703 15.04410156 18.14941406 15.96320312 19.09570312 16.91015625 C26.81853192 24.68435641 26.81853192 24.68435641 27.5 29.625 C27.37611117 35.38583073 23.93645548 38.1614663 20 42 C18.95279481 43.05567499 17.90734273 44.11309078 16.86328125 45.171875 C13.93002563 48.13642795 10.97080462 51.0730989 8 54 C5.11094564 52.69189672 3.05300193 51.29916484 0.82373047 49.05078125 C0.22986542 48.45676514 -0.36399963 47.86274902 -0.9758606 47.25073242 C-1.91980179 46.29130737 -1.91980179 46.29130737 -2.8828125 45.3125 C-3.86602982 44.32503784 -3.86602982 44.32503784 -4.86911011 43.31762695 C-6.95915492 41.2164061 -9.04213811 39.10833886 -11.125 37 C-12.5346947 35.58027073 -13.94484587 34.16099455 -15.35546875 32.7421875 C-18.45704685 29.62095604 -21.55419007 26.49540023 -24.64749146 23.3659668 C-25.76168244 22.24068896 -26.88025186 21.11974814 -28 20 C-24.87904935 16.85012694 -21.75257094 13.70579867 -18.625 10.5625 C-17.73554687 9.66466797 -16.84609375 8.76683594 -15.9296875 7.84179688 C-14.65351562 6.56079102 -14.65351562 6.56079102 -13.3515625 5.25390625 C-12.56604004 4.46314697 -11.78051758 3.6723877 -10.97119141 2.85766602 C-7.43224061 -0.47746857 -4.79710522 -0.39975877 0 0 Z " fill="#1B1C18" transform="translate(935,542)"/>
<path d="M0 0 C15.18 0 30.36 0 46 0 C46 3.96 46 7.92 46 12 C40.72 12 35.44 12 30 12 C30 34.44 30 56.88 30 80 C25.71 80 21.42 80 17 80 C15.66183231 57.34673267 15.90160467 34.68239492 16 12 C10.72 12 5.44 12 0 12 C0 8.04 0 4.08 0 0 Z " fill="#1E1F1B" transform="translate(464,571)"/>
<path d="M0 0 C14.85 0 29.7 0 45 0 C45 3.96 45 7.92 45 12 C40.05 12.33 35.1 12.66 30 13 C29.67 35.11 29.34 57.22 29 80 C24.71 80 20.42 80 16 80 C16 57.56 16 35.12 16 12 C10.72 12 5.44 12 0 12 C0 8.04 0 4.08 0 0 Z " fill="#181915" transform="translate(176,571)"/>
<path d="M0 0 C0.88158783 -0.00846954 1.76317566 -0.01693909 2.67147827 -0.02566528 C5.59045777 -0.04909588 8.50891203 -0.050056 11.42797852 -0.04882812 C13.45435295 -0.05592606 15.48072537 -0.06362451 17.50709534 -0.07189941 C21.75657741 -0.08535817 26.00587365 -0.08690672 30.25537109 -0.08105469 C35.7044403 -0.07515743 41.15261889 -0.10574499 46.60151577 -0.14617157 C50.7871024 -0.17200533 54.97247337 -0.17492991 59.15812874 -0.17127991 C61.16721905 -0.17297522 63.17631888 -0.18265713 65.18533134 -0.20042419 C67.99395432 -0.22252851 70.80075893 -0.21295581 73.609375 -0.1953125 C74.85710945 -0.21520737 74.85710945 -0.21520737 76.13005066 -0.23550415 C80.0904575 -0.17761624 81.95291796 0.03686411 84.91688538 2.76306152 C86.36938477 5.41992188 86.36938477 5.41992188 86.36938477 8.54492188 C85.17024186 11.99245774 84.55205649 12.69063157 81.36938477 14.41992188 C78.41521852 14.72092822 75.67153719 14.85039125 72.71704102 14.83984375 C71.84506073 14.84831329 70.97308044 14.85678284 70.07467651 14.86550903 C67.19359742 14.88890002 64.31305161 14.8899008 61.43188477 14.88867188 C59.4293598 14.89577143 57.42683687 14.90347012 55.42431641 14.91174316 C51.22788842 14.92519225 47.03164859 14.92675446 42.83520508 14.92089844 C37.45454173 14.91499747 32.07477917 14.94560851 26.69429016 14.98601532 C22.55931728 15.01184735 18.42456271 15.01477391 14.28952026 15.01112366 C12.30554945 15.01281866 10.32156896 15.02249764 8.337677 15.04026794 C5.56507788 15.06237242 2.79432064 15.05280016 0.02172852 15.03515625 C-1.20962326 15.05505112 -1.20962326 15.05505112 -2.46585083 15.0753479 C-6.40441376 15.01702948 -8.23000234 14.78880629 -11.17529297 12.07678223 C-12.63061523 9.41992188 -12.63061523 9.41992188 -12.56811523 6.29492188 C-10.40619407 -0.33496971 -6.29648364 -0.02212935 0 0 Z " fill="#191A16" transform="translate(682.630615234375,681.580078125)"/>
<path d="M0 0 C5.76184333 3.43764762 9.38834841 7.68743009 11.58203125 14.0546875 C12.49620725 21.16612636 11.82196298 27.1689928 7.58203125 33.0546875 C3.2950022 37.58668964 -2.52749044 39.82350458 -8.71875 40.19140625 C-15.80950808 39.76277666 -20.96505882 36.63669795 -25.79296875 31.5546875 C-29.50902639 25.83767575 -30.24058448 20.80013649 -29.41796875 14.0546875 C-27.60627378 8.12550396 -24.44600716 4.54353048 -19.41796875 1.0546875 C-13.40675481 -1.79963053 -6.2790397 -2.45481035 0 0 Z " fill="#1C1C18" transform="translate(699.41796875,495.9453125)"/>
<path d="M0 0 C4.62 0 9.24 0 14 0 C14 26.4 14 52.8 14 80 C9.71 80 5.42 80 1 80 C-0.7082941 78.2917059 -0.11971926 76.13995623 -0.12442017 73.86213684 C-0.12082489 73.12702377 -0.11722961 72.39191071 -0.11352539 71.63452148 C-0.11367142 70.86384338 -0.11381744 70.09316528 -0.1139679 69.2991333 C-0.1132686 66.73975861 -0.10547545 64.1804558 -0.09765625 61.62109375 C-0.09579213 59.85132385 -0.0943682 58.08155344 -0.09336853 56.31178284 C-0.08954288 51.64448634 -0.0797122 46.97722077 -0.06866455 42.30993652 C-0.05845144 37.55102965 -0.05387113 32.79211779 -0.04882812 28.03320312 C-0.03808997 18.68878847 -0.02101299 9.3443968 0 0 Z " fill="#282923" transform="translate(334,571)"/>
<path d="M0 0 C1.01755371 -0.00788544 1.01755371 -0.00788544 2.05566406 -0.01593018 C4.29776035 -0.02913276 6.53914651 -0.02039179 8.78125 -0.01025391 C10.3391941 -0.01227458 11.89713727 -0.01518597 13.45507812 -0.01895142 C16.72014369 -0.0233751 19.98496305 -0.0169425 23.25 -0.00292969 C27.43676349 0.01416247 31.62295007 0.00432148 35.80969238 -0.01364708 C39.02673699 -0.02448387 42.24364465 -0.02103911 45.46069336 -0.0132637 C47.0044766 -0.01126139 48.54827225 -0.01372207 50.09204102 -0.02070236 C52.24919604 -0.02831541 54.40541478 -0.01671613 56.5625 0 C57.79033203 0.00238678 59.01816406 0.00477356 60.28320312 0.00723267 C63.28125 0.38818359 63.28125 0.38818359 65.17382812 1.69760132 C67.07630246 4.60190496 66.6928369 7.03669026 66.28125 10.38818359 C64.08788783 13.38078773 62.89703578 14.28798834 59.20091248 14.88938904 C57.38914268 14.88963829 57.38914268 14.88963829 55.54077148 14.88989258 C54.87200989 14.89529556 54.20324829 14.90069855 53.51422119 14.90626526 C51.30980802 14.91874465 49.10670288 14.90227064 46.90234375 14.88427734 C45.36824983 14.88443233 43.83415552 14.88592132 42.30006409 14.88868713 C39.08796845 14.8900707 35.87631958 14.87751943 32.66430664 14.85473633 C28.54592382 14.82632737 24.42828188 14.82909582 20.30984402 14.84182644 C17.14339359 14.84877853 13.97711465 14.84100022 10.81068611 14.82856941 C9.29203003 14.82405199 7.77335556 14.82372066 6.2546978 14.82763481 C4.13352527 14.83054318 2.01337709 14.81406099 -0.10766602 14.79223633 C-1.31471695 14.78683334 -2.52176788 14.78143036 -3.76539612 14.77586365 C-6.71875 14.38818359 -6.71875 14.38818359 -8.60704041 12.98402405 C-9.99335012 10.99399973 -10.12115392 9.79972855 -10.09375 7.38818359 C-10.10148438 6.70755859 -10.10921875 6.02693359 -10.1171875 5.32568359 C-8.98685409 -0.17083966 -4.86749578 0.00946191 0 0 Z " fill="#1A1A17" transform="translate(736.71875,503.61181640625)"/>
<path d="M0 0 C9.22222222 0 9.22222222 0 13 3 C15.07379154 6.11068731 15.25796562 6.85221304 15.30639648 10.39208984 C15.32238388 11.27665863 15.33837128 12.16122742 15.35484314 13.07260132 C15.36020584 14.02575226 15.36556854 14.9789032 15.37109375 15.9609375 C15.38012222 16.94365631 15.3891507 17.92637512 15.39845276 18.93887329 C15.41296382 21.01846262 15.42184412 23.0980977 15.42553711 25.17773438 C15.43742986 28.35625325 15.48660454 31.53282866 15.53710938 34.7109375 C15.54657401 36.73176136 15.55380885 38.75259714 15.55859375 40.7734375 C15.57812607 41.72253998 15.59765839 42.67164246 15.61778259 43.64950562 C15.58833016 47.96664195 15.36964234 50.39245032 13.09008789 54.13916016 C10 56 10 56 0 56 C0 37.52 0 19.04 0 0 Z " fill="#FEFCF5" transform="translate(95,482)"/>
<path d="M0 0 C9 0 9 0 12 1.8125 C14.76121664 4.8325807 15.12456729 7.26682668 15.19287109 11.20849609 C15.20893402 12.05302338 15.22499695 12.89755066 15.24154663 13.76766968 C15.28612179 17.61951759 15.32704271 21.47119669 15.35009766 25.32324219 C15.36667095 27.35428311 15.39397897 29.38526539 15.43212891 31.41601562 C15.48690051 34.34796321 15.50876974 37.27854723 15.5234375 40.2109375 C15.54610687 41.11629242 15.56877625 42.02164734 15.59213257 42.95443726 C15.57799948 47.17363758 15.33595766 49.45199433 13.09228516 53.11181641 C10 55 10 55 0 55 C0 36.85 0 18.7 0 0 Z " fill="#FEFCF5" transform="translate(296,583)"/>
<path d="M0 0 C2.44655361 -0.30140101 4.64215035 -0.4044914 7.09178162 -0.38095093 C7.83049675 -0.3856309 8.56921188 -0.39031087 9.33031231 -0.39513266 C11.81861394 -0.40714877 14.30637151 -0.39759994 16.79467773 -0.38818359 C18.57333703 -0.39224641 20.3519938 -0.39758664 22.13064575 -0.40411377 C26.97154601 -0.41782877 31.81225516 -0.41247126 36.6531589 -0.40297651 C41.71132864 -0.39540034 46.76948162 -0.40241993 51.82765198 -0.40713501 C60.32434029 -0.41259904 68.82095049 -0.40538453 77.31762695 -0.39111328 C87.14926113 -0.37479078 96.98070865 -0.38006978 106.81233829 -0.3965925 C115.24294525 -0.41019522 123.67349592 -0.41213282 132.1041103 -0.40427649 C137.14393077 -0.39959261 142.18366344 -0.3989946 147.22347832 -0.40888596 C151.96194213 -0.41753552 156.70016476 -0.41157061 161.43860245 -0.39420319 C163.18051439 -0.39022734 164.92244654 -0.39139107 166.66435051 -0.39799118 C169.03692174 -0.40615379 171.40871357 -0.39594985 173.78123474 -0.38095093 C174.47539362 -0.38764309 175.1695525 -0.39433526 175.88474649 -0.40123022 C178.71972954 -0.36631592 180.56261666 -0.3171998 182.89648533 1.37537193 C184.44358345 3.65305713 184.86870203 5.24274262 185 8 C183.8584081 10.2831838 182.80987317 12.19012683 181 14 C178.68153671 14.10646134 176.39250764 14.14778651 174.07316589 14.14717102 C173.34009431 14.15084771 172.60702272 14.1545244 171.85173684 14.1583125 C169.37665553 14.1693924 166.90161613 14.17320042 164.42651367 14.17700195 C162.6594784 14.18326335 160.89244446 14.18990985 159.12541199 14.19691467 C154.31131117 14.21435445 149.4972203 14.22488447 144.68309569 14.2331202 C141.67810056 14.23826391 138.67310855 14.24433991 135.66811562 14.25063133 C126.27404381 14.26969146 116.87997991 14.283921 107.48589247 14.2922433 C96.62740321 14.30202063 85.76911752 14.32834965 74.91070002 14.36874419 C66.52767007 14.39886411 58.14469861 14.41370824 49.76161557 14.41702431 C44.75019236 14.4193795 39.73898644 14.42840041 34.72762108 14.45348549 C30.0137734 14.47669927 25.3002871 14.48102656 20.58639717 14.47072411 C18.85456519 14.470227 17.12271582 14.47659866 15.39093781 14.49028015 C13.02944951 14.50789512 10.66927274 14.50094546 8.30778503 14.48774719 C7.61974783 14.49871644 6.93171062 14.50968568 6.2228238 14.52098733 C2.90058626 14.47604783 1.23404484 14.17819665 -1.44111156 12.1413908 C-3.32415555 9.5547188 -3.34781264 8.13031372 -3 5 C-2.34 4.67 -1.68 4.34 -1 4 C-0.814375 5.7015625 -0.814375 5.7015625 -0.625 7.4375 C-0.315625 9.2009375 -0.315625 9.2009375 0 11 C2.95559611 12.47779805 5.59521727 12.12942851 8.89523315 12.13371277 C9.61282496 12.13597833 10.33041676 12.13824388 11.06975377 12.14057809 C13.48646005 12.14693378 15.90311048 12.14608772 18.31982422 12.14526367 C20.04759799 12.1482542 21.77537109 12.15165648 23.50314331 12.15544128 C28.20562638 12.16429666 32.90809127 12.16662005 37.61058187 12.16725707 C41.53215514 12.16820503 45.45372413 12.17188206 49.37529576 12.17542917 C58.62568764 12.18357969 67.87606978 12.18601287 77.12646484 12.18530273 C86.67742859 12.18470189 96.22833586 12.19525373 105.77928531 12.2110464 C113.97125511 12.22411065 122.16320644 12.2294871 130.35518658 12.22884732 C135.25138718 12.22859199 140.14753763 12.23146244 145.04372787 12.24202538 C149.64835087 12.25168753 154.25287558 12.25179851 158.85750198 12.24450874 C160.54901014 12.24346053 162.24052436 12.24583978 163.93202209 12.2518692 C166.23839779 12.25955881 168.54443151 12.25496459 170.85079956 12.24723816 C172.78819913 12.24805531 172.78819913 12.24805531 174.76473808 12.24888897 C177.78952046 12.01619221 179.47060112 11.60336966 182 10 C181.67 7.69 181.34 5.38 181 3 C120.61 3 60.22 3 -2 3 C-1.34 2.01 -0.68 1.02 0 0 Z " fill="#020201" transform="translate(674,558)"/>
<path d="M0 0 C0.9583374 0.00523682 1.9166748 0.01047363 2.90405273 0.01586914 C4.45576172 0.02070313 4.45576172 0.02070313 6.03881836 0.02563477 C7.12743164 0.03401367 8.21604492 0.04239258 9.33764648 0.05102539 C10.97636719 0.05779297 10.97636719 0.05779297 12.64819336 0.06469727 C15.35723144 0.07652713 18.06616248 0.09300996 20.77514648 0.11352539 C20.77514648 0.77352539 20.77514648 1.43352539 20.77514648 2.11352539 C13.51514648 2.11352539 6.25514648 2.11352539 -1.22485352 2.11352539 C-1.22485352 27.52352539 -1.22485352 52.93352539 -1.22485352 79.11352539 C16.76049416 79.65742895 16.76049416 79.65742895 33.21264648 73.23852539 C36.07071552 69.35155151 37.02379776 65.77434808 37.06567383 60.99121094 C37.07843353 59.99635178 37.09119324 59.00149261 37.1043396 57.97648621 C37.10656525 56.91182632 37.10879089 55.84716644 37.11108398 54.75024414 C37.11774078 53.64429398 37.12439758 52.53834381 37.1312561 51.39888 C37.14137017 49.06134705 37.14607351 46.72378529 37.14575195 44.38623047 C37.15011816 40.82413701 37.18643366 37.26328983 37.22436523 33.70141602 C37.23023513 31.42602961 37.23420337 29.15063734 37.23608398 26.87524414 C37.25045502 25.81665695 37.26482605 24.75806976 37.27963257 23.66740417 C37.23898435 17.03292908 36.31788628 12.76632133 32.77514648 7.11352539 C29.43357381 4.4754417 25.82993461 3.33939157 21.77514648 2.11352539 C21.77514648 1.78352539 21.77514648 1.45352539 21.77514648 1.11352539 C27.65288147 1.47338672 31.63201085 2.80995689 35.77514648 7.11352539 C39.53628582 13.83173728 40.36311359 20.26035689 40.27124023 27.83618164 C40.27269547 28.82170517 40.2741507 29.8072287 40.27565002 30.82261658 C40.27400149 32.89072651 40.26255876 34.95885007 40.24169922 37.02685547 C40.21268809 40.1715156 40.22112492 43.31449118 40.23413086 46.45922852 C40.22789351 48.48072099 40.2195026 50.5022082 40.20874023 52.52368164 C40.21167587 53.45205338 40.21461151 54.38042511 40.21763611 55.33692932 C40.12198941 62.03299587 39.35195709 68.79786624 35.12670898 74.23461914 C34.55694336 74.6690332 33.98717773 75.10344727 33.40014648 75.55102539 C32.83553711 76.00348633 32.27092773 76.45594727 31.68920898 76.92211914 C27.1803481 79.728655 23.44793857 80.35711253 18.16186523 80.30883789 C16.29111328 80.29916992 16.29111328 80.29916992 14.38256836 80.28930664 C13.08899414 80.27254883 11.79541992 80.25579102 10.46264648 80.23852539 C8.49328125 80.22499023 8.49328125 80.22499023 6.48413086 80.21118164 C3.24761735 80.18764336 0.011475 80.15476059 -3.22485352 80.11352539 C-3.24797727 69.83048001 -3.26576877 59.54744077 -3.27666569 49.26437473 C-3.28189445 44.49004259 -3.28899196 39.71572818 -3.30029297 34.94140625 C-3.31112211 30.33786277 -3.31713041 25.7343364 -3.31973076 21.13078117 C-3.32158496 19.37042916 -3.32520548 17.61007813 -3.33058357 15.84973335 C-3.33779437 13.39280262 -3.33884444 10.93594344 -3.33837891 8.47900391 C-3.34197418 7.74389084 -3.34556946 7.00877777 -3.34927368 6.25138855 C-3.33672361 0.17025968 -3.33672361 0.17025968 0 0 Z " fill="#060604" transform="translate(84.224853515625,469.886474609375)"/>
<path d="M0 0 C12.87 0 25.74 0 39 0 C39 3.96 39 7.92 39 12 C26.625 12.495 26.625 12.495 14 13 C13.67 19.93 13.34 26.86 13 34 C12.67 34 12.34 34 12 34 C11.97112488 30.35418313 11.95324415 26.70839537 11.9375 23.0625 C11.92912109 22.02158203 11.92074219 20.98066406 11.91210938 19.90820312 C11.90888672 18.91884766 11.90566406 17.92949219 11.90234375 16.91015625 C11.89710693 15.99371338 11.89187012 15.07727051 11.88647461 14.13305664 C12 12 12 12 13 11 C14.85369611 10.91262355 16.71067541 10.89301847 18.56640625 10.90234375 C19.69111328 10.90556641 20.81582031 10.90878906 21.97460938 10.91210938 C23.15861328 10.92048828 24.34261719 10.92886719 25.5625 10.9375 C26.75037109 10.94201172 27.93824219 10.94652344 29.16210938 10.95117188 C32.10812226 10.96300325 35.05403681 10.97948713 38 11 C37.505 6.545 37.505 6.545 37 2 C25.45 1.67 13.9 1.34 2 1 C2 26.41 2 51.82 2 78 C13.88 78 25.76 78 38 78 C38 75.03 38 72.06 38 69 C30.08 69 22.16 69 14 69 C14 68.67 14 68.34 14 68 C22.25 68 30.5 68 39 68 C39 71.96 39 75.92 39 80 C33.60653012 80.02464849 28.21309275 80.04283531 22.81958008 80.05493164 C20.98331125 80.05997231 19.14704646 80.06680477 17.31079102 80.07543945 C14.67723599 80.08751672 12.04373384 80.09323081 9.41015625 80.09765625 C8.17109276 80.10539818 8.17109276 80.10539818 6.90699768 80.11329651 C4.93763632 80.11349205 2.96838386 80.06204152 1 80 C-0.7082941 78.2917059 -0.11971926 76.13995623 -0.12442017 73.86213684 C-0.12082489 73.12702377 -0.11722961 72.39191071 -0.11352539 71.63452148 C-0.11367142 70.86384338 -0.11381744 70.09316528 -0.1139679 69.2991333 C-0.1132686 66.73975861 -0.10547545 64.1804558 -0.09765625 61.62109375 C-0.09579213 59.85132385 -0.0943682 58.08155344 -0.09336853 56.31178284 C-0.08954288 51.64448634 -0.0797122 46.97722077 -0.06866455 42.30993652 C-0.05665707 36.714924 -0.05204841 31.11990116 -0.04621124 25.52487946 C-0.03650047 17.01656477 -0.01734425 8.50831798 0 0 Z " fill="#030301" transform="translate(518,571)"/>
<path d="M0 0 C4.95 0 9.9 0 15 0 C17.02567574 5.76114497 19.03742107 11.52689272 21.03637695 17.29736328 C21.7184326 19.25995689 22.40428488 21.22123533 23.09399414 23.18115234 C24.08438789 25.99760685 25.06105764 28.8184998 26.03515625 31.640625 C26.34655045 32.51680481 26.65794464 33.39298462 26.97877502 34.29571533 C27.25914108 35.11626404 27.53950714 35.93681274 27.82836914 36.78222656 C28.07929825 37.50170471 28.33022736 38.22118286 28.58876038 38.96246338 C29.06036246 41.29907314 28.74036263 42.75733207 28 45 C26.16080886 39.70017034 24.32791601 34.39821971 22.50073242 29.09423828 C21.87874645 27.29156336 21.25506735 25.48947167 20.62963867 23.68798828 C19.72905929 21.09300139 18.83466334 18.49595261 17.94140625 15.8984375 C17.6622084 15.0982016 17.38301056 14.2979657 17.09535217 13.47348022 C15.67576886 9.32519697 14.56537853 5.37022323 14 1 C10.37 1.33 6.74 1.66 3 2 C2.67 27.08 2.34 52.16 2 78 C5.3 78 8.6 78 12 78 C12 62.49 12 46.98 12 31 C13.32 30.67 14.64 30.34 16 30 C15.34 30.33 14.68 30.66 14 31 C14.00222061 31.59912704 14.00444122 32.19825409 14.00672913 32.8155365 C14.02878165 39.02797858 14.04390646 45.24040962 14.05493164 51.45288086 C14.05997333 53.77417451 14.06680651 56.09546497 14.07543945 58.41674805 C14.08751225 61.74528795 14.09322979 65.07378602 14.09765625 68.40234375 C14.10281754 69.44712387 14.10797882 70.49190399 14.11329651 71.56834412 C14.11337204 72.52926468 14.11344757 73.49018524 14.11352539 74.48022461 C14.115746 75.33071884 14.11796661 76.18121307 14.12025452 77.05747986 C14 79 14 79 13 80 C11.00200428 80.09873816 9.00042842 80.12971799 7 80.125 C5.906875 80.12757813 4.81375 80.13015625 3.6875 80.1328125 C1 80 1 80 0 79 C-0.09500548 76.53555943 -0.12557985 74.09925374 -0.11352539 71.63452148 C-0.11367142 70.86384338 -0.11381744 70.09316528 -0.1139679 69.2991333 C-0.1132686 66.73975861 -0.10547545 64.1804558 -0.09765625 61.62109375 C-0.09579213 59.85132385 -0.0943682 58.08155344 -0.09336853 56.31178284 C-0.08954288 51.64448634 -0.0797122 46.97722077 -0.06866455 42.30993652 C-0.05845144 37.55102965 -0.05387113 32.79211779 -0.04882812 28.03320312 C-0.03808997 18.68878629 -0.0204928 9.34440055 0 0 Z " fill="#020201" transform="translate(411,571)"/>
<path d="M0 0 C13.2 0 26.4 0 40 0 C40 3.96 40 7.92 40 12 C39.34 12 38.68 12 38 12 C38 8.37 38 4.74 38 1 C26.12 1 14.24 1 2 1 C2 26.41 2 51.82 2 78 C13.88 78 25.76 78 38 78 C38 75.03 38 72.06 38 69 C30.41 69 22.82 69 15 69 C15 68.67 15 68.34 15 68 C23.25 68 31.5 68 40 68 C40 71.63 40 75.26 40 79 C38.15723491 80.84276509 35.57036241 80.12874411 33.11865234 80.13894653 C32.29574707 80.1369223 31.4728418 80.13489807 30.625 80.1328125 C29.78533691 80.13376923 28.94567383 80.13472595 28.08056641 80.13571167 C26.30175705 80.13639348 24.52294523 80.13453917 22.74414062 80.13037109 C20.01166224 80.12502283 17.27934824 80.13031605 14.546875 80.13671875 C12.8229163 80.13605797 11.09895771 80.13477681 9.375 80.1328125 C8.55209473 80.13483673 7.72918945 80.13686096 6.88134766 80.13894653 C1.11495054 80.11495054 1.11495054 80.11495054 0 79 C-0.09500548 76.53555943 -0.12557985 74.09925374 -0.11352539 71.63452148 C-0.11367142 70.86384338 -0.11381744 70.09316528 -0.1139679 69.2991333 C-0.1132686 66.73975861 -0.10547545 64.1804558 -0.09765625 61.62109375 C-0.09579213 59.85132385 -0.0943682 58.08155344 -0.09336853 56.31178284 C-0.08954288 51.64448634 -0.0797122 46.97722077 -0.06866455 42.30993652 C-0.05665707 36.714924 -0.05204841 31.11990116 -0.04621124 25.52487946 C-0.03650047 17.01656477 -0.01734425 8.50831798 0 0 Z " fill="#060503" transform="translate(82,571)"/>
<path d="M0 0 C4.16563264 3.5607849 8.32912106 7.12312057 12.4375 10.75 C13.30246094 11.50796875 14.16742187 12.2659375 15.05859375 13.046875 C17 15 17 15 17 17 C12.87723451 18.67223282 8.75143325 20.33684063 4.625 22 C3.449375 22.47695313 2.27375 22.95390625 1.0625 23.4453125 C-0.05898438 23.89648438 -1.18046875 24.34765625 -2.3359375 24.8125 C-3.37282715 25.23144531 -4.4097168 25.65039062 -5.47802734 26.08203125 C-8 27 -8 27 -10 27 C-7.97607539 20.72555221 -5.73023007 14.57015561 -3.3125 8.4375 C-2.83200195 7.21063477 -2.83200195 7.21063477 -2.34179688 5.95898438 C-1.56321746 3.97186378 -0.78190155 1.98581573 0 0 Z " fill="#FBF9F3" transform="translate(811,677)"/>
<path d="M0 0 C1.43715572 -0.04914801 2.87479845 -0.084189 4.3125 -0.11328125 C5.51326172 -0.144823 5.51326172 -0.144823 6.73828125 -0.17700195 C10.13203661 0.08859311 11.75289496 1.54222886 14 4 C15.75463024 9.26389073 15.62026454 14.20449739 13.8125 19.4375 C11.68445201 22.44611957 10.56141198 23.17176466 7 24 C3.75 24.1875 3.75 24.1875 1 24 C0 23 0 23 -0.11352539 20.77514648 C-0.10828857 19.81680908 -0.10305176 18.85847168 -0.09765625 17.87109375 C-0.09443359 16.83662109 -0.09121094 15.80214844 -0.08789062 14.73632812 C-0.07951172 13.64771484 -0.07113281 12.55910156 -0.0625 11.4375 C-0.05798828 10.34501953 -0.05347656 9.25253906 -0.04882812 8.12695312 C-0.03699826 5.41791505 -0.02051543 2.70898401 0 0 Z " fill="#FBFAF3" transform="translate(199,380)"/>
<path d="M0 0 C30.13981043 0 30.13981043 0 36.12109375 4.6484375 C36.55550781 5.21820313 36.98992187 5.78796875 37.4375 6.375 C37.88996094 6.93960937 38.34242188 7.50421875 38.80859375 8.0859375 C41.44411603 12.32005526 42.33258035 16.24598801 42.75 21.1875 C42.89695312 22.75564453 42.89695312 22.75564453 43.046875 24.35546875 C43 27 43 27 41 29 C40.97421875 28.23816406 40.9484375 27.47632813 40.921875 26.69140625 C40.54715569 19.86981159 39.89214284 13.77701704 36 8 C25.59527576 -0.49365244 17.40041183 2.61601647 2 2 C2 27.41 2 52.82 2 79 C5.3 79 8.6 79 12 79 C12 72.07 12 65.14 12 58 C12.33 58 12.66 58 13 58 C13 65.59 13 73.18 13 81 C8.71 81 4.42 81 0 81 C0 54.27 0 27.54 0 0 Z " fill="#080806" transform="translate(185,368)"/>
<path d="M0 0 C4.62 0 9.24 0 14 0 C14 26.4 14 52.8 14 80 C9.71 80 5.42 80 1 80 C0 79 0 79 -0.0625 75.9375 C-0.041875 74.968125 -0.02125 73.99875 0 73 C0.99 72.505 0.99 72.505 2 72 C2 73.98 2 75.96 2 78 C5.3 78 8.6 78 12 78 C12 52.59 12 27.18 12 1 C8.7 1 5.4 1 2 1 C2 24.1 2 47.2 2 71 C1.67 71 1.34 71 1 71 C0.67 47.57 0.34 24.14 0 0 Z " fill="#040403" transform="translate(334,571)"/>
<path d="M0 0 C4.06243957 -0.05819473 8.12477146 -0.09366215 12.1875 -0.125 C13.33798828 -0.14175781 14.48847656 -0.15851562 15.67382812 -0.17578125 C16.78564453 -0.18222656 17.89746094 -0.18867187 19.04296875 -0.1953125 C20.06414795 -0.20578613 21.08532715 -0.21625977 22.13745117 -0.22705078 C25.12612167 0.01000368 27.29423369 0.74382898 30 2 C21.65201288 6.17399356 11.32643763 2.35870914 2 2 C2 27.41 2 52.82 2 79 C10.91 78.67 19.82 78.34 29 78 C29 78.66 29 79.32 29 80 C25.44523889 80.81024093 22.15875557 81.12839888 18.515625 81.1328125 C17.49855469 81.13410156 16.48148437 81.13539063 15.43359375 81.13671875 C14.38300781 81.13285156 13.33242188 81.12898437 12.25 81.125 C11.18394531 81.12886719 10.11789062 81.13273438 9.01953125 81.13671875 C7.50166016 81.13478516 7.50166016 81.13478516 5.953125 81.1328125 C5.02661133 81.13168457 4.10009766 81.13055664 3.14550781 81.12939453 C1 81 1 81 0 80 C-0.09502416 77.50507612 -0.12557566 75.03793986 -0.11352539 72.54272461 C-0.11367142 71.76229294 -0.11381744 70.98186127 -0.1139679 70.17778015 C-0.11326858 67.5859402 -0.10547536 64.99417122 -0.09765625 62.40234375 C-0.09579213 60.6101536 -0.0943682 58.81796294 -0.09336853 57.02577209 C-0.08954284 52.29929203 -0.07971212 47.57284248 -0.06866455 42.84637451 C-0.05845153 38.0271445 -0.05387115 33.20790958 -0.04882812 28.38867188 C-0.03808989 18.92576781 -0.02101286 9.46288644 0 0 Z " fill="#040402" transform="translate(282,570)"/>
<path d="M0 0 C14.85 0 29.7 0 45 0 C45 3.96 45 7.92 45 12 C39.72 12 34.44 12 29 12 C29 34.44 29 56.88 29 80 C24.71 80 20.42 80 16 80 C16.495 78.515 16.495 78.515 17 77 C20.3 77.33 23.6 77.66 27 78 C26.99555878 77.1775882 26.99111755 76.35517639 26.98654175 75.50784302 C26.94651328 67.76778084 26.91604025 60.02776865 26.89637566 52.28763008 C26.88592614 48.30808227 26.87174578 44.32861979 26.84912109 40.34912109 C26.82743415 36.51066114 26.81544018 32.67228341 26.81024551 28.83376694 C26.80654227 27.36729513 26.799311 25.90082795 26.78853989 24.43439102 C26.77407981 22.38470894 26.77201971 20.33536918 26.77294922 18.28564453 C26.768508 17.11760284 26.76406677 15.94956116 26.75949097 14.74612427 C27 12 27 12 29 10 C32.2578125 9.8046875 32.2578125 9.8046875 36.125 9.875 C38.04699219 9.90207031 38.04699219 9.90207031 40.0078125 9.9296875 C41.48894531 9.96449219 41.48894531 9.96449219 43 10 C43 7.03 43 4.06 43 1 C28.81 1.33 14.62 1.66 0 2 C0 1.34 0 0.68 0 0 Z " fill="#030302" transform="translate(465,571)"/>
<path d="M0 0 C1.83235983 3.24628379 2.59217104 6.28545018 3.2890625 9.9375 C3.61777344 11.65066406 3.61777344 11.65066406 3.953125 13.3984375 C4.17484375 14.58695312 4.3965625 15.77546875 4.625 17 C4.85445312 18.18851562 5.08390625 19.37703125 5.3203125 20.6015625 C7 29.45991443 7 29.45991443 7 34 C2.71 34 -1.58 34 -6 34 C-4.5058559 22.54489525 -2.34334522 11.30720945 0 0 Z " fill="#FAF8F2" transform="translate(152,390)"/>
<path d="M0 0 C0.33 0 0.66 0 1 0 C1 3.3 1 6.6 1 10 C-7.58 10 -16.16 10 -25 10 C-25 17.59 -25 25.18 -25 33 C-19.39 33 -13.78 33 -8 33 C-8 36.96 -8 40.92 -8 45 C-13.61 45 -19.22 45 -25 45 C-25 51.93 -25 58.86 -25 66 C-23.36289063 65.97679687 -21.72578125 65.95359375 -20.0390625 65.9296875 C-17.90104621 65.91093297 -15.76302501 65.89273243 -13.625 65.875 C-12.54476562 65.85824219 -11.46453125 65.84148437 -10.3515625 65.82421875 C-9.3203125 65.81777344 -8.2890625 65.81132813 -7.2265625 65.8046875 C-5.79691162 65.78897705 -5.79691162 65.78897705 -4.33837891 65.77294922 C-2 66 -2 66 0 68 C-4.14581887 68.02886751 -8.29161216 68.04675327 -12.4375 68.0625 C-14.21350586 68.07506836 -14.21350586 68.07506836 -16.02539062 68.08789062 C-17.15009766 68.09111328 -18.27480469 68.09433594 -19.43359375 68.09765625 C-20.99678345 68.10551147 -20.99678345 68.10551147 -22.59155273 68.11352539 C-25 68 -25 68 -26 67 C-26.08713831 65.29227642 -26.10700007 63.58101351 -26.09765625 61.87109375 C-26.09443359 60.83662109 -26.09121094 59.80214844 -26.08789062 58.73632812 C-26.07532227 57.1034082 -26.07532227 57.1034082 -26.0625 55.4375 C-26.05798828 54.34501953 -26.05347656 53.25253906 -26.04882812 52.12695312 C-26.03699826 49.41791505 -26.02051543 46.70898401 -26 44 C-22.57767028 42.85922343 -19.91326783 42.90184883 -16.3125 42.9375 C-14.54326172 42.95103516 -14.54326172 42.95103516 -12.73828125 42.96484375 C-11.83464844 42.97644531 -10.93101562 42.98804688 -10 43 C-10 40.36 -10 37.72 -10 35 C-10.98742187 35.01160156 -11.97484375 35.02320313 -12.9921875 35.03515625 C-14.27351562 35.04417969 -15.55484375 35.05320312 -16.875 35.0625 C-18.15117187 35.07410156 -19.42734375 35.08570313 -20.7421875 35.09765625 C-24 35 -24 35 -26 34 C-26 25.75 -26 17.5 -26 9 C-23.39048764 7.69524382 -21.47298715 7.88698428 -18.5546875 7.90234375 C-17.47832031 7.90556641 -16.40195313 7.90878906 -15.29296875 7.91210938 C-14.16503906 7.92048828 -13.03710938 7.92886719 -11.875 7.9375 C-10.73933594 7.94201172 -9.60367188 7.94652344 -8.43359375 7.95117188 C-5.62234362 7.96298385 -2.8111977 7.97945493 0 8 C0 5.36 0 2.72 0 0 Z " fill="#080806" transform="translate(172,472)"/>
<path d="M0 0 C2.16063219 3.24094828 2.59960247 5.29529974 3.2890625 9.09375 C3.61777344 10.88619141 3.61777344 10.88619141 3.953125 12.71484375 C4.17484375 13.96394531 4.3965625 15.21304688 4.625 16.5 C4.85445313 17.74910156 5.08390625 18.99820313 5.3203125 20.28515625 C7 29.55343192 7 29.55343192 7 33 C2.71 33 -1.58 33 -6 33 C-4.41530256 21.90711792 -2.25377831 10.97349344 0 0 Z " fill="#FBFAF5" transform="translate(379,593)"/>
<path d="M0 0 C2.16063219 3.24094828 2.59960247 5.29529974 3.2890625 9.09375 C3.61777344 10.88619141 3.61777344 10.88619141 3.953125 12.71484375 C4.17484375 13.96394531 4.3965625 15.21304687 4.625 16.5 C4.85445313 17.74910156 5.08390625 18.99820312 5.3203125 20.28515625 C7 29.55343192 7 29.55343192 7 33 C2.71 33 -1.58 33 -6 33 C-4.41530256 21.90711792 -2.25377831 10.97349344 0 0 Z " fill="#FAF9F4" transform="translate(309,390)"/>
<path d="M0 0 C7.80575195 -0.02312792 15.61149595 -0.04091738 23.41727352 -0.05181217 C27.0414596 -0.05704002 30.6656223 -0.06413587 34.28979492 -0.07543945 C37.78459975 -0.08627184 41.27938204 -0.09227758 44.77420235 -0.09487724 C46.76239389 -0.09763551 48.75057631 -0.10544688 50.73875427 -0.11329651 C51.93992386 -0.11337204 53.14109344 -0.11344757 54.37866211 -0.11352539 C55.97417152 -0.11685631 55.97417152 -0.11685631 57.60191345 -0.12025452 C60 0 60 0 61 1 C61.09311889 2.50418739 61.11746028 4.01271356 61.11352539 5.51977539 C61.11344986 6.48069595 61.11337433 7.44161652 61.11329651 8.43165588 C61.10813522 9.476436 61.10297394 10.52121613 61.09765625 11.59765625 C61.0962413 12.66165146 61.09482635 13.72564667 61.09336853 14.82188416 C61.08775064 18.23545083 61.07519511 21.648953 61.0625 25.0625 C61.05748731 27.37044176 61.052924 29.67838455 61.04882812 31.98632812 C61.0377754 37.65757426 61.02101987 43.32878253 61 49 C61.66 49 62.32 49 63 49 C62.34 50.32 61.68 51.64 61 53 C60.67 53 60.34 53 60 53 C60 36.17 60 19.34 60 2 C40.53 2 21.06 2 1 2 C0.67 1.34 0.34 0.68 0 0 Z " fill="#030302" transform="translate(827,512)"/>
<path d="M0 0 C4.01406188 4.01406188 6.05175256 8.90784187 6.28515625 14.546875 C6.27355469 15.33578125 6.26195312 16.1246875 6.25 16.9375 C6.24097656 17.73671875 6.23195313 18.5359375 6.22265625 19.359375 C6.21105469 19.96265625 6.19945312 20.5659375 6.1875 21.1875 C4.04173363 21.21435938 1.89587355 21.23383088 -0.25 21.25 C-1.44496094 21.26160156 -2.63992188 21.27320313 -3.87109375 21.28515625 C-6.8125 21.1875 -6.8125 21.1875 -7.8125 20.1875 C-8.30581124 17.6447048 -8.71228037 15.0934331 -9.1171875 12.53515625 C-9.64361044 9.83767477 -9.64361044 9.83767477 -12.8125 8.1875 C-15.8125 7.6875 -15.8125 7.6875 -18.8125 8.1875 C-21.6514981 10.53701567 -22.04001987 12.93170551 -22.5 16.4375 C-22.603125 17.675 -22.70625 18.9125 -22.8125 20.1875 C-23.1425 20.1875 -23.4725 20.1875 -23.8125 20.1875 C-24.1651999 15.69057622 -24.3272987 12.23854734 -22.3125 8.125 C-19.44901729 5.9058009 -17.40246603 5.4542095 -13.78125 5.7109375 C-10.23437277 6.56950699 -8.83956562 8.23904091 -6.8125 11.1875 C-6.13501605 13.92271505 -5.95686768 16.34826901 -5.8125 19.1875 C-2.5125 19.1875 0.7875 19.1875 4.1875 19.1875 C3.18128462 9.38667884 3.18128462 9.38667884 -1.8125 1.1875 C-7.94591253 -2.72744417 -14.71289087 -2.61688921 -21.8125 -1.8125 C-26.24644552 -0.42519189 -29.18070686 1.23981029 -31.8125 5.1875 C-32.4725 4.8575 -33.1325 4.5275 -33.8125 4.1875 C-25.52372571 -7.46858885 -11.45781658 -7.38392624 0 0 Z " fill="#080806" transform="translate(598.8125,574.8125)"/>
<path d="M0 0 C4.29 0 8.58 0 13 0 C13 7.26 13 14.52 13 22 C12.67 22 12.34 22 12 22 C12 15.07 12 8.14 12 1 C7.545 1.495 7.545 1.495 3 2 C2.67 22.79 2.34 43.58 2 65 C0 63 0 63 -0.24050903 60.36776733 C-0.23606781 59.25302032 -0.23162659 58.13827332 -0.22705078 56.98974609 C-0.22689972 55.72858978 -0.22674866 54.46743347 -0.22659302 53.1680603 C-0.21637898 51.78651778 -0.20594697 50.40497685 -0.1953125 49.0234375 C-0.19158288 47.61382243 -0.18873567 46.20420477 -0.18673706 44.79458618 C-0.17909655 41.08240618 -0.15944461 37.37038239 -0.1373291 33.65826416 C-0.11687959 29.87115594 -0.10773727 26.0840225 -0.09765625 22.296875 C-0.07619897 14.86450383 -0.04101359 7.43229369 0 0 Z " fill="#040503" transform="translate(229,571)"/>
<path d="M0 0 C0.33 0 0.66 0 1 0 C1.02505615 0.61520508 1.0501123 1.23041016 1.07592773 1.86425781 C1.19218487 4.65970156 1.31477642 7.45483298 1.4375 10.25 C1.47681641 11.21808594 1.51613281 12.18617188 1.55664062 13.18359375 C1.59853516 14.11816406 1.64042969 15.05273438 1.68359375 16.015625 C1.72025146 16.87446289 1.75690918 17.73330078 1.79467773 18.61816406 C1.92639507 20.9422265 1.92639507 20.9422265 2.50396729 22.90643311 C3.33320016 26.40631212 3.15710227 29.98300297 3.17578125 33.5625 C3.19896903 35.26303335 3.22308593 36.96355425 3.24804688 38.6640625 C3.28321711 41.33700041 3.31254743 44.00947552 3.32592773 46.68261719 C3.34139139 49.26814099 3.38157296 51.8523289 3.42578125 54.4375 C3.42387283 55.23551025 3.42196442 56.03352051 3.41999817 56.85571289 C3.49977648 60.47226455 3.69166947 62.58782965 5.88842773 65.52441406 C8.51369769 67.35897663 9.63835169 67.29911441 12.75 66.75 C13.54921875 66.62109375 14.3484375 66.4921875 15.171875 66.359375 C15.77515625 66.24078125 16.3784375 66.1221875 17 66 C14.74079325 68.57412647 14.2128254 68.96847031 10.625 69.5 C6.08175094 68.87334496 4.81484161 67.53865802 2 64 C-0.10462132 60.62658664 -0.24362621 57.98303864 -0.22705078 54.03808594 C-0.22689972 52.83714294 -0.22674866 51.63619995 -0.22659302 50.39886475 C-0.21627045 49.10708313 -0.20594788 47.81530151 -0.1953125 46.484375 C-0.19158034 45.14487927 -0.18873432 43.80538079 -0.18673706 42.46588135 C-0.17911657 38.94771735 -0.15948187 35.4297196 -0.1373291 31.91162109 C-0.11683643 28.31870777 -0.10772804 24.72576747 -0.09765625 21.1328125 C-0.07623434 14.08847383 -0.04211765 7.04424779 0 0 Z " fill="#292821" transform="translate(240,572)"/>
<path d="M0 0 C3.47921735 -0.02683201 6.95823039 -0.0467567 10.4375 -0.0625 C11.92733398 -0.07506836 11.92733398 -0.07506836 13.44726562 -0.08789062 C14.39150391 -0.09111328 15.33574219 -0.09433594 16.30859375 -0.09765625 C17.62041626 -0.10551147 17.62041626 -0.10551147 18.95874023 -0.11352539 C21 0 21 0 22 1 C22.15049829 5.35410105 21.94565203 9.70910554 21.8125 14.0625 C21.79380859 15.27873047 21.77511719 16.49496094 21.75585938 17.74804688 C21.51885485 25.41119327 20.99692043 31.60714817 15.62475586 37.51147461 C9.35221337 43.2142501 3.01714409 43.28519485 -5 43 C-5 42.67 -5 42.34 -5 42 C-4.2265625 41.91363281 -3.453125 41.82726562 -2.65625 41.73828125 C4.12041763 40.82410208 9.84302085 39.72939042 15 35 C18.17313087 29.98440604 19.08896232 25.42668316 19.31640625 19.578125 C19.35830078 18.55332031 19.40019531 17.52851563 19.44335938 16.47265625 C19.48267578 15.40917969 19.52199219 14.34570312 19.5625 13.25 C19.60568359 12.17105469 19.64886719 11.09210938 19.69335938 9.98046875 C19.79928901 7.32045789 19.90013456 4.66024544 20 2 C13.73 2 7.46 2 1 2 C1 4.64 1 7.28 1 10 C3.64 10 6.28 10 9 10 C9 14.95 9 19.9 9 25 C8.67 25 8.34 25 8 25 C8 20.38 8 15.76 8 11 C5.36 11 2.72 11 0 11 C0 7.37 0 3.74 0 0 Z " fill="#0B0B08" transform="translate(257,406)"/>
<path d="M0 0 C4.95 0 9.9 0 15 0 C17.02567574 5.76114497 19.03742107 11.52689272 21.03637695 17.29736328 C21.7184326 19.25995689 22.40428488 21.22123533 23.09399414 23.18115234 C24.08438789 25.99760685 25.06105764 28.8184998 26.03515625 31.640625 C26.34655045 32.51680481 26.65794464 33.39298462 26.97877502 34.29571533 C27.25914108 35.11626404 27.53950714 35.93681274 27.82836914 36.78222656 C28.07929825 37.50170471 28.33022736 38.22118286 28.58876038 38.96246338 C29.06036246 41.29907314 28.74036263 42.75733207 28 45 C26.16080886 39.70017034 24.32791601 34.39821971 22.50073242 29.09423828 C21.87874645 27.29156336 21.25506735 25.48947167 20.62963867 23.68798828 C19.72905929 21.09300139 18.83466334 18.49595261 17.94140625 15.8984375 C17.6622084 15.0982016 17.38301056 14.2979657 17.09535217 13.47348022 C15.67576886 9.32519697 14.56537853 5.37022323 14 1 C10.37 1.33 6.74 1.66 3 2 C2.27123157 9.9775505 1.81611589 17.88275812 1.68359375 25.890625 C1.66281265 26.96125183 1.64203156 28.03187866 1.62062073 29.13494873 C1.55599041 32.50657642 1.49664888 35.87827216 1.4375 39.25 C1.39423219 41.55599621 1.35061549 43.86198591 1.30664062 46.16796875 C1.20039978 51.77857692 1.098484 57.38925059 1 63 C0.67 63 0.34 63 0 63 C0 42.21 0 21.42 0 0 Z " fill="#0B0A06" transform="translate(411,571)"/>
<path d="M0 0 C4.95 0 9.9 0 15 0 C17.37671527 6.70303597 19.06110624 13.34483874 20.48046875 20.30859375 C20.80704216 21.88049217 20.80704216 21.88049217 21.14021301 23.48414612 C21.59561012 25.68120688 22.04842958 27.87880338 22.4987793 30.0769043 C23.19065299 33.45288495 23.89055344 36.82712626 24.59179688 40.20117188 C25.03431882 42.3410498 25.47639229 44.48102052 25.91796875 46.62109375 C26.12729538 47.6324791 26.33662201 48.64386444 26.55229187 49.68589783 C26.83807854 51.08359154 26.83807854 51.08359154 27.12963867 52.50952148 C27.29823898 53.33064926 27.46683929 54.15177704 27.64054871 54.99778748 C28 57 28 57 28 59 C27.34 59 26.68 59 26 59 C24.43294698 51.86396721 22.8681296 44.72744811 21.30618286 37.59029579 C20.58087712 34.27642519 19.85479564 30.9627285 19.12695312 27.64941406 C18.29067171 23.84229861 17.45774298 20.03445357 16.625 16.2265625 C16.36251465 15.03382721 16.1000293 13.84109192 15.82958984 12.61221313 C15.46921631 10.96072769 15.46921631 10.96072769 15.1015625 9.27587891 C14.88838379 8.30325104 14.67520508 7.33062317 14.45556641 6.32852173 C14 4 14 4 14 2 C9.71 2 5.42 2 1 2 C0.67 3.98 0.34 5.96 0 8 C-0.33 8 -0.66 8 -1 8 C-0.67 5.36 -0.34 2.72 0 0 Z " fill="#0A0907" transform="translate(372,571)"/>
<path d="M0 0 C0.68126953 -0.020625 1.36253906 -0.04125 2.06445312 -0.0625 C4.88099269 -0.08456887 7.02060859 -0.08115586 9.4609375 1.41015625 C10.93959432 3.87982774 11.31583223 6.09871075 11.75 8.9375 C11.90855469 9.93136719 12.06710937 10.92523437 12.23046875 11.94921875 C12.34003906 12.70847656 12.44960938 13.46773437 12.5625 14.25 C15.8625 14.25 19.1625 14.25 22.5625 14.25 C22.8925 12.93 23.2225 11.61 23.5625 10.25 C24.5625 11.25 24.5625 11.25 24.5625 16.25 C20.2725 16.25 15.9825 16.25 11.5625 16.25 C9.5625 10.25 9.5625 10.25 8.5625 2.25 C2.9525 2.25 -2.6575 2.25 -8.4375 2.25 C-8.7675 2.91 -9.0975 3.57 -9.4375 4.25 C-9.4375 3.26 -9.4375 2.27 -9.4375 1.25 C-6.41891234 -0.25929383 -3.30849046 0.02489927 0 0 Z " fill="#080805" transform="translate(379.4375,634.75)"/>
<path d="M0 0 C2.89797974 -0.32279968 2.89797974 -0.32279968 6.65283203 -0.2487793 C7.33587402 -0.23946381 8.01891602 -0.23014832 8.72265625 -0.22055054 C10.98487419 -0.18611976 13.24603459 -0.13023917 15.5078125 -0.07421875 C17.07434831 -0.04619238 18.64090853 -0.01950125 20.20748901 0.00590515 C24.33422324 0.07643189 28.46037592 0.1651381 32.58666992 0.25756836 C36.79586075 0.34865886 41.00534785 0.4226441 45.21484375 0.49804688 C53.47695018 0.64857544 61.7385206 0.81830066 70 1 C70 1.33 70 1.66 70 2 C34.36 2.495 34.36 2.495 -2 3 C-1.34 2.01 -0.68 1.02 0 0 Z " fill="#0C0A07" transform="translate(674,558)"/>
<path d="M0 0 C0.66 0.33 1.32 0.66 2 1 C2.4608697 3.06960645 2.91430868 5.14108444 3.33496094 7.21923828 C4.62381689 12.60839736 6.69415883 17.75138129 8.625 22.9375 C9.45332671 25.17474439 10.27899229 27.41297646 11.1015625 29.65234375 C11.46588379 30.63195068 11.83020508 31.61155762 12.20556641 32.62084961 C13 35 13 35 13 37 C12.01 36.67 11.02 36.34 10 36 C8.93517477 33.58758858 8.07220595 31.28819661 7.265625 28.7890625 C6.90220001 27.70315323 6.90220001 27.70315323 6.53143311 26.5953064 C6.02150474 25.06219881 5.51752937 23.52710038 5.01904297 21.99023438 C4.2537033 19.63638971 3.46631213 17.29080038 2.67578125 14.9453125 C2.18355942 13.45617024 1.69263045 11.96659989 1.203125 10.4765625 C0.96676331 9.77334869 0.73040161 9.07013489 0.48687744 8.34561157 C-1.11533333 3.34599998 -1.11533333 3.34599998 0 0 Z " fill="#090906" transform="translate(216,411)"/>
<path d="M0 0 C0.33 0 0.66 0 1 0 C0.85816304 1.75032844 0.71136571 3.50025534 0.5625 5.25 C0.48128906 6.22453125 0.40007812 7.1990625 0.31640625 8.203125 C0 11 0 11 -1 15 C2.3 15 5.6 15 9 15 C8.95875 13.88625 8.9175 12.7725 8.875 11.625 C9 8 9 8 11 6 C10.85957123 7.64630328 10.71250671 9.29204179 10.5625 10.9375 C10.48128906 11.85402344 10.40007812 12.77054688 10.31640625 13.71484375 C10 16 10 16 9 17 C6.98035801 17.07244053 4.95832876 17.08377188 2.9375 17.0625 C1.83277344 17.05347656 0.72804688 17.04445313 -0.41015625 17.03515625 C-1.69212891 17.01775391 -1.69212891 17.01775391 -3 17 C-2.54775239 11.08507728 -1.8417395 5.64800112 0 0 Z " fill="#060504" transform="translate(359,634)"/>
<path d="M0 0 C2.66578794 5.23404705 3.11424589 9.05921376 3 15 C2.34 14.67 1.68 14.34 1 14 C0.67 14.99 0.34 15.98 0 17 C-0.99 17.33 -1.98 17.66 -3 18 C-2.41509121 11.85845775 -1.45933748 5.99320151 0 0 Z " fill="#F6F5F2" transform="translate(152,390)"/>
<path d="M0 0 C1.11742945 3.35228836 0.84727505 4.73129668 0.125 8.125 C-0.05804688 9.01445312 -0.24109375 9.90390625 -0.4296875 10.8203125 C-1 13 -1 13 -2 14 C-4.01964199 14.07244053 -6.04167124 14.08377188 -8.0625 14.0625 C-9.16722656 14.05347656 -10.27195313 14.04445313 -11.41015625 14.03515625 C-12.69212891 14.01775391 -12.69212891 14.01775391 -14 14 C-13.67 11.03 -13.34 8.06 -13 5 C-12.67 5 -12.34 5 -12 5 C-12 7.31 -12 9.62 -12 12 C-7.545 11.505 -7.545 11.505 -3 11 C-2.86722656 10.28972656 -2.73445312 9.57945312 -2.59765625 8.84765625 C-2.42105469 7.92855469 -2.24445313 7.00945312 -2.0625 6.0625 C-1.88847656 5.14597656 -1.71445313 4.22945313 -1.53515625 3.28515625 C-1 1 -1 1 0 0 Z " fill="#060705" transform="translate(143,435)"/>
<path d="M0 0 C0.66 0.33 1.32 0.66 2 1 C-10.30769231 13.65384615 -10.30769231 13.65384615 -15 16 C-13.42529581 12.17444746 -10.99021491 9.75542436 -8.0625 6.875 C-7.18722656 6.00617187 -6.31195312 5.13734375 -5.41015625 4.2421875 C-3 2 -3 2 0 0 Z " fill="#F1F0EB" transform="translate(873,667)"/>
<path d="M0 0 C3.58643719 0.85731566 4.87536004 2.48935363 6.9609375 5.46875 C8.20372301 8.75110689 9.14604114 12.05678557 9.9609375 15.46875 C8.6409375 15.13875 7.3209375 14.80875 5.9609375 14.46875 C5.85136719 13.77007813 5.74179687 13.07140625 5.62890625 12.3515625 C5.47035156 11.44148437 5.31179688 10.53140625 5.1484375 9.59375 C4.99761719 8.68882812 4.84679687 7.78390625 4.69140625 6.8515625 C4.13042449 4.12462522 4.13042449 4.12462522 0.9609375 2.46875 C-2.0390625 1.96875 -2.0390625 1.96875 -5.0390625 2.46875 C-7.8780606 4.81826567 -8.26658237 7.21295551 -8.7265625 10.71875 C-8.8296875 11.95625 -8.9328125 13.19375 -9.0390625 14.46875 C-9.3690625 14.46875 -9.6990625 14.46875 -10.0390625 14.46875 C-10.3917624 9.97182622 -10.5538612 6.51979734 -8.5390625 2.40625 C-5.67268102 0.18480435 -3.62465294 -0.26949092 0 0 Z " fill="#020201" transform="translate(585.0390625,580.53125)"/>
<path d="M0 0 C1.4606285 2.64738916 2 3.89448334 2 7 C-8.56 7 -19.12 7 -30 7 C-29.67 5.02 -29.34 3.04 -29 1 C-28.34 1 -27.68 1 -27 1 C-27 2.32 -27 3.64 -27 5 C-18.09 5 -9.18 5 0 5 C0 3.35 0 1.7 0 0 Z " fill="#010201" transform="translate(731,412)"/>
<path d="M0 0 C4.18423892 3.50897269 8.19588166 7.08060535 12 11 C9 11 9 11 6.95703125 9.25 C6.24933594 8.5075 5.54164063 7.765 4.8125 7 C4.09707031 6.2575 3.38164063 5.515 2.64453125 4.75 C1.83048828 3.88375 1.83048828 3.88375 1 3 C0.65066406 3.84304688 0.30132813 4.68609375 -0.05859375 5.5546875 C-0.51363281 6.65039062 -0.96867188 7.74609375 -1.4375 8.875 C-1.88996094 9.96554687 -2.34242188 11.05609375 -2.80859375 12.1796875 C-3.49543463 13.80558624 -4.21065887 15.42131774 -5 17 C-5.66 16.67 -6.32 16.34 -7 16 C-6.40539047 14.08034691 -5.79890739 12.16436921 -5.1875 10.25 C-4.85105469 9.18265625 -4.51460937 8.1153125 -4.16796875 7.015625 C-3.08117623 4.20959213 -1.93147463 2.28013624 0 0 Z " fill="#070705" transform="translate(811,675)"/>
<path d="M0 0 C0.66 0.33 1.32 0.66 2 1 C2.6328125 3.06640625 2.6328125 3.06640625 3.125 5.5625 C3.29257812 6.38878906 3.46015625 7.21507812 3.6328125 8.06640625 C3.75398437 8.70449219 3.87515625 9.34257812 4 10 C3.34 9.67 2.68 9.34 2 9 C1.375 5.9375 1.375 5.9375 1 3 C-0.04800781 3.45052734 -0.04800781 3.45052734 -1.1171875 3.91015625 C-2.48230469 4.48056641 -2.48230469 4.48056641 -3.875 5.0625 C-4.77992188 5.44535156 -5.68484375 5.82820313 -6.6171875 6.22265625 C-9 7 -9 7 -11 6 C-9.21385682 4.96953278 -7.42089982 3.95086764 -5.625 2.9375 C-4.62726562 2.36902344 -3.62953125 1.80054688 -2.6015625 1.21484375 C-1.74304688 0.81394531 -0.88453125 0.41304688 0 0 Z " fill="#070605" transform="translate(644,338)"/>
<path d="M0 0 C0.99 1.485 0.99 1.485 2 3 C4.6556728 3.58348752 4.6556728 3.58348752 7.625 3.6875 C8.62789062 3.75324219 9.63078125 3.81898438 10.6640625 3.88671875 C11.43492187 3.92410156 12.20578125 3.96148437 13 4 C13 4.66 13 5.32 13 6 C11.02090602 6.02686553 9.04171029 6.04633375 7.0625 6.0625 C5.96035156 6.07410156 4.85820312 6.08570313 3.72265625 6.09765625 C1 6 1 6 0 5 C-0.04063832 3.33382885 -0.042721 1.66611905 0 0 Z " fill="#060604" transform="translate(163,443)"/>
<path d="M0 0 C1.80330533 3.60661066 2.46599103 6.08393425 3 10 C1.35 10.33 -0.3 10.66 -2 11 C-1.34 7.37 -0.68 3.74 0 0 Z " fill="#EFEEEB" transform="translate(152,390)"/>
<path d="M0 0 C2.29633824 3.44450737 2.54016485 5.93812283 3 10 C2.01 10 1.02 10 0 10 C-0.74926071 6.33694766 -1.2380014 3.57644848 0 0 Z " fill="#F4F4F1" transform="translate(379,593)"/>
<path d="M0 0 C0.66 0.33 1.32 0.66 2 1 C2 3.64 2 6.28 2 9 C0.35 9 -1.3 9 -3 9 C-2.67 8.34 -2.34 7.68 -2 7 C-1.34 7 -0.68 7 0 7 C0 4.69 0 2.38 0 0 Z " fill="#312D27" transform="translate(277,385)"/>
<path d="M0 0 C3.7952131 1.49097658 5.61042731 3.75700849 8 7 C5 7 5 7 2.3125 4.625 C0 2 0 2 0 0 Z " fill="#27261F" transform="translate(850,430)"/>
<path d="M0 0 C1.1055189 0.93590504 2.20935453 1.87379858 3.3125 2.8125 C3.92738281 3.33457031 4.54226563 3.85664062 5.17578125 4.39453125 C6.85424679 5.87172469 8.43882034 7.40039131 10 9 C7 9 7 9 5.17578125 7.5390625 C4.56089844 6.90742187 3.94601562 6.27578125 3.3125 5.625 C2.68988281 4.99851562 2.06726563 4.37203125 1.42578125 3.7265625 C0 2 0 2 0 0 Z " fill="#12110D" transform="translate(813,677)"/>
</svg>
