<?xml version="1.0" encoding="UTF-8"?>
<svg version="1.1" xmlns="http://www.w3.org/2000/svg" width="1024" height="1024">
<path d="M0 0 C337.92 0 675.84 0 1024 0 C1024 337.92 1024 675.84 1024 1024 C686.08 1024 348.16 1024 0 1024 C0 686.08 0 348.16 0 0 Z " fill="#FEFCF6" transform="translate(0,0)"/>
<path d="M0 0 C5.39510157 4.2374482 9.50448412 7.55141029 12 14 C13.98982813 14.69643985 15.99294757 15.354876 18 16 C30.44250654 23.14018202 38.80943404 33.14529899 42.85058594 46.89379883 C44.89446135 55.14492651 45.46936069 62.8919744 45.375 71.375 C45.36774902 72.67268311 45.36049805 73.97036621 45.35302734 75.30737305 C45.14373725 90.13330121 43.35604722 104.56899695 40 119 C41.6396875 119.4021875 41.6396875 119.4021875 43.3125 119.8125 C48.09355693 121.3521624 48.09355693 121.3521624 50 124 C54.13786949 136.41360848 50.96196201 151.89552297 47 164 C46.53207031 165.46566406 46.53207031 165.46566406 46.0546875 166.9609375 C43.86150118 173.09817318 40.75136177 178.62413754 35.125 182.1875 C32.63128186 183.14098047 30.6480372 183.14711318 28 183 C27.76925781 184.00417969 27.53851562 185.00835937 27.30078125 186.04296875 C24.02200913 199.95337754 20.10726989 213.81994869 10.4206543 224.78833008 C8.61477812 227.59971215 8.63575567 229.40230563 8.62109375 232.7265625 C8.09347532 253.61145853 8.09347532 253.61145853 2.75 258.9375 C0.87932189 260.35451866 -1.04151847 261.70704657 -3 263 C-4.58456379 264.28558949 -6.16872901 265.57174337 -7.74243164 266.87060547 C-13.92353033 271.9005936 -20.40963546 276.57130887 -26.8125 281.3125 C-27.58843506 281.88709961 -28.36437012 282.46169922 -29.16381836 283.05371094 C-34.34345898 286.85862101 -39.62295625 290.47991484 -45 294 C-40.10995345 299.76774721 -35.07515796 305.39476999 -30 311 C-31.20597628 315.39945535 -32.97543229 318.60965449 -35.52954102 322.30200195 C-39.68889824 328.19372022 -39.68889824 328.19372022 -40.921875 335.0703125 C-40.13698098 337.78798414 -40.13698098 337.78798414 -38.97265625 340.14453125 C-35.70649572 349.73313907 -38.97883074 361.42366139 -40.37109375 371.22265625 C-40.61579632 372.97710151 -40.8600155 374.73161426 -41.10377502 376.4861908 C-41.61316232 380.14204367 -42.12717802 383.79720498 -42.64477539 387.4519043 C-43.30925344 392.14522845 -43.96381088 396.83987127 -44.6152029 401.5350275 C-45.11721402 405.14785943 -45.62346326 408.76008696 -46.13112068 412.37212944 C-46.37423915 414.10441097 -46.61623911 415.83684984 -46.85711479 417.56944466 C-47.19279587 419.97798043 -47.53394563 422.38567624 -47.87670898 424.79321289 C-47.97597183 425.51261551 -48.07523468 426.23201813 -48.17750549 426.97322083 C-48.88559634 431.88559634 -48.88559634 431.88559634 -50 433 C-52.378078 433.09764835 -54.72707128 433.12997133 -57.10560608 433.12025452 C-57.85783414 433.12110894 -58.6100622 433.12196337 -59.38508505 433.12284368 C-61.92479715 433.12450074 -64.4644443 433.11897345 -67.00415039 433.11352539 C-68.81708271 433.11324354 -70.63001514 433.11340121 -72.44294739 433.1139679 C-77.38075713 433.11425596 -82.31854281 433.10835781 -87.25634694 433.10139394 C-92.41067843 433.09516186 -97.56501042 433.09455672 -102.71934509 433.09336853 C-112.48704092 433.09025478 -122.25472562 433.08204081 -132.02241653 433.07201904 C-143.13951812 433.06085925 -154.25662022 433.05534779 -165.37372601 433.05032361 C-188.24915686 433.03985823 -211.12457781 433.02225795 -234 433 C-234.00364563 432.10987717 -234.00729126 431.21975433 -234.01104736 430.30265808 C-234.04906928 421.87351487 -234.10608186 413.444753 -234.18390274 405.01587963 C-234.22324633 400.68350499 -234.25549858 396.3513296 -234.27099609 392.01879883 C-234.28624986 387.82991333 -234.32084745 383.64157613 -234.36830902 379.45293617 C-234.38303362 377.86278387 -234.39103584 376.27255324 -234.39188385 374.68233299 C-234.40490844 362.49403017 -235.4632865 350.6550912 -244.4921875 341.484375 C-248.87160535 337.48840848 -253.74296414 334.69408187 -259 332 C-254.5742125 317.41841993 -244.59354123 308.51540444 -231.67407227 301.34838867 C-223.80561644 297.18765674 -215.5446508 294.16951943 -207.18701172 291.15136719 C-200.96683283 288.90421201 -194.76165584 286.61691667 -188.5625 284.3125 C-187.88754486 284.06178741 -187.21258972 283.81107483 -186.5171814 283.55276489 C-170.18036899 277.46363571 -154.11254722 270.67905942 -138.32177734 263.28417969 C-136.55954834 262.45901855 -136.55954834 262.45901855 -134.76171875 261.6171875 C-133.70299561 261.11558105 -132.64427246 260.61397461 -131.5534668 260.09716797 C-129 259 -129 259 -127 259 C-125.33954004 265.92044549 -123.79780398 272.84650061 -122.45703125 279.8359375 C-115.05744121 318.3681784 -104.7655221 355.48545467 -89.70800781 391.74829102 C-89.22299805 392.92190186 -88.73798828 394.0955127 -88.23828125 395.3046875 C-87.80555908 396.33577637 -87.37283691 397.36686523 -86.92700195 398.42919922 C-86 401 -86 401 -86 404 C-85.34 404 -84.68 404 -84 404 C-83.98582031 403.1234375 -83.97164062 402.246875 -83.95703125 401.34375 C-83.22411215 381.85206366 -77.97613316 363.14182107 -72.55078125 344.50390625 C-72.28990723 343.56716064 -72.0290332 342.63041504 -71.76025391 341.6652832 C-71.2740949 339.96091651 -70.74851142 338.26699917 -70.17333984 336.59057617 C-69.16235215 333.28937004 -68.60475576 331.07644751 -69.81762695 327.77319336 C-71.09905447 325.4774804 -72.49130783 323.34028767 -74 321.1875 C-74.99317456 319.73211728 -75.97308417 318.26756588 -76.9375 316.79296875 C-77.37964844 316.1589917 -77.82179688 315.52501465 -78.27734375 314.87182617 C-79 313 -79 313 -78.31884766 310.97436523 C-76.99376938 308.99067253 -75.61775818 307.33198441 -73.9609375 305.6171875 C-73.09082031 304.70259766 -73.09082031 304.70259766 -72.203125 303.76953125 C-70.9767043 302.49856108 -69.75014002 301.22772943 -68.5234375 299.95703125 C-67.9459375 299.34988281 -67.3684375 298.74273437 -66.7734375 298.1171875 C-66.24153809 297.56659668 -65.70963867 297.01600586 -65.16162109 296.44873047 C-63.79147984 295.04942953 -63.79147984 295.04942953 -64 293 C-66.44478172 291.14881985 -68.90223959 289.40738512 -71.4375 287.6875 C-85.17590267 278.1746267 -98.49479986 268.09720723 -111 257 C-112.05598389 256.09882446 -112.05598389 256.09882446 -113.13330078 255.17944336 C-115.41698488 252.51315406 -115.49680595 251.25462511 -115.50390625 247.7890625 C-115.52259766 246.79132813 -115.54128906 245.79359375 -115.56054688 244.765625 C-115.56119141 243.72921875 -115.56183594 242.6928125 -115.5625 241.625 C-115.60431756 232.09059677 -116.6961932 226.70436611 -122.75 219.125 C-129.29326999 210.2723406 -133.24335702 200.32076016 -135.875 189.6875 C-136.91694085 185.48399246 -136.91694085 185.48399246 -140.03125 182.84765625 C-141.59797494 182.44814139 -143.17437815 182.08488255 -144.7578125 181.7578125 C-149.26645876 180.23398432 -150.98980525 176.05555325 -153 172 C-159.16224615 158.72746983 -162.75089078 143.67658447 -161 129 C-158.07704527 122.24861001 -158.07704527 122.24861001 -155 120 C-153.34027501 119.6336643 -151.67350749 119.29708846 -150 119 C-150.29003906 117.58074219 -150.29003906 117.58074219 -150.5859375 116.1328125 C-156.58383494 86.0353246 -159.17914246 54.70798307 -142.8125 27.3125 C-138.52694105 20.95053086 -133.37017994 15.44846244 -128 10 C-127.34257813 9.3296875 -126.68515625 8.659375 -126.0078125 7.96875 C-94.89240221 -21.41060736 -34.56738902 -24.20199343 0 0 Z " fill="#171713" transform="translate(749,138)"/>
<path d="M0 0 C0.7031153 -0.00523668 1.4062306 -0.01047336 2.13065243 -0.01586872 C4.48047015 -0.03083913 6.83006955 -0.0315732 9.17993164 -0.03224182 C10.86712002 -0.0398651 12.55430492 -0.04829289 14.2414856 -0.0574646 C18.81989834 -0.07939493 23.39824431 -0.08820608 27.97670364 -0.09329104 C30.83700604 -0.09693516 33.69729094 -0.10317539 36.55758667 -0.11029243 C46.53555063 -0.13477806 56.51346262 -0.14783773 66.49145508 -0.15138245 C75.79434898 -0.15502105 85.09691364 -0.18494192 94.39970684 -0.22678703 C102.38709236 -0.26145676 110.37436853 -0.27693028 118.3618288 -0.27762848 C123.13237875 -0.27842218 127.90259296 -0.28720384 132.67306519 -0.31562614 C137.1580576 -0.34175134 141.64243451 -0.34404332 146.12746811 -0.3279705 C147.77341934 -0.3261518 149.41940553 -0.33288474 151.06528091 -0.34878922 C153.31264455 -0.36918257 155.55784058 -0.3587413 157.80517578 -0.34057617 C159.06245987 -0.3425875 160.31974396 -0.34459883 161.61512756 -0.3466711 C165.82598428 0.44853495 167.31622129 1.91525771 169.90258789 5.27415466 C170.77434252 13.09407683 169.09726465 20.95392072 167.92602539 28.69212341 C167.71745522 30.10178475 167.50942403 31.51152593 167.30189514 32.92134094 C166.74895524 36.66551956 166.18777949 40.40841781 165.6245842 44.15106583 C165.16121709 47.23654787 164.70244934 50.32270666 164.24364376 53.40886974 C161.66838416 70.72702267 159.05790098 88.04025095 156.34008789 105.33665466 C156.21857361 106.11302277 156.09705933 106.88939087 155.97186279 107.68928528 C155.63823642 109.81316285 155.30071045 111.9363699 154.96118164 114.05931091 C154.77869873 115.20278992 154.59621582 116.34626892 154.40820312 117.5243988 C153.90258789 120.27415466 153.90258789 120.27415466 152.90258789 123.27415466 C153.81548584 123.2532074 154.72838379 123.23226013 155.66894531 123.2106781 C159.07025324 123.14232749 162.47082688 123.09227137 165.87255859 123.0544281 C167.3420771 123.03436641 168.8115163 123.00710988 170.28076172 122.97239685 C172.39839276 122.92363325 174.51496476 122.90113305 176.63305664 122.88352966 C177.90560303 122.8625824 179.17814941 122.84163513 180.48925781 122.8200531 C184.59646852 123.36646694 185.90192052 124.47643277 188.90258789 127.27415466 C190.51974487 129.79367065 190.51974487 129.79367065 191.92944336 132.6625824 C192.46705292 133.74148239 193.00466248 134.82038239 193.55856323 135.93197632 C194.12326324 137.09548111 194.68796326 138.2589859 195.26977539 139.45774841 C195.87250686 140.67697636 196.47637923 141.8956409 197.08132935 143.11376953 C198.67064696 146.32090851 200.24580233 149.53479286 201.81762695 152.75053406 C203.70873547 156.61391197 205.61449734 160.47007253 207.52006721 164.32633305 C209.00785165 167.33715143 210.49213218 170.349474 211.96871948 173.36581421 C212.51263336 174.47308365 213.05654724 175.58035309 213.61694336 176.72117615 C214.14848022 177.80373688 214.68001709 178.88629761 215.22766113 180.00166321 C216.97228022 183.41032035 218.86343704 186.71203922 220.76342773 190.03611755 C223.65045237 195.3656175 224.93157326 199.43388602 224.76196289 205.46165466 C224.76489349 206.64815613 224.76489349 206.64815613 224.7678833 207.85862732 C224.7639384 209.50198407 224.74309819 211.14538757 224.70532227 212.78831482 C224.65204371 215.2998066 224.66432436 217.80524461 224.68383789 220.31712341 C224.67204031 221.92783308 224.65655123 223.5385209 224.63696289 225.14915466 C224.64080994 225.89189636 224.64465698 226.63463806 224.64862061 227.39988708 C224.53942699 230.83270483 224.03797108 233.06068351 222.19330692 235.96933556 C217.77390353 240.05424799 211.18794618 238.95762381 205.57237244 238.90907288 C204.1849646 238.91483436 202.79756439 238.92277567 201.41018015 238.9327091 C197.59806304 238.95360236 193.78657092 238.9432565 189.97445142 238.92777801 C185.86326997 238.91647848 181.75219699 238.93392015 177.64103699 238.94767761 C169.58773334 238.96992899 161.53466247 238.96510059 153.48134964 238.95061441 C146.93781412 238.9393304 140.39434392 238.93778762 133.85080147 238.94323349 C132.92011243 238.94399966 131.9894234 238.94476582 131.03053166 238.9455552 C129.13997024 238.9471538 127.24940883 238.94877486 125.35884745 238.95041816 C107.62491079 238.96468102 89.8911033 238.94827411 72.15718783 238.92141633 C56.93285221 238.89907338 41.70870718 238.90296006 26.484375 238.92601013 C8.81310577 238.95275232 -8.85805024 238.96331155 -26.52933687 238.94794881 C-28.41270505 238.94635603 -30.29607324 238.94478418 -32.17944145 238.94323349 C-33.10614471 238.94246211 -34.03284798 238.94169073 -34.98763316 238.94089598 C-41.5256124 238.93657451 -48.06351997 238.94387508 -54.60148811 238.95563126 C-62.56575782 238.96963709 -70.52978106 238.96589669 -78.49402244 238.93922754 C-82.55940068 238.92606392 -86.62436761 238.92097989 -90.68974304 238.9374733 C-94.40877484 238.9523337 -98.12701272 238.94425081 -101.84597211 238.91758554 C-103.83405904 238.90932275 -105.82220074 238.92571332 -107.81023079 238.94287169 C-108.9855324 238.92983295 -110.16083402 238.91679422 -111.37175083 238.90336037 C-112.38820983 238.90254861 -113.40466884 238.90173684 -114.45192963 238.90090048 C-118.10152782 238.03626788 -119.13190739 236.388361 -121.09741211 233.27415466 C-121.6679559 230.66440073 -122.00232157 228.44954513 -122.15600586 225.81712341 C-122.20306671 225.09003174 -122.25012756 224.36294006 -122.2986145 223.61381531 C-123.48599399 200.64647739 -117.81400484 186.61260306 -104.7409668 168.10081482 C-100.81125125 162.49358017 -97.36007854 156.59775199 -93.86642456 150.71339417 C-91.5659342 146.85431655 -89.2103858 143.02859609 -86.86450195 139.19700623 C-85.69854929 137.26846447 -84.55248288 135.32774057 -83.42797852 133.3747406 C-82.91283691 132.48303162 -82.39769531 131.59132263 -81.86694336 130.67259216 C-81.42584229 129.89319275 -80.98474121 129.11379333 -80.53027344 128.31077576 C-78.80452166 125.85785 -77.79275076 124.6558718 -75.09741211 123.27415466 C-71.90065344 122.86835177 -68.73701793 122.92570717 -65.51928711 122.98118591 C-64.12942596 122.98755318 -64.12942596 122.98755318 -62.71148682 122.99404907 C-59.75649777 123.01082144 -56.8021945 123.04847111 -53.84741211 123.08665466 C-51.84221364 123.10170336 -49.83700446 123.11539144 -47.83178711 123.12767029 C-42.92006515 123.16072028 -38.00885485 123.21249285 -33.09741211 123.27415466 C-33.06533157 122.68045074 -33.03325104 122.08674683 -33.00019836 121.47505188 C-32.22695931 110.15885605 -30.35677346 98.98512466 -28.64038086 87.78196716 C-28.38446387 86.10517694 -28.38446387 86.10517694 -28.12337685 84.39451218 C-27.22228931 78.4929727 -26.3161087 72.59224136 -25.40576172 66.69212341 C-24.46808342 60.60798006 -23.54834882 54.52126314 -22.63254833 48.43379402 C-21.92275031 43.73792498 -21.19964169 39.04417549 -20.47289467 34.35090256 C-20.12781945 32.10702066 -19.78777277 29.86235935 -19.45290184 27.61693192 C-18.98415942 24.48224457 -18.49660415 21.35103144 -18.00439453 18.21995544 C-17.87073486 17.29725357 -17.7370752 16.3745517 -17.59936523 15.42388916 C-16.75331314 10.19210401 -15.6917006 6.37657609 -12.09741211 2.27415466 C-8.03483281 0.16400218 -4.53671787 0.01678065 0 0 Z " fill="#171712" transform="translate(740.097412109375,470.72584533691406)"/>
<path d="M0 0 C102.3 0 204.6 0 310 0 C310 123 310 123 307 131 C303.07863705 134.73007696 300.5547142 136.12388029 295.22321606 136.13142776 C294.20864934 136.13526891 293.19408263 136.13911005 292.14877146 136.1430676 C290.46422696 136.14176787 290.46422696 136.14176787 288.74565125 136.14044189 C287.55915649 136.14341302 286.37266173 136.14638414 285.15021259 136.1494453 C281.84651043 136.15664098 278.54286026 136.1593058 275.23915398 136.16004276 C271.68009043 136.16189039 268.12103822 136.16943626 264.5619812 136.17617798 C256.77482374 136.18977395 248.98767142 136.19578802 241.20050406 136.20018864 C236.34032631 136.20294899 231.48015055 136.20718597 226.61997414 136.21169281 C213.16989485 136.22388725 199.71981717 136.23418614 186.26973248 136.2375679 C185.40848565 136.23778747 184.54723883 136.23800703 183.65989362 136.23823325 C182.79655725 136.23845153 181.93322088 136.23866981 181.04372281 136.2388947 C179.29420388 136.23933817 177.54468495 136.23978473 175.79516602 136.24023438 C174.92733967 136.2404558 174.05951333 136.24067723 173.16538922 136.24090537 C159.10094196 136.24485406 145.03654649 136.26230943 130.97211923 136.2855939 C116.54064134 136.30929364 102.10918944 136.32176913 87.67769176 136.32293582 C79.57161027 136.32385337 71.46559624 136.32962573 63.35953331 136.34775543 C56.45735448 136.36313788 49.55526396 136.36828791 42.65307125 136.36001733 C39.13043285 136.35610417 35.60797239 136.35707262 32.08535576 136.37107468 C28.26859305 136.3861074 24.45208229 136.37796675 20.63529968 136.36749268 C18.96079342 136.37957728 18.96079342 136.37957728 17.25245875 136.39190602 C7.91431278 136.33171673 7.91431278 136.33171673 4 133 C-25.2069044 99.62068069 0 44.35337893 0 0 Z " fill="#181813" transform="translate(637,717)"/>
<path d="M0 0 C51.15 0 102.3 0 155 0 C153.7805724 10.3651346 152.52764498 20.65105573 150.93359375 30.953125 C150.63451312 32.91241526 150.33543519 34.87170594 150.03646278 36.83101273 C149.72147159 38.89197978 149.40512642 40.95273462 149.08834839 43.01342773 C147.96918977 50.29443587 146.85948397 57.57688742 145.75 64.859375 C145.63650648 65.60370789 145.52301296 66.34804077 145.40608025 67.1149292 C143.69417131 78.34762298 142.02020037 89.58547491 140.375 100.828125 C140.2708333 101.53917641 140.1666666 102.25022781 140.05934334 102.98282623 C139.15297806 109.16986001 138.24733511 115.35699453 137.35128784 121.54553223 C136.80857369 125.29118053 136.26198317 129.03624601 135.71484375 132.78125 C135.55487915 133.89574524 135.39491455 135.01024048 135.23010254 136.1585083 C135.08190063 137.16903259 134.93369873 138.17955688 134.78100586 139.22070312 C134.5897538 140.54092468 134.5897538 140.54092468 134.39463806 141.88781738 C134 144 134 144 133 146 C81.85 146 30.7 146 -22 146 C-20.8751423 132.50170758 -20.8751423 132.50170758 -20.00366211 126.80932617 C-19.80905396 125.52436249 -19.6144458 124.2393988 -19.41394043 122.91549683 C-19.20177391 121.5413158 -18.98957401 120.16713993 -18.77734375 118.79296875 C-18.55343663 117.32233609 -18.3299366 115.85164141 -18.10681152 114.38088989 C-17.63319532 111.26340546 -17.15729575 108.14628269 -16.67941284 105.02944946 C-15.55091528 97.66899699 -14.43220495 90.30705648 -13.31459236 82.94494438 C-13.06282738 81.28650201 -12.81091833 79.6280815 -12.5588665 77.96968269 C-10.84796534 66.70750302 -9.17832132 55.44027225 -7.5625 44.1640625 C-7.37853165 42.88281998 -7.19456329 41.60157745 -7.00502014 40.2815094 C-6.14987372 34.3159297 -5.30193683 28.34942191 -4.46264648 22.3815918 C-4.16146131 20.27129795 -3.86012017 18.16102636 -3.55859375 16.05078125 C-3.42884155 15.11042023 -3.29908936 14.1700592 -3.16540527 13.20120239 C-3.04048706 12.33341156 -2.91556885 11.46562073 -2.78686523 10.5715332 C-2.68236557 9.82797073 -2.57786591 9.08440826 -2.47019958 8.3183136 C-1.89526065 5.48358386 -0.91467193 2.7440158 0 0 Z " fill="#FDFBF6" transform="translate(739,487)"/>
<path d="M0 0 C4.02938363 1.28042049 7.83348812 2.7606102 11.6640625 4.546875 C25.37503476 10.85892624 39.1612316 16.76702321 53.25 22.1875 C54.01359833 22.48171844 54.77719666 22.77593689 55.56393433 23.07907104 C59.31603201 24.52374465 63.06975972 25.96411761 66.82470703 27.40136719 C111.90463657 44.65678077 111.90463657 44.65678077 124 57 C124.33 57.99 124.66 58.98 125 60 C94.95064718 60.8376445 64.92775021 61.13480176 34.86749268 61.06866455 C29.54838488 61.05814651 24.22927161 61.05380821 18.91015625 61.04882812 C8.60675749 61.03833157 -1.69661856 61.021435 -12 61 C-6.70998103 31.03848167 -6.70998103 31.03848167 -3.75 16.4375 C-3.49476563 15.15810547 -3.23953125 13.87871094 -2.9765625 12.56054688 C-1.13447096 3.40341288 -1.13447096 3.40341288 0 0 Z " fill="#171712" transform="translate(767,397)"/>
<path d="M0 0 C3.06458538 2.04305692 3.82153128 3.44079802 4.9375 6.9375 C5.03844316 11.88371466 2.37152446 14.722707 -0.91539001 18.1693573 C-2.1115661 19.377358 -3.3132453 20.57992507 -4.51928711 21.77807617 C-5.50517067 22.76921669 -5.50517067 22.76921669 -6.51097107 23.78038025 C-8.67810153 25.95629091 -10.85243943 28.12483038 -13.02734375 30.29296875 C-14.53834311 31.80531566 -16.04904549 33.31795933 -17.5594635 34.83088684 C-20.72284166 37.99721111 -23.88980296 41.15989572 -27.05932617 44.32006836 C-31.12267099 48.3720093 -35.17695872 52.43287517 -39.22861385 56.49650097 C-42.34506972 59.6201809 -45.46626982 62.73908523 -48.58893013 65.85656166 C-50.08593152 67.35222858 -51.5814478 68.84938346 -53.0754528 70.34804344 C-55.16260862 72.44027439 -57.25606164 74.52599338 -59.35131836 76.61010742 C-59.96807434 77.23091187 -60.58483032 77.85171631 -61.22027588 78.49133301 C-61.79360153 79.05901901 -62.36692719 79.62670502 -62.95762634 80.21159363 C-63.4514981 80.70471133 -63.94536985 81.19782904 -64.45420742 81.7058897 C-67.38388944 84.15856785 -69.47499915 84.98018865 -73.3125 85.125 C-81.43615604 82.64659646 -86.61975542 72.66843931 -91.5 66.0625 C-92.75960353 64.36528164 -94.02001606 62.66866338 -95.28125 60.97265625 C-96.19716919 59.73588135 -96.19716919 59.73588135 -97.1315918 58.47412109 C-99.56741425 55.24863766 -102.10462391 52.10826033 -104.6652832 48.98120117 C-106 47 -106 47 -106.6875 43.25 C-105.89147136 39.48695554 -104.70239439 37.70239439 -102 35 C-98.67334609 33.33667305 -95.55510823 33.14209454 -92 34 C-89.1088794 36.21891875 -87.14449925 39.07686917 -85 42 C-84.1631831 43.08567311 -83.3231381 44.1688631 -82.48046875 45.25 C-80.75102029 47.47326065 -79.03474095 49.70541969 -77.33203125 51.94921875 C-75.25709016 54.66367267 -73.14568584 57.3413226 -71 60 C-66.99260303 58.39425598 -64.31601504 55.57769236 -61.34521484 52.55639648 C-60.7918898 52.0017572 -60.23856476 51.44711792 -59.66847229 50.87567139 C-57.84464957 49.04536905 -56.02790474 47.20819955 -54.2109375 45.37109375 C-52.94400135 44.09788633 -51.6765481 42.82519327 -50.40859985 41.55299377 C-47.07442735 38.20552572 -43.74586963 34.85253448 -40.41888428 31.4979248 C-35.0876273 26.12352361 -29.74961312 20.75585424 -24.40837479 15.39137459 C-22.54137089 13.51412555 -20.67780418 11.63351288 -18.81454468 9.75254822 C-17.67514321 8.60632108 -16.53563298 7.46020206 -15.39599609 6.31420898 C-14.87647873 5.78795425 -14.35696136 5.26169952 -13.82170105 4.71949768 C-9.42429956 0.30811111 -6.28751467 -0.88398721 0 0 Z " fill="#161611" transform="translate(859,515)"/>
<path d="M0 0 C27.77777778 0 27.77777778 0 34.375 6.25 C38.26863419 12.8392271 39.45645406 18.51545953 39.3984375 26.03125 C39.40130768 26.86660278 39.40417786 27.70195557 39.40713501 28.56262207 C39.40916371 30.31730839 39.40371801 32.07201794 39.39111328 33.82666016 C39.37504199 36.49303366 39.39100231 39.15789167 39.41015625 41.82421875 C39.40817361 43.5390658 39.40432949 45.25391192 39.3984375 46.96875 C39.40754654 48.14878601 39.40754654 48.14878601 39.4168396 49.35266113 C39.32295894 56.84191809 37.44703366 63.55296634 32 69 C21.33824417 75.21935757 13.89183317 73 0 73 C0 48.91 0 24.82 0 0 Z " fill="#181713" transform="translate(327,400)"/>
<path d="M0 0 C24 0 24 0 32 4 C37.60112366 9.60112366 39.20824195 14.83582127 39.30354309 22.54756165 C39.30263168 23.36331161 39.30172028 24.17906158 39.30078125 25.01953125 C39.30506638 25.8775383 39.3093515 26.73554535 39.31376648 27.61955261 C39.31948987 29.42905804 39.32002477 31.23858646 39.31567383 33.0480957 C39.31252177 35.79353839 39.33597014 38.53789401 39.36132812 41.28320312 C39.36360235 43.04947782 39.36430404 44.81575538 39.36328125 46.58203125 C39.372491 47.39170853 39.38170074 48.2013858 39.39118958 49.03559875 C39.34307234 55.06713516 38.68631296 61.81458931 34.6542511 66.59577942 C24.43837006 75.55889728 14.30428805 72 0 72 C0 48.24 0 24.48 0 0 Z " fill="#161612" transform="translate(215,496)"/>
<path d="M0 0 C4.88535127 3.77504417 6.79967132 8.06744026 8 14 C8.35586323 19.15969617 8.39024252 24.28566653 8.33618164 29.45556641 C8.31262091 31.86264771 8.31563228 34.26861388 8.32226562 36.67578125 C8.28447115 59.81660722 8.28447115 59.81660722 2.6875 65.5625 C1.82705078 66.49255859 1.82705078 66.49255859 0.94921875 67.44140625 C-3.92548723 71.33921724 -8.9568329 71.49018758 -14.98828125 71.37890625 C-21.14192303 70.60471267 -24.70704752 67.65763139 -28.4375 62.875 C-30.39692615 59.26965588 -31.12640813 56.60535215 -31.17700195 52.5637207 C-31.18983719 51.66881424 -31.20267242 50.77390778 -31.21589661 49.85188293 C-31.22328354 48.88626938 -31.23067047 47.92065582 -31.23828125 46.92578125 C-31.246353 45.92798141 -31.25442474 44.93018158 -31.26274109 43.90214539 C-31.27657609 41.78805272 -31.28730085 39.67393776 -31.29516602 37.55981445 C-31.3123416 34.3421737 -31.35622923 31.12557049 -31.40039062 27.90820312 C-31.41052123 25.85157004 -31.41903618 23.79492823 -31.42578125 21.73828125 C-31.44328934 20.78278885 -31.46079742 19.82729645 -31.47883606 18.84284973 C-31.45916018 12.71816342 -30.49654685 8.10889501 -27 3 C-19.38670329 -4.41808398 -9.19289929 -5.22733489 0 0 Z " fill="#161512" transform="translate(445,498)"/>
<path d="M0 0 C23 0 23 0 31 4 C37.43695048 10.43695048 38.31286079 16.55334643 38.3359375 25.23828125 C38.3425943 26.11848434 38.3492511 26.99868744 38.35610962 27.90556335 C38.36620164 29.76213503 38.37092771 31.61874272 38.37060547 33.4753418 C38.37497045 36.29342451 38.41130333 39.1099291 38.44921875 41.92773438 C38.45508955 43.73957803 38.45905718 45.55142906 38.4609375 47.36328125 C38.47530853 48.19483231 38.48967957 49.02638336 38.50448608 49.88313293 C38.44974154 57.00776344 36.69182242 63.30817758 31.5625 68.4375 C20.86845162 74.95826121 15.41511884 72 0 72 C0 48.24 0 24.48 0 0 Z " fill="#171713" transform="translate(285,496)"/>
<path d="M0 0 C23 0 23 0 32 4 C36.98159976 8.98159976 38.289571 13.88029954 38.3125 20.8125 C38.21969013 27.13682985 37.83464825 32.73155334 33.51953125 37.70703125 C32 39 32 39 30 39 C30.27263672 39.8878418 30.54527344 40.77568359 30.82617188 41.69042969 C31.83697164 44.99151164 32.84276257 48.29403425 33.84521484 51.59765625 C34.2797446 53.02599866 34.71625053 54.45374146 35.15478516 55.88085938 C35.7855088 57.93464431 36.40904743 59.99049488 37.03125 62.046875 C37.59682617 63.90070801 37.59682617 63.90070801 38.17382812 65.79199219 C39 69 39 69 39 73 C35.04 73 31.08 73 27 73 C25.87370529 69.47957617 24.74892347 65.95868086 23.625 62.4375 C23.30789062 61.44685547 22.99078125 60.45621094 22.6640625 59.43554688 C21.02937772 54.31012899 19.43952697 49.18375117 18 44 C16.35 43.67 14.7 43.34 13 43 C13 52.9 13 62.8 13 73 C8.71 73 4.42 73 0 73 C0 48.91 0 24.82 0 0 Z " fill="#161612" transform="translate(166,400)"/>
<path d="M0 0 C4.29 0 8.58 0 13 0 C16.71473247 8.89766871 19.73374596 17.97412983 22.75 27.125 C24.4825 32.36375 26.215 37.6025 28 43 C28.33 28.81 28.66 14.62 29 0 C32.96 0 36.92 0 41 0 C41 23.76 41 47.52 41 72 C36.38 72 31.76 72 27 72 C26.47043701 70.36587158 26.47043701 70.36587158 25.93017578 68.69873047 C24.61467201 64.63956691 23.29883959 60.58050995 21.98291016 56.52148438 C21.4144617 54.76793252 20.84610123 53.01435214 20.27783203 51.26074219 C19.45889289 48.73364803 18.63963274 46.20665812 17.8203125 43.6796875 C17.56814972 42.90132538 17.31598694 42.12296326 17.05618286 41.3210144 C16.8160849 40.58069977 16.57598694 39.84038513 16.32861328 39.07763672 C16.11987579 38.43365936 15.91113831 37.78968201 15.69607544 37.12619019 C14.80812791 34.41391905 13.90248909 31.70746726 13 29 C12.67 43.19 12.34 57.38 12 72 C8.04 72 4.08 72 0 72 C0 48.24 0 24.48 0 0 Z " fill="#191914" transform="translate(165,496)"/>
<path d="M0 0 C1.37478516 0.01740234 1.37478516 0.01740234 2.77734375 0.03515625 C3.69644531 0.04417969 4.61554687 0.05320312 5.5625 0.0625 C6.27277344 0.07410156 6.98304688 0.08570313 7.71484375 0.09765625 C7.57175781 1.34482422 7.57175781 1.34482422 7.42578125 2.6171875 C7.25949219 4.24720703 7.25949219 4.24720703 7.08984375 5.91015625 C6.97382812 6.98910156 6.8578125 8.06804688 6.73828125 9.1796875 C6.44024219 12.29389957 6.44024219 12.29389957 8.71484375 15.09765625 C11.8971896 15.55961062 11.8971896 15.55961062 15.73069763 15.4853363 C16.46124566 15.49072184 17.19179368 15.49610738 17.94447953 15.50165612 C20.40513105 15.51602294 22.8652512 15.5088108 25.32592773 15.50170898 C27.08488399 15.50740803 28.84383654 15.51437047 30.6027832 15.52250671 C35.38995659 15.54050517 40.17694736 15.5392572 44.96414447 15.53356433 C48.95541275 15.530482 52.94664547 15.53655426 56.93790871 15.54260308 C66.35129518 15.55666876 75.76459095 15.55507016 85.17797852 15.54370117 C94.90058986 15.53221845 104.62292542 15.54629358 114.34550041 15.57309765 C122.68269341 15.59522477 131.01979966 15.60189877 139.35701996 15.59602123 C144.34098508 15.59264321 149.32477339 15.59512253 154.30871391 15.61227226 C158.99470106 15.62769177 163.68027842 15.62384173 168.36624908 15.60496712 C170.0888136 15.60126728 171.81140813 15.60443007 173.53394508 15.61485291 C175.880444 15.62797015 178.22556767 15.61659968 180.57200623 15.59886169 C182.54397303 15.59854777 182.54397303 15.59854777 184.55577755 15.5982275 C187.77086145 15.4008308 187.77086145 15.4008308 189.6156168 13.2411356 C190.96259835 10.61453776 191.45138264 8.26155881 191.90234375 5.34765625 C192.06089844 4.3628125 192.21945312 3.37796875 192.3828125 2.36328125 C192.49238281 1.615625 192.60195313 0.86796875 192.71484375 0.09765625 C195.02484375 0.09765625 197.33484375 0.09765625 199.71484375 0.09765625 C204.60307455 11.39742698 204.60307455 11.39742698 204.71484375 17.09765625 C203.46950568 20.21100142 202.57602325 21.64043466 199.60530853 23.2176609 C195.91046201 24.34254842 192.41642028 24.38074141 188.59240723 24.36508179 C187.3723504 24.37187846 187.3723504 24.37187846 186.12764597 24.37881243 C183.40470087 24.39146348 180.6819556 24.38983563 177.95898438 24.38818359 C176.00579064 24.39416828 174.05259927 24.40097369 172.09941101 24.40853882 C166.79580886 24.42620907 161.49227124 24.43089455 156.1886425 24.43217039 C151.76248635 24.43406939 147.33634524 24.44142667 142.91019487 24.44851458 C132.47023284 24.46479896 122.0303053 24.46968337 111.59033203 24.46826172 C100.8151454 24.46705929 90.04015875 24.48818119 79.26502275 24.51974905 C70.01650311 24.5458804 60.76804892 24.55663038 51.51949263 24.5553509 C45.99447569 24.55484047 40.46963658 24.56056862 34.94465637 24.581707 C29.75059297 24.60103721 24.55687803 24.60124963 19.36280251 24.58667374 C17.45562546 24.58457826 15.54842689 24.58933031 13.64128685 24.60139465 C11.03953889 24.61678846 8.43900142 24.60757849 5.83728027 24.59213257 C4.70279442 24.60756326 4.70279442 24.60756326 3.54538965 24.62330568 C-0.06929282 24.57581544 -2.13317482 24.19303619 -5.22249603 22.25425148 C-7.365977 20.01315487 -8.29407483 18.42678847 -8.56640625 15.30859375 C-7.9638858 10.57211355 -5.5610274 0.23765074 0 0 Z " fill="#F2F1EC" transform="translate(694.28515625,630.90234375)"/>
<path d="M0 0 C1.93166016 0.01740234 1.93166016 0.01740234 3.90234375 0.03515625 C5.19269531 0.04417969 6.48304688 0.05320312 7.8125 0.0625 C8.81152344 0.07410156 9.81054688 0.08570313 10.83984375 0.09765625 C12.4462264 3.81387205 13.43933309 7.40772593 14.26025391 11.36914062 C14.52037262 12.61393188 14.78049133 13.85872314 15.04849243 15.14123535 C15.32554279 16.49124191 15.60234131 17.84130017 15.87890625 19.19140625 C16.16724859 20.58481181 16.4558575 21.97816223 16.74472046 23.37145996 C17.34782785 26.28592246 17.94755439 29.201055 18.54492188 32.11669922 C19.30950937 35.84702724 20.0827189 39.575506 20.85849953 43.3035202 C21.45571868 46.17844103 22.04823273 49.05431614 22.63935471 51.93049622 C22.92255206 53.30546898 23.20722732 54.68013823 23.49342728 56.05448914 C23.89314779 57.97739415 24.28583235 59.90175767 24.67822266 61.82617188 C24.90313385 62.91917603 25.12804504 64.01218018 25.35977173 65.13830566 C25.83984375 68.09765625 25.83984375 68.09765625 25.83984375 73.09765625 C21.54984375 73.09765625 17.25984375 73.09765625 12.83984375 73.09765625 C12.17984375 69.13765625 11.51984375 65.17765625 10.83984375 61.09765625 C3.90984375 60.60265625 3.90984375 60.60265625 -3.16015625 60.09765625 C-3.46953125 62.05703125 -3.77890625 64.01640625 -4.09765625 66.03515625 C-5.03515625 71.97265625 -5.03515625 71.97265625 -6.16015625 73.09765625 C-8.17979824 73.17009678 -10.20182749 73.18142813 -12.22265625 73.16015625 C-13.32738281 73.15113281 -14.43210937 73.14210938 -15.5703125 73.1328125 C-16.42496094 73.12121094 -17.27960938 73.10960937 -18.16015625 73.09765625 C-17.58185629 64.77566242 -15.9836724 56.74159699 -14.25390625 48.59375 C-13.965918 47.22045602 -13.67828594 45.8470873 -13.39099121 44.47364807 C-12.79246555 41.61803285 -12.19034333 38.76320837 -11.58544922 35.90893555 C-10.80916462 32.24494198 -10.04105891 28.57929057 -9.27544403 24.91305447 C-8.68466401 22.08757139 -8.09016598 19.26288116 -7.49446106 16.43843269 C-7.20954591 15.08580301 -6.92567804 13.7329523 -6.64286804 12.37988091 C-6.24935242 10.50043745 -5.85040309 8.62213414 -5.45117188 6.74389648 C-5.22546509 5.6748558 -4.9997583 4.60581512 -4.76721191 3.50437927 C-3.86405676 -0.07625496 -3.84282431 0.1187523 0 0 Z " fill="#171712" transform="translate(274.16015625,399.90234375)"/>
<path d="M0 0 C1.93166016 0.01740234 1.93166016 0.01740234 3.90234375 0.03515625 C5.19269531 0.04417969 6.48304688 0.05320312 7.8125 0.0625 C8.81152344 0.07410156 9.81054688 0.08570313 10.83984375 0.09765625 C12.42593032 3.77863178 13.43240059 7.34256035 14.26025391 11.26147461 C14.52037262 12.48301743 14.78049133 13.70456024 15.04849243 14.96311951 C15.32557315 16.28785528 15.60237087 17.61265028 15.87890625 18.9375 C16.16728782 20.3060824 16.45589616 21.67461704 16.74472046 23.04310608 C17.34784332 25.90627968 17.94752963 28.77014694 18.54492188 31.63452148 C19.30882578 35.29542391 20.08229666 38.95422846 20.85849953 42.61254025 C21.45642151 45.4367307 22.04869607 48.2620834 22.63935471 51.08780098 C22.92216509 52.43691455 23.2068312 53.78564056 23.49342728 55.133955 C23.89416333 57.02289574 24.28635969 58.91364197 24.67822266 60.80444336 C24.90313385 61.87746201 25.12804504 62.95048065 25.35977173 64.05601501 C25.83984375 67.09765625 25.83984375 67.09765625 25.83984375 73.09765625 C21.87984375 73.09765625 17.91984375 73.09765625 13.83984375 73.09765625 C12.27544861 68.20892143 11.83984375 65.49043039 11.83984375 60.09765625 C6.88984375 60.09765625 1.93984375 60.09765625 -3.16015625 60.09765625 C-3.82015625 64.38765625 -4.48015625 68.67765625 -5.16015625 73.09765625 C-9.45015625 73.09765625 -13.74015625 73.09765625 -18.16015625 73.09765625 C-17.36593287 65.4179303 -15.7943814 57.91059225 -14.25390625 50.3515625 C-13.966117 48.93052677 -13.67848116 47.50945996 -13.39099121 46.08836365 C-12.79114052 43.12694038 -12.18906214 40.1659809 -11.58544922 37.20532227 C-10.81072229 33.40415512 -10.0422363 29.60175631 -9.27544403 25.79898167 C-8.68450397 22.8723239 -8.09001599 19.94639558 -7.49446106 17.02067375 C-7.20940785 15.61782464 -6.92554066 14.21473401 -6.64286804 12.81140327 C-6.24929474 10.85993688 -5.85037167 8.9095517 -5.45117188 6.95922852 C-5.11261169 5.2933242 -5.11261169 5.2933242 -4.76721191 3.59376526 C-3.87892174 -0.05873192 -3.89479075 0.12035818 0 0 Z " fill="#171612" transform="translate(132.16015625,399.90234375)"/>
<path d="M0 0 C1.39456452 0.00667256 2.78911118 0.01863093 4.18359375 0.03515625 C4.89451172 0.03966797 5.60542969 0.04417969 6.33789062 0.04882812 C8.09899388 0.06064761 9.86005411 0.07858362 11.62109375 0.09765625 C13.15176549 7.35669818 14.68187354 14.61585869 16.21128654 21.87516594 C16.92167436 25.24691253 17.63224727 28.61861987 18.34326172 31.99023438 C19.16300572 35.87748396 19.98191131 39.76490994 20.80078125 43.65234375 C21.05294403 44.84753632 21.30510681 46.04272888 21.56491089 47.2741394 C22.03757208 49.51920573 22.50821741 51.76469775 22.97650146 54.01068115 C23.39223934 56.00166446 23.81327436 57.99155256 24.24078369 59.9800415 C24.42445496 60.85303894 24.60812622 61.72603638 24.79736328 62.62548828 C24.95753937 63.37428253 25.11771545 64.12307678 25.28274536 64.89456177 C25.62109375 67.09765625 25.62109375 67.09765625 25.62109375 72.09765625 C21.33109375 72.09765625 17.04109375 72.09765625 12.62109375 72.09765625 C12.12609375 66.15765625 12.12609375 66.15765625 11.62109375 60.09765625 C6.67109375 60.09765625 1.72109375 60.09765625 -3.37890625 60.09765625 C-4.03890625 64.05765625 -4.69890625 68.01765625 -5.37890625 72.09765625 C-9.66890625 72.09765625 -13.95890625 72.09765625 -18.37890625 72.09765625 C-17.05229592 63.05490304 -15.45290487 54.12303218 -13.59375 45.17578125 C-13.33259903 43.90917664 -13.07144806 42.64257202 -12.80238342 41.33758545 C-12.25575734 38.68847037 -11.70675229 36.03986299 -11.15600586 33.39160156 C-10.44947303 29.99307878 -9.74948245 26.59324476 -9.05123043 23.19301224 C-8.38150923 19.93651963 -7.7061189 16.68121099 -7.03125 13.42578125 C-6.78020004 12.20304504 -6.52915009 10.98030884 -6.27049255 9.72052002 C-6.03677444 8.60135193 -5.80305634 7.48218384 -5.56225586 6.32910156 C-5.25486732 4.84570282 -5.25486732 4.84570282 -4.94126892 3.33233643 C-4.04570596 -0.22639337 -3.88907588 0.11240104 0 0 Z " fill="#161612" transform="translate(132.37890625,495.90234375)"/>
<path d="M0 0 C1.39456452 0.00667256 2.78911118 0.01863093 4.18359375 0.03515625 C4.89451172 0.03966797 5.60542969 0.04417969 6.33789062 0.04882812 C8.09899388 0.06064761 9.86005411 0.07858362 11.62109375 0.09765625 C11.75224075 0.73055573 11.88338776 1.3634552 12.01850891 2.01553345 C13.39710979 8.66802488 14.77637446 15.32037846 16.15600586 21.97265625 C16.66919321 24.44755662 17.18221746 26.92249082 17.69506836 29.39746094 C18.19328404 31.80170333 18.69172466 34.20589912 19.19039917 36.61004639 C19.67556281 38.94917113 20.16020772 41.28840353 20.64431763 43.62774658 C22.09084836 50.6025407 23.57861206 57.56473356 25.16479492 64.50927734 C25.62109375 67.09765625 25.62109375 67.09765625 25.62109375 72.09765625 C21.33109375 72.09765625 17.04109375 72.09765625 12.62109375 72.09765625 C12.12609375 66.15765625 12.12609375 66.15765625 11.62109375 60.09765625 C6.67109375 60.09765625 1.72109375 60.09765625 -3.37890625 60.09765625 C-4.03890625 64.05765625 -4.69890625 68.01765625 -5.37890625 72.09765625 C-9.66890625 72.09765625 -13.95890625 72.09765625 -18.37890625 72.09765625 C-17.05229592 63.05490304 -15.45290487 54.12303218 -13.59375 45.17578125 C-13.33259903 43.90917664 -13.07144806 42.64257202 -12.80238342 41.33758545 C-12.25575734 38.68847037 -11.70675229 36.03986299 -11.15600586 33.39160156 C-10.44947303 29.99307878 -9.74948245 26.59324476 -9.05123043 23.19301224 C-8.38150923 19.93651963 -7.7061189 16.68121099 -7.03125 13.42578125 C-6.78020004 12.20304504 -6.52915009 10.98030884 -6.27049255 9.72052002 C-6.03677444 8.60135193 -5.80305634 7.48218384 -5.56225586 6.32910156 C-5.25486732 4.84570282 -5.25486732 4.84570282 -4.94126892 3.33233643 C-4.04570596 -0.22639337 -3.88907588 0.11240104 0 0 Z " fill="#161511" transform="translate(345.37890625,495.90234375)"/>
<path d="M0 0 C3.15521871 2.72739244 5.4559582 6.1364643 7 10 C7.26022279 14.01783984 7.08763938 17.9685883 7 22 C2.71 22 -1.58 22 -6 22 C-6.34179688 17.75195312 -6.34179688 17.75195312 -6.68359375 13.50390625 C-6.73211468 11.06359221 -6.73211468 11.06359221 -8 10 C-12.03083011 9.67539739 -12.03083011 9.67539739 -16 10 C-18.06395769 13.09593653 -18.24958596 13.74035479 -18.24291992 17.24023438 C-18.24599655 18.09121704 -18.24907318 18.94219971 -18.25224304 19.81896973 C-18.24505753 20.73464722 -18.23787201 21.65032471 -18.23046875 22.59375 C-18.23001053 23.53682007 -18.22955231 24.47989014 -18.2290802 25.45153809 C-18.22605925 27.44540668 -18.21817764 29.43927294 -18.20581055 31.43310547 C-18.1875714 34.48804063 -18.18530078 37.54267236 -18.18554688 40.59765625 C-18.18063088 42.53385679 -18.17480221 44.47005528 -18.16796875 46.40625 C-18.16685593 47.32192749 -18.1657431 48.23760498 -18.16459656 49.18103027 C-18.15821671 50.03201294 -18.15183685 50.88299561 -18.14526367 51.75976562 C-18.14145187 52.50794556 -18.13764008 53.25612549 -18.13371277 54.02697754 C-18.06858948 56.21316229 -18.06858948 56.21316229 -17 59 C-15.741875 59.04125 -14.48375 59.0825 -13.1875 59.125 C-12.12595703 59.15980469 -12.12595703 59.15980469 -11.04296875 59.1953125 C-8.68640281 59.13254462 -8.68640281 59.13254462 -6 57 C-4.9458482 53.83754459 -4.68724328 51.13051782 -4.4375 47.8125 C-4.35371094 46.72582031 -4.26992187 45.63914062 -4.18359375 44.51953125 C-4.12300781 43.68808594 -4.06242187 42.85664063 -4 42 C-6.64 42 -9.28 42 -12 42 C-12 38.37 -12 34.74 -12 31 C-5.4 31 1.2 31 8 31 C8.04125 34.279375 8.0825 37.55875 8.125 40.9375 C8.14320801 41.95191162 8.16141602 42.96632324 8.18017578 44.01147461 C8.23080321 52.42624351 7.68813774 60.38946154 2 67 C-3.51157109 71.55303699 -8.64810444 71.60674827 -15.6796875 71.3828125 C-21.55863475 70.70500446 -24.45898657 68.83255651 -28.3125 64.25 C-31.68387907 57.75697364 -32.30940717 51.43696489 -32.30078125 44.2578125 C-32.30506638 43.44939911 -32.3093515 42.64098572 -32.31376648 41.80807495 C-32.31947303 40.10887584 -32.32003739 38.40965231 -32.31567383 36.71044922 C-32.31251665 34.13856487 -32.33600892 31.56783619 -32.36132812 28.99609375 C-32.44119086 9.00544607 -32.44119086 9.00544607 -27.35473633 3.08496094 C-19.55906923 -4.32600271 -9.39295969 -4.74053688 0 0 Z " fill="#181814" transform="translate(243,402)"/>
<path d="M0 0 C4.51576384 2.65633167 6.89575507 5.59906845 9.5 10.1875 C10.50998362 14.13561777 10.30899016 17.80507953 10.1875 21.875 C5.8975 21.875 1.6075 21.875 -2.8125 21.875 C-2.97526042 19.59635417 -3.13802083 17.31770833 -3.30078125 15.0390625 C-3.64240528 12.49578662 -3.64240528 12.49578662 -6.8125 10.875 C-9.92554814 11.03260028 -9.92554814 11.03260028 -12.8125 11.875 C-14.3672669 14.98453379 -14.09894437 17.43766761 -13.8125 20.875 C-10.86119838 26.19775053 -6.82758338 29.8596443 -2.3125 33.875 C9.52953811 44.40636593 9.52953811 44.40636593 10.42578125 51.85546875 C10.6235075 57.73522308 9.6293178 62.04382456 6.1875 66.875 C1.95553098 71.32795957 -1.89584114 73.02391887 -8 73.1875 C-13.41465269 73.12303985 -17.4842567 72.21305556 -21.8125 68.875 C-26.91153966 62.46851428 -26.91492261 57.76154118 -26.8125 49.875 C-22.8525 49.875 -18.8925 49.875 -14.8125 49.875 C-14.709375 51.133125 -14.60625 52.39125 -14.5 53.6875 C-14.16973612 56.2046463 -13.90178064 57.71993363 -12.625 59.9375 C-9.83184148 61.38223717 -7.76737388 60.64583666 -4.8125 59.875 C-3.41043141 58.6786937 -3.41043141 58.6786937 -3.375 55.25 C-3.44624791 50.80888054 -4.95666188 48.72257165 -7.97265625 45.5859375 C-10.51760681 43.21929558 -13.14285621 40.95607771 -15.78515625 38.69921875 C-21.35096155 33.69106639 -26.23566568 28.73784749 -27.1484375 21.04296875 C-27.23399574 14.51487539 -26.96728836 9.14789654 -22.8125 3.875 C-15.75163122 -1.74487515 -8.54870074 -2.52256743 0 0 Z " fill="#151411" transform="translate(486.8125,496.125)"/>
<path d="M0 0 C11.22 0 22.44 0 34 0 C34 3.96 34 7.92 34 12 C27.07 12 20.14 12 13 12 C13 17.94 13 23.88 13 30 C18.28 30 23.56 30 29 30 C29 33.63 29 37.26 29 41 C23.72 41 18.44 41 13 41 C13 47.6 13 54.2 13 61 C19.93 61 26.86 61 34 61 C34 64.96 34 68.92 34 73 C22.78 73 11.56 73 0 73 C0 48.91 0 24.82 0 0 Z " fill="#181814" transform="translate(374,400)"/>
<path d="M0 0 C4.95046423 3.33204323 7.30854521 6.26784765 9 12 C9.22048797 15.35141714 9.18211357 18.64776125 9 22 C7.02090602 22.02686553 5.04171029 22.04633375 3.0625 22.0625 C1.96035156 22.07410156 0.85820313 22.08570313 -0.27734375 22.09765625 C-3 22 -3 22 -4 21 C-4.32097751 18.68182911 -4.51220956 16.36220643 -4.71875 14.03125 C-4.79065837 12.00819407 -4.79065837 12.00819407 -6 11 C-10.01657143 10.77081758 -10.01657143 10.77081758 -14 11 C-16.40055382 13.40055382 -16.25501699 13.94383208 -16.2746582 17.21850586 C-16.28419022 18.08958481 -16.29372223 18.96066376 -16.30354309 19.85813904 C-16.30217598 21.27220787 -16.30217598 21.27220787 -16.30078125 22.71484375 C-16.30506638 23.68152481 -16.3093515 24.64820587 -16.31376648 25.6441803 C-16.31951612 27.69108293 -16.3200054 29.73800599 -16.31567383 31.78491211 C-16.31251619 34.92141513 -16.33595722 38.05697324 -16.36132812 41.19335938 C-16.36360123 43.17968631 -16.36430456 45.16601578 -16.36328125 47.15234375 C-16.372491 48.09303207 -16.38170074 49.0337204 -16.39118958 50.00291443 C-16.38496078 50.87714554 -16.37873199 51.75137665 -16.37231445 52.65209961 C-16.37294388 53.42106064 -16.3735733 54.19002167 -16.3742218 54.98228455 C-15.89392793 57.57191549 -15.13313611 58.48134896 -13 60 C-8.65490784 59.9493338 -8.65490784 59.9493338 -5 58 C-4.76807135 56.48530552 -4.58784762 54.96245438 -4.4375 53.4375 C-4.2209375 51.2409375 -4.2209375 51.2409375 -4 49 C0.29 49 4.58 49 9 49 C9.34872026 56.55560561 8.68900583 61.61953553 3.8125 67.75 C-1.18259348 71.74607478 -5.63399598 73.33806028 -12.0625 72.9375 C-18.32955677 72.03257936 -22.40295274 70.05935042 -26.375 64.9375 C-28.43450508 61.2145485 -29.12660852 58.53476479 -29.16113281 54.34838867 C-29.17074036 53.40698532 -29.1803479 52.46558197 -29.19024658 51.49565125 C-29.19449646 50.48001602 -29.19874634 49.4643808 -29.203125 48.41796875 C-29.20882507 47.37103348 -29.21452515 46.32409821 -29.22039795 45.24543762 C-29.22984766 43.02878836 -29.23638182 40.81212504 -29.24023438 38.59545898 C-29.24993216 35.2111751 -29.28095313 31.82750051 -29.3125 28.44335938 C-29.31903098 26.2890661 -29.32428108 24.13476849 -29.328125 21.98046875 C-29.3404718 20.97090622 -29.3528186 19.96134369 -29.36553955 18.92118835 C-29.3485025 13.5232169 -29.08741048 9.6361248 -26 5 C-18.32949955 -2.50004488 -10.00396905 -3.81969727 0 0 Z " fill="#171612" transform="translate(101,401)"/>
<path d="M0 0 C4.36184336 2.54217865 6.76096113 5.50903754 8.8125 10.125 C9.72552789 14.00536853 9.69971888 17.33315248 9.5625 21.3125 C5.2725 21.3125 0.9825 21.3125 -3.4375 21.3125 C-3.60026042 19.03385417 -3.76302083 16.75520833 -3.92578125 14.4765625 C-4.26740528 11.93328662 -4.26740528 11.93328662 -7.4375 10.3125 C-11.01506686 10.31167465 -11.01506686 10.31167465 -14.4375 11.3125 C-16.22877454 14.00356186 -16.68891734 16.17996432 -16.69628906 19.375 C-16.70259338 20.16261719 -16.70889771 20.95023438 -16.71539307 21.76171875 C-16.7113446 22.60347656 -16.70729614 23.44523438 -16.703125 24.3125 C-16.70599518 25.62154297 -16.70599518 25.62154297 -16.70892334 26.95703125 C-16.71028244 28.79948211 -16.70660518 30.64194262 -16.69824219 32.484375 C-16.68753873 35.30230243 -16.69814672 38.11959236 -16.7109375 40.9375 C-16.70961586 42.72916807 -16.70705336 44.52083575 -16.703125 46.3125 C-16.70717346 47.15425781 -16.71122192 47.99601563 -16.71539307 48.86328125 C-16.70908875 49.65089844 -16.70278442 50.43851563 -16.69628906 51.25 C-16.69469788 51.93964844 -16.69310669 52.62929688 -16.69146729 53.33984375 C-16.38479768 55.72185808 -15.73782541 57.2956075 -14.4375 59.3125 C-11.18027369 60.37463901 -9.32500751 60.67230034 -6.125 59.375 C-3.55420816 56.23292108 -3.76106101 53.32465654 -3.4375 49.3125 C-2.4375 48.3125 -2.4375 48.3125 0.03125 48.1796875 C1.53171875 48.18355469 1.53171875 48.18355469 3.0625 48.1875 C4.0628125 48.18492187 5.063125 48.18234375 6.09375 48.1796875 C8.5625 48.3125 8.5625 48.3125 9.5625 49.3125 C9.62270345 56.27201878 8.78078412 61.72612373 4.5625 67.3125 C-1.90010975 72.3243198 -7.45252726 73.09790715 -15.4375 72.3125 C-20.72885327 70.70056457 -24.54209431 68.10105556 -27.4375 63.3125 C-29.47650462 57.57371091 -29.75847294 52.34468664 -29.7734375 46.28515625 C-29.7800943 45.33740829 -29.7867511 44.38966034 -29.79360962 43.41319275 C-29.80369373 41.4171644 -29.80842796 39.42110262 -29.80810547 37.42504883 C-29.81248182 34.38761459 -29.84885544 31.35163115 -29.88671875 28.31445312 C-29.89258734 26.36719243 -29.89655645 24.41992488 -29.8984375 22.47265625 C-29.91280853 21.57345963 -29.92717957 20.674263 -29.94198608 19.74781799 C-29.89919666 13.7833158 -28.80311937 9.29800103 -25.4375 4.3125 C-18.56902922 -2.37985614 -8.77856788 -4.06049863 0 0 Z " fill="#151411" transform="translate(100.4375,496.6875)"/>
<path d="M0 0 C12.54 0 25.08 0 38 0 C38 3.63 38 7.26 38 11 C33.71 11 29.42 11 25 11 C25 31.13 25 51.26 25 72 C21.04 72 17.08 72 13 72 C13 51.87 13 31.74 13 11 C8.71 11 4.42 11 0 11 C0 7.37 0 3.74 0 0 Z " fill="#1A1914" transform="translate(370,496)"/>
<path d="M0 0 C102.3 0 204.6 0 310 0 C310 127.84615385 310 127.84615385 304.5625 133.5625 C302 135 302 135 299.6875 134.75 C298.8521875 134.37875 298.8521875 134.37875 298 134 C298.928125 133.62875 299.85625 133.2575 300.8125 132.875 C304.68803329 130.98441119 304.68803329 130.98441119 307 125 C307.33 84.41 307.66 43.82 308 2 C207.02 2 106.04 2 2 2 C-6.24676373 70.90002515 -6.24676373 70.90002515 7 134 C2.29589271 132.37789404 2.57374079 131.14748158 0 126 C0 84.42 0 42.84 0 0 Z " fill="#050403" transform="translate(637,717)"/>
<path d="M0 0 C3.96 0 7.92 0 12 0 C12 23.76 12 47.52 12 72 C8.04 72 4.08 72 0 72 C0 48.24 0 24.48 0 0 Z " fill="#1A1A15" transform="translate(263,496)"/>
<path d="M0 0 C3.80617259 0.71365736 4.73848271 1.41821319 7 4.5625 C7.60108021 7.76716365 7.56037682 10.93079109 7.53125 14.18359375 C7.5350769 15.12050552 7.53890381 16.0574173 7.54284668 17.02272034 C7.54556601 19.00221838 7.53820334 20.98175234 7.52148438 22.96118164 C7.50009893 25.98600749 7.52127281 29.0084517 7.546875 32.03320312 C7.54423126 33.95833856 7.53910532 35.88347252 7.53125 37.80859375 C7.53934692 38.71081161 7.54744385 39.61302948 7.55578613 40.54258728 C7.4939132 44.7019356 7.33523086 47.00409229 5.15429688 50.63696289 C3 52.5625 3 52.5625 0 53.125 C-3.80617259 52.41134264 -4.73848271 51.70678681 -7 48.5625 C-7.60108021 45.35783635 -7.56037682 42.19420891 -7.53125 38.94140625 C-7.5350769 38.00449448 -7.53890381 37.0675827 -7.54284668 36.10227966 C-7.54556601 34.12278162 -7.53820334 32.14324766 -7.52148438 30.16381836 C-7.50009893 27.13899251 -7.52127281 24.1165483 -7.546875 21.09179688 C-7.54423126 19.16666144 -7.53910532 17.24152748 -7.53125 15.31640625 C-7.53934692 14.41418839 -7.54744385 13.51197052 -7.55578613 12.58241272 C-7.4939132 8.4230644 -7.33523086 6.12090771 -5.15429688 2.48803711 C-3 0.5625 -3 0.5625 0 0 Z " fill="#FDFCF8" transform="translate(433,505.4375)"/>
<path d="M0 0 C8.11111111 0 8.11111111 0 12 3 C14.58097834 6.87146751 14.34176303 10.15309919 14.37109375 14.6484375 C14.38012222 15.49798004 14.3891507 16.34752258 14.39845276 17.22280884 C14.41295742 19.01992264 14.42184254 20.81708928 14.42553711 22.61425781 C14.43742777 25.35833137 14.48660312 28.1001515 14.53710938 30.84375 C14.54657457 32.59113487 14.55380914 34.33853354 14.55859375 36.0859375 C14.57812607 36.9037973 14.59765839 37.7216571 14.61778259 38.56430054 C14.58585485 42.6132248 14.27247502 44.57767889 12.02758789 48.05712891 C9 50 9 50 0 50 C0 33.5 0 17 0 0 Z " fill="#FAF9F4" transform="translate(339,411)"/>
<path d="M0 0 C8.37931034 0 8.37931034 0 12 3 C14.18048704 7.15668735 14.30677278 11.11914519 14.30078125 15.71484375 C14.30506638 16.4482045 14.3093515 17.18156525 14.31376648 17.93714905 C14.31948966 19.4827471 14.32002491 21.02837208 14.31567383 22.57397461 C14.31251445 24.92674112 14.3359942 27.27824811 14.36132812 29.63085938 C14.36360155 31.13801926 14.36430441 32.6451825 14.36328125 34.15234375 C14.372491 34.84939926 14.38170074 35.54645477 14.39118958 36.26463318 C14.34770419 40.90104691 13.41409416 44.05104861 11 48 C7.35999348 50.86000512 5.08535876 50 0 50 C0 33.5 0 17 0 0 Z " fill="#F8F6F2" transform="translate(228,507)"/>
<path d="M0 0 C8.07692308 0 8.07692308 0 12 3 C14.56590558 8.13181116 13.31343912 16.25278167 13.35009766 21.96606445 C13.36665332 23.85844219 13.39393835 25.7507575 13.43212891 27.64282227 C13.48694472 30.37288814 13.50877818 33.1014889 13.5234375 35.83203125 C13.54610687 36.67490189 13.56877625 37.51777252 13.59213257 38.38618469 C13.57721074 42.5432843 13.31435684 44.52476465 10.96728516 48.07299805 C8 50 8 50 0 50 C0 33.5 0 17 0 0 Z " fill="#FDFCF8" transform="translate(297,507)"/>
<path d="M0 0 C12.54 0 25.08 0 38 0 C38 3.63 38 7.26 38 11 C33.71 11 29.42 11 25 11 C25 31.13 25 51.26 25 72 C21.04 72 17.08 72 13 72 C13 51.87 13 31.74 13 11 C8.71 11 4.42 11 0 11 C0 7.37 0 3.74 0 0 Z M2 2 C2 4.64 2 7.28 2 10 C5.96 10 9.92 10 14 10 C14 30.13 14 50.26 14 71 C16.97 71 19.94 71 23 71 C23.33 50.87 23.66 30.74 24 10 C27.96 10 31.92 10 36 10 C36 7.36 36 4.72 36 2 C24.78 2 13.56 2 2 2 Z " fill="#010100" transform="translate(370,496)"/>
<path d="M0 0 C3.96 0 7.92 0 12 0 C12 23.76 12 47.52 12 72 C7.38 72 2.76 72 -2 72 C-2.66 69.03 -3.32 66.06 -4 63 C-2 64 -2 64 -0.875 67.0625 C-0.58625 68.031875 -0.2975 69.00125 0 70 C3.3 70.33 6.6 70.66 10 71 C10 48.23 10 25.46 10 2 C7.36 2 4.72 2 2 2 C2 16.52 2 31.04 2 46 C0 44 0 44 -0.24050903 42.08908081 C-0.23606781 41.31186676 -0.23162659 40.53465271 -0.22705078 39.73388672 C-0.22689972 38.85312469 -0.22674866 37.97236267 -0.22659302 37.06491089 C-0.21627045 36.11278717 -0.20594788 35.16066345 -0.1953125 34.1796875 C-0.1924826 33.20589142 -0.18965271 32.23209534 -0.18673706 31.22879028 C-0.17551913 28.11073651 -0.1504117 24.99296732 -0.125 21.875 C-0.11497228 19.76432706 -0.10584607 17.65364962 -0.09765625 15.54296875 C-0.07557453 10.36186909 -0.04103374 5.18098283 0 0 Z " fill="#010100" transform="translate(194,496)"/>
<path d="M0 0 C4.29 0 8.58 0 13 0 C13.33 1.65 13.66 3.3 14 5 C13.34 4.34 12.68 3.68 12 3 C8.7 2.67 5.4 2.34 2 2 C2 24.77 2 47.54 2 71 C4.64 71 7.28 71 10 71 C10 56.15 10 41.3 10 26 C12 28 12 28 12.24050903 29.91091919 C12.23606781 30.68813324 12.23162659 31.46534729 12.22705078 32.26611328 C12.22682419 33.58725632 12.22682419 33.58725632 12.22659302 34.93508911 C12.21627045 35.88721283 12.20594788 36.83933655 12.1953125 37.8203125 C12.1924826 38.79410858 12.18965271 39.76790466 12.18673706 40.77120972 C12.17551913 43.88926349 12.1504117 47.00703268 12.125 50.125 C12.11497228 52.23567294 12.10584607 54.34635038 12.09765625 56.45703125 C12.07557453 61.63813091 12.04103374 66.81901717 12 72 C8.04 72 4.08 72 0 72 C0 48.24 0 24.48 0 0 Z " fill="#010100" transform="translate(165,496)"/>
<path d="M0 0 C8 0 8 0 11 1.8125 C13.85818382 6.36773047 13.9397424 10.74527376 13 16 C11.17468717 19.09348075 10.47223184 19.84258939 7 21 C4.69 21 2.38 21 0 21 C0 14.07 0 7.14 0 0 Z " fill="#FBFAF7" transform="translate(179,411)"/>
<path d="M0 0 C3.96 0 7.92 0 12 0 C12 23.76 12 47.52 12 72 C8.04 72 4.08 72 0 72 C0 48.24 0 24.48 0 0 Z M1 2 C1 24.77 1 47.54 1 71 C3.97 71 6.94 71 10 71 C10 48.23 10 25.46 10 2 C7.03 2 4.06 2 1 2 Z " fill="#010100" transform="translate(263,496)"/>
<path d="M0 0 C23 0 23 0 26 1 C26 1.66 26 2.32 26 3 C18.08 2.67 10.16 2.34 2 2 C2 24.77 2 47.54 2 71 C15.12528186 70.85674473 15.12528186 70.85674473 28 69 C28 69.66 28 70.32 28 71 C22 73 22 73 0 73 C0 48.91 0 24.82 0 0 Z " fill="#050503" transform="translate(327,400)"/>
<path d="M0 0 C0.33 0 0.66 0 1 0 C1.71421414 4.09305488 2.42624096 8.18648357 3.13623047 12.28027344 C3.37813989 13.67328204 3.62064994 15.06618647 3.86376953 16.45898438 C4.21283884 18.45936526 4.55975626 20.4601091 4.90625 22.4609375 C5.11572266 23.66540527 5.32519531 24.86987305 5.54101562 26.11083984 C6 29 6 29 6 31 C2.37 31 -1.26 31 -5 31 C-4.44851373 20.38388934 -2.32527836 10.33937726 0 0 Z " fill="#F8F7F4" transform="translate(136,515)"/>
<path d="M0 0 C0.33 0 0.66 0 1 0 C1.83769934 4.43668741 2.6694138 8.87447591 3.5 13.3125 C3.73847656 14.57513672 3.97695312 15.83777344 4.22265625 17.13867188 C4.44824219 18.34716797 4.67382812 19.55566406 4.90625 20.80078125 C5.22045898 22.47394409 5.22045898 22.47394409 5.54101562 24.1809082 C6 27 6 27 6 30 C2.37 30 -1.26 30 -5 30 C-4.54718539 22.84552921 -3.7372281 15.86715825 -2.5 8.8125 C-2.30410278 7.68050171 -2.30410278 7.68050171 -2.10424805 6.52563477 C-1.12783271 1.12783271 -1.12783271 1.12783271 0 0 Z " fill="#F6F5F3" transform="translate(136,420)"/>
<path d="M0 0 C0.33 0 0.66 0 1 0 C1.71421414 4.09305488 2.42624096 8.18648357 3.13623047 12.28027344 C3.37813989 13.67328204 3.62064994 15.06618647 3.86376953 16.45898438 C4.21283884 18.45936526 4.55975626 20.4601091 4.90625 22.4609375 C5.11572266 23.66540527 5.32519531 24.86987305 5.54101562 26.11083984 C6 29 6 29 6 31 C2.37 31 -1.26 31 -5 31 C-4.54840152 23.86474397 -3.74098183 16.90922272 -2.5 9.875 C-2.36940186 9.12871338 -2.23880371 8.38242676 -2.10424805 7.61352539 C-1.13217405 2.26434811 -1.13217405 2.26434811 0 0 Z " fill="#F8F7F4" transform="translate(349,515)"/>
<path d="M0 0 C0.66 0 1.32 0 2 0 C3.65 9.9 5.3 19.8 7 30 C3.04 30 -0.92 30 -5 30 C-3.35 20.1 -1.7 10.2 0 0 Z " fill="#F7F6F3" transform="translate(277,420)"/>
<path d="M0 0 C10.89 0 21.78 0 33 0 C33 3.63 33 7.26 33 11 C26.07 11 19.14 11 12 11 C12 10.67 12 10.34 12 10 C18.27 10 24.54 10 31 10 C31 7.36 31 4.72 31 2 C21.1 2 11.2 2 1 2 C1 24.77 1 47.54 1 71 C0.67 71 0.34 71 0 71 C0 47.57 0 24.14 0 0 Z " fill="#010100" transform="translate(375,400)"/>
<path d="M0 0 C0.33 0 0.66 0 1 0 C1 23.43 1 46.86 1 71 C11.23 71 21.46 71 32 71 C32 68.36 32 65.72 32 63 C32.66 62.67 33.32 62.34 34 62 C34 65.63 34 69.26 34 73 C22.78 73 11.56 73 0 73 C0 48.91 0 24.82 0 0 Z " fill="#46443E" transform="translate(374,400)"/>
<path d="M0 0 C0.33 0 0.66 0 1 0 C1.02476651 5.32022769 1.04289156 10.64042162 1.05493164 15.96069336 C1.05995238 17.76961858 1.06677029 19.57853976 1.07543945 21.38745117 C1.08760402 23.99138386 1.09325098 26.59526277 1.09765625 29.19921875 C1.10281754 30.00461594 1.10797882 30.81001312 1.11329651 31.63981628 C1.11368637 35.56472601 0.97084755 39.16699982 0 43 C4.455 42.505 4.455 42.505 9 42 C9.33 33.09 9.66 24.18 10 15 C10.33 15 10.66 15 11 15 C11 24.9 11 34.8 11 45 C6.71 45 2.42 45 -2 45 C-1.34 30.15 -0.68 15.3 0 0 Z " fill="#1F1E1A" transform="translate(168,428)"/>
<path d="M0 0 C0.66 0.33 1.32 0.66 2 1 C2.64583243 3.42927796 3.16999412 5.78461099 3.625 8.25 C3.7590625 8.91902344 3.893125 9.58804687 4.03125 10.27734375 C4.74361836 13.97729778 5 17.19684839 5 21 C0.71 21 -3.58 21 -8 21 C-8.66 17.04 -9.32 13.08 -10 9 C-16.93 8.505 -16.93 8.505 -24 8 C-24 7.34 -24 6.68 -24 6 C-19.05 6 -14.1 6 -9 6 C-7.29491 10.26272499 -6.5278693 13.51311093 -6 18 C-3.03 18.33 -0.06 18.66 3 19 C2.7834375 17.96359375 2.566875 16.9271875 2.34375 15.859375 C2.06229463 14.48962552 1.781056 13.11983149 1.5 11.75 C1.28537109 10.72712891 1.28537109 10.72712891 1.06640625 9.68359375 C0.38748951 6.35366879 0 3.41667449 0 0 Z " fill="#080705" transform="translate(295,452)"/>
<path d="M0 0 C4.95 0 9.9 0 15 0 C15.66 4.29 16.32 8.58 17 13 C16.34 12.67 15.68 12.34 15 12 C14.08776132 8.70580475 13.59718825 5.36984798 13 2 C9.04 2 5.08 2 1 2 C0.71125 3.93875 0.4225 5.8775 0.125 7.875 C-0.75 13.75 -0.75 13.75 -3 16 C-2.88416889 14.45761734 -2.75683428 12.91609728 -2.625 11.375 C-2.55539062 10.51648438 -2.48578125 9.65796875 -2.4140625 8.7734375 C-2 6 -2 6 0 0 Z " fill="#080706" transform="translate(342,496)"/>
<path d="M0 0 C3.96 0 7.92 0 12 0 C12.29108224 6.30678192 12.02060816 10.42349264 9 16 C8.34 16.33 7.68 16.66 7 17 C7.55145271 11.76119922 8.42922093 7.02649303 10 2 C7.03 2 4.06 2 1 2 C0.67 2.99 0.34 3.98 0 5 C0 3.35 0 1.7 0 0 Z " fill="#070605" transform="translate(98,450)"/>
<path d="M0 0 C1.39456452 0.00667256 2.78911118 0.01863093 4.18359375 0.03515625 C4.89451172 0.03966797 5.60542969 0.04417969 6.33789062 0.04882812 C8.09899388 0.06064761 9.86005411 0.07858362 11.62109375 0.09765625 C11.62109375 2.07765625 11.62109375 4.05765625 11.62109375 6.09765625 C11.29109375 4.77765625 10.96109375 3.45765625 10.62109375 2.09765625 C6.33109375 2.09765625 2.04109375 2.09765625 -2.37890625 2.09765625 C-3.03890625 5.06765625 -3.69890625 8.03765625 -4.37890625 11.09765625 C-4.70890625 11.09765625 -5.03890625 11.09765625 -5.37890625 11.09765625 C-5.23847748 9.45135297 -5.09141296 7.80561446 -4.94140625 6.16015625 C-4.86019531 5.24363281 -4.77898437 4.32710938 -4.6953125 3.3828125 C-4.18960962 -0.26948608 -3.85613268 0.11144892 0 0 Z " fill="#060504" transform="translate(132.37890625,495.90234375)"/>
<path d="M0 0 C1.81242052 -0.02687279 3.62495233 -0.04633715 5.4375 -0.0625 C6.44683594 -0.07410156 7.45617187 -0.08570313 8.49609375 -0.09765625 C11 0 11 0 12 1 C11.93588312 2.8156735 11.79902523 4.6290486 11.625 6.4375 C11.53476563 7.42621094 11.44453125 8.41492188 11.3515625 9.43359375 C11 12 11 12 10 14 C9.34 13.67 8.68 13.34 8 13 C8.66 9.37 9.32 5.74 10 2 C8.081875 2.061875 8.081875 2.061875 6.125 2.125 C3.9453125 2.1953125 3.9453125 2.1953125 2 2 C1.34 1.34 0.68 0.68 0 0 Z " fill="#282724" transform="translate(98,545)"/>
<path d="M0 0 C5.94 0 11.88 0 18 0 C18 0.66 18 1.32 18 2 C12.72 2 7.44 2 2 2 C2 3.98 2 5.96 2 8 C1.67 8 1.34 8 1 8 C0.67 5.36 0.34 2.72 0 0 Z " fill="#030302" transform="translate(231,433)"/>
<path d="M0 0 C0.66 0 1.32 0 2 0 C2.32613281 1.04800781 2.65226563 2.09601562 2.98828125 3.17578125 C3.42920535 4.55484175 3.87063832 5.93373962 4.3125 7.3125 C4.63250977 8.34793945 4.63250977 8.34793945 4.95898438 9.40429688 C6.124933 13.00655606 7.11245392 15.51891202 10 18 C10 18.66 10 19.32 10 20 C8.68 20 7.36 20 6 20 C4.99513105 17.04329782 3.99693976 14.08438423 3 11.125 C2.71382812 10.28324219 2.42765625 9.44148437 2.1328125 8.57421875 C1.86210937 7.76855469 1.59140625 6.96289062 1.3125 6.1328125 C1.06113281 5.38918457 0.80976563 4.64555664 0.55078125 3.87939453 C0 2 0 2 0 0 Z " fill="#0F0F0D" transform="translate(186,524)"/>
<path d="M0 0 C2.31243792 -0.02685412 4.6249627 -0.04632841 6.9375 -0.0625 C8.22527344 -0.07410156 9.51304687 -0.08570313 10.83984375 -0.09765625 C14 0 14 0 15 1 C15.04080783 2.99958364 15.04254356 5.00045254 15 7 C14.79632813 6.35546875 14.59265625 5.7109375 14.3828125 5.046875 C13.1332065 2.68846128 13.1332065 2.68846128 10.1796875 2.390625 C9.08914063 2.34421875 7.99859375 2.2978125 6.875 2.25 C5.23144531 2.16492188 5.23144531 2.16492188 3.5546875 2.078125 C2.71164062 2.05234375 1.86859375 2.0265625 1 2 C0.67 2.66 0.34 3.32 0 4 C0 2.68 0 1.36 0 0 Z " fill="#0C0C0A" transform="translate(271,400)"/>
<path d="M0 0 C2.56616632 3.84924948 2.55097676 6.4349304 3 11 C5.97 11 8.94 11 12 11 C12 11.66 12 12.32 12 13 C8.7 13 5.4 13 2 13 C0.54815522 8.46298506 -0.23509196 4.81938524 0 0 Z " fill="#040302" transform="translate(144,460)"/>
<path d="M0 0 C0.33 0 0.66 0 1 0 C0.85962479 1.81293089 0.71255111 3.6253443 0.5625 5.4375 C0.48128906 6.44683594 0.40007812 7.45617187 0.31640625 8.49609375 C0 11 0 11 -1 12 C-3.67058851 12.14115161 -6.32432238 12.04247107 -9 12 C-9 11.34 -9 10.68 -9 10 C-6.69 10 -4.38 10 -2 10 C-1.34 6.7 -0.68 3.4 0 0 Z " fill="#040302" transform="translate(269,461)"/>
<path d="M0 0 C0.33 0 0.66 0 1 0 C1 1.65 1 3.3 1 5 C0.67 5 0.34 5 0 5 C0 3.35 0 1.7 0 0 Z M0 5 C-0.33 8.96 -0.66 12.92 -1 17 C-1.99 16.67 -2.98 16.34 -4 16 C-3.8864371 14.35333797 -3.75882619 12.70763918 -3.625 11.0625 C-3.55539062 10.14597656 -3.48578125 9.22945312 -3.4140625 8.28515625 C-3.27742187 7.53105469 -3.14078125 6.77695312 -3 6 C-1 5 -1 5 0 5 Z " fill="#1F1E1A" transform="translate(717,537)"/>
<path d="M0 0 C0.66 0 1.32 0 2 0 C2.33 2.31 2.66 4.62 3 7 C6.3 7.33 9.6 7.66 13 8 C13 8.33 13 8.66 13 9 C11.02090602 9.02686553 9.04171029 9.04633375 7.0625 9.0625 C5.96035156 9.07410156 4.85820313 9.08570313 3.72265625 9.09765625 C1 9 1 9 0 8 C-0.14115161 5.32941149 -0.04247107 2.67567762 0 0 Z " fill="#45423E" transform="translate(97,414)"/>
<path d="M0 0 C0.33 1.32 0.66 2.64 1 4 C-3.39453125 8.00390625 -3.39453125 8.00390625 -5 9 C-5.99 8.67 -6.98 8.34 -8 8 C-5.36 5.36 -2.72 2.72 0 0 Z " fill="#1F1E1B" transform="translate(846,519)"/>
<path d="M0 0 C1.59767687 3.19535373 0.88787459 6.6387605 0 10 C-1.546875 12.2578125 -1.546875 12.2578125 -3 14 C-3.08153933 12.41753293 -3.13943557 10.83383727 -3.1875 9.25 C-3.22230469 8.36828125 -3.25710938 7.4865625 -3.29296875 6.578125 C-2.94923684 3.55328417 -1.99772541 2.24416398 0 0 Z " fill="#201F1A" transform="translate(757,363)"/>
<path d="M0 0 C2 3 2 3 1.625 6.1875 C1.41875 7.115625 1.2125 8.04375 1 9 C-0.32 9.33 -1.64 9.66 -3 10 C-2.69201674 8.51988629 -2.378482 7.04092675 -2.0625 5.5625 C-1.88847656 4.73878906 -1.71445312 3.91507813 -1.53515625 3.06640625 C-1 1 -1 1 0 0 Z " fill="#24231F" transform="translate(862,519)"/>
<path d="M0 0 C0 0.99 0 1.98 0 3 C-1.75 4.60546875 -1.75 4.60546875 -4 6.1875 C-4.7425 6.71730469 -5.485 7.24710937 -6.25 7.79296875 C-6.8275 8.19128906 -7.405 8.58960938 -8 9 C-8.66 8.67 -9.32 8.34 -10 8 C-8.71064081 6.85157077 -7.41843421 5.70633773 -6.125 4.5625 C-5.04605469 3.60537109 -5.04605469 3.60537109 -3.9453125 2.62890625 C-2 1 -2 1 0 0 Z " fill="#12110F" transform="translate(510,444)"/>
<path d="M0 0 C0.66 0 1.32 0 2 0 C2.33 2.97 2.66 5.94 3 9 C2.34 9 1.68 9 1 9 C0.45627049 5.94152152 0 3.11227195 0 0 Z " fill="#0F0F0C" transform="translate(147,521)"/>
<path d="M0 0 C0 1.65 0 3.3 0 5 C-0.66 4.01 -1.32 3.02 -2 2 C-4.88595946 1.41518879 -4.88595946 1.41518879 -8.125 1.3125 C-9.22070312 1.24675781 -10.31640625 1.18101562 -11.4453125 1.11328125 C-12.28835937 1.07589844 -13.13140625 1.03851563 -14 1 C-14 0.67 -14 0.34 -14 0 C-12.04235617 -0.19456705 -10.08384679 -0.38044247 -8.125 -0.5625 C-6.48917969 -0.71912109 -6.48917969 -0.71912109 -4.8203125 -0.87890625 C-2 -1 -2 -1 0 0 Z " fill="#010101" transform="translate(144,401)"/>
</svg>
