<?xml version="1.0" encoding="UTF-8"?>
<svg version="1.1" xmlns="http://www.w3.org/2000/svg" width="1536" height="1024">
<path d="M0 0 C506.88 0 1013.76 0 1536 0 C1536 337.92 1536 675.84 1536 1024 C1029.12 1024 522.24 1024 0 1024 C0 686.08 0 348.16 0 0 Z " fill="#FEFEF4" transform="translate(0,0)"/>
<path d="M0 0 C1.27640406 -0.00525911 1.27640406 -0.00525911 2.57859406 -0.01062447 C5.44328998 -0.01996291 8.3077837 -0.01500884 11.17248821 -0.01015663 C13.24175342 -0.01389166 15.31101722 -0.01849258 17.38027877 -0.02388728 C23.07714326 -0.03615092 28.77394919 -0.03585285 34.47082388 -0.03349853 C40.6106966 -0.03309121 46.75055032 -0.04412134 52.89041424 -0.05361366 C64.9234845 -0.07024298 76.95652983 -0.07574997 88.98960856 -0.07683842 C98.76821944 -0.07775717 108.54682396 -0.08187208 118.32543278 -0.08823967 C121.13922538 -0.09003473 123.95301798 -0.09181436 126.7668106 -0.09358943 C127.46630935 -0.09403152 128.1658081 -0.09447362 128.88650379 -0.09492911 C148.56478987 -0.10723921 168.24307374 -0.11513007 187.92136383 -0.11424255 C188.66342785 -0.1142114 189.40549188 -0.11418024 190.17004269 -0.11414814 C193.93121259 -0.11398192 197.6923825 -0.11378384 201.4535524 -0.11357872 C202.20054684 -0.11353883 202.94754127 -0.11349894 203.7171719 -0.11345784 C205.22777702 -0.11337697 206.73838214 -0.11329337 208.24898726 -0.11320706 C231.75294652 -0.11198148 255.25684808 -0.12699536 278.76079082 -0.15435219 C305.16162936 -0.18506805 331.56242999 -0.20228499 357.96328753 -0.20042574 C360.7780232 -0.20027648 363.59275887 -0.20017907 366.40749454 -0.20011711 C367.1005642 -0.2000938 367.79363386 -0.20007049 368.50770562 -0.20004648 C379.66479993 -0.19998491 390.82184418 -0.21276091 401.9789236 -0.22998164 C413.19062833 -0.24692886 424.4022606 -0.24857572 435.61397747 -0.235763 C441.68884386 -0.22921841 447.76352867 -0.22917002 453.83837795 -0.2464695 C459.39799585 -0.26213915 464.95728728 -0.25939906 470.51689693 -0.24190123 C472.52966393 -0.23881786 474.54245493 -0.24251373 476.55519364 -0.25362138 C479.28947584 -0.26771327 482.02260828 -0.25717916 484.7568512 -0.24050903 C485.53978726 -0.25044539 486.32272333 -0.26038175 487.12938473 -0.27061921 C493.58042097 -0.18736837 498.98154882 1.70106842 503.62578106 6.29242516 C504.08082012 6.96144859 504.53585918 7.63047203 505.00468731 8.31976891 C505.47777325 8.99137047 505.95085918 9.66297203 506.43828106 10.35492516 C513.34787135 21.9984216 507.26692078 43.68199528 505.63749981 56.25726891 C505.32742271 58.70876092 505.01825571 61.16036821 504.70993328 63.61208153 C503.97038854 69.47538126 503.22203034 75.33751222 502.46915275 81.19911093 C501.51407759 88.63770777 500.57021583 96.07772023 499.62651348 103.51776695 C499.28128647 106.2387071 498.93598419 108.95963769 498.59064007 111.68056297 C498.50526578 112.35330055 498.41989149 113.02603813 498.3319301 113.71916169 C497.81434109 117.79641723 497.29539652 121.87349773 496.77538604 125.95044512 C494.74710793 141.85279013 492.75557404 157.75887519 490.83684063 173.67484474 C490.49111905 176.53988404 490.14364309 179.40470445 489.79545879 182.26944542 C489.68477188 183.18031851 489.57408497 184.0911916 489.46004391 185.0296669 C489.24316133 186.81417426 489.02623076 188.59867579 488.80924892 190.38317108 C488.29535 194.6165746 487.7861581 198.85044357 487.28721905 203.08563805 C486.82826643 206.98116799 486.3574392 210.87507783 485.87751484 214.76807785 C485.70879015 216.15515855 485.54452845 217.54279197 485.38547611 218.93101501 C484.04691725 230.59123606 482.14830609 242.46303729 472.56718731 250.25726891 C464.74690847 254.95148609 458.49639479 257.3789417 449.40587044 257.39148998 C448.68023831 257.39384221 447.95460618 257.39619444 447.20698521 257.39861795 C444.76253872 257.4053031 442.31814546 257.40484988 439.87369061 257.40443993 C438.10853782 257.40773886 436.3433858 257.41146448 434.57823473 257.41558141 C429.71723258 257.42560627 424.85624277 257.42931898 419.99523175 257.43197072 C414.75645524 257.43587233 409.51768853 257.44545079 404.27891827 257.45418358 C391.62191425 257.47395223 378.96490944 257.48401481 366.30789384 257.49291137 C360.34856908 257.4972937 354.38924521 257.50266066 348.42992115 257.50790024 C328.62149363 257.52491308 308.81306666 257.5394074 289.00463295 257.54664898 C283.8634564 257.5485589 278.72227986 257.55047923 273.58110332 257.55243492 C271.66436385 257.55316053 271.66436385 257.55316053 269.70890237 257.5539008 C249.00750924 257.56220165 228.30617389 257.58753927 207.604806 257.6200156 C186.35474189 257.65308113 165.10470715 257.67109729 143.85461718 257.67429322 C131.92204428 257.6764588 119.98955563 257.6852146 108.05700779 257.71075439 C97.89491355 257.73245445 87.73292402 257.7405152 77.57080924 257.73078761 C72.38667969 257.72624091 67.20276622 257.72815085 62.01866627 257.74754906 C57.26932492 257.76516682 52.5203575 257.76419413 47.77101225 257.74865177 C46.05627265 257.7462736 44.34150725 257.75061007 42.62680709 257.76248042 C31.12160113 257.83717015 20.10851298 257.37910937 11.19218731 249.13226891 C10.03589825 248.10746422 10.03589825 248.10746422 8.85624981 247.06195641 C2.2735935 238.99651745 0.60002964 230.6268348 -0.47187519 220.47211266 C-0.62914089 219.11521758 -0.78817726 217.75852674 -0.94883442 216.40202904 C-1.28755787 213.51506809 -1.61511934 210.62714964 -1.93391132 207.73792076 C-2.42981363 203.2534605 -2.95706517 198.77305217 -3.49042988 194.29291344 C-4.23020619 188.06065417 -4.96014896 181.82735251 -5.67963886 175.59271812 C-5.77136088 174.79793556 -5.8630829 174.003153 -5.95758438 173.18428612 C-6.05006738 172.3828669 -6.14255037 171.58144768 -6.23783588 170.75574303 C-7.21712422 162.26984525 -8.2046108 153.78490105 -9.19453144 145.30023766 C-9.29202246 144.46452484 -9.38951347 143.62881203 -9.48995876 142.76777458 C-11.13107698 128.71376901 -12.841643 114.66957633 -14.62031269 100.63226891 C-16.58979959 85.04800432 -18.53218931 69.46090009 -20.39756489 53.86377525 C-20.66703479 51.6180123 -20.93875424 49.37251791 -21.21293354 47.12732506 C-21.59201794 44.0190157 -21.96267302 40.90980816 -22.33125019 37.80023766 C-22.44341373 36.89409218 -22.55557728 35.9879467 -22.67113972 35.05434227 C-23.91460082 24.37741164 -24.68178794 15.45096673 -18.43281269 6.25726891 C-12.95264335 0.77709956 -7.51558645 -0.03910814 0 0 Z " fill="#171810" transform="translate(796.4328126907349,644.7427310943604)"/>
<path d="M0 0 C0.86957639 -0.00538554 1.73915279 -0.01077108 2.63507998 -0.01631981 C5.5305991 -0.0305554 8.42565821 -0.02350654 11.32119751 -0.01637268 C13.40465155 -0.02207857 15.48810246 -0.02904368 17.57154846 -0.03717041 C23.21830548 -0.05509338 28.86490703 -0.05393492 34.51168394 -0.04822803 C39.23079247 -0.04513471 43.94987119 -0.05123028 48.66897547 -0.05726677 C59.80486513 -0.07130778 70.94067806 -0.06975441 82.0765686 -0.05836487 C93.55324897 -0.04688593 105.02969559 -0.06095665 116.50634515 -0.08776134 C126.37071671 -0.10993525 136.23501499 -0.11655184 146.0994097 -0.11068493 C151.98614387 -0.107318 157.87272823 -0.10971298 163.75944138 -0.12693596 C169.29665201 -0.14242966 174.83351708 -0.13842236 180.37071419 -0.11963081 C182.39834211 -0.11595158 184.42599577 -0.1190339 186.45359993 -0.1295166 C208.18199756 -0.23324175 208.18199756 -0.23324175 216.45645142 6.31736755 C216.97207642 6.95932068 217.48770142 7.6012738 218.01895142 8.26268005 C218.82332642 9.21787537 218.82332642 9.21787537 219.64395142 10.19236755 C222.88763746 15.37120721 223.31143752 20.50876487 223.28637695 26.48283386 C223.29090807 27.28128102 223.29543918 28.07972817 223.3001076 28.90237069 C223.3127346 31.56908268 223.31113233 34.23558998 223.30947876 36.90232849 C223.31546512 38.81800091 223.32227092 40.73367092 223.32983398 42.64933777 C223.34749148 47.84784815 223.3521893 53.04629266 223.35346556 58.24483013 C223.354888 61.49497091 223.35915941 64.745095 223.36445999 67.99523163 C223.38296036 79.3405768 223.39113071 90.68587499 223.38955688 102.03123474 C223.38835591 112.59560279 223.40944969 123.15976639 223.44104421 133.72408271 C223.46722532 142.80285085 223.47792339 151.88155231 223.47664607 160.9603579 C223.47613692 166.37876845 223.48179398 171.79699733 223.50300217 177.21537018 C223.52241503 182.31425419 223.52248808 187.41278384 223.5079689 192.5116806 C223.50588341 194.37805704 223.51056618 196.24445584 223.52268982 198.11079407 C223.65030686 219.1255494 223.65030686 219.1255494 217.35678673 226.27622604 C211.05223547 232.42639784 203.46250586 233.83873102 194.99320984 233.77536011 C194.11884433 233.78074565 193.24447882 233.78613118 192.34361738 233.79167992 C189.43194558 233.80591639 186.52073118 233.79886645 183.60903931 233.79173279 C181.51411068 233.79743859 179.41918516 233.80440366 177.32426453 233.81253052 C171.64658415 233.83045335 165.96905839 233.82929519 160.29135823 233.82358813 C155.54730222 233.82049515 150.80327586 233.82658994 146.05922407 233.83262688 C134.86584306 233.84666752 123.67253838 233.84511451 112.47915649 233.83372498 C100.93997265 233.82224289 89.40102119 233.83632214 77.86186796 233.86312145 C67.94570788 233.88528727 58.02962069 233.89191386 48.11343759 233.88604504 C42.19487755 233.88267656 36.27646648 233.88508354 30.35792732 233.90229607 C24.79199317 233.91777714 19.22640302 233.91379645 13.66048241 233.89499092 C11.62114655 233.89130836 9.58178513 233.89440375 7.54247284 233.90487671 C4.75181316 233.918111 1.96228826 233.90651754 -0.82832336 233.8888855 C-2.02980897 233.90329301 -2.02980897 233.90329301 -3.25556701 233.91799158 C-9.78955334 233.8334403 -15.87962577 232.15513148 -20.84373325 227.72557539 C-26.72622585 221.54909728 -28.43563403 214.32526226 -28.37545776 206.05201721 C-28.38154887 205.25186121 -28.38763997 204.45170521 -28.39391565 203.62730205 C-28.41046225 200.96671416 -28.40578189 198.30660924 -28.40097046 195.64598083 C-28.40831563 193.73001105 -28.41690316 191.81404569 -28.42663574 189.89808655 C-28.44881294 184.70793237 -28.45178433 179.51793715 -28.44988823 174.3277421 C-28.44976836 169.98888588 -28.45833934 165.65006312 -28.46666574 161.31121624 C-28.48588607 151.07187017 -28.48878857 140.83260562 -28.48202515 130.59324646 C-28.47538476 120.04355085 -28.49825192 109.4942049 -28.53533888 98.9445802 C-28.56606391 89.87425353 -28.57739287 80.80403918 -28.57350206 71.73366153 C-28.57143753 66.32195361 -28.57686838 60.91051787 -28.60139465 55.49885941 C-28.62370554 50.40808233 -28.62174769 45.31787273 -28.60146713 40.22709274 C-28.59806482 38.3639405 -28.60311246 36.50074972 -28.61745071 34.63764954 C-28.75751617 15.08095101 -28.75751617 15.08095101 -21.60918427 6.79808235 C-15.45208225 1.03731156 -8.01898476 -0.06034506 0 0 Z " fill="#FDFDF4" transform="translate(967.9810485839844,66.61231994628906)"/>
<path d="M0 0 C1.03722198 -0.01142029 2.07444397 -0.02284058 3.14309692 -0.03460693 C4.27047272 -0.03684265 5.39784851 -0.03907837 6.55938721 -0.04138184 C8.35296158 -0.05627655 8.35296158 -0.05627655 10.18276978 -0.07147217 C13.45572409 -0.09564074 16.72853575 -0.11059291 20.00156307 -0.11949348 C22.04981257 -0.12536956 24.09804004 -0.1335819 26.14627838 -0.14250183 C32.56472309 -0.16982963 38.98311703 -0.1891733 45.40161586 -0.19690561 C52.79244407 -0.20586006 60.18253122 -0.24093146 67.57313418 -0.2989068 C73.29818423 -0.34224631 79.02302658 -0.36231976 84.7482388 -0.36498785 C88.1620268 -0.36707663 91.57511719 -0.37873098 94.98873138 -0.41462708 C98.80191323 -0.44882602 102.61330075 -0.44497031 106.42657471 -0.43200684 C107.54585358 -0.4504364 108.66513245 -0.46886597 109.81832886 -0.487854 C117.33219304 -0.40803368 122.07994852 1.28540699 127.75177002 6.28088379 C129.85333252 8.79650879 129.85333252 8.79650879 131.37677002 11.53088379 C132.01485596 12.63818848 132.65294189 13.74549316 133.31036377 14.88635254 C134.1246512 16.35092655 134.93837406 17.81581449 135.75177002 19.28088379 C137.96583787 23.21624106 140.19317288 27.14375319 142.4309082 31.06567383 C143.42555863 32.81921105 144.40587087 34.58020701 145.3850708 36.34240723 C146.3148877 37.98451172 146.3148877 37.98451172 147.26348877 39.65979004 C147.81480469 40.64535889 148.36612061 41.63092773 148.93414307 42.6463623 C151.59304059 46.50024587 154.30587972 48.79892035 158.75177002 50.28088379 C160.2447238 50.37209193 161.74143326 50.40745953 163.23717022 50.40837574 C164.1613096 50.41138339 165.08544898 50.41439104 166.03759259 50.41748983 C167.05449841 50.41573945 168.07140422 50.41398908 169.11912537 50.41218567 C170.19818549 50.41430138 171.27724561 50.4164171 172.38900453 50.41859692 C176.02320139 50.42461273 179.65736369 50.42359564 183.29156494 50.42272949 C185.88983215 50.42575995 188.48809882 50.42928109 191.08636475 50.43325806 C196.6913623 50.44137418 202.2963553 50.44631602 207.90135765 50.44954872 C216.76291698 50.45504496 225.62443781 50.47194254 234.48597717 50.4908905 C237.51771444 50.49724744 240.5494518 50.50355587 243.58118916 50.50986767 C244.33889386 50.51145143 245.09659857 50.51303519 245.87726402 50.51466695 C254.50445661 50.53260741 263.13165193 50.54883141 271.7588501 50.56384277 C272.54756802 50.56521864 273.33628595 50.56659452 274.14890442 50.56801208 C286.92439685 50.58993246 299.69987938 50.60069585 312.4753873 50.60821352 C325.59274929 50.6162881 338.71002641 50.6395903 351.82733995 50.67616719 C359.91720555 50.69817995 368.00689656 50.70786061 376.09679059 50.70166685 C382.29975239 50.69811335 388.5024973 50.7153733 394.70540619 50.740345 C397.24826697 50.74726909 399.79115686 50.74737034 402.3340168 50.74014473 C405.80618025 50.73127506 409.27740893 50.74692146 412.74949646 50.76863098 C413.75524867 50.76018844 414.76100088 50.75174591 415.79723042 50.74304754 C422.56904363 50.82130882 428.1786382 51.96846935 433.27471036 56.69270116 C437.55038588 61.51743194 439.00796823 65.84808717 438.98223877 72.20275879 C438.98030518 73.31006348 438.97837158 74.41736816 438.97637939 75.55822754 C438.9641333 76.7042041 438.95188721 77.85018066 438.93927002 79.03088379 C438.93862549 80.1923291 438.93798096 81.35377441 438.93731689 82.55041504 C438.89210567 91.14054814 438.89210567 91.14054814 437.75177002 92.28088379 C435.30780122 92.38058805 432.89205091 92.41451047 430.44752502 92.40672493 C429.67001888 92.40817837 428.89251274 92.40963181 428.0914458 92.4111293 C425.45256674 92.41481601 422.81374448 92.4112906 420.17486572 92.40786743 C418.27730689 92.4090182 416.37974827 92.41060542 414.48219013 92.41259468 C409.24165016 92.41679413 404.00112824 92.41469455 398.76058817 92.41160846 C393.11908752 92.40935707 387.4775901 92.41283266 381.83609009 92.41558838 C370.77404688 92.42004788 359.71201043 92.41906881 348.64996696 92.41617574 C339.66401345 92.41392241 330.67806186 92.41360888 321.69210815 92.41469955 C319.77774522 92.4149294 319.77774522 92.4149294 317.82470828 92.4151639 C315.23249555 92.4154836 312.64028281 92.41580782 310.04807007 92.41613649 C286.40390909 92.41891032 262.75975265 92.41602795 239.11559244 92.41079389 C217.51221996 92.40604797 195.90885338 92.40647259 174.30548096 92.41125488 C150.05710201 92.4166047 125.80872726 92.41871711 101.56034756 92.41564262 C98.97737567 92.41532405 96.39440378 92.41500968 93.81143188 92.41469955 C92.54037686 92.41454528 91.26932184 92.414391 89.95975 92.41423205 C80.9788523 92.41336663 71.9979567 92.41483032 63.01705933 92.41717911 C52.08058829 92.41997632 41.14412444 92.41924053 30.20765424 92.41389836 C24.62183439 92.41126027 19.03602653 92.41025809 13.45020676 92.41354752 C8.34548594 92.41650828 3.24078834 92.41492137 -1.86393034 92.40956996 C-3.71922203 92.40844483 -5.57451565 92.40903906 -7.42980611 92.41144575 C-9.93456105 92.41444787 -12.43923445 92.41140722 -14.94398499 92.40672493 C-15.67907103 92.4090661 -16.41415707 92.41140726 -17.17151845 92.41381937 C-22.13407964 92.39503413 -22.13407964 92.39503413 -23.24822998 91.28088379 C-23.36895259 89.09520125 -23.41852118 86.9055723 -23.44110107 84.7166748 C-23.44927856 84.03033463 -23.45745605 83.34399445 -23.46588135 82.63685608 C-23.4907989 80.35284298 -23.50727657 78.06889276 -23.52166748 75.78479004 C-23.52699116 75.00384413 -23.53231483 74.22289822 -23.53779984 73.41828728 C-23.5645721 69.27654882 -23.58392489 65.13484079 -23.59832764 60.99304199 C-23.61489241 56.73276363 -23.65958793 52.47327147 -23.71069908 48.21328831 C-23.74453627 44.92479168 -23.75592354 41.63647675 -23.76155472 38.34782219 C-23.76823301 36.77906294 -23.78336508 35.21031418 -23.80744553 33.64172554 C-23.95740259 23.27321701 -23.1497998 15.07364812 -16.18572998 6.84338379 C-15.22666748 6.06994629 -15.22666748 6.06994629 -14.24822998 5.28088379 C-13.60885498 4.74463379 -12.96947998 4.20838379 -12.31072998 3.65588379 C-8.31714687 0.99349505 -4.7731931 0.03161857 0 0 Z " fill="#17180F" transform="translate(831.2482299804688,535.7191162109375)"/>
<path d="M0 0 C3.06103323 1.95170529 5.47577995 4.40689285 8 7 C8.67160156 7.64839844 9.34320312 8.29679687 10.03515625 8.96484375 C13.24306294 12.08621731 16.26591668 15.29823099 19.18359375 18.69140625 C23.23849482 23.35203212 27.5968956 27.67077319 32 32 C36.98027284 36.89671122 41.79867983 41.83119716 46.3515625 47.12890625 C48.93221002 50.05812465 51.70907852 52.77302486 54.5 55.5 C57.90942275 58.86715321 61.28436911 62.20787838 64.375 65.875 C68.4302362 70.67590935 72.98327222 75.00416225 77.49560547 79.37060547 C89.29161773 90.94641735 89.29161773 90.94641735 89.625 97.3125 C89 101 89 101 87.57104492 102.70068359 C83.57091784 104.72220827 79.66064332 104.46087149 75.23828125 104.4765625 C74.29188278 104.49214203 73.34548431 104.50772156 72.3704071 104.52377319 C69.35111282 104.57127208 66.33204999 104.59905844 63.3125 104.625 C60.28240021 104.66144656 57.25243291 104.70199957 54.22245789 104.74765015 C52.33729292 104.7749549 50.45203038 104.79627196 48.56672668 104.81118774 C47.29486763 104.82658096 47.29486763 104.82658096 45.99731445 104.84228516 C45.2477095 104.84878082 44.49810455 104.85527649 43.7257843 104.86196899 C41.96908317 104.81475671 41.96908317 104.81475671 41 106 C40.90140636 108.74270023 40.86700562 111.46094085 40.87402344 114.20410156 C40.8721553 115.06428391 40.87028717 115.92446625 40.86836243 116.81071472 C40.8643482 118.68558705 40.86228266 120.5604643 40.86190033 122.43534088 C40.85849695 126.41816364 40.83714806 130.40082134 40.81666946 134.38358688 C40.77858604 141.80668992 40.74738452 149.22962029 40.74951172 156.65283203 C40.75029827 161.80892415 40.72695576 166.96441779 40.6876297 172.1203537 C40.67715586 174.08670105 40.67565581 176.05311738 40.68328094 178.01947784 C40.69289131 180.77308451 40.67174159 183.52487745 40.64355469 186.27832031 C40.65375137 187.09098862 40.66394806 187.90365692 40.67445374 188.74095154 C40.60039888 192.7763079 40.27949431 194.59376561 37.93206787 198.00566101 C34.35761583 200.43693798 31.62543295 200.70154342 27.44335938 200.63110352 C26.32777397 200.64183647 26.32777397 200.64183647 25.18965149 200.65278625 C22.74038563 200.66964367 20.29295798 200.65029028 17.84375 200.62890625 C16.13651376 200.62973523 14.42927761 200.63219572 12.7220459 200.63621521 C9.14762284 200.63907116 5.57382711 200.62439238 1.99951172 200.59692383 C-2.57726278 200.56284092 -7.15291578 200.56886091 -11.72974396 200.5875864 C-15.25402131 200.59816598 -18.77803868 200.58920997 -22.30229187 200.57420158 C-23.98955004 200.56902631 -25.67683544 200.56949363 -27.36408997 200.57574654 C-29.72443818 200.58121054 -32.08319287 200.56078831 -34.44335938 200.53344727 C-35.13753464 200.53997314 -35.8317099 200.54649902 -36.54692078 200.55322266 C-41.27624534 200.46028889 -43.67136742 199.33094102 -47 196 C-48.61131727 192.77736545 -48.1712482 189.25256925 -48.18945312 185.71069336 C-48.19774643 184.85369339 -48.20603973 183.99669342 -48.21458435 183.11372375 C-48.23200323 181.24978942 -48.247165 179.38583296 -48.26036072 177.52186394 C-48.28134338 174.57673721 -48.30836842 171.63172205 -48.33703613 168.68666077 C-48.40696116 161.37301139 -48.46634604 154.05928299 -48.52606201 146.74554443 C-48.57690196 140.56665389 -48.63169533 134.38782362 -48.69187927 128.2090168 C-48.71855127 125.29902537 -48.73930553 122.38902863 -48.7598877 119.47898865 C-48.7764828 117.70596038 -48.79335394 115.93293468 -48.81054688 114.15991211 C-48.8168235 112.93572067 -48.8168235 112.93572067 -48.82322693 111.6867981 C-48.52272814 108.04312354 -48.52272814 108.04312354 -50 105 C-53.12694276 104.90145346 -56.23584201 104.86285609 -59.36328125 104.859375 C-61.30144404 104.84104624 -63.23959541 104.82147587 -65.17773438 104.80078125 C-68.24588199 104.77179707 -71.31329834 104.74999987 -74.3815918 104.74951172 C-77.33448813 104.7461813 -80.28568016 104.71165167 -83.23828125 104.671875 C-84.15507156 104.6789447 -85.07186188 104.6860144 -86.01643372 104.69329834 C-92.37321465 104.57158887 -92.37321465 104.57158887 -95.58105469 101.64624023 C-97.32042924 98.40242042 -97.56512275 96.63293199 -97 93 C-92.25082089 84.70584958 -83.98591536 77.82276075 -77.20532227 71.19018555 C-73.14712314 67.21332805 -69.31223171 63.14074071 -65.60791016 58.83276367 C-63.35076357 56.25997299 -60.94904839 53.89142373 -58.5 51.5 C-54.73507247 47.79143749 -51.17172947 43.98121398 -47.7421875 39.9609375 C-45.02712001 36.90496467 -42.08872957 34.08080055 -39.1796875 31.2109375 C-37.23766452 29.24107189 -35.41938329 27.22846367 -33.625 25.125 C-30.73789223 21.75446954 -27.65807108 18.61437919 -24.5 15.5 C-20.62177639 11.67497562 -16.97067865 7.78490136 -13.53515625 3.55859375 C-9.82523673 -0.20796576 -5.10932665 -1.20274295 0 0 Z " fill="#171810" transform="translate(1069,335)"/>
<path d="M0 0 C0.86957639 -0.00538554 1.73915279 -0.01077108 2.63507998 -0.01631981 C5.5305991 -0.0305554 8.42565821 -0.02350654 11.32119751 -0.01637268 C13.40465155 -0.02207857 15.48810246 -0.02904368 17.57154846 -0.03717041 C23.21830548 -0.05509338 28.86490703 -0.05393492 34.51168394 -0.04822803 C39.23079247 -0.04513471 43.94987119 -0.05123028 48.66897547 -0.05726677 C59.80486513 -0.07130778 70.94067806 -0.06975441 82.0765686 -0.05836487 C93.55324897 -0.04688593 105.02969559 -0.06095665 116.50634515 -0.08776134 C126.37071671 -0.10993525 136.23501499 -0.11655184 146.0994097 -0.11068493 C151.98614387 -0.107318 157.87272823 -0.10971298 163.75944138 -0.12693596 C169.29665201 -0.14242966 174.83351708 -0.13842236 180.37071419 -0.11963081 C182.39834211 -0.11595158 184.42599577 -0.1190339 186.45359993 -0.1295166 C208.18199756 -0.23324175 208.18199756 -0.23324175 216.45645142 6.31736755 C216.97207642 6.95932068 217.48770142 7.6012738 218.01895142 8.26268005 C218.82332642 9.21787537 218.82332642 9.21787537 219.64395142 10.19236755 C222.88763746 15.37120721 223.31143752 20.50876487 223.28637695 26.48283386 C223.29090807 27.28128102 223.29543918 28.07972817 223.3001076 28.90237069 C223.3127346 31.56908268 223.31113233 34.23558998 223.30947876 36.90232849 C223.31546512 38.81800091 223.32227092 40.73367092 223.32983398 42.64933777 C223.34749148 47.84784815 223.3521893 53.04629266 223.35346556 58.24483013 C223.354888 61.49497091 223.35915941 64.745095 223.36445999 67.99523163 C223.38296036 79.3405768 223.39113071 90.68587499 223.38955688 102.03123474 C223.38835591 112.59560279 223.40944969 123.15976639 223.44104421 133.72408271 C223.46722532 142.80285085 223.47792339 151.88155231 223.47664607 160.9603579 C223.47613692 166.37876845 223.48179398 171.79699733 223.50300217 177.21537018 C223.52241503 182.31425419 223.52248808 187.41278384 223.5079689 192.5116806 C223.50588341 194.37805704 223.51056618 196.24445584 223.52268982 198.11079407 C223.65030686 219.1255494 223.65030686 219.1255494 217.35678673 226.27622604 C211.05223547 232.42639784 203.46250586 233.83873102 194.99320984 233.77536011 C194.11884433 233.78074565 193.24447882 233.78613118 192.34361738 233.79167992 C189.43194558 233.80591639 186.52073118 233.79886645 183.60903931 233.79173279 C181.51411068 233.79743859 179.41918516 233.80440366 177.32426453 233.81253052 C171.64658415 233.83045335 165.96905839 233.82929519 160.29135823 233.82358813 C155.54730222 233.82049515 150.80327586 233.82658994 146.05922407 233.83262688 C134.86584306 233.84666752 123.67253838 233.84511451 112.47915649 233.83372498 C100.93997265 233.82224289 89.40102119 233.83632214 77.86186796 233.86312145 C67.94570788 233.88528727 58.02962069 233.89191386 48.11343759 233.88604504 C42.19487755 233.88267656 36.27646648 233.88508354 30.35792732 233.90229607 C24.79199317 233.91777714 19.22640302 233.91379645 13.66048241 233.89499092 C11.62114655 233.89130836 9.58178513 233.89440375 7.54247284 233.90487671 C4.75181316 233.918111 1.96228826 233.90651754 -0.82832336 233.8888855 C-2.02980897 233.90329301 -2.02980897 233.90329301 -3.25556701 233.91799158 C-9.78955334 233.8334403 -15.87962577 232.15513148 -20.84373325 227.72557539 C-26.72622585 221.54909728 -28.43563403 214.32526226 -28.37545776 206.05201721 C-28.38154887 205.25186121 -28.38763997 204.45170521 -28.39391565 203.62730205 C-28.41046225 200.96671416 -28.40578189 198.30660924 -28.40097046 195.64598083 C-28.40831563 193.73001105 -28.41690316 191.81404569 -28.42663574 189.89808655 C-28.44881294 184.70793237 -28.45178433 179.51793715 -28.44988823 174.3277421 C-28.44976836 169.98888588 -28.45833934 165.65006312 -28.46666574 161.31121624 C-28.48588607 151.07187017 -28.48878857 140.83260562 -28.48202515 130.59324646 C-28.47538476 120.04355085 -28.49825192 109.4942049 -28.53533888 98.9445802 C-28.56606391 89.87425353 -28.57739287 80.80403918 -28.57350206 71.73366153 C-28.57143753 66.32195361 -28.57686838 60.91051787 -28.60139465 55.49885941 C-28.62370554 50.40808233 -28.62174769 45.31787273 -28.60146713 40.22709274 C-28.59806482 38.3639405 -28.60311246 36.50074972 -28.61745071 34.63764954 C-28.75751617 15.08095101 -28.75751617 15.08095101 -21.60918427 6.79808235 C-15.45208225 1.03731156 -8.01898476 -0.06034506 0 0 Z M-7.46688938 20.44259644 C-9.75910271 23.38716566 -9.53307703 26.31932026 -9.48898315 29.896698 C-9.49522312 30.66823041 -9.50146308 31.43976281 -9.50789213 32.23467499 C-9.52388769 34.82822096 -9.51119272 37.42083558 -9.49862671 40.01438904 C-9.50404497 41.87039235 -9.51116597 43.72639137 -9.51986694 45.5823822 C-9.53813967 50.62993958 -9.53101616 55.67717081 -9.5183506 60.72473407 C-9.50824185 66.00131295 -9.5176105 71.27786341 -9.52389526 76.55444336 C-9.53117851 85.4176079 -9.52156686 94.28063924 -9.50253296 103.14378357 C-9.48076966 113.39637923 -9.48780897 123.64865666 -9.50983858 133.90124458 C-9.52798128 142.69622698 -9.53055622 151.49111349 -9.5200839 160.28610855 C-9.5138419 165.5422675 -9.51303263 170.79827681 -9.52622986 176.05442619 C-9.53777104 180.99652143 -9.52979429 185.93820587 -9.50665283 190.88025665 C-9.50135618 192.69592417 -9.50289581 194.51162616 -9.51170349 196.32728004 C-9.5226053 198.80254882 -9.50896143 201.27649443 -9.48898315 203.75167847 C-9.49790604 204.47336997 -9.50682893 205.19506147 -9.51602221 205.93862242 C-9.46644009 209.09710704 -9.14019716 211.13111401 -7.46409607 213.83318424 C-3.9622743 216.0254771 -0.74933884 215.94123909 3.25564575 215.89561462 C4.09336942 215.90185459 4.93109309 215.90809455 5.79420233 215.9145236 C8.60573178 215.93049869 11.41639967 215.91783184 14.22793579 215.90525818 C16.24171963 215.91067729 18.25549951 215.91779876 20.26927185 215.92649841 C25.74236807 215.94475969 31.21516325 215.93765259 36.68826485 215.92498207 C42.41060332 215.91486896 48.13291567 215.92424305 53.85525513 215.93052673 C63.46569455 215.93780806 73.0760111 215.92820267 82.68643188 215.90916443 C93.80416063 215.88739483 104.92159598 215.89444585 116.03931761 215.91647005 C125.57741165 215.93461019 135.11541726 215.93718914 144.65352297 215.92671537 C150.35344027 215.92047284 156.05321957 215.91966574 161.75312805 215.93286133 C167.11135815 215.94439898 172.46920924 215.93643209 177.8273983 215.9132843 C179.79626015 215.90798607 181.76515378 215.90952993 183.73400307 215.91833496 C186.41718795 215.9292301 189.09915055 215.91560031 191.78225708 215.89561462 C192.56552164 215.90453751 193.34878619 215.9134604 194.15578604 215.92265368 C197.47310895 215.87456686 199.66762807 215.60798167 202.50241947 213.83039093 C204.56381373 210.51005852 204.57093162 207.58726106 204.52015686 203.79637146 C204.52569126 203.02806818 204.53122565 202.2597649 204.53692776 201.4681797 C204.55055031 198.89153911 204.53555693 196.31586449 204.5206604 193.73924255 C204.524443 191.89294523 204.52994256 190.04665074 204.53703308 188.20036316 C204.55101262 183.18384219 204.53980037 178.16766323 204.52332187 173.15116119 C204.50948763 167.90529094 204.51592959 162.65944087 204.51945496 157.41355896 C204.52215836 148.60344419 204.50867021 139.79346556 204.48550415 130.98338318 C204.45889362 120.79272309 204.45714684 110.60229066 204.46889251 100.41160774 C204.4796658 90.61492623 204.47348675 80.81832719 204.45933723 71.02165222 C204.45357353 66.8494726 204.45366314 62.67735325 204.45840263 58.50517273 C204.46316939 53.59348559 204.4530832 48.68204824 204.43144798 43.77040863 C204.42587584 41.96602979 204.42541873 40.16162697 204.43040085 38.3572464 C204.43634145 35.89754847 204.42387261 33.43861741 204.40663147 30.97898865 C204.41264152 30.26187021 204.41865156 29.54475178 204.42484373 28.80590248 C204.38807812 25.92920972 204.11127058 23.60998673 203.00437164 20.94454861 C199.89878934 18.50930424 196.64482559 18.84051707 192.86454773 18.88647461 C192.02359493 18.88094021 191.18264213 18.87540582 190.31620592 18.86970371 C187.48773854 18.85604974 184.66014635 18.87109197 181.83169556 18.88597107 C179.80820845 18.88218959 177.78472393 18.87669096 175.76124573 18.86959839 C170.25708864 18.85560337 164.75324273 18.86684237 159.24910283 18.8833096 C153.49606772 18.89713144 147.7430512 18.89070323 141.99000549 18.88717651 C132.32650725 18.8844719 122.66313304 18.89797085 112.99966431 18.92112732 C101.8200783 18.94773106 90.64069982 18.94948745 79.46109301 18.93773896 C68.71774768 18.92696684 57.97447758 18.9331443 47.23113823 18.94729424 C42.65425277 18.9530597 38.07742225 18.95296693 33.50053596 18.94822884 C28.11200006 18.94346331 22.72369192 18.95354325 17.33519936 18.97518349 C15.35505186 18.98075758 13.37488251 18.98121098 11.39473343 18.97623062 C8.69634742 18.970294 5.99866159 18.98275169 3.30033875 19 C2.51250112 18.99398995 1.7246635 18.98797991 0.91295201 18.98178774 C-2.14432497 19.01744266 -4.63889072 19.2424785 -7.46688938 20.44259644 Z " fill="#15160E" transform="translate(967.9810485839844,66.61231994628906)"/>
<path d="M0 0 C7.49010902 6.99767971 11.71796773 16.44934904 12.54081726 26.6007843 C12.6531488 30.67964299 12.67572765 34.74824307 12.65625 38.828125 C12.65827616 40.3368748 12.66119209 41.84562363 12.66494751 43.35437012 C12.66934541 46.50115373 12.66302239 49.64768013 12.64892578 52.79443359 C12.63183519 56.80207552 12.64169011 60.80911444 12.65964317 64.81673431 C12.67055011 67.9276778 12.66700325 71.03848133 12.6592598 74.14942932 C12.65727682 75.62602309 12.65964916 77.1026301 12.66669846 78.57920837 C12.7169363 92.05548056 10.83799679 103.90143218 1.37109375 114.15234375 C-8.93073198 123.64459575 -20.19785663 125.71235355 -33.8671875 125.35546875 C-44.68367648 124.66853447 -53.11497858 120.19481312 -60.5546875 112.359375 C-64.12559472 108.05937303 -66.0026679 103.37469508 -67.7421875 98.109375 C-68.0721875 97.119375 -68.4021875 96.129375 -68.7421875 95.109375 C-68.85236339 92.79158044 -68.90127087 90.47073312 -68.91918945 88.15039062 C-68.92576065 87.44585754 -68.93233185 86.74132446 -68.93910217 86.01544189 C-68.95881926 83.68216843 -68.97049883 81.34895952 -68.98046875 79.015625 C-68.98454428 78.21569626 -68.9886198 77.41576752 -68.99281883 76.59159851 C-69.0136803 72.3514329 -69.02797744 68.11129958 -69.03735352 63.87109375 C-69.04837291 59.51469267 -69.08272011 55.15880873 -69.12252522 50.80258942 C-69.14882538 47.43427662 -69.15705751 44.06608403 -69.16063499 40.69767761 C-69.16547237 39.0934859 -69.17700395 37.4892985 -69.19567299 35.88520813 C-69.33533347 23.0816276 -67.95898998 11.77577761 -58.7421875 2.109375 C-42.60319864 -12.77203031 -17.4083535 -13.09824669 0 0 Z " fill="#171810" transform="translate(592.7421875,388.890625)"/>
<path d="M0 0 C1.21757896 1.02789298 2.40705627 2.09022506 3.5625 3.1875 C4.39201172 3.97447266 4.39201172 3.97447266 5.23828125 4.77734375 C12.11565416 12.03015638 14.66288962 21.40294229 14.73950195 31.16821289 C14.74607315 31.86313843 14.75264435 32.55806396 14.75941467 33.27404785 C14.77908987 35.56941858 14.79080076 37.86472387 14.80078125 40.16015625 C14.80485678 40.94813536 14.8089323 41.73611446 14.81313133 42.54797173 C14.83397305 46.72330332 14.84827982 50.8986023 14.85766602 55.07397461 C14.86869304 59.36196903 14.90305491 63.64943918 14.94283772 67.93724918 C14.96913867 71.25494775 14.97736998 74.5725243 14.98094749 77.89031792 C14.98578312 79.46939042 14.99730954 81.04845859 15.01598549 82.62742805 C15.15716991 95.3610605 13.70804626 106.57451471 4.5625 116.1875 C-0.87804134 121.28929065 -6.17404628 124.46441791 -13.4375 126.1875 C-14.58412109 126.46207031 -14.58412109 126.46207031 -15.75390625 126.7421875 C-28.66206679 128.884153 -40.17052122 126.85739559 -51.1796875 119.8515625 C-59.1949163 113.94414474 -63.04690229 105.6437193 -65.4375 96.1875 C-65.62604209 93.7628237 -65.72306453 91.32985573 -65.74389648 88.89794922 C-65.75222 88.20579819 -65.76054352 87.51364716 -65.76911926 86.80052185 C-65.793048 84.53101833 -65.80197207 82.26180348 -65.80859375 79.9921875 C-65.81757623 78.39665653 -65.82669833 76.80112634 -65.83595276 75.20559692 C-65.85240114 71.86523402 -65.86013471 68.52497079 -65.86303711 65.18457031 C-65.86840295 60.93816288 -65.9060254 56.6927148 -65.95178127 52.44657707 C-65.98177216 49.15022509 -65.98876547 45.85409745 -65.98976326 42.557621 C-65.99392551 40.99414828 -66.00619584 39.43067235 -66.02728081 37.86733627 C-66.18775941 24.93515049 -64.32936444 12.89363651 -54.953125 3.1953125 C-39.74891133 -8.9397276 -16.3806975 -11.55009484 0 0 Z " fill="#16170F" transform="translate(407.4375,386.8125)"/>
<path d="M0 0 C0.9887059 -0.01283524 1.9774118 -0.02567047 2.99607849 -0.03889465 C4.07510941 -0.04628159 5.15414032 -0.05366852 6.26586914 -0.0612793 C7.92616905 -0.07338692 7.92616905 -0.07338692 9.62001038 -0.08573914 C11.97305728 -0.09960656 14.32612453 -0.11031674 16.67919922 -0.11816406 C20.25471209 -0.13527639 23.82927625 -0.17912749 27.40454102 -0.22338867 C29.69164359 -0.23352408 31.97875404 -0.24203752 34.26586914 -0.2487793 C35.32668198 -0.26628738 36.38749481 -0.28379547 37.48045349 -0.30183411 C47.98157642 -0.27162814 56.62896365 2.99252758 64.36352539 10.17700195 C72.90924321 19.17770012 74.93422272 29.21311825 74.76586914 41.25390625 C74.37986536 52.26049707 71.35410368 61.00489099 63.55883789 69.03637695 C60.51012977 71.78413964 58.38256594 73.2606151 54.36352539 74.17700195 C54.79020508 75.21469727 55.21688477 76.25239258 55.65649414 77.3215332 C60.10551994 88.24452434 64.33341846 99.24925492 68.46987915 110.29379272 C69.06525931 111.88157481 69.66289352 113.46851352 70.26278687 115.05459595 C71.11551459 117.31172275 71.95941691 119.57195937 72.80102539 121.83325195 C73.06003128 122.51481857 73.31903717 123.19638519 73.58589172 123.89860535 C74.82167824 127.24995147 75.36352539 129.54547392 75.36352539 133.17700195 C67.44352539 133.17700195 59.52352539 133.17700195 51.36352539 133.17700195 C48.66526518 126.43135143 46.07854693 119.71699812 43.69165039 112.86450195 C43.36436951 111.92896484 43.03708862 110.99342773 42.69989014 110.02954102 C42.01647441 108.07372308 41.33421434 106.11750096 40.65307617 104.16088867 C39.60611695 101.15573704 38.55336951 98.15265374 37.50024414 95.1496582 C36.8345312 93.24222766 36.16915427 91.33467981 35.50415039 89.42700195 C35.03081268 88.07868286 35.03081268 88.07868286 34.5479126 86.703125 C34.26051208 85.87466064 33.97311157 85.04619629 33.67700195 84.19262695 C33.42259338 83.46333984 33.16818481 82.73405273 32.90606689 81.98266602 C32.36352539 80.17700195 32.36352539 80.17700195 32.36352539 78.17700195 C28.07352539 78.17700195 23.78352539 78.17700195 19.36352539 78.17700195 C19.37138062 80.6228772 19.37138062 80.6228772 19.37939453 83.11816406 C19.39743624 89.14322363 19.40895435 95.16828078 19.41845703 101.19335938 C19.42349916 103.80566814 19.43033264 106.41797407 19.43896484 109.03027344 C19.45103575 112.77580464 19.45675475 116.52129867 19.46118164 120.2668457 C19.46634293 121.4428685 19.47150421 122.6188913 19.4768219 123.83055115 C19.4769352 125.45211876 19.4769352 125.45211876 19.47705078 127.10644531 C19.47927139 128.0635289 19.481492 129.02061249 19.48377991 130.00669861 C19.36352539 132.17700195 19.36352539 132.17700195 18.36352539 133.17700195 C16.66793813 133.27632349 14.96826792 133.30780202 13.26977539 133.30981445 C12.23981445 133.31110352 11.20985352 133.31239258 10.14868164 133.3137207 C8.5225293 133.30791992 8.5225293 133.30791992 6.86352539 133.30200195 C5.77942383 133.30586914 4.69532227 133.30973633 3.57836914 133.3137207 C2.5484082 133.31243164 1.51844727 133.31114258 0.45727539 133.30981445 C-0.49469727 133.30868652 -1.44666992 133.30755859 -2.42749023 133.30639648 C-4.63647461 133.17700195 -4.63647461 133.17700195 -5.63647461 132.17700195 C-5.73484502 130.48373138 -5.76279476 128.7863354 -5.76345825 127.09020996 C-5.76627808 125.98802628 -5.7690979 124.88584259 -5.77200317 123.7502594 C-5.76896683 121.92058876 -5.76896683 121.92058876 -5.76586914 120.05395508 C-5.76762146 118.7776976 -5.76937378 117.50144012 -5.7711792 116.18650818 C-5.7757531 112.67627204 -5.77396415 109.16606516 -5.77080011 105.65582848 C-5.76827629 101.9900746 -5.77061411 98.32432331 -5.77218628 94.65856934 C-5.77400791 88.50146025 -5.77160184 82.34436313 -5.7668457 76.18725586 C-5.76140309 69.05894591 -5.76316575 61.93066455 -5.76867211 54.80235529 C-5.77320343 48.69281344 -5.7738537 42.58328022 -5.77123344 36.47373724 C-5.76967077 32.8200976 -5.76947663 29.16647143 -5.77276993 25.51283264 C-5.77618276 21.44188735 -5.7714586 17.3709917 -5.76586914 13.30004883 C-5.76789337 12.0802684 -5.7699176 10.86048798 -5.77200317 9.60374451 C-5.76918335 8.50156082 -5.76636353 7.39937714 -5.76345825 6.26379395 C-5.76308123 5.29997551 -5.7627042 4.33615707 -5.76231575 3.34313202 C-5.53031743 -0.65030388 -3.51247688 0.03957931 0 0 Z " fill="#181911" transform="translate(738.636474609375,206.822998046875)"/>
<path d="M0 0 C0.94543671 -0.01283524 1.89087341 -0.02567047 2.86495972 -0.03889465 C4.41317917 -0.04997505 4.41317917 -0.04997505 5.99267578 -0.0612793 C7.05277863 -0.06935104 8.11288147 -0.07742279 9.20510864 -0.08573914 C11.45980178 -0.09960771 13.71451615 -0.11031737 15.96923828 -0.11816406 C19.38892852 -0.13525289 22.80762065 -0.17909938 26.22705078 -0.22338867 C28.41975201 -0.23352623 30.61246147 -0.24203899 32.80517578 -0.2487793 C33.81707977 -0.26628738 34.82898376 -0.28379547 35.87155151 -0.30183411 C46.41656175 -0.27025636 55.8336502 2.83837767 63.56298828 10.17700195 C65.88961237 12.68176664 67.77868467 15.26299132 69.56298828 18.17700195 C69.97806641 18.84731445 70.39314453 19.51762695 70.82080078 20.20825195 C75.92474154 30.34474968 74.88339935 44.58808938 72.12548828 55.30200195 C69.29573411 63.1725727 63.49672685 69.56430299 56.56298828 74.17700195 C55.90298828 74.17700195 55.24298828 74.17700195 54.56298828 74.17700195 C54.98966797 75.21469727 55.41634766 76.25239258 55.85595703 77.3215332 C60.30498283 88.24452434 64.53288135 99.24925492 68.66934204 110.29379272 C69.2647222 111.88157481 69.86235641 113.46851352 70.46224976 115.05459595 C71.31497748 117.31172275 72.15887981 119.57195937 73.00048828 121.83325195 C73.25949417 122.51481857 73.51850006 123.19638519 73.78535461 123.89860535 C75.02114113 127.24995147 75.56298828 129.54547392 75.56298828 133.17700195 C67.64298828 133.17700195 59.72298828 133.17700195 51.56298828 133.17700195 C48.96445705 126.68067387 46.45169146 120.22202845 44.14501953 113.6262207 C43.84230637 112.76438675 43.5395932 111.9025528 43.22770691 111.01460266 C42.59558445 109.21260357 41.96459736 107.41020583 41.3347168 105.60742188 C40.37127998 102.8524683 39.40188404 100.09965875 38.43212891 97.34692383 C37.81523173 95.58598245 37.19868284 93.82491901 36.58251953 92.0637207 C36.29399612 91.2459465 36.00547272 90.4281723 35.70820618 89.58561707 C35.44090195 88.81744156 35.17359772 88.04926605 34.89819336 87.2578125 C34.54655876 86.2538166 34.54655876 86.2538166 34.18782043 85.22953796 C33.48526201 82.92167583 33.03610463 80.54258368 32.56298828 78.17700195 C27.94298828 78.17700195 23.32298828 78.17700195 18.56298828 78.17700195 C18.57084351 80.6228772 18.57084351 80.6228772 18.57885742 83.11816406 C18.59689913 89.14322363 18.60841724 95.16828078 18.61791992 101.19335938 C18.62296205 103.80566814 18.62979553 106.41797407 18.63842773 109.03027344 C18.65049864 112.77580464 18.65621764 116.52129867 18.66064453 120.2668457 C18.66580582 121.4428685 18.6709671 122.6188913 18.67628479 123.83055115 C18.67639809 125.45211876 18.67639809 125.45211876 18.67651367 127.10644531 C18.67873428 128.0635289 18.6809549 129.02061249 18.6832428 130.00669861 C18.56298828 132.17700195 18.56298828 132.17700195 17.56298828 133.17700195 C15.94041284 133.27616766 14.31358997 133.30779972 12.68798828 133.30981445 C11.70314453 133.31110352 10.71830078 133.31239258 9.70361328 133.3137207 C8.66720703 133.30985352 7.63080078 133.30598633 6.56298828 133.30200195 C5.52658203 133.30586914 4.49017578 133.30973633 3.42236328 133.3137207 C2.43751953 133.31243164 1.45267578 133.31114258 0.43798828 133.30981445 C-0.47208984 133.30868652 -1.38216797 133.30755859 -2.31982422 133.30639648 C-4.43701172 133.17700195 -4.43701172 133.17700195 -5.43701172 132.17700195 C-5.53538213 130.48373138 -5.56333187 128.7863354 -5.56399536 127.09020996 C-5.56681519 125.98802628 -5.56963501 124.88584259 -5.57254028 123.7502594 C-5.56950394 121.92058876 -5.56950394 121.92058876 -5.56640625 120.05395508 C-5.56815857 118.7776976 -5.56991089 117.50144012 -5.57171631 116.18650818 C-5.57629021 112.67627204 -5.57450126 109.16606516 -5.57133722 105.65582848 C-5.5688134 101.9900746 -5.57115122 98.32432331 -5.57272339 94.65856934 C-5.57454502 88.50146025 -5.57213895 82.34436313 -5.56738281 76.18725586 C-5.5619402 69.05894591 -5.56370286 61.93066455 -5.56920922 54.80235529 C-5.57374054 48.69281344 -5.5743908 42.58328022 -5.57177055 36.47373724 C-5.57020788 32.8200976 -5.57001374 29.16647143 -5.57330704 25.51283264 C-5.57671987 21.44188735 -5.57199571 17.3709917 -5.56640625 13.30004883 C-5.56843048 12.0802684 -5.57045471 10.86048798 -5.57254028 9.60374451 C-5.56972046 8.50156082 -5.56690063 7.39937714 -5.56399536 6.26379395 C-5.56361834 5.29997551 -5.56324131 4.33615707 -5.56285286 3.34313202 C-5.33509972 -0.57723082 -3.46205434 0.04081183 0 0 Z " fill="#16170F" transform="translate(447.43701171875,206.822998046875)"/>
<path d="M0 0 C6.14173147 3.46587336 13.81930073 9.63860147 17 16 C17.66268527 21.48405872 16.6916622 24.19236743 13.44482422 28.3894043 C12.66776123 29.34133667 12.66776123 29.34133667 11.875 30.3125 C11.3402002 30.99546143 10.80540039 31.67842285 10.25439453 32.38208008 C9.10883104 33.84254955 7.95608891 35.29741177 6.796875 36.74707031 C4.38549372 39.77047065 2.02230197 42.83013424 -0.34423828 45.88867188 C-2.11724947 48.17749466 -3.89738092 50.46059803 -5.6796875 52.7421875 C-10.15151649 58.47052127 -14.57554916 64.23502845 -19 70 C-20.66609253 72.16710847 -22.33305199 74.33354953 -24 76.5 C-24.83334905 77.58332124 -25.66668241 78.66665456 -26.5 79.75 C-31.5 86.25 -31.5 86.25 -32.74926758 87.87402344 C-33.58507376 88.96058779 -34.42084835 90.04717645 -35.2565918 91.13378906 C-37.30183636 93.79288548 -39.34769991 96.4514994 -41.39453125 99.109375 C-45.54674215 104.50255361 -49.69206597 109.90082942 -53.82495117 115.30883789 C-54.93762278 116.76434404 -56.0510615 118.21926412 -57.1652832 119.67358398 C-59.75032002 123.0486528 -62.32662658 126.4291719 -64.875 129.83203125 C-65.32037109 130.42242187 -65.76574219 131.0128125 -66.22460938 131.62109375 C-67.41423309 133.19875706 -68.59797364 134.78085174 -69.78125 136.36328125 C-72.44045218 139.52342469 -74.95344772 142.47285775 -79.0625 143.53125 C-79.701875 143.5209375 -80.34125 143.510625 -81 143.5 C-81.9590625 143.51546875 -81.9590625 143.51546875 -82.9375 143.53125 C-88.47239002 142.10559651 -91.73247483 137.0409538 -95 132.6875 C-99.0024477 127.46835225 -103.15416936 122.43653858 -107.5 117.5 C-112.25549318 112.08915865 -116.77777567 106.55057323 -121.18310547 100.85205078 C-123.72241553 97.58109093 -126.33262438 94.43725019 -129.125 91.375 C-132.1941085 87.96204947 -135.1545142 84.47630049 -138 80.875 C-139.1446875 79.44800781 -139.1446875 79.44800781 -140.3125 77.9921875 C-142.38366462 74.31970579 -142.54188688 72.15766306 -142 68 C-140.71484375 65.77734375 -140.71484375 65.77734375 -138.9375 63.9375 C-138.30328125 63.27492187 -137.6690625 62.61234375 -137.015625 61.9296875 C-127.97080901 53.2705032 -127.97080901 53.2705032 -122.8125 52.5625 C-114.75094336 53.48759666 -110.37804326 60.73870819 -105.58984375 66.73828125 C-105.1810498 67.25471191 -104.77225586 67.77114258 -104.35107422 68.30322266 C-102.30023215 70.87881939 -100.21644852 73.42731688 -98.13598633 75.97900391 C-92.71986737 82.62283877 -87.33703159 89.2924316 -82 96 C-77.45411205 91.75374685 -73.86900833 87.00066294 -70.1875 82 C-68.84975703 80.19862535 -67.51118834 78.39786365 -66.171875 76.59765625 C-65.48416016 75.67227051 -64.79644531 74.74688477 -64.08789062 73.79345703 C-60.74002377 69.31423667 -57.33730011 64.87734604 -53.9375 60.4375 C-48.23862963 52.98332792 -42.63505168 45.46621287 -37.08886719 37.89794922 C-32.65465324 31.85833154 -28.13640299 25.88792432 -23.56201172 19.95385742 C-21.11356582 16.77603079 -18.68503056 13.5902545 -16.328125 10.34375 C-15.92053955 9.78550537 -15.5129541 9.22726074 -15.09301758 8.65209961 C-14.02308283 7.1802329 -12.96230608 5.70172077 -11.90234375 4.22265625 C-8.49104917 0.23697532 -5.17740183 -0.79652336 0 0 Z " fill="#171810" transform="translate(1131,111)"/>
<path d="M0 0 C9.57 0 19.14 0 29 0 C32.37482841 8.99954242 32.37482841 8.99954242 33.38769531 13.24853516 C33.61987259 14.21124832 33.85204987 15.17396149 34.09126282 16.16584778 C34.33442734 17.19650864 34.57759186 18.22716949 34.828125 19.2890625 C35.09429123 20.39799362 35.36045746 21.50692474 35.63468933 22.64945984 C36.51142145 26.30680658 37.38094838 29.96582125 38.25 33.625 C39.33377522 38.16678242 40.41934876 42.708134 41.50538445 47.2493763 C41.99257784 49.28750564 42.47902346 51.32581262 42.96546936 53.36412048 C45.19066235 62.67788685 47.46160723 71.97974467 49.75699234 81.27644348 C50.81049442 85.54719723 51.8585068 89.81930247 52.90683937 94.09132767 C53.75364532 97.53962884 54.6043107 100.98689114 55.46325684 104.43218994 C56.4228302 108.28151453 57.36621756 112.13470862 58.30859375 115.98828125 C58.59743942 117.13463547 58.8862851 118.28098969 59.18388367 119.46208191 C59.43958633 120.51784927 59.695289 121.57361664 59.95874023 122.66137695 C60.29844093 124.03444756 60.29844093 124.03444756 60.64500427 125.43525696 C61 128 61 128 60 133 C52.41 133 44.82 133 37 133 C35.34663104 128.8665776 34.28984848 125.25761783 33.375 120.9375 C33.11460937 119.72964844 32.85421875 118.52179688 32.5859375 117.27734375 C32 114 32 114 32 110 C21.11 110 10.22 110 -1 110 C-2.27350058 116.44647831 -2.27350058 116.44647831 -3.54272461 122.89379883 C-3.70264893 123.69841553 -3.86257324 124.50303223 -4.02734375 125.33203125 C-4.18968506 126.15421143 -4.35202637 126.9763916 -4.51928711 127.82348633 C-5 130 -5 130 -6 133 C-13.92 133 -21.84 133 -30 133 C-31.28960137 129.13119589 -30.52536212 127.21966739 -29.54296875 123.26171875 C-29.36849213 122.54554886 -29.1940155 121.82937897 -29.01425171 121.09150696 C-28.62261374 119.48572825 -28.22744817 117.88080716 -27.82937622 116.27661133 C-26.68266958 111.65118501 -25.5643937 107.01889336 -24.4453125 102.38671875 C-24.18812943 101.32395721 -23.93094635 100.26119568 -23.66596985 99.16622925 C-21.18422861 88.86243316 -18.8020837 78.5364534 -16.4296875 68.20703125 C-16.2305179 67.34036016 -16.0313483 66.47368908 -15.82614326 65.58075523 C-13.99725183 57.62161737 -12.17079335 49.66192474 -10.35067749 41.70077515 C-9.38007293 37.45559569 -8.40636502 33.21113829 -7.43068314 28.96712303 C-7.06790364 27.38614357 -6.70634386 25.80488365 -6.3461113 24.22332191 C-5.84521724 22.0244677 -5.34015489 19.82660724 -4.83422852 17.62890625 C-4.55128433 16.39213135 -4.26834015 15.15535645 -3.9768219 13.88110352 C-2.80204674 9.21349317 -1.38305654 4.61018846 0 0 Z " fill="#171810" transform="translate(659,207)"/>
<path d="M0 0 C9.9 0 19.8 0 30 0 C35.62829279 23.05010144 41.2411849 46.10384262 46.828125 69.16400146 C47.58403337 72.2839802 48.34051846 75.40381793 49.09765625 78.52349854 C51.02179459 86.45308075 52.93674983 94.38472602 54.83511353 102.32052612 C55.40217209 104.68517516 55.97245162 107.04905416 56.54598999 109.41213989 C57.33499018 112.66596591 58.11243305 115.92233375 58.88671875 119.1796875 C59.23530945 120.60103752 59.23530945 120.60103752 59.59094238 122.05110168 C59.79384888 122.91579575 59.99675537 123.78048981 60.20581055 124.67138672 C60.47411934 125.78886795 60.47411934 125.78886795 60.74784851 126.92892456 C61 129 61 129 60 133 C52.41 133 44.82 133 37 133 C33.5801105 122.74033149 33.5801105 122.74033149 32.8125 119.25 C32.65394531 118.55390625 32.49539063 117.8578125 32.33203125 117.140625 C32 115 32 115 32 110 C15.665 110.495 15.665 110.495 -1 111 C-2.27454508 117.49132132 -2.27454508 117.49132132 -3.54272461 123.98388672 C-3.78261108 125.19455811 -3.78261108 125.19455811 -4.02734375 126.4296875 C-4.27085571 127.67081299 -4.27085571 127.67081299 -4.51928711 128.93701172 C-5 131 -5 131 -6 133 C-13.92 133 -21.84 133 -30 133 C-28.87507435 121.75074349 -28.87507435 121.75074349 -27.93115234 117.75561523 C-27.71882965 116.8426619 -27.50650696 115.92970856 -27.28775024 114.98908997 C-27.05615204 114.02202621 -26.82455383 113.05496246 -26.5859375 112.05859375 C-26.33927338 111.00504196 -26.09260925 109.95149017 -25.83847046 108.86601257 C-25.02307879 105.38845846 -24.19902058 101.91301859 -23.375 98.4375 C-22.50276002 94.72851387 -21.63270157 91.01901993 -20.76269531 87.30950928 C-20.14885498 84.69299843 -19.53437716 82.0766463 -18.91894531 79.46051025 C-16.52706367 69.28670935 -14.17453007 59.10413881 -11.8359375 48.91796875 C-11.49040708 47.41399176 -11.14485664 45.91001936 -10.79928589 44.40605164 C-9.44640644 38.51697695 -8.09389138 32.62782086 -6.74530029 26.73776245 C-5.95429928 23.2834341 -5.16088728 19.82966785 -4.36574173 16.37629128 C-3.93140433 14.48676849 -3.49977503 12.59662386 -3.06820679 10.70646667 C-2.68011337 9.02282768 -2.68011337 9.02282768 -2.28417969 7.30517578 C-2.05913757 6.32380646 -1.83409546 5.34243713 -1.60223389 4.33132935 C-1 2 -1 2 0 0 Z " fill="#171810" transform="translate(367,207)"/>
<path d="M0 0 C1.60875 0.86625 1.60875 0.86625 3.25 1.75 C10.25932962 7.48490605 16.36571711 14.86070925 18 24 C18.06904426 26.59606405 18.09412447 29.15623393 18.0625 31.75 C18.041875 34.1425 18.02125 36.535 18 39 C10.41 39 2.82 39 -5 39 C-5.66 35.37 -6.32 31.74 -7 28 C-8.37423534 24.22085283 -9.59348688 22.38618746 -12.5 19.625 C-17.41322441 17.34386009 -21.67092095 17.23077282 -27 18 C-31.75722112 20.12375943 -33.45825738 22.31179589 -35.39418411 27.08874512 C-36.35262268 30.11246971 -36.38193598 32.95024558 -36.38818359 36.109375 C-36.39606903 37.11816711 -36.39606903 37.11816711 -36.40411377 38.14733887 C-36.4172105 40.34846918 -36.40861322 42.54886361 -36.3984375 44.75 C-36.40046122 46.29264463 -36.40337514 47.83528832 -36.40713501 49.37792969 C-36.41154436 52.6023067 -36.40517241 55.82643345 -36.39111328 59.05078125 C-36.37402201 63.16977869 -36.38387069 67.28818957 -36.40183067 71.40716553 C-36.41270629 74.59005092 -36.40920493 77.77279879 -36.4014473 80.95568848 C-36.39945571 82.47383698 -36.40186771 83.99199825 -36.40888596 85.51013184 C-36.41656324 87.63729606 -36.40481049 89.76352954 -36.38818359 91.890625 C-36.38579681 93.09750977 -36.38341003 94.30439453 -36.38095093 95.54785156 C-35.81447739 100.68119183 -34.33394546 104.59536684 -30.71484375 108.40625 C-25.76810384 111.31023544 -20.54762031 110.66292318 -15 110 C-11.45415303 108.59388827 -9.94099036 107.60455727 -8.01953125 104.328125 C-4.90513658 96.78339424 -5.26773011 88.04113536 -5 80 C-6.13179687 80.02320313 -7.26359375 80.04640625 -8.4296875 80.0703125 C-9.91145175 80.08906901 -11.39322312 80.10726934 -12.875 80.125 C-13.62136719 80.14175781 -14.36773438 80.15851563 -15.13671875 80.17578125 C-17.09194461 80.1933959 -19.04742021 80.10320189 -21 80 C-23.62723824 77.37276176 -23.26115971 75.45788327 -23.2734375 71.87890625 C-23.26570312 71.09386719 -23.25796875 70.30882812 -23.25 69.5 C-23.26160156 68.32244141 -23.26160156 68.32244141 -23.2734375 67.12109375 C-23.25330787 61.25330787 -23.25330787 61.25330787 -21 59 C-18.15459858 58.80009773 -15.40862216 58.72023024 -12.5625 58.734375 C-11.72662354 58.73246155 -10.89074707 58.7305481 -10.02954102 58.72857666 C-8.26090189 58.72721464 -6.49225277 58.73091224 -4.72363281 58.73925781 C-2.01084006 58.74995725 0.70129044 58.73936324 3.4140625 58.7265625 C5.1302098 58.72788409 6.84635669 58.73044648 8.5625 58.734375 C9.37710693 58.73032654 10.19171387 58.72627808 11.03100586 58.72210693 C16.77008072 58.77008072 16.77008072 58.77008072 19 61 C19.22509221 63.78981933 19.32818782 66.47706907 19.3359375 69.26953125 C19.3459227 70.5175074 19.3459227 70.5175074 19.35610962 71.79069519 C19.3662546 73.56022939 19.37092607 75.32980199 19.37060547 77.09936523 C19.37492175 79.7641874 19.41105857 82.42727444 19.44921875 85.09179688 C19.54796567 99.92121924 17.78216877 111.80143529 7.1875 122.8984375 C2.36297236 127.508974 -2.66788335 129.99698351 -9 132 C-9.88945313 132.28810547 -9.88945313 132.28810547 -10.796875 132.58203125 C-22.11243244 134.72877708 -34.33458765 133.515956 -44.30078125 127.64453125 C-52.86149962 121.63106995 -59.05992645 113.57611752 -61.09057617 103.22070312 C-62.34479775 95.91411124 -62.30884383 88.60658736 -62.30078125 81.21875 C-62.30467975 79.71382532 -62.30901674 78.20890172 -62.31376648 76.70397949 C-62.32117907 73.56742771 -62.3209731 70.4309886 -62.31567383 67.29443359 C-62.30987536 63.30376233 -62.32684333 59.31355462 -62.3500185 55.3229599 C-62.36484854 52.22057465 -62.36561522 49.11829882 -62.36250877 46.0158844 C-62.363017 44.54569071 -62.3681593 43.07549008 -62.37832069 41.60533142 C-62.46170478 27.86177543 -60.664185 15.96120093 -51.4765625 5.21875 C-38.86458231 -6.8395335 -14.98223381 -8.37841425 0 0 Z " fill="#191A12" transform="translate(598,209)"/>
<path d="M0 0 C1.21631586 1.02938731 2.40573534 2.09161769 3.5625 3.1875 C4.11550781 3.70054687 4.66851563 4.21359375 5.23828125 4.7421875 C11.60797135 11.34896284 13.78596922 19.29071401 13.875 28.3125 C13.74781889 34.00218111 13.74781889 34.00218111 12.5625 35.1875 C11.01294441 35.28649523 9.45896327 35.31829524 7.90625 35.3203125 C6.49666016 35.32224609 6.49666016 35.32224609 5.05859375 35.32421875 C4.06988281 35.32035156 3.08117187 35.31648438 2.0625 35.3125 C1.07378906 35.31636719 0.08507812 35.32023437 -0.93359375 35.32421875 C-1.87332031 35.32292969 -2.81304688 35.32164062 -3.78125 35.3203125 C-4.64943359 35.31918457 -5.51761719 35.31805664 -6.41210938 35.31689453 C-8.4375 35.1875 -8.4375 35.1875 -9.4375 34.1875 C-9.73382219 32.27460822 -9.99953716 30.35693486 -10.25 28.4375 C-11.0179248 23.64792458 -11.67306798 20.50905767 -15.4375 17.1875 C-19.93432769 14.49709027 -24.330567 14.52698185 -29.4375 15.1875 C-32.6513627 16.79443135 -34.60728419 18.13086169 -36.8125 20.9375 C-38.22756408 26.03173069 -37.96028953 29.85676301 -36.0625 34.6875 C-30.6642846 42.86716876 -20.9432299 47.86606725 -12.9375 53.125 C10.98697214 68.86330239 10.98697214 68.86330239 15.0546875 82.609375 C16.8763625 91.85787882 16.11404933 100.87382994 11.5625 109.1875 C6.06602459 117.20561423 -0.4742278 121.64675988 -9.4375 125.1875 C-10.10265625 125.45304688 -10.7678125 125.71859375 -11.453125 125.9921875 C-22.09668362 129.37036045 -34.50144719 127.92173693 -44.4375 123.1875 C-53.48374838 117.8200593 -58.89091479 110.24336431 -62.03515625 100.296875 C-62.56272591 97.53097579 -62.60771178 94.87702227 -62.625 92.0625 C-62.63917969 91.00804687 -62.65335938 89.95359375 -62.66796875 88.8671875 C-62.4375 86.1875 -62.4375 86.1875 -60.4375 84.1875 C-58.40625 83.92871094 -58.40625 83.92871094 -55.9375 83.921875 C-55.050625 83.91929687 -54.16375 83.91671875 -53.25 83.9140625 C-52.321875 83.92179687 -51.39375 83.92953125 -50.4375 83.9375 C-49.509375 83.92976563 -48.58125 83.92203125 -47.625 83.9140625 C-46.2946875 83.91792969 -46.2946875 83.91792969 -44.9375 83.921875 C-44.1228125 83.92413086 -43.308125 83.92638672 -42.46875 83.92871094 C-40.4375 84.1875 -40.4375 84.1875 -38.4375 86.1875 C-37.88112466 89.42419147 -37.54526795 92.66077135 -37.1953125 95.92578125 C-36.16409812 100.36425553 -34.27621704 102.98470288 -30.4609375 105.48046875 C-25.68400528 107.14962846 -20.89160861 106.62647618 -16.125 105.1875 C-12.43766084 102.44343365 -10.69752577 99.59759018 -9.4375 95.1875 C-9.13979465 90.12650898 -10.64616141 86.34205046 -13.4375 82.1875 C-18.50997587 76.57754324 -24.56593369 72.79910047 -31.12866211 69.18823242 C-43.79598332 62.18008697 -56.39419734 53.21156235 -61.18359375 38.96875 C-63.74188549 28.94730375 -62.98690501 19.53289024 -58.4375 10.1875 C-52.78484142 1.7025368 -44.91079297 -3.85980087 -35.015625 -6.4453125 C-22.92551557 -8.16723718 -10.23909555 -7.23330045 0 0 Z " fill="#171710" transform="translate(681.4375,386.8125)"/>
<path d="M0 0 C8.10034532 6.48027626 13.89042305 13.71862006 15.8125 24.25 C15.90433457 26.31087573 15.94252537 28.37458529 15.9375 30.4375 C15.94136719 32.03658203 15.94136719 32.03658203 15.9453125 33.66796875 C15.8125 36.25 15.8125 36.25 14.8125 37.25 C13.17777118 37.33700342 11.53935945 37.35701063 9.90234375 37.34765625 C8.91298828 37.34443359 7.92363281 37.34121094 6.90429688 37.33789062 C5.86337891 37.32951172 4.82246094 37.32113281 3.75 37.3125 C2.70521484 37.30798828 1.66042969 37.30347656 0.58398438 37.29882812 C-2.0065666 37.28699913 -4.59700559 37.27051689 -7.1875 37.25 C-7.30988037 36.4569043 -7.43226074 35.66380859 -7.55834961 34.84667969 C-8.62932083 28.09523919 -9.54454384 23.63510678 -14.75 18.9375 C-19.36170055 16.67357428 -23.13897555 16.44551968 -28.1875 17.25 C-33.24941211 19.6429039 -35.07679146 22.15752606 -37.1875 27.25 C-37.64347267 30.66294876 -37.64347267 30.66294876 -37.59155273 34.32177734 C-37.60184761 35.34257133 -37.60184761 35.34257133 -37.61235046 36.38398743 C-37.63054784 38.61818725 -37.6267908 40.85167995 -37.62109375 43.0859375 C-37.62565957 44.65003688 -37.63096633 46.21413426 -37.63697815 47.77822876 C-37.64589582 51.05145431 -37.6435023 54.32443571 -37.63354492 57.59765625 C-37.6220676 61.77611363 -37.64225383 65.95372434 -37.67146206 70.13207054 C-37.68988024 73.36133103 -37.68952032 76.59039082 -37.68382454 79.8196907 C-37.68367195 81.35935273 -37.68966424 82.89902891 -37.70211601 84.43864059 C-37.80456387 95.93431137 -37.80456387 95.93431137 -33.1875 106.25 C-29.97302913 109.36706266 -27.0024396 109.4744115 -22.6875 109.625 C-18.3725604 109.4744115 -15.40197087 109.36706266 -12.1875 106.25 C-9.01608272 101.44416631 -7.77336203 96.99144791 -7.1875 91.25 C-5.56549485 89.62799485 -3.76726969 90.1200925 -1.53125 90.1171875 C-0.59152344 90.11589844 0.34820312 90.11460937 1.31640625 90.11328125 C2.79947266 90.11908203 2.79947266 90.11908203 4.3125 90.125 C5.79556641 90.11919922 5.79556641 90.11919922 7.30859375 90.11328125 C8.71818359 90.11521484 8.71818359 90.11521484 10.15625 90.1171875 C11.02443359 90.11831543 11.89261719 90.11944336 12.78710938 90.12060547 C14.8125 90.25 14.8125 90.25 15.8125 91.25 C16.96927544 101.35756245 14.57784024 110.82560808 8.6875 119.125 C2.23951142 126.71410383 -7.20416777 131.50118211 -17.10839844 132.43017578 C-29.2621837 133.21765978 -39.68675622 131.82870146 -49.41015625 123.875 C-55.9457921 117.89956151 -60.43916457 111.05062081 -62.1875 102.25 C-62.2962479 99.76117839 -62.35490876 97.29946619 -62.36450195 94.81030273 C-62.37107315 94.06660934 -62.37764435 93.32291595 -62.38441467 92.5566864 C-62.40409854 90.0989877 -62.41580238 87.64135012 -62.42578125 85.18359375 C-62.42985678 84.34045183 -62.4339323 83.49730991 -62.43813133 82.62861824 C-62.45897615 78.16151298 -62.47328192 73.69443825 -62.48266602 69.22729492 C-62.49369709 64.63664549 -62.52806304 60.04648522 -62.56783772 55.45600796 C-62.59412098 51.90669419 -62.60236842 48.35749462 -62.60594749 44.80809212 C-62.61078719 43.11737852 -62.62232553 41.42666911 -62.64098549 39.73605156 C-62.77643054 26.64569616 -61.59152067 15.17767844 -52.1875 5.25 C-38.69014715 -7.53540456 -16.00976447 -8.78967461 0 0 Z " fill="#171810" transform="translate(310.1875,209.75)"/>
<path d="M0 0 C7.59 0 15.18 0 23 0 C25.07570673 5.53521796 26.69572395 10.46572927 27.80932617 16.17260742 C27.96582138 16.94602982 28.12231659 17.71945221 28.28355408 18.51631165 C28.79332751 21.04475146 29.29341432 23.57499181 29.79296875 26.10546875 C30.14695545 27.87576642 30.50139911 29.64597277 30.85627747 31.41609192 C31.59586557 35.11274217 32.33080227 38.81027673 33.06225586 42.50854492 C33.99921767 47.24455185 34.9464651 51.97842977 35.89701366 56.71172619 C36.62898369 60.36127625 37.3561954 64.01176149 38.08190346 67.66256142 C38.42946187 69.40870502 38.77833653 71.15458717 39.12856102 72.90019798 C39.61672794 75.33774677 40.09863666 77.77645123 40.57885742 80.21557617 C40.7237561 80.93309052 40.86865479 81.65060486 41.01794434 82.38986206 C41.71714003 85.97701294 42.16129415 89.34365749 42 93 C42.66 93 43.32 93 44 93 C44.03928619 92.45337204 44.07857239 91.90674408 44.11904907 91.34355164 C44.79196539 83.41720223 46.29662034 75.69045183 47.8359375 67.89453125 C48.11917252 66.44267715 48.40201174 64.99074578 48.68447876 63.53874207 C49.42563687 59.73470317 50.17229055 55.93176346 50.92010498 52.12902832 C51.67157768 48.30219416 52.41750193 44.47427923 53.1640625 40.64648438 C54.51633341 33.71954949 55.86962464 26.79282777 57.23797607 19.86904907 C57.77286913 17.15321903 58.30189403 14.43668124 58.82501221 11.71859741 C59.09372098 10.33801947 59.3624972 8.95745465 59.63134766 7.5769043 C59.87019684 6.33861374 60.10904602 5.10032318 60.35513306 3.82450867 C61 1 61 1 62 0 C63.70772358 -0.08713831 65.41898649 -0.10700007 67.12890625 -0.09765625 C68.68061523 -0.09282227 68.68061523 -0.09282227 70.26367188 -0.08789062 C71.35228516 -0.07951172 72.44089844 -0.07113281 73.5625 -0.0625 C75.2012207 -0.05573242 75.2012207 -0.05573242 76.87304688 -0.04882812 C79.58208495 -0.03699826 82.29101599 -0.02051543 85 0 C84.3874592 5.52826366 83.46019517 10.838632 82.17749023 16.24731445 C81.99512314 17.03106949 81.81275604 17.81482452 81.62486267 18.62232971 C81.02327165 21.20355878 80.41592501 23.78339733 79.80859375 26.36328125 C79.38040143 28.19605244 78.9525986 30.02891466 78.52516174 31.86186218 C77.39580416 36.70059649 76.26169017 41.53820308 75.12640381 46.37554932 C73.33907452 53.99533299 71.55961066 61.6169598 69.7787056 69.23824692 C69.12329925 72.04134857 68.46680166 74.84419298 67.81015015 77.64700317 C65.71139524 86.61307139 63.63137513 95.58279056 61.59814453 104.56396484 C61.41037099 105.39216201 61.22259745 106.22035917 61.0291338 107.07365322 C60.14809488 110.96182979 59.27116811 114.85085613 58.40122986 118.74153137 C58.09450888 120.10009379 57.78767694 121.45863116 57.48071289 122.81713867 C57.21722549 123.99378586 56.9537381 125.17043304 56.68226624 126.38273621 C56 129 56 129 55 130 C53.07332493 130.08748207 51.14348139 130.10697334 49.21484375 130.09765625 C48.04501953 130.09443359 46.87519531 130.09121094 45.66992188 130.08789062 C44.43822266 130.07951172 43.20652344 130.07113281 41.9375 130.0625 C40.08415039 130.05573242 40.08415039 130.05573242 38.19335938 130.04882812 C35.12885651 130.03699607 32.06445964 130.01967435 29 130 C25.91665782 117.86276822 23.02607463 105.68572694 20.19140625 93.48828125 C19.73840305 91.54360549 19.28527021 89.59895992 18.83201599 87.65434265 C17.64757398 82.57143223 16.46457069 77.48818818 15.28198242 72.40484619 C13.39428222 64.29148256 11.50453944 56.17859466 9.61445427 48.06578636 C8.96433363 45.27422928 8.31494257 42.48250332 7.66566467 39.69075012 C7.46039123 38.80936969 7.25511778 37.92798925 7.04362392 37.01990032 C6.64000713 35.28594725 6.23728603 33.55178541 5.83551884 31.81740284 C4.7720403 27.24215377 3.67782117 22.67647352 2.54537964 18.11776733 C2.30856193 17.15477565 2.07174421 16.19178396 1.82775021 15.19961071 C1.37146284 13.34884667 0.90862881 11.49968084 0.4383707 9.65241718 C0.23509128 8.82406455 0.03181185 7.99571192 -0.17762756 7.14225769 C-0.36088624 6.41296145 -0.54414492 5.68366522 -0.73295689 4.9322691 C-1 3 -1 3 0 0 Z " fill="#171810" transform="translate(246,382)"/>
<path d="M0 0 C0.73511307 0.00359528 1.47022614 0.00719055 2.22761536 0.01089478 C2.99829346 0.01074875 3.76897156 0.01060272 4.56300354 0.01045227 C7.12237823 0.01115157 9.68168104 0.01894471 12.24104309 0.02676392 C14.01081299 0.02862804 15.7805834 0.03005197 17.550354 0.03105164 C22.2176505 0.03487728 26.88491607 0.04470796 31.55220032 0.05575562 C36.31110719 0.06596873 41.07001905 0.07054904 45.82893372 0.07559204 C55.17334837 0.08633019 64.51774004 0.10340717 73.86213684 0.12442017 C73.89101831 3.43690203 73.90889483 6.74935184 73.92463684 10.06192017 C73.93301575 11.00744751 73.94139465 11.95297485 73.95002747 12.92715454 C73.95325012 13.82627563 73.95647278 14.72539673 73.95979309 15.65176392 C73.96502991 16.48441772 73.97026672 17.31707153 73.97566223 18.17495728 C73.86213684 20.12442017 73.86213684 20.12442017 72.86213684 21.12442017 C70.86248702 21.21200019 68.85977574 21.23138593 66.85823059 21.22207642 C65.64328918 21.21885376 64.42834778 21.2156311 63.17658997 21.21231079 C61.89719543 21.20393188 60.6178009 21.19555298 59.29963684 21.18692017 C58.01637512 21.18240845 56.7331134 21.17789673 55.41096497 21.17324829 C52.22797662 21.16141562 49.04507922 21.14493085 45.86213684 21.12442017 C45.86305863 21.68010146 45.86398043 22.23578276 45.86493015 22.80830288 C45.88698666 36.31118567 45.90348525 49.81406532 45.91394901 63.31696224 C45.91917854 69.84678249 45.92627745 76.37658979 45.93757629 82.90640259 C45.94840269 89.20223176 45.95441315 95.49804843 45.95701408 101.79388618 C45.95886878 104.20176961 45.96249024 106.60965231 45.9678669 109.01753044 C45.97507404 112.37731303 45.97612792 115.73704327 45.97566223 119.09683228 C45.97925751 120.10311676 45.98285278 121.10940125 45.98655701 122.1461792 C45.98518234 123.0562825 45.98380768 123.9663858 45.98239136 124.90406799 C45.98331315 125.69957534 45.98423494 126.49508268 45.98518467 127.31469631 C45.86213684 129.12442017 45.86213684 129.12442017 44.86213684 130.12442017 C43.25129939 130.22361197 41.6361804 130.25521836 40.02229309 130.25723267 C39.04196106 130.25852173 38.06162903 130.25981079 37.05158997 130.26113892 C35.50374817 130.25533813 35.50374817 130.25533813 33.92463684 130.24942017 C32.8966095 130.25328735 31.86858215 130.25715454 30.80940247 130.26113892 C29.82778137 130.25984985 28.84616028 130.25856079 27.83479309 130.25723267 C26.92995178 130.25610474 26.02511047 130.25497681 25.09284973 130.2538147 C22.86213684 130.12442017 22.86213684 130.12442017 20.86213684 129.12442017 C20.86213684 93.48442017 20.86213684 57.84442017 20.86213684 21.12442017 C12.28213684 21.12442017 3.70213684 21.12442017 -5.13786316 21.12442017 C-6.69393067 19.56835266 -6.26757085 18.06484645 -6.27067566 15.90567017 C-6.27196472 15.05617798 -6.27325378 14.20668579 -6.27458191 13.33145142 C-6.27071472 12.4381311 -6.26684753 11.54481079 -6.26286316 10.62442017 C-6.26673035 9.73109985 -6.27059753 8.83777954 -6.27458191 7.91738892 C-6.27329285 7.06789673 -6.27200378 6.21840454 -6.27067566 5.34317017 C-6.26954773 4.55877563 -6.2684198 3.7743811 -6.26725769 2.96621704 C-5.99247747 -0.94499421 -3.28738998 0.00678443 0 0 Z " fill="#16170F" transform="translate(439.1378631591797,381.8755798339844)"/>
<path d="M0 0 C4.39217342 2.49751038 6.59318871 5.02956612 8.1875 9.8125 C8.2971616 11.99307744 8.34651643 14.17684836 8.36450195 16.36010742 C8.37435875 17.35098358 8.37435875 17.35098358 8.38441467 18.36187744 C8.40411706 20.54724245 8.41580539 22.73253872 8.42578125 24.91796875 C8.42985678 25.66647913 8.4339323 26.41498951 8.43813133 27.18618202 C8.45898233 31.15056709 8.47328636 35.11491768 8.48266602 39.0793457 C8.49370874 43.16029005 8.52808604 47.24068588 8.56783772 51.32143688 C8.59407513 54.47088078 8.60236428 57.6201956 8.60594749 60.76973915 C8.61079768 62.27314253 8.62236675 63.77654075 8.64098549 65.27983665 C8.73439447 73.32388091 8.80004452 79.93305403 4.1875 86.8125 C-0.12593508 90.86451477 -4.54653638 91.16022293 -10.23828125 91.09375 C-14.35924561 90.64350807 -16.49900676 89.31452551 -19.8125 86.8125 C-23.52376104 81.86415194 -23.93711093 77.49103881 -23.98950195 71.42675781 C-24.00233719 70.13151184 -24.01517242 68.83626587 -24.02839661 67.50177002 C-24.03656554 66.08972559 -24.04400898 64.67767681 -24.05078125 63.265625 C-24.05689454 62.19388157 -24.05689454 62.19388157 -24.06313133 61.10048676 C-24.08395918 57.31764519 -24.09827433 53.53483954 -24.10766602 49.75195312 C-24.11871617 45.86047546 -24.15310862 41.96957183 -24.19283772 38.07829666 C-24.2190813 35.07211298 -24.22736471 32.06606445 -24.23094749 29.05977631 C-24.2357945 27.62614826 -24.24735433 26.19252549 -24.26598549 24.75901031 C-24.36399586 16.7173369 -24.34283286 10.61601987 -19.8125 3.8125 C-13.61256782 -1.94457988 -7.99909321 -2.49152083 0 0 Z " fill="#FEFDF5" transform="translate(571.8125,402.1875)"/>
<path d="M0 0 C5.2322277 1.7440759 7.32310953 4.2410836 10 9 C11.11804945 12.35414836 11.14743692 14.92027093 11.17700195 18.45581055 C11.18685875 19.43205635 11.18685875 19.43205635 11.19691467 20.42802429 C11.21661548 22.58092371 11.22830509 24.73375335 11.23828125 26.88671875 C11.24235678 27.62419657 11.2464323 28.36167439 11.25063133 29.12150002 C11.27148175 33.02753035 11.28578598 36.93352569 11.29516602 40.83959961 C11.30620805 44.86001357 11.34058466 48.87987064 11.38033772 52.90008831 C11.40657821 56.00320919 11.41486455 59.1061991 11.41844749 62.20942116 C11.42329697 63.69049641 11.43486397 65.17156646 11.45348549 66.65253258 C11.54773216 74.6470344 11.56742643 81.15814267 7 88 C2.62283061 92.11188639 -1.80347652 92.29017981 -7.5625 92.21484375 C-12.05355211 91.81899781 -14.18258998 89.86411916 -17.1875 86.6875 C-20.45060781 81.84909876 -21.25049235 77.33769804 -21.2746582 71.57080078 C-21.28419022 70.31574738 -21.29372223 69.06069397 -21.30354309 67.76760864 C-21.30328161 66.41017631 -21.30234428 65.05274396 -21.30078125 63.6953125 C-21.30467368 62.28815587 -21.30900947 60.88100041 -21.31376648 59.47384644 C-21.32120891 56.53021429 -21.32095211 53.58670211 -21.31567383 50.64306641 C-21.30988566 46.88847542 -21.32680352 43.1343788 -21.3500185 39.37986946 C-21.36481958 36.47489598 -21.36561887 33.57003976 -21.36250877 30.66503525 C-21.36301892 29.2816762 -21.3681985 27.89831005 -21.37832069 26.51498795 C-21.48620928 9.70819386 -21.48620928 9.70819386 -16.54804993 4.45559692 C-11.09440902 -0.26170506 -6.99072385 -0.58076783 0 0 Z " fill="#FEFDF4" transform="translate(387,401)"/>
<path d="M0 0 C3.01125 -0.061875 6.0225 -0.12375 9.125 -0.1875 C10.06230957 -0.21481201 10.99961914 -0.24212402 11.96533203 -0.27026367 C17.83764971 -0.32842401 22.13350149 0.38542654 26.64453125 4.5 C31.53387053 10.77928523 31.69831627 16.23983754 31 24 C29.73862753 28.47607031 27.99744155 31.10987811 24.53125 34.203125 C19.63881092 36.69264046 15.51778051 36.43851793 10.125 36.25 C6.78375 36.1675 3.4425 36.085 0 36 C0 24.12 0 12.24 0 0 Z " fill="#FDFDF5" transform="translate(466,228)"/>
<path d="M0 0 C2.990625 -0.0825 5.98125 -0.165 9.0625 -0.25 C9.99070557 -0.28641602 10.91891113 -0.32283203 11.87524414 -0.36035156 C17.79745957 -0.43881665 21.14667175 0.57672675 26 4 C29.88963624 8.27859986 30.17781709 12.16418745 30.25 17.8125 C30.27578125 19.01519531 30.3015625 20.21789062 30.328125 21.45703125 C29.79266604 27.23871311 27.40899745 31.2799084 23 35 C20.11734851 35.96088383 18.32337729 36.11670941 15.33203125 36.09765625 C14.52741455 36.09515869 13.72279785 36.09266113 12.89379883 36.09008789 C11.36855591 36.07643188 11.36855591 36.07643188 9.8125 36.0625 C4.9553125 36.0315625 4.9553125 36.0315625 0 36 C0 24.12 0 12.24 0 0 Z " fill="#FDFDF5" transform="translate(758,228)"/>
<path d="M0 0 C2.30289048 2.30289048 2.52079371 3.43002619 3.23681641 6.55395508 C3.45689362 7.49866165 3.67697083 8.44336823 3.90371704 9.41670227 C4.24915054 10.95260262 4.24915054 10.95260262 4.6015625 12.51953125 C4.9635524 14.09561409 4.9635524 14.09561409 5.33285522 15.70353699 C5.84229999 17.9295631 6.34811037 20.1564236 6.85058594 22.3840332 C7.6199611 25.7901919 8.40282017 29.19304158 9.1875 32.59570312 C9.68049865 34.75762769 10.172712 36.91973151 10.6640625 39.08203125 C10.89839996 40.09989212 11.13273743 41.11775299 11.37417603 42.16645813 C11.58794891 43.12062119 11.8017218 44.07478424 12.02197266 45.05786133 C12.21135406 45.8934407 12.40073547 46.72902008 12.59585571 47.58992004 C13 50 13 50 13 55 C5.08 55 -2.84 55 -11 55 C-9.875 44.875 -9.875 44.875 -8.96850586 40.75561523 C-8.76837387 39.83534042 -8.56824188 38.91506561 -8.36204529 37.96690369 C-8.14846878 37.00716141 -7.93489227 36.04741913 -7.71484375 35.05859375 C-7.3840255 33.54616844 -7.3840255 33.54616844 -7.04652405 32.00318909 C-6.34783545 28.81365961 -5.64277595 25.62557861 -4.9375 22.4375 C-4.45986317 20.2624627 -3.98264544 18.08733333 -3.50585938 15.91210938 C-2.34208324 10.60699863 -1.17308687 5.30305924 0 0 Z " fill="#F9F9F1" transform="translate(673,242)"/>
<path d="M0 0 C1.91942333 2.879135 2.50060071 4.49580686 3.23681641 7.79101562 C3.45689362 8.7621228 3.67697083 9.73322998 3.90371704 10.73376465 C4.24915054 12.3041449 4.24915054 12.3041449 4.6015625 13.90625 C4.9635524 15.52061951 4.9635524 15.52061951 5.33285522 17.16760254 C5.84175836 19.4432618 6.34758996 21.7196098 6.85058594 23.99658203 C7.62227434 27.48766921 8.40408246 30.97637204 9.1875 34.46484375 C9.6802869 36.67434557 10.17249404 38.88397679 10.6640625 41.09375 C10.89839996 42.14067017 11.13273743 43.18759033 11.37417603 44.26623535 C11.58794891 45.23734253 11.8017218 46.20844971 12.02197266 47.20898438 C12.30604477 48.49113831 12.30604477 48.49113831 12.59585571 49.79919434 C13 52 13 52 13 55 C5.08 55 -2.84 55 -11 55 C-9.87496007 44.87464059 -9.87496007 44.87464059 -9.07617188 41.1862793 C-8.89928833 40.35899826 -8.72240479 39.53171722 -8.54016113 38.67936707 C-8.35159546 37.81966812 -8.16302979 36.95996918 -7.96875 36.07421875 C-7.67478333 34.70919975 -7.67478333 34.70919975 -7.37487793 33.31660461 C-6.75410349 30.43931263 -6.12707929 27.56342369 -5.5 24.6875 C-5.07903064 22.7390179 -4.65845415 20.79045088 -4.23828125 18.84179688 C-3.46909774 15.28294495 -2.69924104 11.72424839 -1.92382812 8.16674805 C-1.76918091 7.45665085 -1.61453369 6.74655365 -1.4552002 6.01493835 C-1.00035789 4.00158419 -0.5085692 2.00039442 0 0 Z " fill="#F9F9F1" transform="translate(381,242)"/>
<path d="M0 0 C0.86825912 0.00222061 1.73651825 0.00444122 2.63108826 0.00672913 C3.61202957 0.00680466 4.59297089 0.00688019 5.6036377 0.00695801 C6.6702916 0.01211929 7.7369455 0.01728058 8.83592224 0.02259827 C9.92211349 0.02401321 11.00830475 0.02542816 12.12741089 0.02688599 C15.61230674 0.03250403 19.09713941 0.04505959 22.58201599 0.05775452 C24.93813486 0.06276719 27.29425473 0.0673305 29.65037537 0.07142639 C35.44011063 0.08247933 41.2298088 0.09923501 47.01951599 0.12025452 C46.68951599 0.78025452 46.35951599 1.44025452 46.01951599 2.12025452 C30.50951599 1.79025452 14.99951599 1.46025452 -0.98048401 1.12025452 C-0.98048401 44.02025452 -0.98048401 86.92025452 -0.98048401 131.12025452 C5.94951599 131.12025452 12.87951599 131.12025452 20.01951599 131.12025452 C20.01951599 113.63025452 20.01951599 96.14025452 20.01951599 78.12025452 C20.34951599 78.12025452 20.67951599 78.12025452 21.01951599 78.12025452 C21.01951599 96.27025452 21.01951599 114.42025452 21.01951599 133.12025452 C13.42951599 133.12025452 5.83951599 133.12025452 -1.98048401 133.12025452 C-3.66544965 131.43528888 -3.10656397 129.34362126 -3.10746765 127.03346252 C-3.11028748 125.93127884 -3.1131073 124.82909515 -3.11601257 123.69351196 C-3.11297623 121.86384132 -3.11297623 121.86384132 -3.10987854 119.99720764 C-3.11163086 118.72095016 -3.11338318 117.44469269 -3.1151886 116.12976074 C-3.1197625 112.6195246 -3.11797355 109.10931772 -3.11480951 105.59908104 C-3.11228569 101.93332716 -3.11462351 98.26757587 -3.11619568 94.6018219 C-3.11801731 88.44471281 -3.11561124 82.2876157 -3.1108551 76.13050842 C-3.10541249 69.00219847 -3.10717515 61.87391711 -3.11268151 54.74560785 C-3.11721283 48.636066 -3.11786309 42.52653279 -3.11524284 36.4169898 C-3.11368017 32.76335017 -3.11348603 29.10972399 -3.11677933 25.45608521 C-3.12019216 21.38513991 -3.115468 17.31424427 -3.10987854 13.24330139 C-3.11190277 12.02352097 -3.113927 10.80374054 -3.11601257 9.54699707 C-3.11319275 8.44481339 -3.11037292 7.3426297 -3.10746765 6.20704651 C-3.10709063 5.24322807 -3.1067136 4.27940964 -3.10632515 3.28638458 C-2.94331409 0.48044087 -2.80576602 0.17036544 0 0 Z " fill="#050502" transform="translate(735.9804840087891,206.87974548339844)"/>
<path d="M0 0 C0.33 0 0.66 0 1 0 C1 35.31 1 70.62 1 107 C8.26 107 15.52 107 23 107 C22.97679687 104.23109375 22.95359375 101.4621875 22.9296875 98.609375 C22.91408646 95.92529763 22.90194429 93.24122533 22.89013672 90.55712891 C22.88008407 88.69284806 22.86643995 86.82858297 22.84912109 84.96435547 C22.82484047 82.28348909 22.81350953 79.60283134 22.8046875 76.921875 C22.79436493 76.08944275 22.78404236 75.2570105 22.77340698 74.39935303 C22.77325592 73.61884583 22.77310486 72.83833862 22.77294922 72.03417969 C22.768508 71.35023132 22.76406677 70.66628296 22.75949097 69.96160889 C23.04359358 67.64444764 23.86011036 66.0210519 25 64 C25.02527124 70.24795675 25.04283344 76.49590041 25.05493164 82.74389648 C25.05997298 84.87118014 25.06680591 86.99846031 25.07543945 89.12573242 C25.08751379 92.17627826 25.09323014 95.22677845 25.09765625 98.27734375 C25.10281754 99.23462875 25.10797882 100.19191376 25.11329651 101.1782074 C25.11340981 102.49946373 25.11340981 102.49946373 25.11352539 103.84741211 C25.115746 104.62684677 25.11796661 105.40628143 25.12025452 106.20933533 C25 108 25 108 24 109 C22.38916255 109.0991918 20.77404356 109.1307982 19.16015625 109.1328125 C18.17982422 109.13410156 17.19949219 109.13539063 16.18945312 109.13671875 C14.64161133 109.13091797 14.64161133 109.13091797 13.0625 109.125 C11.52045898 109.13080078 11.52045898 109.13080078 9.94726562 109.13671875 C8.96564453 109.13542969 7.98402344 109.13414062 6.97265625 109.1328125 C6.06781494 109.13168457 5.16297363 109.13055664 4.23071289 109.12939453 C2 109 2 109 0 108 C0 72.36 0 36.72 0 0 Z " fill="#3E3E36" transform="translate(460,403)"/>
<path d="M0 0 C3.06682489 1.94192773 5.47625069 4.40737644 8 7 C8.67160156 7.64839844 9.34320312 8.29679687 10.03515625 8.96484375 C13.24306294 12.08621731 16.26591668 15.29823099 19.18359375 18.69140625 C23.23849482 23.35203212 27.5968956 27.67077319 32 32 C45.10398345 44.88411795 45.10398345 44.88411795 48 49 C48 49.99 48 50.98 48 52 C46.47580995 50.50341097 44.95585169 49.00251195 43.4375 47.5 C42.59058594 46.6646875 41.74367188 45.829375 40.87109375 44.96875 C38.70202206 42.77601015 36.67284232 40.49304655 34.66015625 38.15625 C30.96864824 33.89716572 27.02200887 29.94495889 23 26 C18.30968505 21.39953782 13.81985699 16.72459297 9.52734375 11.74951172 C5.58683997 7.23582085 2.06735173 3.54225619 -3.8125 2 C-7.02305827 1.832004 -7.02305827 1.832004 -10 3 C-10 2.34 -10 1.68 -10 1 C-6.69156015 -0.65421993 -3.54882274 -0.75240058 0 0 Z " fill="#0C0D0A" transform="translate(1069,335)"/>
<path d="M0 0 C12.87 0 25.74 0 39 0 C39 0.33 39 0.66 39 1 C27.12 1 15.24 1 3 1 C3 5.95 3 10.9 3 16 C6.3 16 9.6 16 13 16 C13 16.33 13 16.66 13 17 C11.02145742 17.19397476 9.0421352 17.38001321 7.0625 17.5625 C5.96035156 17.66691406 4.85820313 17.77132813 3.72265625 17.87890625 C2.82417969 17.91886719 1.92570313 17.95882813 1 18 C0.67 17.67 0.34 17.34 0 17 C0 11.39 0 5.78 0 0 Z " fill="#2A2A22" transform="translate(575,270)"/>
<path d="M0 0 C2 3 2 3 3 12 C10.92 11.67 18.84 11.34 27 11 C26.67 11.99 26.34 12.98 26 14 C18.41 14 10.82 14 3 14 C-0.375 3.875 -0.375 3.875 0 0 Z " fill="#040502" transform="translate(401,326)"/>
<path d="M0 0 C0.99 0.495 0.99 0.495 2 1 C2.33 1.99 2.66 2.98 3 4 C9.93 4 16.86 4 24 4 C24.33 3.34 24.66 2.68 25 2 C25.33 3.65 25.66 5.3 26 7 C18.08 7 10.16 7 2 7 C1.34 4.69 0.68 2.38 0 0 Z " fill="#040502" transform="translate(788,333)"/>
<path d="M0 0 C0.33 0 0.66 0 1 0 C1.33 5.28 1.66 10.56 2 16 C7.94 16.33 13.88 16.66 20 17 C20 17.33 20 17.66 20 18 C16.85463232 18.19594676 13.70869386 18.3803401 10.5625 18.5625 C9.66466797 18.61857422 8.76683594 18.67464844 7.84179688 18.73242188 C6.98779297 18.78076172 6.13378906 18.82910156 5.25390625 18.87890625 C4.46314697 18.9260376 3.6723877 18.97316895 2.85766602 19.02172852 C1 19 1 19 0 18 C-0.08631874 16.65732587 -0.10706473 15.31025678 -0.09765625 13.96484375 C-0.09443359 13.15595703 -0.09121094 12.34707031 -0.08789062 11.51367188 C-0.07951172 10.66353516 -0.07113281 9.81339844 -0.0625 8.9375 C-0.05798828 8.08349609 -0.05347656 7.22949219 -0.04882812 6.34960938 C-0.03700373 4.23304337 -0.01906769 2.11651315 0 0 Z " fill="#32322B" transform="translate(464,247)"/>
<path d="M0 0 C2.42130331 2.42130331 2.52840504 3.80111377 3.125 7.125 C3.29257812 8.03507813 3.46015625 8.94515625 3.6328125 9.8828125 C3.81457031 10.93082031 3.81457031 10.93082031 4 12 C3.01 11.34 2.02 10.68 1 10 C0.01 10.33 -0.98 10.66 -2 11 C-1.34 7.37 -0.68 3.74 0 0 Z " fill="#EBEBE7" transform="translate(673,242)"/>
<path d="M0 0 C0.33 0 0.66 0 1 0 C1 4.95 1 9.9 1 15 C-2.04614224 11.95385776 -1.96652936 9.64709911 -2.1875 5.375 C-2 2 -2 2 0 0 Z " fill="#1E1F19" transform="translate(621,476)"/>
<path d="M0 0 C2.51445576 2.51445576 2.63167345 3.46406513 3 7 C2.78458357 10.34921257 2.42019377 13.67077245 2 17 C1.67 17 1.34 17 1 17 C0.67 11.39 0.34 5.78 0 0 Z " fill="#1F1F18" transform="translate(1302,655)"/>
<path d="M0 0 C0.99 0.33 1.98 0.66 3 1 C2.443125 1.226875 1.88625 1.45375 1.3125 1.6875 C-1.22472385 2.99203598 -1.22472385 2.99203598 -3.625 5.625 C-4.40875 6.40875 -5.1925 7.1925 -6 8 C-6.66 8 -7.32 8 -8 8 C-6.49860488 3.79609368 -3.82724957 2.10889262 0 0 Z " fill="#F3F4F0" transform="translate(377,401)"/>
<path d="M0 0 C0.33 0.66 0.66 1.32 1 2 C-1.87494471 5.98069267 -4.82117329 8.43571997 -9 11 C-7.2034488 6.75360625 -4.18376817 2.09188408 0 0 Z " fill="#E4E3E0" transform="translate(612,324)"/>
<path d="M0 0 C2.12508244 3.18762365 2.5020163 5.26512223 3 9 C1.35 9.33 -0.3 9.66 -2 10 C-1.34 6.7 -0.68 3.4 0 0 Z " fill="#F0EFEB" transform="translate(381,242)"/>
<path d="M0 0 C1.2380014 3.57644848 0.74926071 6.33694766 0 10 C-0.66 10 -1.32 10 -2 10 C-2.33 7.36 -2.66 4.72 -3 2 C-2.01 1.34 -1.02 0.68 0 0 Z " fill="#F1F1EE" transform="translate(290,465)"/>
<path d="M0 0 C2 0.3125 2 0.3125 4 1 C4.33 1.66 4.66 2.32 5 3 C-0.61 3 -6.22 3 -12 3 C-12 2.67 -12 2.34 -12 2 C-11.21753906 1.93941406 -10.43507813 1.87882812 -9.62890625 1.81640625 C-8.61699219 1.73261719 -7.60507812 1.64882813 -6.5625 1.5625 C-5.55316406 1.48128906 -4.54382813 1.40007812 -3.50390625 1.31640625 C-1.06359221 1.26788532 -1.06359221 1.26788532 0 0 Z " fill="#1E1F1A" transform="translate(580,339)"/>
<path d="M0 0 C0.33 0 0.66 0 1 0 C0.48594831 4.96916636 -0.23384882 9.29026351 -2 14 C-2.66 13.67 -3.32 13.34 -4 13 C-3.25 6.25 -3.25 6.25 -1 4 C-0.3574765 1.93125966 -0.3574765 1.93125966 0 0 Z " fill="#1E1F18" transform="translate(297,443)"/>
<path d="M0 0 C0.99 0 1.98 0 3 0 C2.67 0.99 2.34 1.98 2 3 C1.64456573 5.33006911 1.3086247 7.66327016 1 10 C-1.56687367 6.1496895 -0.83288724 4.41430237 0 0 Z " fill="#1E1F19" transform="translate(809,552)"/>
<path d="M0 0 C2.64 0 5.28 0 8 0 C8 0.66 8 1.32 8 2 C9.65 2 11.3 2 13 2 C13 2.33 13 2.66 13 3 C8.07872966 3.16682272 4.49656104 3.24828052 0 1 C0 0.67 0 0.34 0 0 Z " fill="#0D0D09" transform="translate(640,510)"/>
<path d="M0 0 C3.48749314 2.78999451 6.50157221 5.25235831 9 9 C8.67 9.66 8.34 10.32 8 11 C6.66072279 9.54712339 5.32873153 8.08752741 4 6.625 C3.2575 5.81289062 2.515 5.00078125 1.75 4.1640625 C0 2 0 2 0 0 Z " fill="#0D0E0A" transform="translate(999,197)"/>
<path d="M0 0 C3.00617269 3.00617269 2.59585316 5.82381598 3 10 C2.01 10 1.02 10 0 10 C0 6.7 0 3.4 0 0 Z " fill="#1F1F1A" transform="translate(270,388)"/>
<path d="M0 0 C0 0.99 0 1.98 0 3 C-2.375 4.75 -2.375 4.75 -5 6 C-5.66 5.67 -6.32 5.34 -7 5 C-2.25 1.125 -2.25 1.125 0 0 Z " fill="#202119" transform="translate(1042,355)"/>
<path d="M0 0 C-1.65 0.66 -3.3 1.32 -5 2 C-5 1.34 -5 0.68 -5 0 C-7.97 0 -10.94 0 -14 0 C-14 -0.33 -14 -0.66 -14 -1 C-12.41870971 -1.22331199 -10.83478911 -1.42804644 -9.25 -1.625 C-8.36828125 -1.74101562 -7.4865625 -1.85703125 -6.578125 -1.9765625 C-3.77140122 -2.00207817 -2.36615134 -1.44843844 0 0 Z " fill="#3C3D35" transform="translate(587,321)"/>
<path d="M0 0 C1.85776765 3.13498292 2.20140476 5.37471432 2 9 C1.01 8.67 0.02 8.34 -1 8 C-1.125 2.25 -1.125 2.25 0 0 Z " fill="#1D1E18" transform="translate(693,404)"/>
<path d="M0 0 C0.99 0.495 0.99 0.495 2 1 C2.33 1.99 2.66 2.98 3 4 C5.31 4.33 7.62 4.66 10 5 C10 5.33 10 5.66 10 6 C7.36 6.33 4.72 6.66 2 7 C1.34 4.69 0.68 2.38 0 0 Z " fill="#0A0B07" transform="translate(788,333)"/>
<path d="M0 0 C2 1 2 1 2 1 Z M-2 1 C-1.34 1.33 -0.68 1.66 0 2 C-1.375 4.5 -1.375 4.5 -3 7 C-3.66 7 -4.32 7 -5 7 C-5.33 5.68 -5.66 4.36 -6 3 C-4.125 1.9375 -4.125 1.9375 -2 1 Z " fill="#EEEDE9" transform="translate(799,278)"/>
<path d="M0 0 C1.10740461 3.32221382 0.97233311 5.64103108 0 9 C-0.66 9.66 -1.32 10.32 -2 11 C-1.85892253 9.54119891 -1.71197585 8.08296449 -1.5625 6.625 C-1.48128906 5.81289062 -1.40007812 5.00078125 -1.31640625 4.1640625 C-1 2 -1 2 0 0 Z " fill="#10110D" transform="translate(361,233)"/>
</svg>
