<?xml version="1.0" encoding="UTF-8"?>
<svg version="1.1" xmlns="http://www.w3.org/2000/svg" width="1024" height="1024">
<path d="M0 0 C337.92 0 675.84 0 1024 0 C1024 337.92 1024 675.84 1024 1024 C686.08 1024 348.16 1024 0 1024 C0 686.08 0 348.16 0 0 Z " fill="#FEFBF2" transform="translate(0,0)"/>
<path d="M0 0 C0.86369369 -0.00581376 1.72738738 -0.01162753 2.6172536 -0.01761746 C5.50149404 -0.03217564 8.38487789 -0.01835175 11.26911163 -0.00457001 C13.3617431 -0.00918056 15.45437132 -0.01553452 17.54699278 -0.02347898 C23.28996933 -0.04017401 29.03267992 -0.03192498 34.77565742 -0.01953411 C40.9720666 -0.01048675 47.16842993 -0.02445182 53.36483002 -0.0354538 C64.7993676 -0.05221869 76.23378668 -0.05075725 87.66832365 -0.03980792 C98.23203431 -0.02974224 108.79571393 -0.02712051 119.35942841 -0.0318985 C120.41085796 -0.03235681 120.41085796 -0.03235681 121.48352852 -0.03282438 C124.32898783 -0.03406975 127.17444711 -0.03534335 130.01990638 -0.03666343 C156.70775269 -0.04889704 183.39554504 -0.03780939 210.08338302 -0.01627585 C233.78940511 0.00270632 257.49534126 0.0010078 281.20136261 -0.01811981 C307.8406654 -0.03954239 334.47992054 -0.04802941 361.11923075 -0.03567076 C363.95947932 -0.0343879 366.79972791 -0.03313654 369.6399765 -0.0318985 C370.68897448 -0.03142403 370.68897448 -0.03142403 371.75916433 -0.03093999 C382.31575144 -0.02639176 392.87230408 -0.03170808 403.42888641 -0.04181671 C415.43326442 -0.05325445 427.43751879 -0.05000803 439.44189298 -0.02869374 C445.5675351 -0.01817611 451.69300272 -0.01407386 457.81864357 -0.02729034 C463.4256591 -0.03920497 469.03233829 -0.0326666 474.63932329 -0.01138014 C476.66813435 -0.00691019 478.69697378 -0.0091891 480.7257666 -0.01888329 C483.48404966 -0.03105267 486.24118174 -0.01856637 488.99940491 0 C490.18018599 -0.014047 490.18018599 -0.014047 491.38482124 -0.02837777 C499.13604275 0.07585917 506.47293675 2.97659886 511.99970245 8.50336456 C516.33948257 14.47056222 518.12001665 18.90800646 518.13671684 26.32438087 C518.14179139 27.52098276 518.14686593 28.71758465 518.15209424 29.9504472 C518.15284088 31.92463126 518.15284088 31.92463126 518.1536026 33.93869781 C518.15761828 35.34983086 518.16205668 36.76096276 518.16688216 38.17209327 C518.17884167 42.05448874 518.18449466 45.93687178 518.18906331 49.81928205 C518.19502172 54.0048628 518.20663094 58.19042871 518.21735382 62.37599945 C518.24187173 72.4864383 518.25650377 82.59688206 518.26941389 92.70734149 C518.27312617 95.56307003 518.27709936 98.41879807 518.28116655 101.27452612 C518.30640262 119.00924858 518.32845512 136.74397182 518.3408947 154.47870827 C518.34382438 158.58621092 518.34678605 162.69371354 518.34980011 166.80121613 C518.35054616 167.82211188 518.35129221 168.84300764 518.35206087 169.89483963 C518.36471433 186.43249021 518.39793776 202.97003327 518.43960194 219.50763358 C518.48202931 236.48737556 518.50559063 253.46706249 518.51081526 270.44685733 C518.51422838 279.98001947 518.525972 289.51301356 518.558918 299.0461235 C518.58693062 307.16501564 518.59791249 315.28370526 518.58672254 323.40264197 C518.58153906 327.54371539 518.58440217 331.6843648 518.60918808 335.82537651 C518.63171415 339.62057902 518.63091537 343.41505377 518.61198421 347.21026932 C518.6078702 349.22482188 518.62830503 351.23937909 518.64977109 353.25382149 C518.57448657 361.88644013 517.155099 368.78623905 511.32409614 375.40548033 C502.2970852 384.20882501 489.91057726 382.91659543 478.26117706 382.84394073 C476.35839603 382.84309367 474.45561402 382.84357116 472.55283356 382.84526825 C467.40674973 382.84612652 462.26087707 382.82852802 457.11484218 382.80754638 C451.72967658 382.78875147 446.34450577 382.78702692 440.95931244 382.78347015 C430.77039185 382.77415796 420.5815682 382.74955532 410.39269024 382.71942168 C398.78933023 382.68585199 387.18596551 382.6693852 375.582569 382.65433538 C351.72154742 382.62300505 327.86065866 382.56800325 303.99970245 382.50336456 C303.99970245 395.37336456 303.99970245 408.24336456 303.99970245 421.50336456 C308.55138214 421.45115753 308.55138214 421.45115753 313.19501495 421.39789581 C316.14389862 421.37447903 319.0927718 421.35627451 322.04169464 421.33856964 C324.08633839 421.32351169 326.13095 421.303061 328.1754837 421.2770462 C331.11957497 421.24053145 334.06323803 421.22360806 337.00751495 421.21039581 C337.91711975 421.19491196 338.82672455 421.1794281 339.76389313 421.16347504 C344.94099283 421.16211167 348.52951855 421.59094578 352.99970245 424.50336456 C358.01486683 430.06070888 358.45426869 433.83816201 358.42157745 441.21820831 C357.88192602 445.42049401 356.54782153 447.39610504 353.6051712 450.33148956 C349.72495739 453.16376242 345.34893255 452.6487769 340.77610016 452.64380646 C339.92768582 452.64677758 339.07927149 452.6497487 338.20514762 452.65280986 C335.35166252 452.66150729 332.49821931 452.66300598 329.64472198 452.66449738 C327.60315613 452.66912476 325.56159114 452.67414931 323.52002716 452.67954254 C317.96632753 452.69267507 312.41263999 452.69911301 306.85892725 452.7035532 C303.39125181 452.70648218 299.92357969 452.71058663 296.45590591 452.71505737 C285.61220029 452.72873374 274.76850224 452.73840006 263.92478859 452.74225926 C251.39614879 452.74674233 238.86761797 452.7643012 226.33901131 452.79325986 C216.66166812 452.81485383 206.98435564 452.8249623 197.3069886 452.82630038 C191.52375279 452.82734993 185.7406194 452.83328969 179.95740891 452.85112 C174.51883829 452.86756146 169.08044752 452.86977528 163.64186096 452.86098099 C161.64438267 452.86020854 159.64689487 452.86458054 157.64944077 452.87443924 C154.9251686 452.88709807 152.20153926 452.88131506 149.47727203 452.87085724 C148.68456535 452.87891364 147.89185868 452.88697005 147.07513058 452.89527059 C142.52875364 452.85437813 139.62566886 452.29674663 135.99970245 449.50336456 C132.02480905 444.96062924 131.70844047 440.84052894 131.7848587 435.00727081 C132.19879018 430.18308758 134.00853994 427.42018988 137.49970245 424.19086456 C140.88278599 421.90728318 143.39368251 421.37841895 147.37934113 421.38983917 C148.26002762 421.3899147 149.14071411 421.38999023 150.04808807 421.39006805 C150.99505051 421.39522934 151.94201294 421.40039062 152.9176712 421.40570831 C153.89005234 421.40712326 154.86243347 421.40853821 155.8642807 421.40999603 C158.97195249 421.4155964 162.07955241 421.42814894 165.18720245 421.44086456 C167.29332121 421.44587952 169.39944109 421.45044243 171.50556183 421.45453644 C176.67032538 421.46471532 181.8349334 421.48429073 186.99970245 421.50336456 C186.99970245 408.63336456 186.99970245 395.76336456 186.99970245 382.50336456 C164.55970245 382.50336456 142.11970245 382.50336456 118.99970245 382.50336456 C118.99970245 375.90336456 118.99970245 369.30336456 118.99970245 362.50336456 C120.92351116 362.501898 122.84731987 362.50043144 124.82942581 362.49892044 C170.46352787 362.46324344 216.0975661 362.40703848 261.73161022 362.32544361 C267.34441154 362.31542576 272.95721314 362.3055817 278.57001495 362.29584503 C280.24617598 362.29293297 280.24617598 362.29293297 281.95619884 362.28996208 C300.06623421 362.25891356 318.17625689 362.24195348 336.28631386 362.23017034 C354.85925327 362.21777355 373.43212595 362.1903055 392.00502324 362.1487515 C403.47195351 362.12357389 414.93877317 362.11025039 426.40573147 362.11193499 C434.26160624 362.11196467 442.11736808 362.09739808 449.97319886 362.07120028 C454.51036198 362.05650548 459.04729349 362.04839295 463.58447647 362.05756187 C467.73474629 362.06580733 471.88454934 362.05580923 476.03474966 362.03102794 C477.53951119 362.02531199 479.0443165 362.02640935 480.5490652 362.03485212 C482.58823674 362.0453169 484.62749391 362.02898209 486.66661453 362.01117325 C487.80121888 362.00965437 488.93582323 362.00813549 490.10480952 362.00657058 C493.7231743 361.37760676 494.89574643 360.49217151 496.99970245 357.50336456 C497.59624202 354.82051919 497.59624202 354.82051919 497.50306702 351.81896877 C497.51349801 350.65288395 497.523929 349.48679912 497.53467607 348.2853784 C497.52575319 347.00339034 497.5168303 345.72140228 497.50763702 344.4005661 C497.51224482 343.02568671 497.51859693 341.65081224 497.526546 340.27594811 C497.54327925 336.49391965 497.53497512 332.71229374 497.52260113 328.93026364 C497.51356926 324.85318246 497.52751101 320.77617162 497.53852081 316.69910431 C497.55633014 308.71086331 497.55245548 300.72277243 497.54087025 292.73452549 C497.5318463 286.24435873 497.53060741 279.75423412 497.53496552 273.26406288 C497.53588491 271.87988213 497.53588491 271.87988213 497.53682289 270.46773814 C497.53810175 268.59328046 497.5393986 266.71882279 497.54071325 264.84436513 C497.55212595 247.25784091 497.5389942 229.67140003 497.51751179 212.08488948 C497.49963721 196.98418645 497.50274653 181.88360639 497.52118683 166.78290558 C497.54257626 149.2588907 497.55103038 131.73494888 497.53873777 114.21092278 C497.53746354 112.34356536 497.53620605 110.47620792 497.53496552 108.60885048 C497.53434841 107.69000385 497.53373131 106.77115722 497.53309551 105.82446675 C497.52963704 99.3391387 497.53548157 92.85385688 497.54488373 86.368536 C497.55608358 78.46939002 497.55310614 70.5704031 497.53176075 62.67127543 C497.5212235 58.63848125 497.51717371 54.60595259 497.53035736 50.57316017 C497.54223209 46.88508336 497.53580116 43.19751947 497.51444715 39.50948954 C497.50782603 37.53552839 497.52096104 35.56153193 497.53467607 33.58760732 C497.52424509 32.42413025 497.5138141 31.26065317 497.50306702 30.06191921 C497.50241761 29.0536517 497.5017682 28.0453842 497.50109911 27.00656313 C497.19409753 24.44295567 497.19409753 24.44295567 495.48342037 22.67972469 C491.94503412 21.00384335 488.5922259 21.0901585 484.7568512 21.12304783 C483.91431248 21.11838791 483.07177377 21.11372799 482.20370358 21.10892686 C479.36149943 21.09691219 476.51976761 21.10639714 473.6775589 21.11568451 C471.62692869 21.11151443 469.57630079 21.10603872 467.5256772 21.0993647 C461.87580924 21.08484873 456.22608638 21.08917395 450.57621026 21.09653151 C444.48888018 21.10124568 438.40158229 21.08876894 432.31426239 21.0785141 C421.07350314 21.06228327 409.83278909 21.05988784 398.59202431 21.06481909 C388.20850698 21.06937216 377.82500695 21.06878222 367.44149017 21.06297874 C366.04991675 21.06222189 364.65834334 21.06146591 363.26676992 21.0607108 C361.16993075 21.05956564 359.07309158 21.05841576 356.97625242 21.05725156 C337.4762222 21.04654307 317.97619776 21.04182495 298.47616577 21.04972172 C297.74074916 21.05001889 297.00533255 21.05031606 296.24763058 21.05062224 C290.27510461 21.05307131 284.3025787 21.05568283 278.3300528 21.05830638 C255.0276886 21.06841094 231.72539645 21.06005087 208.4230423 21.03681183 C182.25626949 21.01075852 156.08954007 20.99788602 129.92275381 21.00499958 C127.13447413 21.00571567 124.34619443 21.00639005 121.55791473 21.00704002 C120.52805959 21.00729474 120.52805959 21.00729474 119.47739929 21.0075546 C109.09916156 21.00986062 98.72096401 21.00186624 88.34273529 20.98874855 C76.54488834 20.97386332 64.74711961 20.97333505 52.94926894 20.99081946 C46.92553978 20.99936687 40.90199112 21.00138816 34.8782711 20.98616791 C29.3700103 20.97242191 23.86208634 20.97695292 18.35384554 20.99640714 C16.35525407 21.00019865 14.35663626 20.99715567 12.35806805 20.98679549 C9.65248361 20.97376152 6.94808545 20.98508641 4.24255371 21.00279331 C3.45684547 20.9931428 2.67113723 20.98349229 1.86161965 20.97354934 C-1.56385286 21.01994927 -3.63771751 21.25176206 -6.48373771 23.22667998 C-8.25366132 25.88371842 -8.50251269 27.25934974 -8.50810623 30.43088913 C-8.52527762 31.92676194 -8.52527762 31.92676194 -8.5427959 33.45285439 C-8.53115527 35.09292132 -8.53115527 35.09292132 -8.51927948 36.76612091 C-8.52678073 37.92926748 -8.53428198 39.09241405 -8.54201055 40.29080749 C-8.55881627 43.52000321 -8.55770959 46.74862615 -8.54910302 49.97783613 C-8.54416525 53.4597849 -8.56223423 56.94162251 -8.57752228 60.42353058 C-8.60085559 66.45635507 -8.60958189 72.4890593 -8.6084137 78.52192688 C-8.60674576 87.24443218 -8.62706588 95.96677696 -8.652769 104.68923947 C-8.69387165 118.84048949 -8.7171684 132.99171068 -8.72930145 147.143013 C-8.74112629 160.89043704 -8.76131594 174.63780677 -8.79277802 188.3852005 C-8.79471412 189.23245635 -8.79665022 190.0797122 -8.79864499 190.95264247 C-8.80840943 195.2030365 -8.81833856 199.45343012 -8.82834959 203.70382357 C-8.91120024 238.97031321 -8.96487185 274.23679683 -9.00029755 309.50336456 C-15.60029755 309.50336456 -22.20029755 309.50336456 -29.00029755 309.50336456 C-29.09156955 272.96708508 -29.1623474 236.43082877 -29.20455886 199.89445869 C-29.20956162 195.57993038 -29.21473892 191.2654023 -29.22002411 186.95087433 C-29.22107335 186.09193807 -29.22212259 185.23300181 -29.22320363 184.34803718 C-29.24060364 170.44458369 -29.2721391 156.54119643 -29.30890873 142.63778222 C-29.34632939 128.36907632 -29.36853578 114.10040507 -29.37665153 99.8316521 C-29.38213697 91.02872839 -29.39945536 82.22599188 -29.43196341 73.4231258 C-29.4531252 67.38472214 -29.45949383 61.34641512 -29.45430306 55.30797709 C-29.45174384 51.82530049 -29.45563636 48.3429508 -29.47711945 44.86033249 C-29.49703169 41.07971092 -29.49223097 37.29988919 -29.48131561 33.51924896 C-29.49296698 32.42487143 -29.50461834 31.33049389 -29.51662278 30.2029534 C-29.4506681 21.74650551 -27.44511608 14.68541458 -21.81279755 8.19086456 C-21.30361786 7.57598175 -20.79443817 6.96109894 -20.2698288 6.32758331 C-14.16583576 1.42127566 -7.67330539 -0.0912844 0 0 Z " fill="#1A1C16" transform="translate(442.0002975463867,129.49663543701172)"/>
<path d="M0 0 C85.47 0 170.94 0 259 0 C259 4.95 259 9.9 259 15 C253.375 20.625 253.375 20.625 249.1875 20.8125 C248.00220703 20.88404297 248.00220703 20.88404297 246.79296875 20.95703125 C246.20128906 20.97121094 245.60960937 20.98539062 245 21 C244.99413376 22.16875671 244.98826752 23.33751343 244.98222351 24.54168701 C244.92504691 35.54825345 244.85231181 46.55462134 244.76428509 57.56098557 C244.71952962 63.21967906 244.68028485 68.8782997 244.65356445 74.53710938 C244.62758323 79.9966845 244.58721746 85.45598001 244.53681374 90.91538239 C244.52010995 92.99977393 244.5086176 95.08421387 244.50238609 97.16866302 C244.49278325 100.08507199 244.46476958 103.00075988 244.43237305 105.91699219 C244.43380814 106.78158051 244.43524323 107.64616882 244.4367218 108.53695679 C244.38155354 112.04127152 244.33167142 114.37970527 242.66047668 117.50518799 C238.90176325 120.88889704 234.13694016 120.14249794 229.39002991 120.13371277 C228.50007448 120.13597833 227.61011906 120.13824388 226.69319528 120.14057809 C223.69917769 120.14692846 220.70520524 120.14608806 217.71118164 120.14526367 C215.56947267 120.1482545 213.42776424 120.15165684 211.28605652 120.15544128 C205.45970225 120.16429278 199.63336265 120.16661987 193.80700231 120.16725707 C188.94841049 120.16820522 184.08982212 120.17188239 179.23123163 120.17542917 C167.77207258 120.18357791 156.31292138 120.186013 144.85375977 120.18530273 C133.01983808 120.18470166 121.18596195 120.19525849 109.35205179 120.2110464 C99.20254141 120.22410625 89.05304593 120.22948729 78.9035272 120.22884732 C72.83698041 120.2285919 66.77047407 120.23146752 60.70393562 120.24202538 C55.00028662 120.25168035 49.296717 120.25180345 43.59306526 120.24450874 C41.49680465 120.24345969 39.40053917 120.24584467 37.30428696 120.2518692 C34.44841479 120.25954683 31.59281962 120.25497246 28.73695374 120.24723816 C27.90242473 120.25238172 27.06789573 120.25752529 26.20807797 120.26282471 C18.98997823 120.21946114 18.98997823 120.21946114 16 118 C13.34355508 114.01533261 13.73506409 110.56221918 13.77294922 105.9387207 C13.77265717 105.01169342 13.77236511 104.08466614 13.77206421 103.12954712 C13.77345896 100.06153037 13.78902707 96.99375565 13.8046875 93.92578125 C13.80841711 91.80014682 13.81126433 89.67451067 13.81326294 87.5488739 C13.82090346 81.95107283 13.8405556 76.35337535 13.8626709 70.75561523 C13.88312027 65.04477337 13.89226271 59.33391479 13.90234375 53.62304688 C13.92380105 42.41531904 13.9579421 31.20766813 14 20 C13.40832031 20.05800781 12.81664062 20.11601562 12.20703125 20.17578125 C11.41683594 20.22089844 10.62664063 20.26601563 9.8125 20.3125 C9.03519531 20.37050781 8.25789062 20.42851562 7.45703125 20.48828125 C5 20 5 20 0 15 C0 10.05 0 5.1 0 0 Z " fill="#1B1D17" transform="translate(542,342)"/>
<path d="M0 0 C1.11785889 0.39711182 1.11785889 0.39711182 2.25830078 0.80224609 C3.14227539 1.10549805 4.02625 1.40875 4.93701172 1.72119141 C5.93249023 2.08567383 6.92796875 2.45015625 7.95361328 2.82568359 C9.05995117 3.21336914 10.16628906 3.60105469 11.30615234 4.00048828 C14.52792405 5.13409056 17.74352916 6.2829492 20.9574585 7.43847656 C31.56544877 11.25030813 42.19571899 14.94681023 52.93798828 18.36474609 C53.84809662 18.6552182 54.75820496 18.94569031 55.69589233 19.2449646 C60.15963262 20.66709795 64.62754741 22.07364933 69.10253906 23.45996094 C70.73792069 23.97729826 72.37318078 24.49501998 74.00830078 25.01318359 C74.75472839 25.23881989 75.50115601 25.46445618 76.27020264 25.69692993 C80.37921663 27.01316108 83.58467487 28.10730924 85.95361328 31.82568359 C85.85331838 37.60472955 83.71571798 42.99584379 81.82861328 48.40771484 C81.52165527 49.30310471 81.21469727 50.19849457 80.8984375 51.12101746 C79.92265754 53.96211777 78.9380962 56.80008889 77.95361328 59.63818359 C77.29161294 61.5644297 76.63014902 63.49086024 75.96923828 65.41748047 C75.33950523 67.24772219 74.70931307 69.07780603 74.07861328 70.90771484 C73.78067871 71.77225784 73.48274414 72.63680084 73.17578125 73.52754211 C72.89879395 74.32564804 72.62180664 75.12375397 72.33642578 75.94604492 C71.97121826 77.00025383 71.97121826 77.00025383 71.59863281 78.07575989 C70.95361328 79.82568359 70.95361328 79.82568359 69.95361328 81.82568359 C70.55638596 81.81458054 71.15915863 81.80347748 71.78019714 81.79203796 C78.05798514 81.68135803 84.33549571 81.60598056 90.61401367 81.55102539 C92.95657612 81.52589234 95.29906024 81.49178051 97.64135742 81.44848633 C101.00996227 81.38778431 104.37752977 81.35946108 107.74658203 81.33740234 C109.31559517 81.2986927 109.31559517 81.2986927 110.91630554 81.25920105 C118.11900715 81.25642721 118.11900715 81.25642721 121.86547852 83.81176758 C124.47535776 87.57874516 126.57016746 91.41897785 128.57080078 95.53662109 C128.99104523 96.38181305 129.41128967 97.227005 129.8442688 98.09780884 C131.1818463 100.79420507 132.50519473 103.49731491 133.82861328 106.20068359 C134.70923934 107.97846568 135.59074229 109.75581369 136.47314453 111.53271484 C138.19391205 115.00309405 139.89499359 118.48211064 141.58154297 121.96923828 C143.05324255 125.00932061 144.56737726 128.01660075 146.14599609 131.00244141 C146.79282343 132.26903406 147.43963448 133.53563503 148.08642578 134.80224609 C148.64475098 135.85750488 149.20307617 136.91276367 149.77832031 138 C150.95361328 141.82568359 150.95361328 141.82568359 150.95361328 154.82568359 C65.48361328 154.82568359 -19.98638672 154.82568359 -108.04638672 154.82568359 C-108.04638672 140.20542678 -108.04638672 140.20542678 -105.15185547 134.80224609 C-104.84849274 134.21655853 -104.54513 133.63087097 -104.23257446 133.0274353 C-103.25659453 131.15492682 -102.24608221 129.30381921 -101.23388672 127.45068359 C-100.5450269 126.14361729 -99.85910764 124.83499731 -99.17602539 123.52490234 C-98.14039221 121.53974429 -97.10296231 119.55581241 -96.05531311 117.57696533 C-92.31225651 110.5010789 -88.92271534 103.26570409 -85.54907227 96.0078125 C-79.74312422 83.67405234 -79.74312422 83.67405234 -76.04638672 81.82568359 C-74.65729368 81.73649582 -73.26401765 81.70808818 -71.87207031 81.7121582 C-70.5809584 81.7122715 -70.5809584 81.7122715 -69.26376343 81.71238708 C-68.33351349 81.71754837 -67.40326355 81.72270966 -66.44482422 81.72802734 C-65.49322418 81.72944229 -64.54162415 81.73085724 -63.56118774 81.73231506 C-60.51455575 81.73792347 -57.46799659 81.7504774 -54.42138672 81.76318359 C-52.35888778 81.76819751 -50.29638769 81.77276061 -48.23388672 81.77685547 C-43.17135855 81.78789564 -38.10888499 81.80516592 -33.04638672 81.82568359 C-32.86761993 81.21366089 -32.68885315 80.60163818 -32.50466919 79.97106934 C-30.75197331 74.04043808 -28.84283079 68.18926429 -26.78857422 62.35693359 C-26.33169472 61.05042847 -26.33169472 61.05042847 -25.86558533 59.7175293 C-24.88656861 56.91940556 -23.90436127 54.12241922 -22.92138672 51.32568359 C-21.56765212 47.47182173 -20.2146926 43.61768955 -18.86279297 39.76318359 C-18.3657914 38.3468866 -18.3657914 38.3468866 -17.85874939 36.90197754 C-15.92923993 31.39027809 -14.03960636 25.86757201 -12.19873047 20.32568359 C-11.79477051 19.11976563 -11.39081055 17.91384766 -10.97460938 16.67138672 C-10.25110607 14.50182671 -9.53788971 12.32879846 -8.83691406 10.15185547 C-8.52061035 9.20890625 -8.20430664 8.26595703 -7.87841797 7.29443359 C-7.61778564 6.49457031 -7.35715332 5.69470703 -7.08862305 4.87060547 C-5.49606476 1.74592329 -3.67233973 -0.3128192 0 0 Z " fill="#1B1D16" transform="translate(650.04638671875,178.17431640625)"/>
<path d="M0 0 C3.88197396 0.68674623 7.49563325 1.75948887 11.22729492 3.02539062 C12.4617485 3.44252319 13.69620209 3.85965576 14.96806335 4.28942871 C16.30556901 4.74492662 17.64303658 5.20053637 18.98046875 5.65625 C20.35850859 6.12348057 21.73662768 6.59047743 23.11482239 7.05725098 C25.99606785 8.03380688 28.87659897 9.01243198 31.7565918 9.99267578 C35.45113581 11.25009561 39.14702854 12.50349272 42.84340954 13.75550079 C45.68589635 14.71855396 48.5278634 15.68313284 51.3696537 16.64823914 C52.73272636 17.11107411 54.09591445 17.57356927 55.45921898 18.03572083 C57.3602733 18.68055142 59.26059924 19.32752816 61.16088867 19.97460938 C62.24278976 20.3424353 63.32469086 20.71026123 64.43937683 21.0892334 C67 22 67 22 69 23 C66.73016618 31.88507412 63.88400754 40.54756716 60.9296875 49.22265625 C60.44288277 50.65937724 59.95632516 52.09618199 59.47000122 53.5330658 C58.45840165 56.51971613 57.44466743 59.50562964 56.42919922 62.4909668 C55.12687319 66.31981763 53.82874488 70.15007522 52.53202629 73.98082829 C51.53124524 76.93654129 50.52892554 79.89173051 49.52606583 82.84673882 C49.04649184 84.26005366 48.56724952 85.67348109 48.08834457 87.08702278 C47.42218547 89.05209035 46.75411134 91.01649585 46.08544922 92.98071289 C45.5161116 94.6563607 45.5161116 94.6563607 44.93527222 96.36585999 C44 99 44 99 43 101 C17.26 101 -8.48 101 -35 101 C-32.75015846 90.87571308 -32.75015846 90.87571308 -31.43457031 87.20678711 C-31.13906784 86.37418869 -30.84356537 85.54159027 -30.53910828 84.6837616 C-30.2219838 83.80714371 -29.90485931 82.93052582 -29.578125 82.02734375 C-29.24122147 81.082043 -28.90431793 80.13674225 -28.5572052 79.16279602 C-27.45961676 76.08595332 -26.35482885 73.01174936 -25.25 69.9375 C-24.09980537 66.71953316 -22.9514743 63.50090563 -21.80335999 60.28219604 C-21.02329004 58.09540463 -20.24263674 55.90882123 -19.46141052 53.72244263 C-16.88956366 46.51885825 -14.34771326 39.30541356 -11.83203125 32.08203125 C-11.50917145 31.15539169 -11.18631165 30.22875214 -10.85366821 29.27403259 C-9.62177366 25.73607351 -8.39087597 22.19777999 -7.16442871 18.65792847 C-6.33190158 16.25554544 -5.49626608 13.85426298 -4.66015625 11.453125 C-4.41820023 10.75117508 -4.1762442 10.04922516 -3.92695618 9.32600403 C-2.80222857 6.10270083 -1.63197798 3.00303065 0 0 Z " fill="#FDFBF2" transform="translate(653,193)"/>
<path d="M0 0 C4.50908303 2.75063888 7.42740593 7.31851558 8.92181396 12.33589172 C9.40719517 14.65374223 9.51589986 16.75834245 9.53613281 19.12573242 C9.54574036 20.03735641 9.5553479 20.94898041 9.56524658 21.88822937 C9.56949646 22.86741837 9.57374634 23.84660736 9.578125 24.85546875 C9.58382507 25.87167801 9.58952515 26.88788727 9.59539795 27.93489075 C9.60483964 30.08589642 9.61137863 32.23691651 9.61523438 34.38793945 C9.62491262 37.65797624 9.65593308 40.927377 9.6875 44.19726562 C9.69403331 46.29166295 9.69928249 48.38606476 9.703125 50.48046875 C9.7154718 51.44953659 9.7278186 52.41860443 9.74053955 53.41703796 C9.71840556 60.25677456 9.02072272 67.0214832 4.76171875 72.62109375 C-2.61156283 78.33326821 -9.35463996 79.46392704 -18.625 78.5 C-24.34107256 76.9333727 -28.47302774 74.66923451 -31.625 69.5 C-33.24561896 65.99023428 -33.87924654 63.23540012 -33.8996582 59.37768555 C-33.90919022 58.38282639 -33.91872223 57.38796722 -33.92854309 56.36296082 C-33.92763168 55.29830093 -33.92672028 54.23364105 -33.92578125 53.13671875 C-33.93006638 52.03076859 -33.9343515 50.92481842 -33.93876648 49.78535461 C-33.9445033 47.44781172 -33.94501482 45.11025098 -33.94067383 42.77270508 C-33.93752062 39.21078718 -33.96095872 35.6497055 -33.98632812 32.08789062 C-33.98860196 29.81250104 -33.98930422 27.53710924 -33.98828125 25.26171875 C-33.997491 24.20313156 -34.00670074 23.14454437 -34.01618958 22.05387878 C-33.97625871 15.61551913 -33.78420312 9.06820342 -29.2792511 3.98002625 C-21.69990674 -2.73581691 -9.2953196 -4.01671555 0 0 Z " fill="#181A14" transform="translate(370.625,477.5)"/>
<path d="M0 0 C4.89558485 3.01593513 7.46564491 6.94130919 9.3125 12.3125 C9.57992554 14.83406067 9.57992554 14.83406067 9.60302734 17.52661133 C9.61578705 18.54149124 9.62854675 19.55637115 9.64169312 20.602005 C9.64391876 21.68853867 9.64614441 22.77507233 9.6484375 23.89453125 C9.6550943 25.02267746 9.6617511 26.15082367 9.66860962 27.31315613 C9.67872451 29.69776787 9.683427 32.08240785 9.68310547 34.46704102 C9.68747183 38.10155305 9.72378709 41.73484385 9.76171875 45.36914062 C9.76758859 47.69010003 9.77155686 50.01106518 9.7734375 52.33203125 C9.78780853 53.41249222 9.80217957 54.49295319 9.81698608 55.6061554 C9.77034331 63.37080353 8.53401904 69.09098096 2.9375 74.6875 C-3.61143939 78.74160533 -10.1371848 79.0975777 -17.6875 78.3125 C-23.40357256 76.7458727 -27.53552774 74.48173451 -30.6875 69.3125 C-33.80353136 62.91643563 -33.84596558 56.25922539 -33.85546875 49.29296875 C-33.85879715 48.4349617 -33.86212555 47.57695465 -33.86555481 46.69294739 C-33.87060003 44.88343844 -33.87296388 43.07392027 -33.87280273 41.2644043 C-33.87498473 38.5192097 -33.89315372 35.77442029 -33.91210938 33.02929688 C-33.91504483 31.26302219 -33.91702861 29.49674562 -33.91796875 27.73046875 C-33.92874702 26.51595284 -33.92874702 26.51595284 -33.93974304 25.27690125 C-33.90817846 17.26647063 -33.08490277 9.56212426 -27.6875 3.3125 C-20.6008815 -3.60931342 -8.79472509 -4.02610304 0 0 Z " fill="#1B1C16" transform="translate(149.6875,477.6875)"/>
<path d="M0 0 C5.64530334 3.43311809 8.80003094 7.96330489 10.4375 14.375 C10.7430603 17.96507442 10.76534654 21.54286623 10.7734375 25.14453125 C10.7800943 26.18010666 10.7867511 27.21568207 10.79360962 28.28263855 C10.80371128 30.46876252 10.80842741 32.65491717 10.80810547 34.84106445 C10.81247183 38.16605088 10.84880038 41.48970183 10.88671875 44.81445312 C10.89258896 46.94530799 10.89655698 49.07616912 10.8984375 51.20703125 C10.91280853 52.19169876 10.92717957 53.17636627 10.94198608 54.19087219 C10.89281488 61.71008246 9.47985805 68.16362206 4.1875 73.75 C-3.25275738 78.14651573 -10.17639066 79.63184067 -18.765625 77.94140625 C-24.12960554 76.29331299 -27.65212873 73.14837962 -30.5625 68.375 C-32.96686183 62.80551474 -32.86874444 57.52784732 -32.86328125 51.5703125 C-32.86756638 50.53236542 -32.8718515 49.49441833 -32.87626648 48.42501831 C-32.88199581 46.23468758 -32.88252037 44.04433782 -32.87817383 41.85400391 C-32.87501724 38.51822135 -32.89847957 35.1833291 -32.92382812 31.84765625 C-32.92610172 29.71354278 -32.92680434 27.57942694 -32.92578125 25.4453125 C-32.934991 24.4554837 -32.94420074 23.46565491 -32.95368958 22.4458313 C-32.90908396 15.70695725 -32.12978005 10.00847286 -28.1328125 4.3515625 C-27.65585937 3.90554688 -27.17890625 3.45953125 -26.6875 3 C-26.21570313 2.53851562 -25.74390625 2.07703125 -25.2578125 1.6015625 C-18.4566349 -3.31910517 -7.50584403 -3.43779116 0 0 Z " fill="#181A14" transform="translate(342.5625,581.625)"/>
<path d="M0 0 C31.93181818 0 31.93181818 0 37.8125 5.75 C43.11547957 13.62871251 42.73639254 22.86693637 42 32 C41.13907846 35.62563352 40.13814208 38.92477096 38 42 C36.68595807 42.70392899 35.35359656 43.37550133 34 44 C36.56289405 53.94696993 39.14893411 63.84945958 42.30078125 73.62890625 C43 76 43 76 43 78 C38.38 78 33.76 78 29 78 C26.75917978 71.54039214 24.92549723 65.07953997 23.3125 58.4375 C23.08755859 57.52419922 22.86261719 56.61089844 22.63085938 55.66992188 C22.08395544 53.44739739 21.54039409 51.22411454 21 49 C17.535 48.505 17.535 48.505 14 48 C14 57.9 14 67.8 14 78 C9.38 78 4.76 78 0 78 C0 52.26 0 26.52 0 0 Z " fill="#191B15" transform="translate(163,373)"/>
<path d="M0 0 C5.28 0 10.56 0 16 0 C16.38333496 1.21582764 16.76666992 2.43165527 17.16162109 3.68432617 C18.58726762 8.20430388 20.01542589 12.72348468 21.44433594 17.24243164 C22.06188157 19.19664281 22.67875007 21.15106811 23.29492188 23.10571289 C24.18180335 25.91870067 25.07113431 28.730904 25.9609375 31.54296875 C26.23497406 32.41398727 26.50901062 33.2850058 26.79135132 34.18241882 C27.05147003 35.002892 27.31158875 35.82336517 27.57958984 36.66870117 C27.80609222 37.38595871 28.0325946 38.10321625 28.26596069 38.84220886 C29.08851124 41.26018874 30.05144639 43.62861598 31 46 C31.33 30.82 31.66 15.64 32 0 C35.96 0 39.92 0 44 0 C44 25.74 44 51.48 44 78 C39.05 78 34.1 78 29 78 C28.58637207 76.72882324 28.17274414 75.45764648 27.74658203 74.14794922 C26.20740939 69.41789864 24.6679555 64.68793964 23.12841797 59.95800781 C22.46297698 57.91343632 21.79761159 55.86884023 21.13232422 53.82421875 C20.17435407 50.88014306 19.21610933 47.93615687 18.2578125 44.9921875 C17.96190216 44.0825827 17.66599182 43.17297791 17.3611145 42.23580933 C17.08097504 41.37537018 16.80083557 40.51493103 16.51220703 39.62841797 C16.14580612 38.5025679 16.14580612 38.5025679 15.77200317 37.35397339 C14.85770417 34.56611501 13.92779831 31.78339492 13 29 C12.67 45.17 12.34 61.34 12 78 C8.04 78 4.08 78 0 78 C0 52.26 0 26.52 0 0 Z " fill="#1C1D17" transform="translate(390,477)"/>
<path d="M0 0 C4.95 0 9.9 0 15 0 C15.38333496 1.18553467 15.76666992 2.37106934 16.16162109 3.5925293 C17.58745884 8.00064391 19.01555914 12.40802277 20.44433594 16.81518555 C21.06181355 18.72091066 21.67868154 20.62683342 22.29492188 22.53295898 C23.1819811 25.27640425 24.07124704 28.01912583 24.9609375 30.76171875 C25.23497406 31.61086349 25.50901062 32.46000824 25.79135132 33.33488464 C26.84194812 36.56784217 27.89503279 39.74507656 29.18994141 42.88989258 C30 45 30 45 30 48 C30.66 48 31.32 48 32 48 C32 32.16 32 16.32 32 0 C35.96 0 39.92 0 44 0 C44 25.74 44 51.48 44 78 C39.05 78 34.1 78 29 78 C26.74620441 72.13954071 24.7454846 66.23921849 22.86328125 60.25 C22.61074585 59.45207031 22.35821045 58.65414062 22.09802246 57.83203125 C21.16718908 54.88875541 20.24005429 51.94431087 19.3125 49 C17.229375 42.4 15.14625 35.8 13 29 C12.67 45.17 12.34 61.34 12 78 C8.04 78 4.08 78 0 78 C0 52.26 0 26.52 0 0 Z " fill="#1C1E18" transform="translate(112,581)"/>
<path d="M0 0 C5.61 0 11.22 0 17 0 C19.28948801 8.90546967 21.28468424 17.84219343 23.13671875 26.84765625 C23.42376196 28.23582143 23.71094007 29.62395872 23.99824524 31.0120697 C24.59398986 33.89336892 25.1879074 36.77503696 25.78051758 39.65698242 C26.54003811 43.34971748 27.30456904 47.04139522 28.07046795 50.73281193 C28.66192552 53.58649137 29.25060346 56.44073872 29.83844948 59.29516411 C30.11943747 60.65771436 30.40132961 62.02007849 30.68414879 63.38224983 C31.07703527 65.27646042 31.46574156 67.1715366 31.85424805 69.06665039 C32.07614304 70.14298233 32.29803802 71.21931427 32.5266571 72.32826233 C33 75 33 75 33 78 C28.71 78 24.42 78 20 78 C19.01 72.39 18.02 66.78 17 61 C11.39 61 5.78 61 0 61 C-0.12375 62.505625 -0.2475 64.01125 -0.375 65.5625 C-0.8044304 69.93771115 -1.63946764 73.82770075 -3 78 C-7.29 78 -11.58 78 -16 78 C-10.84604497 51.96092657 -5.52167017 25.96359803 0 0 Z " fill="#1A1B15" transform="translate(222,477)"/>
<path d="M0 0 C0.69931641 -0.020625 1.39863281 -0.04125 2.11914062 -0.0625 C6.91903886 -0.09842066 10.11535952 0.72684609 14.1875 3.25 C18.58803671 7.77277384 20.2745984 12.31528948 20.375 18.5625 C20.1875 22.25 20.1875 22.25 19.1875 23.25 C17.33462498 23.32226502 15.47916122 23.3338122 13.625 23.3125 C12.61308594 23.30347656 11.60117187 23.29445313 10.55859375 23.28515625 C9.38490234 23.26775391 9.38490234 23.26775391 8.1875 23.25 C7.7234375 21.6103125 7.7234375 21.6103125 7.25 19.9375 C6.60412103 17.69592006 5.9251883 15.4630649 5.1875 13.25 C3.929375 13.04375 2.67125 12.8375 1.375 12.625 C0.66730469 12.50898438 -0.04039062 12.39296875 -0.76953125 12.2734375 C-3.13005824 12.05422152 -3.13005824 12.05422152 -5.8125 14.25 C-6.36741935 16.47163545 -6.36741935 16.47163545 -6.3125 19 C-6.35890625 20.26070313 -6.35890625 20.26070313 -6.40625 21.546875 C-5.01406356 27.88498693 0.6872147 31.65350709 5.6875 35.25 C12.41064844 40.08567521 17.64320599 45.08147711 20.1875 53.25 C21.15225367 60.89743761 20.02747636 67.53316839 16.1875 74.25 C11.37243707 79.3184873 6.09966335 80.36888063 -0.6875 80.625 C-7.07381981 80.49838152 -11.67059772 79.18767864 -16.375 74.7890625 C-21.56662115 68.97798656 -20.91018134 63.6737816 -20.8125 56.25 C-16.5225 56.25 -12.2325 56.25 -7.8125 56.25 C-7.38932292 58.52864583 -6.96614583 60.80729167 -6.54296875 63.0859375 C-5.93705058 65.60820641 -5.93705058 65.60820641 -2.8125 67.25 C0.76506686 67.25082535 0.76506686 67.25082535 4.1875 66.25 C6.11157852 63.99129913 6.1796597 62.31010898 6.5625 59.375 C5.6731703 51.9639192 -0.34111209 47.66365036 -5.8125 43.25 C-7.39302935 42.0380013 -8.97635204 40.82963626 -10.5625 39.625 C-15.84653095 35.54147178 -19.24892076 31.89521175 -20.8125 25.25 C-21.34156996 18.90116053 -20.590652 13.0483033 -17.8125 7.25 C-12.64894979 1.20754763 -7.76941336 0.05635114 0 0 Z " fill="#191B15" transform="translate(508.8125,475.75)"/>
<path d="M0 0 C1.51815699 0.00015911 3.0363194 0.00585313 4.55444336 0.01586914 C5.35208603 0.01728409 6.1497287 0.01869904 6.97154236 0.02015686 C9.52916146 0.02577223 12.08669429 0.03832727 14.64428711 0.05102539 C16.37410356 0.05603841 18.10392137 0.06060166 19.83374023 0.06469727 C24.08312264 0.07574664 28.33244023 0.09302153 32.58178711 0.11352539 C32.58178711 4.07352539 32.58178711 8.03352539 32.58178711 12.11352539 C24.99178711 12.11352539 17.40178711 12.11352539 9.58178711 12.11352539 C9.58178711 18.71352539 9.58178711 25.31352539 9.58178711 32.11352539 C15.85178711 32.11352539 22.12178711 32.11352539 28.58178711 32.11352539 C28.58178711 36.07352539 28.58178711 40.03352539 28.58178711 44.11352539 C22.31178711 44.11352539 16.04178711 44.11352539 9.58178711 44.11352539 C9.58178711 51.37352539 9.58178711 58.63352539 9.58178711 66.11352539 C17.17178711 66.11352539 24.76178711 66.11352539 32.58178711 66.11352539 C32.58178711 70.07352539 32.58178711 74.03352539 32.58178711 78.11352539 C20.37178711 78.11352539 8.16178711 78.11352539 -4.41821289 78.11352539 C-4.4583217 58.93705799 -4.4583217 58.93705799 -4.46704102 50.79125977 C-4.47302931 45.22313489 -4.48012923 39.6550264 -4.49365234 34.08691406 C-4.50448175 29.60007993 -4.51048984 25.11326335 -4.51309013 20.62641716 C-4.51494429 18.91072246 -4.51856471 17.19502878 -4.52394295 15.47934151 C-4.5311541 13.08467626 -4.5322038 10.69008443 -4.53173828 8.29541016 C-4.53533356 7.57899857 -4.53892883 6.86258698 -4.54263306 6.12446594 C-4.52998449 0.15044945 -4.52998449 0.15044945 0 0 Z " fill="#1D1F19" transform="translate(70.418212890625,580.886474609375)"/>
<path d="M0 0 C2.14576637 -0.02685938 4.29162645 -0.04633088 6.4375 -0.0625 C7.63246094 -0.07410156 8.82742187 -0.08570313 10.05859375 -0.09765625 C13 0 13 0 14 1 C14.32314847 2.70026392 14.58941266 4.4113902 14.83203125 6.125 C14.98897461 7.21280762 15.14591797 8.30061523 15.30761719 9.42138672 C15.47422852 10.6023291 15.64083984 11.78327148 15.8125 13 C17.35197477 23.70035301 18.99285209 34.37723797 20.78051758 45.0390625 C20.94060303 46.01359375 21.10068848 46.988125 21.265625 47.9921875 C21.40774414 48.84151855 21.54986328 49.69084961 21.69628906 50.56591797 C22.00867557 53.06953009 22.05289343 55.47968412 22 58 C22.66 58 23.32 58 24 58 C23.95230469 56.98679687 23.90460938 55.97359375 23.85546875 54.9296875 C23.85987221 48.24522962 25.20005699 41.69562366 26.3125 35.125 C26.54316282 33.73690265 26.77330338 32.34871841 27.00292969 30.96044922 C27.45592102 28.22698864 27.9123659 25.49414014 28.37158203 22.76171875 C28.91486893 19.50959577 29.44495664 16.25592712 29.96484375 13 C30.22655448 11.37499871 30.48827245 9.74999858 30.75 8.125 C30.86512939 7.39555176 30.98025879 6.66610352 31.09887695 5.91455078 C31.8863254 1.1136746 31.8863254 1.1136746 33 0 C37.33315059 -0.1438629 41.66512361 -0.04208618 46 0 C44.71954018 9.61153245 43.10559755 19.09473436 41.21484375 28.60546875 C40.95079338 29.9458561 40.68701004 31.28629608 40.42347717 32.62678528 C39.87694604 35.40276558 39.32800615 38.17825392 38.77709961 40.95336914 C38.07159392 44.50772799 37.37115268 48.06306213 36.67232418 51.61873913 C36.13085403 54.37193993 35.58736003 57.12473797 35.04318428 59.87740517 C34.65848817 61.82437153 34.27502719 63.77158181 33.8915863 65.71879578 C33.65786819 66.89464737 33.42415009 68.07049896 33.18334961 69.28198242 C32.97842392 70.31675217 32.77349823 71.35152191 32.56236267 72.41764832 C32 75 32 75 31 78 C25.39 78 19.78 78 14 78 C6.23516899 38.42695263 6.23516899 38.42695263 2.89141846 20.80786133 C2.63190106 19.4434627 2.37080991 18.0793624 2.10809326 16.71557617 C1.74469457 14.82686006 1.38781477 12.93689318 1.03125 11.046875 C0.83080078 9.99338867 0.63035156 8.93990234 0.42382812 7.85449219 C0.02731797 5.18398718 -0.08183174 2.69424816 0 0 Z " fill="#1C1D17" transform="translate(64,373)"/>
<path d="M0 0 C4.62 0 9.24 0 14 0 C15.12278352 6.97400027 16.24374036 13.94829083 17.36303711 20.92285156 C17.74372504 23.29337413 18.12490395 25.66381791 18.5065918 28.03417969 C19.0564815 31.44966147 19.60458005 34.86542669 20.15234375 38.28125 C20.3221727 39.33364868 20.49200165 40.38604736 20.66697693 41.47033691 C21.54730144 46.97163828 22.3488605 52.46676121 23 58 C23.94181451 52.43822203 24.87881476 46.8756484 25.8125 41.3125 C25.95005707 40.49365326 26.08761414 39.67480652 26.2293396 38.83114624 C28.02005108 28.15033865 29.74760535 17.47000939 31.1496582 6.72973633 C31.90083914 1.09916086 31.90083914 1.09916086 33 0 C35.18639453 -0.07258946 37.37500389 -0.08373783 39.5625 -0.0625 C41.35880859 -0.04896484 41.35880859 -0.04896484 43.19140625 -0.03515625 C44.11824219 -0.02355469 45.04507813 -0.01195312 46 0 C45.38430782 8.65700281 43.7587527 17.0953347 42.09375 25.59765625 C41.80582821 27.08306988 41.51819483 28.56853945 41.23083496 30.05406189 C40.63188908 33.14493089 40.02977581 36.23516041 39.42529297 39.32495117 C38.64945152 43.29179803 37.88124498 47.26007886 37.11528778 51.22884464 C36.52451123 54.28589789 35.92999882 57.34221504 35.33430481 60.39831352 C35.04931505 61.862589 34.76544753 63.32708336 34.48271179 64.79179573 C34.08925122 66.82688067 33.69083558 68.8609317 33.29101562 70.89477539 C32.95245544 72.6315731 32.95245544 72.6315731 32.60705566 74.40345764 C32 77 32 77 31 78 C28.30345146 78.07319621 25.63308542 78.09242537 22.9375 78.0625 C22.17888672 78.05798828 21.42027344 78.05347656 20.63867188 78.04882812 C18.75908129 78.0370068 16.87953101 78.01907078 15 78 C13.60583161 73.32365972 12.48279129 68.70495062 11.57958984 63.90307617 C11.45250137 63.2322702 11.3254129 62.56146423 11.19447327 61.87033081 C10.78008068 59.67846869 10.37039705 57.48575729 9.9609375 55.29296875 C9.67256795 53.76072334 9.38395944 52.22852288 9.09512329 50.69636536 C8.49300603 47.49856015 7.89310682 44.30034971 7.29492188 41.10180664 C6.5272628 36.9975434 5.75505982 32.89415142 4.98134422 28.79102612 C4.38627621 25.63353685 3.79307045 22.4757001 3.20048904 19.3177433 C2.91626152 17.80374913 2.63157218 16.28984158 2.34641647 14.77602196 C1.94966463 12.66766767 1.55529524 10.55888199 1.16162109 8.44995117 C0.9367099 7.24972824 0.71179871 6.04950531 0.48007202 4.81291199 C0 2 0 2 0 0 Z " fill="#1A1B15" transform="translate(258,581)"/>
<path d="M0 0 C2.14576637 -0.02685938 4.29162645 -0.04633088 6.4375 -0.0625 C7.63246094 -0.07410156 8.82742187 -0.08570313 10.05859375 -0.09765625 C13 0 13 0 14 1 C14.29202828 2.41981949 14.52820375 3.85120684 14.74023438 5.28515625 C14.87707642 6.19700684 15.01391846 7.10885742 15.15490723 8.04833984 C15.29972534 9.0430127 15.44454346 10.03768555 15.59375 11.0625 C15.74533569 12.0829541 15.89692139 13.1034082 16.05310059 14.15478516 C16.37442906 16.32344216 16.69374416 18.49239827 17.01123047 20.66162109 C17.49395001 23.95867755 17.98273144 27.2547886 18.47265625 30.55078125 C18.78421585 32.65880074 19.09542463 34.76687212 19.40625 36.875 C19.55106812 37.853479 19.69588623 38.83195801 19.84509277 39.84008789 C20.67912103 45.55135234 21.39591831 51.25975056 22 57 C22.66 57 23.32 57 24 57 C24.04390869 56.39663818 24.08781738 55.79327637 24.13305664 55.17163086 C24.8309936 46.57168177 26.11802638 38.08294092 27.4375 29.5625 C27.65718607 28.12439247 27.87658849 26.68624158 28.09570312 25.24804688 C28.71986262 21.16366342 29.35811129 17.08163603 30 13 C30.18836426 11.78812012 30.37672852 10.57624023 30.57080078 9.32763672 C30.74466309 8.23854004 30.91852539 7.14944336 31.09765625 6.02734375 C31.24855713 5.074646 31.39945801 4.12194824 31.55493164 3.14038086 C32 1 32 1 33 0 C35.18639453 -0.07258946 37.37500389 -0.08373783 39.5625 -0.0625 C41.35880859 -0.04896484 41.35880859 -0.04896484 43.19140625 -0.03515625 C44.11824219 -0.02355469 45.04507813 -0.01195312 46 0 C45.2749579 7.83723378 43.85296488 15.4738162 42.34765625 23.1953125 C42.08461156 24.55569232 41.82179324 25.91611593 41.55918884 27.27658081 C41.0109092 30.11273465 40.46012243 32.94838636 39.9074707 35.78369141 C39.20245833 39.40157972 38.50344612 43.02059621 37.80626774 46.6400013 C37.26549687 49.44412611 36.72170335 52.24765824 36.17700005 55.05102158 C35.7932374 57.02866784 35.41185937 59.00677636 35.03053284 60.9848938 C34.79366257 62.19660248 34.5567923 63.40831116 34.31274414 64.65673828 C34.00416222 66.2448381 34.00416222 66.2448381 33.68934631 67.86502075 C32.93871521 71.27870831 31.96021655 74.63924206 31 78 C25.39 78 19.78 78 14 78 C12.16969728 68.56928177 10.34333509 59.13782379 8.52388 49.7050066 C7.67885964 45.32491132 6.83212331 40.94516242 5.98144531 36.56616211 C5.16041578 32.33944327 4.34392015 28.11187155 3.5305481 23.88367271 C3.21958411 22.27144928 2.90699334 20.65953873 2.59274292 19.04795265 C2.15255762 16.78904386 1.7181922 14.52908744 1.28515625 12.26879883 C1.03644775 10.98306473 0.78773926 9.69733063 0.53149414 8.37263489 C0.07855106 5.49845146 -0.1138117 2.89863087 0 0 Z " fill="#1A1B15" transform="translate(184,581)"/>
<path d="M0 0 C1.19367188 -0.02578125 2.38734375 -0.0515625 3.6171875 -0.078125 C9.03321669 0.42849688 12.14639518 2.22691314 15.875 6.125 C20.71008625 12.84039756 20.30290044 18.15552988 20.125 26.25 C15.835 26.25 11.545 26.25 7.125 26.25 C6.96223958 23.74348958 6.79947917 21.23697917 6.63671875 18.73046875 C6.05085478 15.89059379 5.45999628 14.93032442 3.125 13.25 C-0.57016169 12.77970669 -2.87211159 12.61849806 -6.07104492 14.6328125 C-8.89202869 18.72551057 -8.38812678 22.70832958 -8.30078125 27.5625 C-8.29749313 28.56837158 -8.29420502 29.57424316 -8.29081726 30.6105957 C-8.28040128 32.7355802 -8.26045964 34.86053631 -8.23168945 36.98535156 C-8.18766528 40.23778925 -8.17025927 43.48948888 -8.15820312 46.7421875 C-8.14477651 48.80730231 -8.12985285 50.87240804 -8.11328125 52.9375 C-8.10589432 53.91050049 -8.09850739 54.88350098 -8.09089661 55.88598633 C-8.07806137 56.79372803 -8.06522614 57.70146973 -8.05200195 58.63671875 C-8.04215775 59.43295654 -8.03231354 60.22919434 -8.02217102 61.04956055 C-7.8764643 63.22810644 -7.47355522 65.15458041 -6.875 67.25 C-5.2723218 67.35824843 -3.66754252 67.43570645 -2.0625 67.5 C-1.16917969 67.54640625 -0.27585937 67.5928125 0.64453125 67.640625 C3.23135725 67.47642117 3.23135725 67.47642117 4.90625 65.53125 C6.23089712 63.05178231 6.60736872 61.28978543 6.8125 58.5 C6.915625 57.0975 7.01875 55.695 7.125 54.25 C11.415 54.25 15.705 54.25 20.125 54.25 C20.44919238 62.89513008 20.31099707 69.17900375 14.875 76.125 C8.24615 81.24729318 0.20151922 81.02870025 -7.875 80.25 C-13.01349715 78.95098792 -15.91308265 76.65251473 -18.8125 72.25 C-21.25106155 68.01764911 -21.99464707 64.30240269 -22.05200195 59.44067383 C-22.06483719 58.48900833 -22.07767242 57.53734283 -22.09089661 56.55683899 C-22.10197701 55.02243416 -22.10197701 55.02243416 -22.11328125 53.45703125 C-22.121353 52.3964299 -22.12942474 51.33582855 -22.13774109 50.24308777 C-22.1515654 47.99793118 -22.16229494 45.75275371 -22.17016602 43.50756836 C-22.18167728 41.21974499 -22.20211537 38.93194829 -22.23168945 36.64428711 C-22.27451144 33.33168352 -22.29055675 30.01987782 -22.30078125 26.70703125 C-22.31828934 25.69421585 -22.33579742 24.68140045 -22.35383606 23.63789368 C-22.33425292 17.16214456 -21.44400691 11.77037639 -17.875 6.25 C-12.33224713 1.02395685 -7.52890973 0.09714722 0 0 Z " fill="#181914" transform="translate(282.875,475.75)"/>
<path d="M0 0 C4.29 0 8.58 0 13 0 C15.30944234 11.4317396 17.00581992 22.8700286 18.46582031 34.44213867 C19.4717668 42.1299233 20.93787828 49.52480877 23 57 C23.9403616 51.41714481 24.87737148 45.83373403 25.8125 40.25 C25.95005707 39.42954193 26.08761414 38.60908386 26.2293396 37.76376343 C27.978905 27.31605052 29.69865071 16.86834844 31.1496582 6.37402344 C31.89736927 1.10263073 31.89736927 1.10263073 33 0 C35.18639453 -0.07258946 37.37500389 -0.08373783 39.5625 -0.0625 C41.35880859 -0.04896484 41.35880859 -0.04896484 43.19140625 -0.03515625 C44.11824219 -0.02355469 45.04507813 -0.01195312 46 0 C45.1770945 7.8624077 43.60693669 15.58007048 42.09375 23.33203125 C41.80593725 24.81553319 41.51830184 26.29906955 41.23083496 27.78263855 C40.63067716 30.87682656 40.02867744 33.97064862 39.42529297 37.06420898 C38.65205835 41.02916896 37.88302103 44.9949291 37.11528778 48.96095753 C36.52315081 52.01782929 35.92904036 55.07431484 35.33430481 58.13068199 C35.0498751 59.5934132 34.76600697 61.05625373 34.48271179 62.51920509 C34.08745186 64.55852227 33.68959361 66.59731543 33.29101562 68.63598633 C33.06530884 69.79544266 32.83960205 70.95489899 32.60705566 72.14949036 C32 75 32 75 31 78 C25.39 78 19.78 78 14 78 C10.78748477 62.37329273 7.77097135 46.70979415 4.80880737 31.03393555 C4.39479238 28.845649 3.97920523 26.65765931 3.56204224 24.4699707 C2.96779328 21.35061371 2.37960303 18.23017183 1.79296875 15.109375 C1.61194611 14.16443176 1.43092346 13.21948853 1.24441528 12.24591064 C1.08021088 11.36521912 0.91600647 10.48452759 0.74682617 9.57714844 C0.60202316 8.81094177 0.45722015 8.04473511 0.30802917 7.25531006 C0 5 0 5 0 0 Z " fill="#1A1B15" transform="translate(64,477)"/>
<path d="M0 0 C11.88 0 23.76 0 36 0 C36 3.96 36 7.92 36 12 C28.41 12 20.82 12 13 12 C13 18.6 13 25.2 13 32 C19.6 32 26.2 32 33 32 C33 35.96 33 39.92 33 44 C26.4 44 19.8 44 13 44 C13 51.26 13 58.52 13 66 C20.59 66 28.18 66 36 66 C36 69.96 36 73.92 36 78 C24.12 78 12.24 78 0 78 C0 52.26 0 26.52 0 0 Z " fill="#1E2019" transform="translate(118,373)"/>
<path d="M0 0 C11.88 0 23.76 0 36 0 C36 3.96 36 7.92 36 12 C28.41 12 20.82 12 13 12 C13 18.6 13 25.2 13 32 C19.27 32 25.54 32 32 32 C32.09765625 40.49609375 32.09765625 40.49609375 32 43 C31 44 31 44 29.23413086 44.11352539 C28.48526611 44.10828857 27.73640137 44.10305176 26.96484375 44.09765625 C25.87224243 44.09390991 25.87224243 44.09390991 24.75756836 44.09008789 C23.8269458 44.08098389 22.89632324 44.07187988 21.9375 44.0625 C17.5134375 44.0315625 17.5134375 44.0315625 13 44 C13 51.26 13 58.52 13 66 C20.59 66 28.18 66 36 66 C36 69.96 36 73.92 36 78 C24.12 78 12.24 78 0 78 C0 52.26 0 26.52 0 0 Z " fill="#1E2019" transform="translate(446,477)"/>
<path d="M0 0 C14.85 0 29.7 0 45 0 C45 3.96 45 7.92 45 12 C39.72 12 34.44 12 29 12 C29 33.78 29 55.56 29 78 C24.38 78 19.76 78 15 78 C15 56.22 15 34.44 15 12 C10.05 12 5.1 12 0 12 C0 8.04 0 4.08 0 0 Z " fill="#191B15" transform="translate(164,477)"/>
<path d="M0 0 C4.21539921 1.23280543 7.5865821 3.18033064 11.3125 5.46875 C12.04927979 5.9121875 12.78605957 6.355625 13.54516602 6.8125 C32.83307512 18.48932512 32.83307512 18.48932512 36.3125 21.96875 C36.17936357 25.17115094 35.76931371 26.54341853 33.40307617 28.74658203 C32.172948 29.54104736 32.172948 29.54104736 30.91796875 30.3515625 C30.01224121 30.94614258 29.10651367 31.54072266 28.17333984 32.15332031 C27.2292627 32.75241211 26.28518555 33.35150391 25.3125 33.96875 C24.42900879 34.54979492 23.54551758 35.13083984 22.63525391 35.72949219 C19.98314811 37.4642952 17.30829286 39.15766634 14.625 40.84375 C13.72716797 41.42382812 12.82933594 42.00390625 11.90429688 42.6015625 C3.13124017 48.10320099 3.13124017 48.10320099 -2.6875 47.96875 C-4.7208119 46.44904593 -5.57390498 45.54576139 -6.06845093 43.03369141 C-6.07083771 42.30327637 -6.07322449 41.57286133 -6.07568359 40.8203125 C-6.08514008 39.98935059 -6.09459656 39.15838867 -6.1043396 38.30224609 C-6.09826691 37.40844238 -6.09219421 36.51463867 -6.0859375 35.59375 C-6.08880768 34.67287598 -6.09167786 33.75200195 -6.09463501 32.80322266 C-6.09667631 30.85643906 -6.09114183 28.90963498 -6.07861328 26.96289062 C-6.06256056 23.98000301 -6.07845972 20.99847039 -6.09765625 18.015625 C-6.09567383 16.124997 -6.09183018 14.23436985 -6.0859375 12.34375 C-6.09201019 11.44994629 -6.09808289 10.55614258 -6.1043396 9.63525391 C-6.09488312 8.80429199 -6.08542664 7.97333008 -6.07568359 7.1171875 C-6.07329681 6.38677246 -6.07091003 5.65635742 -6.06845093 4.90380859 C-5.35098435 1.25940254 -3.62799569 -0.042186 0 0 Z " fill="#1A1B15" transform="translate(773.6875,188.03125)"/>
<path d="M0 0 C4.29 0 8.58 0 13 0 C13 25.74 13 51.48 13 78 C8.71 78 4.42 78 0 78 C0 52.26 0 26.52 0 0 Z " fill="#1E2019" transform="translate(238,581)"/>
<path d="M0 0 C4.29 0 8.58 0 13 0 C13 25.74 13 51.48 13 78 C8.71 78 4.42 78 0 78 C0 52.26 0 26.52 0 0 Z " fill="#1F211A" transform="translate(313,477)"/>
<path d="M0 0 C1.875 1.6875 1.875 1.6875 3 4 C3.11808487 8.3691401 0.77522124 10.98257612 -2.0234375 14.06640625 C-5.11994504 17.09559841 -8.47305759 19.76781772 -11.859375 22.46484375 C-15.99860152 25.77066007 -19.97906912 29.26261217 -23.96484375 32.75073242 C-34.45890399 41.8458904 -34.45890399 41.8458904 -39.125 42.3125 C-43.45263141 40.33684218 -44.83119911 37.02131831 -47 33 C-47.76648221 31.71614229 -48.53772725 30.43512168 -49.3125 29.15625 C-50.14680639 27.75057708 -50.98012993 26.34432038 -51.8125 24.9375 C-52.22218018 24.26517334 -52.63186035 23.59284668 -53.05395508 22.90014648 C-55.61366665 18.46522804 -56.64978126 15.25732108 -56 10 C-54 8 -54 8 -50.6875 7.375 C-47 8 -47 8 -45.60546875 9.47265625 C-44.27500457 11.59717525 -43.13130304 13.76318911 -42 16 C-41.06450863 17.62615717 -40.12704977 19.25118429 -39.1875 20.875 C-37 24.73846154 -37 24.73846154 -37 27 C-30.93158913 22.26147492 -25.08394477 17.35885066 -19.390625 12.17578125 C-17.15234327 10.13865229 -14.89743758 8.12390342 -12.625 6.125 C-12.01914062 5.59132812 -11.41328125 5.05765625 -10.7890625 4.5078125 C-4.48521358 -0.80503834 -4.48521358 -0.80503834 0 0 Z " fill="#191A14" transform="translate(702,232)"/>
<path d="M0 0 C4.86151383 4.18630357 4.86151383 4.18630357 5.14044189 7.83930969 C5.1506839 8.95586189 5.1506839 8.95586189 5.16113281 10.0949707 C5.17074036 10.93957352 5.1803479 11.78417633 5.19024658 12.65437317 C5.19449646 13.56893784 5.19874634 14.4835025 5.203125 15.42578125 C5.20882507 16.36552292 5.21452515 17.30526459 5.22039795 18.27348328 C5.22985474 20.26491162 5.23638462 22.25635566 5.24023438 24.24780273 C5.24992776 27.28983013 5.28093972 30.33117849 5.3125 33.37304688 C5.31903125 35.30728765 5.32428124 37.24153327 5.328125 39.17578125 C5.3404718 40.08427322 5.3528186 40.9927652 5.36553955 41.92878723 C5.34856179 46.76035463 5.21623251 50.12007804 2 54 C-1.48868651 56.32579101 -2.89718519 56.41865457 -7 56 C-10.1359157 54.22015595 -10.84102736 53.47691793 -12 50 C-12.10566303 48.53859653 -12.15845601 47.07301111 -12.17700195 45.60791016 C-12.18983719 44.72334137 -12.20267242 43.83877258 -12.21589661 42.92739868 C-12.22697701 41.49767227 -12.22697701 41.49767227 -12.23828125 40.0390625 C-12.246353 39.05634369 -12.25442474 38.07362488 -12.26274109 37.06112671 C-12.27657155 34.98152425 -12.28729835 32.90189919 -12.29516602 30.82226562 C-12.31239648 27.64409435 -12.35629424 24.46695868 -12.40039062 21.2890625 C-12.41051629 19.26823681 -12.41903278 17.24740229 -12.42578125 15.2265625 C-12.44328934 14.27746002 -12.46079742 13.32835754 -12.47883606 12.35049438 C-12.4648157 8.08111281 -12.38956532 5.65170612 -10.16088867 1.92333984 C-6.70001403 -1.15707711 -4.29771506 -1.36269014 0 0 Z " fill="#FCFAF3" transform="translate(362,488)"/>
<path d="M0 0 C2.23729159 1.44341393 2.79649828 2.32512333 3.55633545 4.84498596 C4.0063147 7.03067242 4.14005388 9.00081648 4.16113281 11.23022461 C4.17074036 12.05465561 4.1803479 12.87908661 4.19024658 13.72850037 C4.19449646 14.61086868 4.19874634 15.493237 4.203125 16.40234375 C4.20882507 17.31705948 4.21452515 18.23177521 4.22039795 19.17420959 C4.22983216 21.10660653 4.23637565 23.03901944 4.24023438 24.97143555 C4.24995325 27.92329949 4.28099681 30.87447083 4.3125 33.82617188 C4.31902925 35.70572504 4.32428003 37.58528317 4.328125 39.46484375 C4.3404718 40.34518784 4.3528186 41.22553192 4.36553955 42.1325531 C4.34823721 46.90384841 4.15576556 50.15882139 1 54 C-2 56 -2 56 -5.5 55.8125 C-10.09983633 54.74468085 -10.09983633 54.74468085 -12 52 C-12.91182919 49.26451244 -13.13519235 47.61101762 -13.16113281 44.79150391 C-13.17074036 43.94697662 -13.1803479 43.10244934 -13.19024658 42.23233032 C-13.19449646 41.32292694 -13.19874634 40.41352356 -13.203125 39.4765625 C-13.21167511 38.06907242 -13.21167511 38.06907242 -13.22039795 36.63314819 C-13.22984394 34.64769619 -13.23638034 32.66222854 -13.24023438 30.67675781 C-13.24994048 27.64360136 -13.28096786 24.61112244 -13.3125 21.578125 C-13.31903023 19.64844152 -13.32428062 17.7187532 -13.328125 15.7890625 C-13.3404718 14.88370758 -13.3528186 13.97835266 -13.36553955 13.04556274 C-13.34853061 8.2234151 -13.19764938 4.88758651 -10 1 C-6.81897402 -0.59051299 -3.4630901 -0.39740378 0 0 Z " fill="#FDFBF3" transform="translate(336,592)"/>
<path d="M0 0 C3.33203815 2.98937767 4.27203745 5.37175567 4.53344727 9.7109375 C4.5665012 11.59870094 4.57611326 13.48697216 4.56640625 15.375 C4.57570412 16.87812744 4.57570412 16.87812744 4.58518982 18.41162109 C4.59228107 20.52635732 4.58912616 22.64114945 4.57641602 24.75585938 C4.56254578 27.98932657 4.59663799 31.2199019 4.63476562 34.453125 C4.63571681 36.51041737 4.63385801 38.56771337 4.62890625 40.625 C4.64216446 41.58970215 4.65542267 42.5544043 4.66908264 43.54833984 C4.60490172 48.17988666 4.51349554 50.32109631 1.64819336 54.109375 C-1 56 -1 56 -4 56.625 C-8.17839469 55.75450111 -9.42420305 54.40551749 -12 51 C-12.72897859 47.54036886 -12.67735114 44.14997759 -12.62890625 40.625 C-12.63252419 39.12187256 -12.63252419 39.12187256 -12.63621521 37.58837891 C-12.63523744 35.47359248 -12.62186062 33.35878025 -12.59692383 31.24414062 C-12.56261494 28.01083248 -12.57626937 24.78025801 -12.59570312 21.546875 C-12.58880446 19.48957172 -12.5791319 17.43227549 -12.56640625 15.375 C-12.57136612 14.41029785 -12.57632599 13.4455957 -12.58143616 12.45166016 C-12.50634724 8.16321146 -12.39143186 5.65367931 -10.15209961 1.9140625 C-6.7235448 -1.13527042 -4.25216319 -1.45195816 0 0 Z " fill="#FDFBF4" transform="translate(142,488)"/>
<path d="M0 0 C7.59 0 15.18 0 23 0 C23 2.31 23 4.62 23 7 C22 8 22 8 18.83984375 8.09765625 C16.90818359 8.08025391 16.90818359 8.08025391 14.9375 8.0625 C13.64714844 8.05347656 12.35679687 8.04445312 11.02734375 8.03515625 C10.02832031 8.02355469 9.02929688 8.01195312 8 8 C8.33 11.3 8.66 14.6 9 18 C12.96 18.33 16.92 18.66 21 19 C21 21.31 21 23.62 21 26 C17.04 26.33 13.08 26.66 9 27 C8.67 30.63 8.34 34.26 8 38 C12.95 38 17.9 38 23 38 C23 40.64 23 43.28 23 46 C15.41 46 7.82 46 0 46 C0 30.82 0 15.64 0 0 Z " fill="#181A14" transform="translate(897,189)"/>
<path d="M0 0 C2.64 0 5.28 0 8 0 C9.98 10.89 11.96 21.78 14 33 C14.61875 29.596875 15.2375 26.19375 15.875 22.6875 C17.25 15.125 18.625 7.5625 20 0 C22.64 0 25.28 0 28 0 C27.47494585 9.921193 25.44046528 19.48597559 23.4375 29.1875 C23.10427641 30.82345755 22.77159001 32.45952461 22.43945312 34.09570312 C21.63248503 38.06509086 20.81827811 42.03292905 20 46 C16.04 46 12.08 46 8 46 C6.85462523 40.25370655 5.71547459 34.50622718 4.58203125 28.75756836 C4.19571291 26.80280404 3.80770685 24.84837247 3.41796875 22.89428711 C2.85751611 20.0827307 2.30317766 17.27002687 1.75 14.45703125 C1.57500977 13.58601273 1.40001953 12.7149942 1.21972656 11.81758118 C0.44042639 7.82550529 -0.23439561 4.0909359 0 0 Z " fill="#151611" transform="translate(863,189)"/>
<path d="M0 0 C0.66 0 1.32 0 2 0 C3.20323088 2.04733417 4.35890552 4.10577359 5.5 6.1875 C6.1496875 7.33605469 6.799375 8.48460937 7.46875 9.66796875 C9 14 9 14 9 27 C-76.47 27 -161.94 27 -250 27 C-250 23.04 -250 19.08 -250 15 C-249.01 15.495 -249.01 15.495 -248 16 C-248.33 18.97 -248.66 21.94 -249 25 C-164.52 25 -80.04 25 7 25 C6.38457295 14.48422352 6.38457295 14.48422352 2.9375 5.75 C2.38964844 4.65171875 1.84179688 3.5534375 1.27734375 2.421875 C0.85582031 1.62265625 0.43429687 0.8234375 0 0 Z " fill="#020301" transform="translate(792,306)"/>
<path d="M0 0 C2.97 0 5.94 0 9 0 C9 12.21 9 24.42 9 37 C12.96 37.33 16.92 37.66 21 38 C22 39 22 39 22 46 C14.74 46 7.48 46 0 46 C0 30.82 0 15.64 0 0 Z " fill="#1B1B16" transform="translate(821,189)"/>
<path d="M0 0 C11.88 0 23.76 0 36 0 C36 3.96 36 7.92 36 12 C28.41 12 20.82 12 13 12 C13 18.93 13 25.86 13 33 C12.34 32.67 11.68 32.34 11 32 C11 25.07 11 18.14 11 11 C13.50497004 9.74751498 15.20853274 9.88625594 18.0078125 9.90234375 C18.99394531 9.90556641 19.98007813 9.90878906 20.99609375 9.91210938 C22.02863281 9.92048828 23.06117188 9.92886719 24.125 9.9375 C25.68541016 9.94426758 25.68541016 9.94426758 27.27734375 9.95117188 C29.85161962 9.96298048 32.42578146 9.97944925 35 10 C35 7.03 35 4.06 35 1 C24.11 1 13.22 1 2 1 C2 25.75 2 50.5 2 76 C12.89 76 23.78 76 35 76 C35 73.03 35 70.06 35 67 C27.41 67 19.82 67 12 67 C10.11480471 63.22960943 10.81524006 58.64845405 10.8125 54.5 C10.80025391 53.52417969 10.78800781 52.54835938 10.77539062 51.54296875 C10.77249023 50.14498047 10.77249023 50.14498047 10.76953125 48.71875 C10.76542236 47.86216797 10.76131348 47.00558594 10.75708008 46.12304688 C11 44 11 44 13 42 C14.97119141 41.77294922 14.97119141 41.77294922 17.3515625 41.8046875 C18.20234375 41.81113281 19.053125 41.81757813 19.9296875 41.82421875 C20.81914062 41.84097656 21.70859375 41.85773438 22.625 41.875 C23.97078125 41.88853516 23.97078125 41.88853516 25.34375 41.90234375 C27.56261322 41.92594868 29.7813397 41.96182038 32 42 C32 39.03 32 36.06 32 33 C32.33 33 32.66 33 33 33 C33 36.63 33 40.26 33 44 C26.4 44 19.8 44 13 44 C13 51.26 13 58.52 13 66 C20.59 66 28.18 66 36 66 C36 69.96 36 73.92 36 78 C24.12 78 12.24 78 0 78 C0 52.26 0 26.52 0 0 Z " fill="#040503" transform="translate(118,373)"/>
<path d="M0 0 C11.88 0 23.76 0 36 0 C36 3.96 36 7.92 36 12 C28.41 12 20.82 12 13 12 C13 18.27 13 24.54 13 31 C12.34 31.33 11.68 31.66 11 32 C10.97111854 28.68751813 10.95324201 25.37506833 10.9375 22.0625 C10.92912109 21.11697266 10.92074219 20.17144531 10.91210938 19.19726562 C10.90888672 18.29814453 10.90566406 17.39902344 10.90234375 16.47265625 C10.89710693 15.64000244 10.89187012 14.80734863 10.88647461 13.94946289 C11 12 11 12 12 11 C13.63472882 10.91299658 15.27314055 10.89298937 16.91015625 10.90234375 C18.39418945 10.90717773 18.39418945 10.90717773 19.90820312 10.91210938 C20.94912109 10.92048828 21.99003906 10.92886719 23.0625 10.9375 C24.62967773 10.94426758 24.62967773 10.94426758 26.22851562 10.95117188 C28.8190666 10.96300087 31.40950559 10.97948311 34 11 C34 8.03 34 5.06 34 2 C23.11 2 12.22 2 1 2 C1 26.75 1 51.5 1 77 C11.89 77 22.78 77 34 77 C34 74.03 34 71.06 34 68 C33.37432129 68.01047363 32.74864258 68.02094727 32.10400391 68.03173828 C29.2777099 68.07323191 26.45147989 68.09930473 23.625 68.125 C22.64015625 68.14175781 21.6553125 68.15851563 20.640625 68.17578125 C19.69960938 68.18222656 18.75859375 68.18867187 17.7890625 68.1953125 C16.48509521 68.21102295 16.48509521 68.21102295 15.15478516 68.22705078 C13 68 13 68 11 66 C10.74121094 63.78515625 10.74121094 63.78515625 10.734375 61.0625 C10.73179687 60.08539062 10.72921875 59.10828125 10.7265625 58.1015625 C10.73429687 57.07804688 10.74203125 56.05453125 10.75 55 C10.74226563 53.97648438 10.73453125 52.95296875 10.7265625 51.8984375 C10.72914063 50.92132812 10.73171875 49.94421875 10.734375 48.9375 C10.73663086 48.03902344 10.73888672 47.14054688 10.74121094 46.21484375 C11 44 11 44 13 42 C15.9093558 41.85482256 18.719946 41.81369204 21.625 41.875 C22.42679687 41.88402344 23.22859375 41.89304687 24.0546875 41.90234375 C26.03658523 41.92593777 28.01832981 41.96180935 30 42 C30 39.36 30 36.72 30 34 C24.06 34 18.12 34 12 34 C12 33.67 12 33.34 12 33 C18.6 33 25.2 33 32 33 C32 36.3 32 39.6 32 43 C31 44 31 44 29.23413086 44.11352539 C28.48526611 44.10828857 27.73640137 44.10305176 26.96484375 44.09765625 C25.87224243 44.09390991 25.87224243 44.09390991 24.75756836 44.09008789 C23.8269458 44.08098389 22.89632324 44.07187988 21.9375 44.0625 C17.5134375 44.0315625 17.5134375 44.0315625 13 44 C13 51.26 13 58.52 13 66 C20.59 66 28.18 66 36 66 C36 69.96 36 73.92 36 78 C24.12 78 12.24 78 0 78 C0 52.26 0 26.52 0 0 Z " fill="#010201" transform="translate(446,477)"/>
<path d="M0 0 C0.70210098 0.00404846 1.40420197 0.00809692 2.12757874 0.01226807 C3.21136559 0.00939789 3.21136559 0.00939789 4.31704712 0.00646973 C5.84609831 0.00510803 7.37516106 0.00880342 8.90419006 0.01715088 C11.24389182 0.02783556 13.58282305 0.01726357 15.92250061 0.00445557 C17.40752835 0.00577747 18.8925556 0.0083405 20.37757874 0.01226807 C21.07765549 0.0082196 21.77773224 0.00417114 22.49902344 0 C26.16271794 0.03531652 27.68405064 0.18793684 30.81898499 2.27789307 C31.00648499 5.40289307 31.00648499 5.40289307 30.81898499 8.27789307 C27.01616065 10.78706255 23.1573646 10.5339719 18.77210999 10.47320557 C17.61530731 10.46896072 17.61530731 10.46896072 16.43513489 10.46463013 C13.97959167 10.45346319 11.52441738 10.42836535 9.06898499 10.40289307 C7.40102151 10.39285874 5.73305231 10.38373368 4.06507874 10.37554932 C-0.01709399 10.35353532 -4.09899201 10.31902973 -8.18101501 10.27789307 C-7.1931229 0.0696746 -7.1931229 0.0696746 0 0 Z " fill="#EBE8E0" transform="translate(716.1810150146484,287.72210693359375)"/>
<path d="M0 0 C2.64 0 5.28 0 8 0 C8 15.18 8 30.36 8 46 C5.36 46 2.72 46 0 46 C0 30.82 0 15.64 0 0 Z " fill="#1A1C15" transform="translate(849,189)"/>
<path d="M0 0 C0.66 0 1.32 0 2 0 C2.83811827 4.36533444 3.12178239 8.4810757 3.11352539 12.92333984 C3.11367142 13.5874588 3.11381744 14.25157776 3.1139679 14.93582153 C3.11327634 17.11089449 3.10551973 19.28587968 3.09765625 21.4609375 C3.09578938 22.97693841 3.09436675 24.49293992 3.09336853 26.00894165 C3.08956456 29.98404631 3.07975253 33.95911398 3.06866455 37.9342041 C3.05659836 42.71169775 3.05203809 47.48920382 3.04621124 52.26670837 C3.03653952 59.51116458 3.01736818 66.75553975 3 74 C13.23 74 23.46 74 34 74 C34 71.69 34 69.38 34 67 C27.07 67 20.14 67 13 67 C13 66.67 13 66.34 13 66 C20.26 66 27.52 66 35 66 C35 68.64 35 71.28 35 74 C35.66 74 36.32 74 37 74 C37 74.99 37 75.98 37 77 C24.79 77 12.58 77 0 77 C0 51.59 0 26.18 0 0 Z " fill="#262722" transform="translate(66,582)"/>
<path d="M0 0 C8.7 0 8.7 0 13 2 C15.40312747 5.45295791 15.33107613 8.82183305 15.375 12.9375 C15.40335938 14.14277344 15.43171875 15.34804688 15.4609375 16.58984375 C14.91969371 20.59413043 13.85940979 22.19736549 11 25 C8 26 8 26 0 26 C0 17.42 0 8.84 0 0 Z " fill="#FCFAF4" transform="translate(177,384)"/>
<path d="M0 0 C11.22 0 22.44 0 34 0 C34 3.96 34 7.92 34 12 C26.41 12 18.82 12 11 12 C11 18.6 11 25.2 11 32 C17.27 32 23.54 32 30 32 C30 35.96 30 39.92 30 44 C23.73 44 17.46 44 11 44 C11 51.26 11 58.52 11 66 C18.59 66 26.18 66 34 66 C34 68.97 34 71.94 34 75 C33.34 75 32.68 75 32 75 C32 72.36 32 69.72 32 67 C31.3387915 67.00523682 30.67758301 67.01047363 29.99633789 67.01586914 C27.01840149 67.03657656 24.04048018 67.04964012 21.0625 67.0625 C20.02158203 67.07087891 18.98066406 67.07925781 17.90820312 67.08789062 C16.42416992 67.09272461 16.42416992 67.09272461 14.91015625 67.09765625 C13.53549194 67.10551147 13.53549194 67.10551147 12.13305664 67.11352539 C10 67 10 67 9 66 C8.74843731 62.36100825 8.81477774 58.70916327 8.8125 55.0625 C8.80025391 54.03447266 8.78800781 53.00644531 8.77539062 51.94726562 C8.77249023 50.47483398 8.77249023 50.47483398 8.76953125 48.97265625 C8.76542236 48.06781494 8.76131348 47.16297363 8.75708008 46.23071289 C9 44 9 44 11 42 C13.9093558 41.85482256 16.719946 41.81369204 19.625 41.875 C20.42679688 41.88402344 21.22859375 41.89304687 22.0546875 41.90234375 C24.03658523 41.92593777 26.01832981 41.96180935 28 42 C28 39.36 28 36.72 28 34 C26.71222656 34.01160156 25.42445312 34.02320313 24.09765625 34.03515625 C22.41927228 34.0445327 20.74088674 34.05363305 19.0625 34.0625 C17.78729492 34.07506836 17.78729492 34.07506836 16.48632812 34.08789062 C15.67744141 34.09111328 14.86855469 34.09433594 14.03515625 34.09765625 C13.2862915 34.10289307 12.53742676 34.10812988 11.76586914 34.11352539 C10 34 10 34 9 33 C8.72165232 29.52866703 8.76823798 26.04367496 8.75 22.5625 C8.729375 21.58216797 8.70875 20.60183594 8.6875 19.59179688 C8.68234375 18.65529297 8.6771875 17.71878906 8.671875 16.75390625 C8.6625293 15.89095947 8.65318359 15.0280127 8.64355469 14.13891602 C8.76118164 13.43307373 8.87880859 12.72723145 9 12 C12.20406462 9.86395692 12.99600747 9.75791092 16.66796875 9.8046875 C17.56064453 9.81113281 18.45332031 9.81757812 19.37304688 9.82421875 C20.76620117 9.84935547 20.76620117 9.84935547 22.1875 9.875 C23.12787109 9.88402344 24.06824219 9.89304687 25.03710938 9.90234375 C27.35832968 9.92590944 29.67903644 9.95880884 32 10 C32 7.36 32 4.72 32 2 C21.44 2 10.88 2 0 2 C0 1.34 0 0.68 0 0 Z " fill="#121210" transform="translate(69,581)"/>
<path d="M0 0 C4.95 0 9.9 0 15 0 C15 0.66 15 1.32 15 2 C10.94150823 2.98387679 7.16468745 3.03924323 3 3 C3.00222061 3.89758026 3.00444122 4.79516052 3.00672913 5.71994019 C3.02674123 14.16638285 3.04197884 22.61281759 3.05181217 31.05927849 C3.05703746 35.4019967 3.06412873 39.74469538 3.07543945 44.08740234 C3.08628085 48.27598387 3.09227951 52.46454656 3.09487724 56.65314102 C3.09672922 58.25357485 3.10034552 59.8540076 3.10573006 61.45443344 C3.1129571 63.69083661 3.11399023 65.92716131 3.11352539 68.16357422 C3.115746 69.43820526 3.11796661 70.7128363 3.12025452 72.02609253 C3 75 3 75 2 77 C4.64 76.67 7.28 76.34 10 76 C10.33 59.83 10.66 43.66 11 27 C11.33 27 11.66 27 12 27 C12 43.83 12 60.66 12 78 C8.04 78 4.08 78 0 78 C0 52.26 0 26.52 0 0 Z " fill="#24241F" transform="translate(390,477)"/>
<path d="M0 0 C3.96 0 7.92 0 12 0 C12 0.33 12 0.66 12 1 C8.7 1 5.4 1 2 1 C2 22.78 2 44.56 2 67 C-2.62 67 -7.24 67 -12 67 C-12 45.22 -12 23.44 -12 1 C-11.01 1 -10.02 1 -9 1 C-9 22.12 -9 43.24 -9 65 C-6.03 65 -3.06 65 0 65 C0 43.55 0 22.1 0 0 Z " fill="#2E2D26" transform="translate(191,488)"/>
<path d="M0 0 C3.96 0 7.92 0 12 0 C12 25.74 12 51.48 12 78 C7.05 78 2.1 78 -3 78 C-3 77.34 -3 76.68 -3 76 C1.29 76 5.58 76 10 76 C10 51.58 10 27.16 10 2 C7.36 2 4.72 2 2 2 C2.01047363 3.28165039 2.02094727 4.56330078 2.03173828 5.88378906 C2.06794398 10.63978277 2.09090262 15.3957643 2.10986328 20.15185547 C2.11991954 22.21014454 2.13356629 24.26841933 2.15087891 26.32666016 C2.17514354 29.28551763 2.18648688 32.24418617 2.1953125 35.203125 C2.20563507 36.12305237 2.21595764 37.04297974 2.22659302 37.99078369 C2.22674408 38.8513739 2.22689514 39.71196411 2.22705078 40.59863281 C2.231492 41.35364075 2.23593323 42.10864868 2.24050903 42.88653564 C2 45 2 45 0 49 C0 32.83 0 16.66 0 0 Z " fill="#000100" transform="translate(144,581)"/>
<path d="M0 0 C1.485 0.99 1.485 0.99 3 2 C3.36076355 5.01187134 3.36076355 5.01187134 3.34057617 8.92822266 C3.34123329 9.99667671 3.34123329 9.99667671 3.34190369 11.0867157 C3.3398101 13.44610812 3.31645325 15.80479391 3.29296875 18.1640625 C3.2873748 19.79787813 3.28310375 21.43169878 3.28010559 23.06552124 C3.26864094 27.36960702 3.23916008 31.67338998 3.20599365 35.97735596 C3.17532751 40.36767479 3.16160767 44.75804247 3.14648438 49.1484375 C3.11429171 57.7657641 3.06307608 66.3828444 3 75 C5.64 75 8.28 75 11 75 C11 65.76 11 56.52 11 47 C14.21451269 45.39274365 17.43612536 45.94251815 21 46 C21 46.33 21 46.66 21 47 C18.69 47 16.38 47 14 47 C14 57.23 14 67.46 14 78 C9.38 78 4.76 78 0 78 C0 52.26 0 26.52 0 0 Z " fill="#30302A" transform="translate(163,373)"/>
<path d="M0 0 C4.29 0 8.58 0 13 0 C13 25.74 13 51.48 13 78 C8.71 78 4.42 78 0 78 C0 52.26 0 26.52 0 0 Z M1 2 C1 26.42 1 50.84 1 76 C4.3 76 7.6 76 11 76 C11 51.58 11 27.16 11 2 C7.7 2 4.4 2 1 2 Z " fill="#000100" transform="translate(238,581)"/>
<path d="M0 0 C4.29 0 8.58 0 13 0 C13 25.74 13 51.48 13 78 C8.71 78 4.42 78 0 78 C0 52.26 0 26.52 0 0 Z M1 2 C1 26.75 1 51.5 1 77 C4.3 77 7.6 77 11 77 C11 52.25 11 27.5 11 2 C7.7 2 4.4 2 1 2 Z " fill="#000100" transform="translate(313,477)"/>
<path d="M0 0 C0.66 0 1.32 0 2 0 C2.65140456 3.79073089 3.29508257 7.58273657 3.9375 11.375 C4.11990234 12.43589844 4.30230469 13.49679687 4.49023438 14.58984375 C5.58064266 21.05299105 6.42457732 27.47046683 7 34 C3.04 34 -0.92 34 -5 34 C-4.38655803 26.16731467 -3.34026644 18.54010736 -1.9375 10.8125 C-1.75123047 9.76513672 -1.56496094 8.71777344 -1.37304688 7.63867188 C-0.91947338 5.09168227 -0.46174232 2.54551901 0 0 Z " fill="#F7F6F1" transform="translate(230,492)"/>
<path d="M0 0 C1.93166016 0.01740234 1.93166016 0.01740234 3.90234375 0.03515625 C5.19269531 0.04417969 6.48304688 0.05320312 7.8125 0.0625 C8.81152344 0.07410156 9.81054688 0.08570313 10.83984375 0.09765625 C10.83984375 1.08765625 10.83984375 2.07765625 10.83984375 3.09765625 C6.54984375 2.76765625 2.25984375 2.43765625 -2.16015625 2.09765625 C-1.83015625 28.49765625 -1.50015625 54.89765625 -1.16015625 82.09765625 C-2.15015625 82.59265625 -2.15015625 82.59265625 -3.16015625 83.09765625 C-4.68288938 80.05219 -4.29869749 76.88332224 -4.28955078 73.54272461 C-4.29217926 72.3742675 -4.29217926 72.3742675 -4.29486084 71.1822052 C-4.29927165 68.60061432 -4.29634435 66.01909161 -4.29296875 63.4375 C-4.29364194 61.64913418 -4.2946121 59.86076846 -4.29586792 58.07240295 C-4.29734379 54.32226695 -4.29519362 50.57215473 -4.29052734 46.82202148 C-4.28482601 42.00408761 -4.28811232 37.18620939 -4.29409981 32.36827755 C-4.29770489 28.67525306 -4.29656715 24.98224187 -4.29397202 21.289217 C-4.29330281 19.51212113 -4.29413093 17.73502408 -4.29645157 15.95792961 C-4.29897768 13.4796514 -4.2951383 11.00146471 -4.28955078 8.52319336 C-4.29157501 7.78187164 -4.29359924 7.04054993 -4.29568481 6.27676392 C-4.26988543 0.13194949 -4.26988543 0.13194949 0 0 Z " fill="#EDEBE5" transform="translate(240.16015625,578.90234375)"/>
<path d="M0 0 C2.475 0.495 2.475 0.495 5 1 C5.66 3.31 6.32 5.62 7 8 C7.33 8 7.66 8 8 8 C8.50505263 10.89503383 9.0042022 13.79087953 9.5 16.6875 C9.71462891 17.91243164 9.71462891 17.91243164 9.93359375 19.16210938 C10.61165962 23.14978248 11.19858392 26.93730404 11 31 C9.35 30.67 7.7 30.34 6 30 C6 29.34 6 28.68 6 28 C5.34 28 4.68 28 4 28 C3.3245086 24.45995797 2.66119202 20.91773831 2 17.375 C1.80921875 16.37597656 1.6184375 15.37695312 1.421875 14.34765625 C0.52472864 9.50947407 -0.27009288 4.94607582 0 0 Z " fill="#1B1C15" transform="translate(865,191)"/>
<path d="M0 0 C0.33 0 0.66 0 1 0 C0.446967 7.84107977 -0.70528262 15.42211184 -2.25 23.125 C-2.46817383 24.23431885 -2.68634766 25.3436377 -2.91113281 26.48657227 C-3.36912076 28.80976363 -3.82976645 31.13243251 -4.29296875 33.45458984 C-5.00334112 37.01675405 -5.70547572 40.58046764 -6.40625 44.14453125 C-6.85369234 46.40894794 -7.30159255 48.67327422 -7.75 50.9375 C-7.96043945 52.00307129 -8.17087891 53.06864258 -8.38769531 54.16650391 C-8.58459961 55.15183105 -8.78150391 56.1371582 -8.984375 57.15234375 C-9.24299316 58.4515979 -9.24299316 58.4515979 -9.50683594 59.77709961 C-10 62 -10 62 -11 65 C-16.61 65 -22.22 65 -28 65 C-28.67388461 61.79303128 -29.33931274 58.58469014 -30 55.375 C-30.19078125 54.47136719 -30.3815625 53.56773437 -30.578125 52.63671875 C-31.52210398 48.01796444 -32.25214768 43.74352828 -32 39 C-30.07140545 41.89289183 -29.56274284 43.35497915 -28.9296875 46.66796875 C-28.66865234 48.00698242 -28.66865234 48.00698242 -28.40234375 49.37304688 C-28.22832031 50.30181641 -28.05429688 51.23058594 -27.875 52.1875 C-27.69324219 53.12787109 -27.51148437 54.06824219 -27.32421875 55.03710938 C-26.87674439 57.35691065 -26.43757362 59.67831084 -26 62 C-19.07 62.495 -19.07 62.495 -12 63 C-11.88140625 61.7610498 -11.7628125 60.52209961 -11.640625 59.24560547 C-10.99483237 53.45591088 -9.884101 47.78125132 -8.75 42.0703125 C-8.53182617 40.95816376 -8.31365234 39.84601501 -8.08886719 38.70016479 C-7.63000895 36.36519423 -7.16936805 34.03057334 -6.70703125 31.69628906 C-5.9982341 28.11608026 -5.29556017 24.53470928 -4.59375 20.953125 C-4.14619156 18.67961695 -3.69828712 16.40617698 -3.25 14.1328125 C-3.03956055 13.0609671 -2.82912109 11.9891217 -2.61230469 10.88479614 C-2.41540039 9.89301361 -2.21849609 8.90123108 -2.015625 7.87939453 C-1.84321289 7.00719269 -1.67080078 6.13499084 -1.49316406 5.23635864 C-1 3 -1 3 0 0 Z " fill="#080806" transform="translate(106,386)"/>
<path d="M0 0 C2.65118019 3.97677029 2.21427695 7.37455282 2.125 11.98046875 C2.11742676 12.86728836 2.10985352 13.75410797 2.10205078 14.6678009 C2.06940594 18.46016105 2.01343039 22.25208935 1.95898438 26.04418945 C1.92259152 28.81459522 1.89853286 31.58492849 1.875 34.35546875 C1.85840332 35.20159225 1.84180664 36.04771576 1.82470703 36.91947937 C1.77201621 43.38426616 2.14264694 49.38809727 6 54.8125 C10.04087528 57.75897156 14.17862534 58.84848722 19 60 C19 60.33 19 60.66 19 61 C13.7481833 61.315109 10.45185123 60.8689708 6 58 C-0.9092743 50.70687713 -1.15586407 42.27405689 -1.1328125 32.734375 C-1.13376923 31.85976624 -1.13472595 30.98515747 -1.13571167 30.08404541 C-1.13638941 28.24515714 -1.13456357 26.40626643 -1.13037109 24.56738281 C-1.12499121 21.7453887 -1.13034304 18.92355187 -1.13671875 16.1015625 C-1.1360584 14.31249965 -1.13477814 12.52343689 -1.1328125 10.734375 C-1.13483673 9.88856873 -1.13686096 9.04276245 -1.13894653 8.17132568 C-1.11497642 2.22995283 -1.11497642 2.22995283 0 0 Z " fill="#282822" transform="translate(117,494)"/>
<path d="M0 0 C6.27 0 12.54 0 19 0 C19 3.96 19 7.92 19 12 C12.73 12 6.46 12 0 12 C0 19.26 0 26.52 0 34 C7.59 34 15.18 34 23 34 C23 36.97 23 39.94 23 43 C22.34 43 21.68 43 21 43 C21 40.36 21 37.72 21 35 C20.3387915 35.00523682 19.67758301 35.01047363 18.99633789 35.01586914 C16.01840149 35.03657656 13.04048018 35.04964012 10.0625 35.0625 C8.50112305 35.07506836 8.50112305 35.07506836 6.90820312 35.08789062 C5.91884766 35.09111328 4.92949219 35.09433594 3.91015625 35.09765625 C2.53549194 35.10551147 2.53549194 35.10551147 1.13305664 35.11352539 C-1 35 -1 35 -2 34 C-2.25156269 30.36100825 -2.18522226 26.70916327 -2.1875 23.0625 C-2.19974609 22.03447266 -2.21199219 21.00644531 -2.22460938 19.94726562 C-2.22654297 18.96564453 -2.22847656 17.98402344 -2.23046875 16.97265625 C-2.23457764 16.06781494 -2.23868652 15.16297363 -2.24291992 14.23071289 C-2 12 -2 12 0 10 C2.9093558 9.85482256 5.719946 9.81369204 8.625 9.875 C9.42679688 9.88402344 10.22859375 9.89304687 11.0546875 9.90234375 C13.03658523 9.92593777 15.01832981 9.96180935 17 10 C17 7.03 17 4.06 17 1 C11.39 1 5.78 1 0 1 C0 0.67 0 0.34 0 0 Z " fill="#131310" transform="translate(80,613)"/>
<path d="M0 0 C2.64 0 5.28 0 8 0 C8 15.18 8 30.36 8 46 C5.36 46 2.72 46 0 46 C0 30.82 0 15.64 0 0 Z M4 1 C3.01 1.495 3.01 1.495 2 2 C2 16.19 2 30.38 2 45 C3.65 45 5.3 45 7 45 C7 30.81 7 16.62 7 2 C6.01 1.67 5.02 1.34 4 1 Z " fill="#000000" transform="translate(849,189)"/>
<path d="M0 0 C1.79244141 0.01740234 1.79244141 0.01740234 3.62109375 0.03515625 C5.41740234 0.04869141 5.41740234 0.04869141 7.25 0.0625 C8.17683594 0.07410156 9.10367188 0.08570313 10.05859375 0.09765625 C9.34702972 6.41006715 8.27243684 12.60127177 7.0625 18.8359375 C6.86889389 19.83852097 6.67528778 20.84110443 6.47581482 21.87406921 C6.06794922 23.9795642 5.65858721 26.08476981 5.24780273 28.18969727 C4.61991881 31.4161939 4.00222853 34.64454192 3.38476562 37.87304688 C2.98630152 39.92329854 2.58723416 41.97343308 2.1875 44.0234375 C2.00409561 44.98905106 1.82069122 45.95466461 1.63172913 46.94953918 C1.36651711 48.29189888 1.36651711 48.29189888 1.09594727 49.66137695 C0.94352066 50.44777054 0.79109406 51.23416412 0.63404846 52.04438782 C0.05859375 54.09765625 0.05859375 54.09765625 -1.94140625 57.09765625 C-1.40807653 47.36472131 0.5349871 37.9926301 2.49609375 28.47265625 C2.81236839 26.91286565 3.12812675 25.35297027 3.44335938 23.79296875 C4.91275798 16.54563025 6.41682689 9.3082303 8.05859375 2.09765625 C4.75859375 2.09765625 1.45859375 2.09765625 -1.94140625 2.09765625 C-2.60140625 6.05765625 -3.26140625 10.01765625 -3.94140625 14.09765625 C-4.27140625 14.09765625 -4.60140625 14.09765625 -4.94140625 14.09765625 C-4.80111206 11.95145365 -4.65402461 9.80569407 -4.50390625 7.66015625 C-4.42269531 6.46519531 -4.34148437 5.27023437 -4.2578125 4.0390625 C-3.83703515 0.12739161 -3.83703515 0.12739161 0 0 Z " fill="#060705" transform="translate(99.94140625,476.90234375)"/>
<path d="M0 0 C1.65 0 3.3 0 5 0 C5 12.21 5 24.42 5 37 C4.67 37 4.34 37 4 37 C3.67 30.4 3.34 23.8 3 17 C1.25493385 18.74506615 1.76717216 21.19039143 1.68359375 23.56640625 C1.64169922 24.69111328 1.59980469 25.81582031 1.55664062 26.97460938 C1.51732422 28.15861328 1.47800781 29.34261719 1.4375 30.5625 C1.39431641 31.75037109 1.35113281 32.93824219 1.30664062 34.16210938 C1.20016454 37.10794784 1.09815159 40.0538743 1 43 C0.67 43 0.34 43 0 43 C0 28.81 0 14.62 0 0 Z " fill="#23251E" transform="translate(823,190)"/>
<path d="M0 0 C1.23556641 0.01740234 1.23556641 0.01740234 2.49609375 0.03515625 C3.32238281 0.04417969 4.14867187 0.05320312 5 0.0625 C5.63808594 0.07410156 6.27617188 0.08570313 6.93359375 0.09765625 C6.93359375 0.75765625 6.93359375 1.41765625 6.93359375 2.09765625 C4.29359375 2.42765625 1.65359375 2.75765625 -1.06640625 3.09765625 C-1.39640625 32.79765625 -1.72640625 62.49765625 -2.06640625 93.09765625 C-2.39640625 93.09765625 -2.72640625 93.09765625 -3.06640625 93.09765625 C-3.08952815 81.11962066 -3.10732055 69.14159034 -3.11821842 57.16353703 C-3.12344759 51.60226214 -3.13054583 46.04100246 -3.1418457 40.47973633 C-3.1526734 35.11758206 -3.15868283 29.75544247 -3.16128349 24.39327812 C-3.16313796 22.34265347 -3.16675897 20.29202965 -3.17213631 18.24141121 C-3.17934518 15.37975422 -3.18039726 12.51815868 -3.17993164 9.65649414 C-3.18352692 8.79982147 -3.18712219 7.9431488 -3.19082642 7.06051636 C-3.17857674 0.15021629 -3.17857674 0.15021629 0 0 Z " fill="#E2DFD7" transform="translate(789.06640625,361.90234375)"/>
<path d="M0 0 C0.66 0.66 1.32 1.32 2 2 C1.40138258 4.35171131 0.73075648 6.6859378 0 9 C-2.77100394 10.38550197 -4.9334706 10.1877467 -8 10 C-8.99 9.34 -9.98 8.68 -11 8 C-11.375 5 -11.375 5 -11 2 C-6.93150591 -0.71232939 -4.83523216 -0.30699887 0 0 Z " fill="#EFEDE7" transform="translate(605,288)"/>
<path d="M0 0 C0.33 0 0.66 0 1 0 C1.33 9.24 1.66 18.48 2 28 C2.33 24.37 2.66 20.74 3 17 C3.33 17 3.66 17 4 17 C4 25.58 4 34.16 4 43 C2.68 43 1.36 43 0 43 C0 28.81 0 14.62 0 0 Z " fill="#20221B" transform="translate(851,191)"/>
<path d="M0 0 C11.22 0 22.44 0 34 0 C34 3.96 34 7.92 34 12 C33.01 11.67 32.02 11.34 31 11 C31.33 8.03 31.66 5.06 32 2 C21.44 2 10.88 2 0 2 C0 1.34 0 0.68 0 0 Z " fill="#030402" transform="translate(69,581)"/>
<path d="M0 0 C0.66 0 1.32 0 2 0 C3.28524793 4.23478558 4.56690325 8.47063643 5.84521484 12.70751953 C6.28074713 14.14922558 6.71726625 15.59063388 7.15478516 17.03173828 C7.78286186 19.10111573 8.40740206 21.17153189 9.03125 23.2421875 C9.59682617 25.11173096 9.59682617 25.11173096 10.17382812 27.01904297 C11 30 11 30 11 32 C6.38 32 1.76 32 -3 32 C-4.683989 27.7900275 -5.24059853 26.21047434 -5 22 C-3.0549 24.91765 -2.54723683 26.62537285 -2 30 C1.3 29.67 4.6 29.34 8 29 C7.79318604 28.29915283 7.58637207 27.59830566 7.37329102 26.8762207 C6.434126 23.68896736 5.49828113 20.50074842 4.5625 17.3125 C4.23701172 16.20970703 3.91152344 15.10691406 3.57617188 13.97070312 C3.26357422 12.90400391 2.95097656 11.83730469 2.62890625 10.73828125 C2.34088135 9.75899658 2.05285645 8.77971191 1.75610352 7.77075195 C1.05242507 5.19211241 0.48849151 2.62695222 0 0 Z " fill="#090906" transform="translate(195,419)"/>
<path d="M0 0 C1.75 0.125 1.75 0.125 4 1 C8.78713898 7.15489297 9.24712638 11.46264541 9 19 C8 20 8 20 5.49609375 20.09765625 C4.48675781 20.08605469 3.47742188 20.07445312 2.4375 20.0625 C1.42558594 20.05347656 0.41367187 20.04445313 -0.62890625 20.03515625 C-1.80259766 20.01775391 -1.80259766 20.01775391 -3 20 C-3.309375 18.906875 -3.61875 17.81375 -3.9375 16.6875 C-4.58337897 14.44592006 -5.2623117 12.2130649 -6 10 C-8.10584438 9.19436362 -8.10584438 9.19436362 -10.5625 8.8125 C-11.38878906 8.65394531 -12.21507812 8.49539063 -13.06640625 8.33203125 C-13.70449219 8.22246094 -14.34257812 8.11289062 -15 8 C-14.34 7.34 -13.68 6.68 -13 6 C-9.55999764 6.14956532 -7.51667774 6.63692916 -4.6875 8.625 C-2.5027779 11.69979407 -2.28578509 14.28479387 -2 18 C0.97 18 3.94 18 7 18 C6.19197985 10.54691858 5.56153959 5.26882698 0 0 Z " fill="#060604" transform="translate(520,479)"/>
<path d="M0 0 C2.64 0 5.28 0 8 0 C8.33 4.29 8.66 8.58 9 13 C7.19669467 9.39338934 6.53400897 6.91606575 6 3 C4.68 2.67 3.36 2.34 2 2 C2.15146484 2.82201904 2.30292969 3.64403809 2.45898438 4.4909668 C3.02159093 7.55609058 3.58022917 10.62190416 4.13623047 13.68823242 C4.49533313 15.66185099 4.8589652 17.63464368 5.22265625 19.60742188 C5.44824219 20.85458984 5.67382812 22.10175781 5.90625 23.38671875 C6.11572266 24.53358154 6.32519531 25.68044434 6.54101562 26.86206055 C6.94698846 29.63757591 7.09164953 32.20239814 7 35 C4.85201813 31.7780272 4.40376718 29.74925851 3.7109375 25.9765625 C3.38222656 24.19765625 3.38222656 24.19765625 3.046875 22.3828125 C2.82515625 21.14273438 2.6034375 19.90265625 2.375 18.625 C2.14554688 17.39265625 1.91609375 16.1603125 1.6796875 14.890625 C-0.1476133 4.8622242 -0.1476133 4.8622242 0 0 Z " fill="#040402" transform="translate(863,189)"/>
<path d="M0 0 C0.99 0.33 1.98 0.66 3 1 C4.56901558 6.70914065 3.19241392 10.54039245 1.25390625 15.8984375 C0.96394272 16.73339752 0.67397919 17.56835754 0.37522888 18.42861938 C-0.54956268 21.08209624 -1.49318472 23.72841635 -2.4375 26.375 C-3.06961548 28.17794551 -3.70048901 29.98132697 -4.33007812 31.78515625 C-5.87237802 36.19528363 -7.43159485 40.59909251 -9 45 C-9.66 45 -10.32 45 -11 45 C-9.48641117 38.86457361 -7.67084251 32.92981208 -5.44921875 27.01171875 C-4.99869141 25.81095703 -4.54816406 24.61019531 -4.08398438 23.37304688 C-3.38068581 21.51692885 -2.67712185 19.66085245 -1.95678711 17.8112793 C-1.2499945 15.98867389 -0.56801734 14.15650653 0.11328125 12.32421875 C0.52360596 11.25260498 0.93393066 10.18099121 1.35668945 9.0769043 C2.12613085 5.39672595 1.46403566 3.41118072 0 0 Z " fill="#080805" transform="translate(732,207)"/>
<path d="M0 0 C2.475 0.495 2.475 0.495 5 1 C5.66 3.31 6.32 5.62 7 8 C7.33 8 7.66 8 8 8 C7.67 11.63 7.34 15.26 7 19 C6.67 19 6.34 19 6 19 C5.67 16.36 5.34 13.72 5 11 C4.34 11 3.68 11 3 11 C3 12.65 3 14.3 3 16 C2.67 16 2.34 16 2 16 C0.80911014 10.61972975 -0.2919519 5.54708616 0 0 Z " fill="#21231B" transform="translate(865,191)"/>
<path d="M0 0 C1.79244141 0.01740234 1.79244141 0.01740234 3.62109375 0.03515625 C5.41740234 0.04869141 5.41740234 0.04869141 7.25 0.0625 C8.17683594 0.07410156 9.10367188 0.08570313 10.05859375 0.09765625 C10.05859375 0.42765625 10.05859375 0.75765625 10.05859375 1.09765625 C4.11859375 1.59265625 4.11859375 1.59265625 -1.94140625 2.09765625 C-1.94140625 5.39765625 -1.94140625 8.69765625 -1.94140625 12.09765625 C2.01859375 12.42765625 5.97859375 12.75765625 10.05859375 13.09765625 C10.05859375 15.40765625 10.05859375 17.71765625 10.05859375 20.09765625 C6.09859375 20.09765625 2.13859375 20.09765625 -1.94140625 20.09765625 C-1.94140625 19.76765625 -1.94140625 19.43765625 -1.94140625 19.09765625 C1.35859375 19.09765625 4.65859375 19.09765625 8.05859375 19.09765625 C8.05859375 17.77765625 8.05859375 16.45765625 8.05859375 15.09765625 C7.44371094 15.12085938 6.82882812 15.1440625 6.1953125 15.16796875 C4.98294922 15.19503906 4.98294922 15.19503906 3.74609375 15.22265625 C2.94558594 15.24585938 2.14507813 15.2690625 1.3203125 15.29296875 C-0.94140625 15.09765625 -0.94140625 15.09765625 -3.94140625 13.09765625 C-4.26953125 10.3125 -4.26953125 10.3125 -4.19140625 7.03515625 C-4.1759375 5.95105469 -4.16046875 4.86695313 -4.14453125 3.75 C-3.85908365 0.02271306 -3.78054221 0.12551601 0 0 Z " fill="#060705" transform="translate(907.94140625,194.90234375)"/>
<path d="M0 0 C2.14576637 -0.02685938 4.29162645 -0.04633088 6.4375 -0.0625 C7.63246094 -0.07410156 8.82742187 -0.08570313 10.05859375 -0.09765625 C13 0 13 0 14 1 C14.23678716 3.69235776 14.42198025 6.36498156 14.5625 9.0625 C14.60568359 9.82111328 14.64886719 10.57972656 14.69335938 11.36132812 C14.79973633 13.24065438 14.90039934 15.12030244 15 17 C13.08697693 13.73386305 12.64325339 11.00554752 12.375 7.25 C12.30023438 6.26515625 12.22546875 5.2803125 12.1484375 4.265625 C12.09945312 3.51796875 12.05046875 2.7703125 12 2 C8.7 2 5.4 2 2 2 C2.33 4.97 2.66 7.94 3 11 C0.60236815 8.60236815 0.65719414 7.66726502 0.375 4.375 C0.30023438 3.55773437 0.22546875 2.74046875 0.1484375 1.8984375 C0.09945312 1.27195312 0.05046875 0.64546875 0 0 Z " fill="#0A0A08" transform="translate(184,581)"/>
<path d="M0 0 C4.62 0 9.24 0 14 0 C14.72437834 3.62189172 15.11585593 6.23765264 15.0625 9.8125 C15.05347656 10.60269531 15.04445313 11.39289062 15.03515625 12.20703125 C15.02355469 12.79871094 15.01195312 13.39039063 15 14 C13.0210244 10.36383344 12.4748935 7.11574371 12 3 C8.7 2.67 5.4 2.34 2 2 C2.33 3.03125 2.66 4.0625 3 5.125 C3.9715192 8.48426709 4.17116771 11.49106202 4 15 C0.90742597 10.36113895 0.82599874 5.48699166 0 0 Z " fill="#060605" transform="translate(258,581)"/>
<path d="M0 0 C1.65095989 2.88273075 2.19765148 4.75801437 2 8.0625 C1.90447849 11.69828734 2.27999046 14.93495277 3 18.5 C3.99017107 23.4438823 4.16504431 27.96614846 4 33 C-0.29 33 -4.58 33 -9 33 C-9 32.67 -9 32.34 -9 32 C-5.04 32 -1.08 32 3 32 C1.68 24.41 0.36 16.82 -1 9 C-0.34 9 0.32 9 1 9 C0.67 8.34 0.34 7.68 0 7 C-0.04022391 4.6670134 -0.04320247 2.33293334 0 0 Z " fill="#25241F" transform="translate(234,494)"/>
<path d="M0 0 C4.29 0 8.58 0 13 0 C12.39700836 7.23589973 10.8849413 13.99370876 9 21 C8.67 21 8.34 21 8 21 C8.51553879 14.50149789 9.46667709 8.33773468 11 2 C7.37 2.33 3.74 2.66 0 3 C0 2.01 0 1.02 0 0 Z " fill="#060605" transform="translate(217,581)"/>
<path d="M0 0 C4.29 0 8.58 0 13 0 C12.67 1.32 12.34 2.64 12 4 C12 3.34 12 2.68 12 2 C8.7 2 5.4 2 2 2 C2.99 7.94 3.98 13.88 5 20 C4.34 20 3.68 20 3 20 C2.49395076 17.60530271 1.99500483 15.20948283 1.5 12.8125 C1.28537109 11.80219727 1.28537109 11.80219727 1.06640625 10.77148438 C0.30028186 7.03206773 0 3.85912726 0 0 Z " fill="#070805" transform="translate(64,373)"/>
<path d="M0 0 C5.94 0 11.88 0 18 0 C18 0.99 18 1.98 18 3 C12.06 3 6.12 3 0 3 C-0.33 3.66 -0.66 4.32 -1 5 C-0.67 3.35 -0.34 1.7 0 0 Z " fill="#2B2B26" transform="translate(222,535)"/>
<path d="M0 0 C4.29 0 8.58 0 13 0 C13.33 2.97 13.66 5.94 14 9 C11 6 11 6 10 4 C7.67843403 3.59270772 5.3431213 3.25561323 3 3 C3 5.64 3 8.28 3 11 C2.67 11 2.34 11 2 11 C2 8.03 2 5.06 2 2 C1.34 2 0.68 2 0 2 C0 1.34 0 0.68 0 0 Z " fill="#292823" transform="translate(488,532)"/>
<path d="M0 0 C1.79244141 0.01740234 1.79244141 0.01740234 3.62109375 0.03515625 C5.41740234 0.04869141 5.41740234 0.04869141 7.25 0.0625 C8.17683594 0.07410156 9.10367188 0.08570313 10.05859375 0.09765625 C9.94449782 1.55688318 9.81693831 3.01506223 9.68359375 4.47265625 C9.61398438 5.28476562 9.544375 6.096875 9.47265625 6.93359375 C9.05859375 9.09765625 9.05859375 9.09765625 7.05859375 11.09765625 C7.38859375 8.12765625 7.71859375 5.15765625 8.05859375 2.09765625 C4.75859375 2.09765625 1.45859375 2.09765625 -1.94140625 2.09765625 C-2.27140625 4.07765625 -2.60140625 6.05765625 -2.94140625 8.09765625 C-3.27140625 8.09765625 -3.60140625 8.09765625 -3.94140625 8.09765625 C-3.98382348 5.7647085 -3.98233562 3.43063058 -3.94140625 1.09765625 C-2.94140625 0.09765625 -2.94140625 0.09765625 0 0 Z " fill="#080906" transform="translate(99.94140625,372.90234375)"/>
<path d="M0 0 C4.82380802 -0.0246519 9.64757967 -0.04283693 14.47143555 -0.05493164 C16.11369464 -0.05997174 17.75594923 -0.06680378 19.39819336 -0.07543945 C21.75375479 -0.08751926 24.10925709 -0.09323139 26.46484375 -0.09765625 C27.20339096 -0.10281754 27.94193817 -0.10797882 28.7028656 -0.11329651 C30.46898088 -0.1134925 32.23497146 -0.06194719 34 0 C35 1 35 1 35.0625 4.0625 C35.041875 5.031875 35.02125 6.00125 35 7 C34.34 7 33.68 7 33 7 C32.505 4.03 32.505 4.03 32 1 C21.44 1 10.88 1 0 1 C0 0.67 0 0.34 0 0 Z " fill="#FDFDFC" transform="translate(712,289)"/>
<path d="M0 0 C5.61 0 11.22 0 17 0 C16.67 1.32 16.34 2.64 16 4 C16 3.34 16 2.68 16 2 C11.38 2.33 6.76 2.66 2 3 C1.34 5.64 0.68 8.28 0 11 C-0.33 11 -0.66 11 -1 11 C-0.67 7.37 -0.34 3.74 0 0 Z " fill="#070705" transform="translate(222,477)"/>
<path d="M0 0 C4.29 0 8.58 0 13 0 C14.07396066 4.29584263 14.07329796 7.60212211 14 12 C11.90649311 8.5980513 11.82057837 5.94727588 12 2 C8.7 2 5.4 2 2 2 C2 3.98 2 5.96 2 8 C0 5 0 5 0 0 Z " fill="#040403" transform="translate(64,477)"/>
<path d="M0 0 C1.98 0.99 1.98 0.99 4 2 C3.34 2 2.68 2 2 2 C2 16.19 2 30.38 2 45 C1.67 45 1.34 45 1 45 C0.67 30.15 0.34 15.3 0 0 Z " fill="#090B06" transform="translate(849,189)"/>
<path d="M0 0 C1.79244141 0.01740234 1.79244141 0.01740234 3.62109375 0.03515625 C5.41740234 0.04869141 5.41740234 0.04869141 7.25 0.0625 C8.17683594 0.07410156 9.10367187 0.08570313 10.05859375 0.09765625 C9.72859375 0.75765625 9.39859375 1.41765625 9.05859375 2.09765625 C5.42859375 2.09765625 1.79859375 2.09765625 -1.94140625 2.09765625 C-2.06515625 3.66515625 -2.18890625 5.23265625 -2.31640625 6.84765625 C-2.59849907 10.42083197 -3.14864759 12.97854769 -4.94140625 16.09765625 C-4.80116406 13.61805489 -4.65448775 11.13913223 -4.50390625 8.66015625 C-4.46458984 7.95310547 -4.42527344 7.24605469 -4.38476562 6.51757812 C-3.98760084 0.13239047 -3.98760084 0.13239047 0 0 Z " fill="#080806" transform="translate(293.94140625,580.90234375)"/>
<path d="M0 0 C2.14576637 -0.02685938 4.29162645 -0.04633088 6.4375 -0.0625 C7.63246094 -0.07410156 8.82742188 -0.08570313 10.05859375 -0.09765625 C13 0 13 0 14 1 C14.04092937 3.33297433 14.04241723 5.66705225 14 8 C13.01 8 12.02 8 11 8 C11 6.35 11 4.7 11 3 C7.37 3 3.74 3 0 3 C0 2.01 0 1.02 0 0 Z " fill="#272720" transform="translate(829,227)"/>
<path d="M0 0 C4.37863547 0.75522976 8.54011899 2.04637362 12.75 3.4375 C13.43449219 3.65470703 14.11898437 3.87191406 14.82421875 4.09570312 C16.57010222 4.67132609 18.28816247 5.32987824 20 6 C20.33 6.66 20.66 7.32 21 8 C13.78069368 6.55613874 6.94889267 4.42211826 0 2 C0 1.34 0 0.68 0 0 Z " fill="#141311" transform="translate(684,202)"/>
<path d="M0 0 C0.66 0.33 1.32 0.66 2 1 C1.01 1.99 0.02 2.98 -1 4 C-0.67 2.68 -0.34 1.36 0 0 Z M-5 6 C-4.01 6.495 -4.01 6.495 -3 7 C-2.62761282 9.32741989 -2.30163134 11.66235715 -2 14 C-1.41025371 16.36355684 -0.71347185 18.66932529 0 21 C-0.99 21.495 -0.99 21.495 -2 22 C-2.50806447 20.27318563 -3.00610467 18.54342021 -3.5 16.8125 C-3.91765625 15.36810547 -3.91765625 15.36810547 -4.34375 13.89453125 C-4.96677608 11.14654124 -5.12302812 8.80401584 -5 6 Z " fill="#EDECEA" transform="translate(202,411)"/>
<path d="M0 0 C0.33 0 0.66 0 1 0 C1.08159574 4.16138263 0.98248524 7.9472484 0 12 C-0.33 12 -0.66 12 -1 12 C-1.33 8.7 -1.66 5.4 -2 2 C-4.64 2 -7.28 2 -10 2 C-10.33 2.66 -10.66 3.32 -11 4 C-11 3.01 -11 2.02 -11 1 C-10.28972656 1.01160156 -9.57945313 1.02320313 -8.84765625 1.03515625 C-7.92855469 1.04417969 -7.00945312 1.05320312 -6.0625 1.0625 C-4.68771484 1.07990234 -4.68771484 1.07990234 -3.28515625 1.09765625 C-1.03406673 1.25949049 -1.03406673 1.25949049 0 0 Z " fill="#24251F" transform="translate(77,374)"/>
<path d="M0 0 C0.33 0.66 0.66 1.32 1 2 C1.66 2 2.32 2 3 2 C3 2.66 3 3.32 3 4 C2.34 4 1.68 4 1 4 C0.67 5.98 0.34 7.96 0 10 C-0.33 8.68 -0.66 7.36 -1 6 C-1.66 6 -2.32 6 -3 6 C-3.33 6.66 -3.66 7.32 -4 8 C-4 7.34 -4 6.68 -4 6 C-4.66 6 -5.32 6 -6 6 C-5.67 5.01 -5.34 4.02 -5 3 C-3.35 3.33 -1.7 3.66 0 4 C0 2.68 0 1.36 0 0 Z " fill="#24251F" transform="translate(886,202)"/>
<path d="M0 0 C0.66 0 1.32 0 2 0 C2.66 3.96 3.32 7.92 4 12 C3.01 12.33 2.02 12.66 1 13 C0.67 8.71 0.34 4.42 0 0 Z " fill="#EEEDE9" transform="translate(71,525)"/>
<path d="M0 0 C0.66 0 1.32 0 2 0 C2 0.99 2 1.98 2 3 C1.34 3 0.68 3 0 3 C-0.33 3.99 -0.66 4.98 -1 6 C-1.33 5.34 -1.66 4.68 -2 4 C-1.0625 1.875 -1.0625 1.875 0 0 Z M-4 7 C-3.67 7.99 -3.34 8.98 -3 10 C-4.3125 11.5 -4.3125 11.5 -6 13 C-6.99 13 -7.98 13 -9 13 C-9 12.34 -9 11.68 -9 11 C-7.37373596 9.61767557 -5.7074998 8.28062485 -4 7 Z " fill="#F3F3F0" transform="translate(958,496)"/>
<path d="M0 0 C0.99 0.33 1.98 0.66 3 1 C3.13277344 1.69867188 3.26554687 2.39734375 3.40234375 3.1171875 C3.57894531 4.02726562 3.75554687 4.93734375 3.9375 5.875 C4.19853516 7.23238281 4.19853516 7.23238281 4.46484375 8.6171875 C4.89963701 10.99956317 4.89963701 10.99956317 6 13 C5.01 12.67 4.02 12.34 3 12 C3 11.34 3 10.68 3 10 C2.01 9.67 1.02 9.34 0 9 C0 6.03 0 3.06 0 0 Z " fill="#22221C" transform="translate(499,491)"/>
<path d="M0 0 C2.31 0 4.62 0 7 0 C7 3.96 7 7.92 7 12 C6.67 12 6.34 12 6 12 C5.67 9.03 5.34 6.06 5 3 C2.03 2.505 2.03 2.505 -1 2 C-0.67 1.34 -0.34 0.68 0 0 Z " fill="#0A0907" transform="translate(475,543)"/>
<path d="M0 0 C0.99 0.33 1.98 0.66 3 1 C3.3721042 2.32303717 3.70630173 3.65737935 4 5 C4.66 5.33 5.32 5.66 6 6 C6 6.66 6 7.32 6 8 C6.99 8.33 7.98 8.66 9 9 C7.02 9 5.04 9 3 9 C2.67 7.68 2.34 6.36 2 5 C1.34 5 0.68 5 0 5 C0 3.35 0 1.7 0 0 Z " fill="#22231D" transform="translate(591,291)"/>
<path d="M0 0 C0.66 0 1.32 0 2 0 C1.979375 0.928125 1.95875 1.85625 1.9375 2.8125 C1.84230396 6.02286011 1.84230396 6.02286011 3 9 C1.35 9 -0.3 9 -2 9 C-1.34 6.03 -0.68 3.06 0 0 Z " fill="#F4F3F1" transform="translate(620,285)"/>
<path d="M0 0 C1.25955231 3.77865693 0.48087189 5.03411786 -0.9375 8.6875 C-1.31777344 9.68136719 -1.69804688 10.67523438 -2.08984375 11.69921875 C-2.39019531 12.45847656 -2.69054687 13.21773438 -3 14 C-3.33 14 -3.66 14 -4 14 C-3.66009167 8.62007164 -3.31442207 4.46726453 0 0 Z " fill="#131411" transform="translate(707,263)"/>
<path d="M0 0 C2.73370045 2.36092311 3.91097645 4.56538728 5 8 C5 9.32 5 10.64 5 12 C4.34 12 3.68 12 3 12 C2.49440092 10.56445975 1.9957251 9.1264798 1.5 7.6875 C1.2215625 6.88699219 0.943125 6.08648438 0.65625 5.26171875 C0 3 0 3 0 0 Z " fill="#F1F0ED" transform="translate(128,584)"/>
<path d="M0 0 C3.77991191 1.71814178 5.24974616 3.14944154 7 7 C7.1875 10.3125 7.1875 10.3125 7 13 C6.72414062 12.43796875 6.44828125 11.8759375 6.1640625 11.296875 C4.95631972 8.91381206 3.67823191 6.5820992 2.375 4.25 C1.92898437 3.45078125 1.48296875 2.6515625 1.0234375 1.828125 C0.68570313 1.22484375 0.34796875 0.6215625 0 0 Z " fill="#090806" transform="translate(151,480)"/>
<path d="M0 0 C2.97 0.495 2.97 0.495 6 1 C4.68 1.33 3.36 1.66 2 2 C2.33 4.64 2.66 7.28 3 10 C2.01 10.495 2.01 10.495 1 11 C0.67 7.37 0.34 3.74 0 0 Z " fill="#0A0A08" transform="translate(863,189)"/>
<path d="M0 0 C2.86724686 0.57344937 3.8614515 0.8614515 6 3 C6.39764263 4.98821313 6.73775349 6.98944339 7 9 C3.33128986 6.55419324 1.93787866 3.87575732 0 0 Z " fill="#F3F2EF" transform="translate(333,592)"/>
<path d="M0 0 C-0.33 3.96 -0.66 7.92 -1 12 C-1.33 12 -1.66 12 -2 12 C-2.33 8.37 -2.66 4.74 -3 1 C-1 0 -1 0 0 0 Z " fill="#23231D" transform="translate(276,605)"/>
<path d="M0 0 C1.4540625 0.0309375 1.4540625 0.0309375 2.9375 0.0625 C2.9375 1.0525 2.9375 2.0425 2.9375 3.0625 C-0.6925 3.0625 -4.3225 3.0625 -8.0625 3.0625 C-6.7425 2.4025 -5.4225 1.7425 -4.0625 1.0625 C-3.0625 0.0625 -3.0625 0.0625 0 0 Z " fill="#292B23" transform="translate(188.0625,372.9375)"/>
<path d="M0 0 C1.45606519 4.52092968 0.27032841 7.51648796 -1 12 C-1.99 11.67 -2.98 11.34 -4 11 C-4 10.34 -4 9.68 -4 9 C-3.34 8.67 -2.68 8.34 -2 8 C-1.31527335 6.11235097 -1.31527335 6.11235097 -0.875 3.9375 C-0.70742187 3.20402344 -0.53984375 2.47054687 -0.3671875 1.71484375 C-0.24601563 1.14894531 -0.12484375 0.58304688 0 0 Z " fill="#23241E" transform="translate(212,535)"/>
<path d="M0 0 C0.33 0 0.66 0 1 0 C0.979375 0.7425 0.95875 1.485 0.9375 2.25 C0.99328688 4.70462279 1.3069904 6.66109261 2 9 C1.01 9.33 0.02 9.66 -1 10 C-1.33 7.69 -1.66 5.38 -2 3 C-1.34 3 -0.68 3 0 3 C0 2.01 0 1.02 0 0 Z " fill="#282822" transform="translate(69,390)"/>
<path d="M0 0 C0.99 0.99 1.98 1.98 3 3 C2.67 3.66 2.34 4.32 2 5 C2.39938767 7.09821215 2.39938767 7.09821215 3 9 C0.11749016 6.61879622 -0.61038985 4.70129644 -1 1 C-0.67 0.67 -0.34 0.34 0 0 Z " fill="#23241D" transform="translate(784,288)"/>
</svg>
