<?xml version="1.0" encoding="UTF-8"?>
<svg version="1.1" xmlns="http://www.w3.org/2000/svg" width="640" height="541">
<path d="M0 0 C211.2 0 422.4 0 640 0 C640 178.53 640 357.06 640 541 C428.8 541 217.6 541 0 541 C0 362.47 0 183.94 0 0 Z " fill="#FEFEFE" transform="translate(0,0)"/>
<path d="M0 0 C0.75474609 -0.00386719 1.50949219 -0.00773438 2.28710938 -0.01171875 C5.84074793 -0.00545683 9.01996808 0.16704464 12.4375 1.125 C12.4375 1.785 12.4375 2.445 12.4375 3.125 C14.0875 3.125 15.7375 3.125 17.4375 3.125 C17.9325 4.115 17.9325 4.115 18.4375 5.125 C19.4275 5.455 20.4175 5.785 21.4375 6.125 C21.4375 6.785 21.4375 7.445 21.4375 8.125 C22.5821875 8.2796875 22.5821875 8.2796875 23.75 8.4375 C26.69501284 9.19087538 27.68959356 9.67793098 29.4375 12.125 C30.125 14.8125 30.125 14.8125 30.4375 17.125 C31.0975 17.125 31.7575 17.125 32.4375 17.125 C32.4375 18.115 32.4375 19.105 32.4375 20.125 C33.9225 20.62 33.9225 20.62 35.4375 21.125 C35.4375 22.775 35.4375 24.425 35.4375 26.125 C36.0975 26.125 36.7575 26.125 37.4375 26.125 C38.36115499 28.89596497 38.56603885 30.57360673 38.5703125 33.43359375 C38.57160156 34.26310547 38.57289063 35.09261719 38.57421875 35.94726562 C38.57035156 36.81029297 38.56648438 37.67332031 38.5625 38.5625 C38.56636719 39.42166016 38.57023437 40.28082031 38.57421875 41.16601562 C38.57292969 41.99681641 38.57164062 42.82761719 38.5703125 43.68359375 C38.56918457 44.43954834 38.56805664 45.19550293 38.56689453 45.97436523 C38.43664453 48.13921854 38.03164783 50.04371253 37.4375 52.125 C36.7775 52.125 36.1175 52.125 35.4375 52.125 C35.4375 53.775 35.4375 55.425 35.4375 57.125 C33.9525 57.62 33.9525 57.62 32.4375 58.125 C32.4375 59.115 32.4375 60.105 32.4375 61.125 C31.7775 61.125 31.1175 61.125 30.4375 61.125 C30.1075 62.445 29.7775 63.765 29.4375 65.125 C28.7775 65.125 28.1175 65.125 27.4375 65.125 C27.4375 66.115 27.4375 67.105 27.4375 68.125 C25.9525 68.62 25.9525 68.62 24.4375 69.125 C23.9425 69.640625 23.4475 70.15625 22.9375 70.6875 C21.4375 72.125 21.4375 72.125 18.4375 72.125 C18.4375 72.785 18.4375 73.445 18.4375 74.125 C14.9725 74.62 14.9725 74.62 11.4375 75.125 C11.4375 75.785 11.4375 76.445 11.4375 77.125 C7.75089303 78.35386899 4.33687025 78.27060987 0.5 78.25 C-0.21607422 78.25386719 -0.93214844 78.25773437 -1.66992188 78.26171875 C-5.10428156 78.25535293 -8.28114926 78.20450442 -11.5625 77.125 C-11.5625 76.465 -11.5625 75.805 -11.5625 75.125 C-13.5115625 74.939375 -13.5115625 74.939375 -15.5 74.75 C-17.71484375 74.5390625 -17.71484375 74.5390625 -19.5625 74.125 C-20.0575 73.135 -20.0575 73.135 -20.5625 72.125 C-22.0475 71.63 -22.0475 71.63 -23.5625 71.125 C-23.5625 70.465 -23.5625 69.805 -23.5625 69.125 C-24.42875 69.0321875 -24.42875 69.0321875 -25.3125 68.9375 C-28.50960041 67.78299152 -29.7061532 65.90952021 -31.5625 63.125 C-31.5625 62.135 -31.5625 61.145 -31.5625 60.125 C-32.2225 60.125 -32.8825 60.125 -33.5625 60.125 C-33.8925 58.475 -34.2225 56.825 -34.5625 55.125 C-35.2225 55.125 -35.8825 55.125 -36.5625 55.125 C-36.8925 52.155 -37.2225 49.185 -37.5625 46.125 C-38.2225 46.125 -38.8825 46.125 -39.5625 46.125 C-39.5625 41.505 -39.5625 36.885 -39.5625 32.125 C-38.9025 32.125 -38.2425 32.125 -37.5625 32.125 C-37.0675 27.67 -37.0675 27.67 -36.5625 23.125 C-35.9025 23.125 -35.2425 23.125 -34.5625 23.125 C-34.2325 21.145 -33.9025 19.165 -33.5625 17.125 C-32.9025 17.125 -32.2425 17.125 -31.5625 17.125 C-31.2325 16.135 -30.9025 15.145 -30.5625 14.125 C-29.9025 14.125 -29.2425 14.125 -28.5625 14.125 C-28.2325 13.135 -27.9025 12.145 -27.5625 11.125 C-26.9025 11.125 -26.2425 11.125 -25.5625 11.125 C-25.5625 10.465 -25.5625 9.805 -25.5625 9.125 C-23.68180017 6.5129169 -22.58714205 6.13031495 -19.375 5.4375 C-17.9828125 5.2828125 -17.9828125 5.2828125 -16.5625 5.125 C-16.5625 4.465 -16.5625 3.805 -16.5625 3.125 C-15.5725 3.125 -14.5825 3.125 -13.5625 3.125 C-13.5625 2.465 -13.5625 1.805 -13.5625 1.125 C-9.01714898 -0.01359688 -4.65162004 -0.02395684 0 0 Z " fill="#3168BD" transform="translate(347.5625,159.875)"/>
<path d="M0 0 C0.75087891 -0.00386719 1.50175781 -0.00773438 2.27539062 -0.01171875 C6.17114317 -0.00486606 9.7579934 0.17198244 13.5625 1.125 C13.5625 1.785 13.5625 2.445 13.5625 3.125 C14.5525 3.125 15.5425 3.125 16.5625 3.125 C16.5625 3.785 16.5625 4.445 16.5625 5.125 C17.8825 5.455 19.2025 5.785 20.5625 6.125 C20.5625 6.785 20.5625 7.445 20.5625 8.125 C21.305 8.186875 22.0475 8.24875 22.8125 8.3125 C26.39377761 9.37060475 27.41107871 11.15752236 29.5625 14.125 C30.5525 14.62 30.5525 14.62 31.5625 15.125 C32.1875 17.6875 32.1875 17.6875 32.5625 20.125 C33.2225 20.125 33.8825 20.125 34.5625 20.125 C35.0575 24.085 35.0575 24.085 35.5625 28.125 C36.2225 28.125 36.8825 28.125 37.5625 28.125 C37.5625 35.715 37.5625 43.305 37.5625 51.125 C36.9025 51.125 36.2425 51.125 35.5625 51.125 C35.2325 53.435 34.9025 55.745 34.5625 58.125 C33.9025 58.125 33.2425 58.125 32.5625 58.125 C32.2325 59.775 31.9025 61.425 31.5625 63.125 C30.9025 63.125 30.2425 63.125 29.5625 63.125 C29.2325 64.115 28.9025 65.105 28.5625 66.125 C27.9025 66.125 27.2425 66.125 26.5625 66.125 C26.0675 67.61 26.0675 67.61 25.5625 69.125 C24.9025 69.125 24.2425 69.125 23.5625 69.125 C23.5625 69.785 23.5625 70.445 23.5625 71.125 C22.5725 71.455 21.5825 71.785 20.5625 72.125 C20.2325 72.785 19.9025 73.445 19.5625 74.125 C16.91389573 74.71855614 14.27052678 74.86709269 11.5625 75.125 C11.5625 75.785 11.5625 76.445 11.5625 77.125 C7.33503729 78.15132043 3.34253557 78.2586247 -1 78.25 C-2.30066406 78.25257813 -3.60132813 78.25515625 -4.94140625 78.2578125 C-7.67981935 78.1537834 -9.85382549 77.95335366 -12.4375 77.125 C-12.4375 76.465 -12.4375 75.805 -12.4375 75.125 C-14.4175 74.795 -16.3975 74.465 -18.4375 74.125 C-18.4375 73.465 -18.4375 72.805 -18.4375 72.125 C-20.0875 71.795 -21.7375 71.465 -23.4375 71.125 C-23.4375 70.465 -23.4375 69.805 -23.4375 69.125 C-25.0875 68.795 -26.7375 68.465 -28.4375 68.125 C-28.9325 65.65 -28.9325 65.65 -29.4375 63.125 C-30.0975 63.125 -30.7575 63.125 -31.4375 63.125 C-34.0495831 61.24430017 -34.43218505 60.14964205 -35.125 56.9375 C-35.2796875 55.5453125 -35.2796875 55.5453125 -35.4375 54.125 C-36.0975 54.125 -36.7575 54.125 -37.4375 54.125 C-38.51959479 48.86052299 -38.5870458 43.7843945 -38.5625 38.4375 C-38.56636719 37.58349609 -38.57023438 36.72949219 -38.57421875 35.84960938 C-38.57292969 35.02912109 -38.57164062 34.20863281 -38.5703125 33.36328125 C-38.56918457 32.62118408 -38.56805664 31.87908691 -38.56689453 31.11450195 C-38.4375 29.125 -38.4375 29.125 -37.4375 26.125 C-36.7775 26.125 -36.1175 26.125 -35.4375 26.125 C-35.31375 24.825625 -35.19 23.52625 -35.0625 22.1875 C-34.8515625 19.97265625 -34.8515625 19.97265625 -34.4375 18.125 C-33.7775 17.795 -33.1175 17.465 -32.4375 17.125 C-32.1075 16.135 -31.7775 15.145 -31.4375 14.125 C-30.7775 14.125 -30.1175 14.125 -29.4375 14.125 C-29.1075 13.135 -28.7775 12.145 -28.4375 11.125 C-27.7775 11.125 -27.1175 11.125 -26.4375 11.125 C-26.4375 10.465 -26.4375 9.805 -26.4375 9.125 C-25.4475 8.795 -24.4575 8.465 -23.4375 8.125 C-23.1075 7.465 -22.7775 6.805 -22.4375 6.125 C-20.4375 5.625 -20.4375 5.625 -18.4375 5.125 C-18.1075 4.465 -17.7775 3.805 -17.4375 3.125 C-15.7875 3.125 -14.1375 3.125 -12.4375 3.125 C-12.4375 2.465 -12.4375 1.805 -12.4375 1.125 C-8.29284837 -0.03677152 -4.27544638 -0.02190664 0 0 Z " fill="#3068BC" transform="translate(197.4375,159.875)"/>
<path d="M0 0 C1.44439453 -0.00193359 1.44439453 -0.00193359 2.91796875 -0.00390625 C3.91183594 -0.00003906 4.90570313 0.00382812 5.9296875 0.0078125 C7.43208984 0.00201172 7.43208984 0.00201172 8.96484375 -0.00390625 C9.92519531 -0.00261719 10.88554688 -0.00132812 11.875 0 C12.74914551 0.00112793 13.62329102 0.00225586 14.52392578 0.00341797 C16.8046875 0.1328125 16.8046875 0.1328125 19.8046875 1.1328125 C19.8046875 1.7928125 19.8046875 2.4528125 19.8046875 3.1328125 C22.2796875 3.6278125 22.2796875 3.6278125 24.8046875 4.1328125 C24.8046875 4.7928125 24.8046875 5.4528125 24.8046875 6.1328125 C27.2796875 6.6278125 27.2796875 6.6278125 29.8046875 7.1328125 C29.959375 8.091875 29.959375 8.091875 30.1171875 9.0703125 C30.3440625 9.7509375 30.5709375 10.4315625 30.8046875 11.1328125 C31.7946875 11.4628125 32.7846875 11.7928125 33.8046875 12.1328125 C33.8046875 12.7928125 33.8046875 13.4528125 33.8046875 14.1328125 C34.7946875 14.4628125 35.7846875 14.7928125 36.8046875 15.1328125 C36.8046875 16.1228125 36.8046875 17.1128125 36.8046875 18.1328125 C37.4646875 18.1328125 38.1246875 18.1328125 38.8046875 18.1328125 C39.2996875 21.1028125 39.2996875 21.1028125 39.8046875 24.1328125 C40.4646875 24.1328125 41.1246875 24.1328125 41.8046875 24.1328125 C43.21207661 32.92899441 43.87414863 42.41151203 41.8046875 51.1328125 C41.1446875 51.1328125 40.4846875 51.1328125 39.8046875 51.1328125 C39.4746875 53.4428125 39.1446875 55.7528125 38.8046875 58.1328125 C38.1446875 58.1328125 37.4846875 58.1328125 36.8046875 58.1328125 C36.711875 59.2465625 36.711875 59.2465625 36.6171875 60.3828125 C35.55908275 63.96409011 33.77216514 64.98139121 30.8046875 67.1328125 C30.4746875 67.7928125 30.1446875 68.4528125 29.8046875 69.1328125 C28.8146875 69.1328125 27.8246875 69.1328125 26.8046875 69.1328125 C26.8046875 69.7928125 26.8046875 70.4528125 26.8046875 71.1328125 C24.3296875 71.6278125 24.3296875 71.6278125 21.8046875 72.1328125 C21.8046875 72.7928125 21.8046875 73.4528125 21.8046875 74.1328125 C18.84804231 75.6111351 16.06239013 75.19314033 12.8046875 75.1328125 C12.8046875 75.7928125 12.8046875 76.4528125 12.8046875 77.1328125 C7.1946875 77.1328125 1.5846875 77.1328125 -4.1953125 77.1328125 C-4.1953125 76.4728125 -4.1953125 75.8128125 -4.1953125 75.1328125 C-7.1653125 74.8028125 -10.1353125 74.4728125 -13.1953125 74.1328125 C-13.1953125 73.4728125 -13.1953125 72.8128125 -13.1953125 72.1328125 C-14.8453125 71.8028125 -16.4953125 71.4728125 -18.1953125 71.1328125 C-18.2984375 70.4934375 -18.4015625 69.8540625 -18.5078125 69.1953125 C-18.7346875 68.5146875 -18.9615625 67.8340625 -19.1953125 67.1328125 C-20.1853125 66.8028125 -21.1753125 66.4728125 -22.1953125 66.1328125 C-22.1953125 65.4728125 -22.1953125 64.8128125 -22.1953125 64.1328125 C-23.1853125 63.8028125 -24.1753125 63.4728125 -25.1953125 63.1328125 C-25.1953125 62.4728125 -25.1953125 61.8128125 -25.1953125 61.1328125 C-26.1853125 60.8028125 -27.1753125 60.4728125 -28.1953125 60.1328125 C-28.1953125 59.1428125 -28.1953125 58.1528125 -28.1953125 57.1328125 C-28.8553125 57.1328125 -29.5153125 57.1328125 -30.1953125 57.1328125 C-30.5253125 54.4928125 -30.8553125 51.8528125 -31.1953125 49.1328125 C-31.8553125 49.1328125 -32.5153125 49.1328125 -33.1953125 49.1328125 C-33.1953125 41.5428125 -33.1953125 33.9528125 -33.1953125 26.1328125 C-32.5353125 26.1328125 -31.8753125 26.1328125 -31.1953125 26.1328125 C-30.8653125 24.1528125 -30.5353125 22.1728125 -30.1953125 20.1328125 C-29.5353125 20.1328125 -28.8753125 20.1328125 -28.1953125 20.1328125 C-27.8653125 18.4828125 -27.5353125 16.8328125 -27.1953125 15.1328125 C-26.5353125 15.1328125 -25.8753125 15.1328125 -25.1953125 15.1328125 C-24.8653125 13.8128125 -24.5353125 12.4928125 -24.1953125 11.1328125 C-23.5353125 11.1328125 -22.8753125 11.1328125 -22.1953125 11.1328125 C-21.8653125 9.8128125 -21.5353125 8.4928125 -21.1953125 7.1328125 C-19.5453125 6.8028125 -17.8953125 6.4728125 -16.1953125 6.1328125 C-16.1953125 5.4728125 -16.1953125 4.8128125 -16.1953125 4.1328125 C-14.2153125 3.8028125 -12.2353125 3.4728125 -10.1953125 3.1328125 C-10.1953125 2.4728125 -10.1953125 1.8128125 -10.1953125 1.1328125 C-6.7381318 0.35135774 -3.54188952 0.00455842 0 0 Z " fill="#2F67BC" transform="translate(503.1953125,293.8671875)"/>
<path d="M0 0 C0.83273437 -0.00386719 1.66546875 -0.00773437 2.5234375 -0.01171875 C6.60405986 -0.00522094 10.39486352 0.10153633 14.375 1.125 C14.375 1.785 14.375 2.445 14.375 3.125 C16.355 3.455 18.335 3.785 20.375 4.125 C20.375 4.785 20.375 5.445 20.375 6.125 C22.85 6.62 22.85 6.62 25.375 7.125 C25.478125 7.764375 25.58125 8.40375 25.6875 9.0625 C25.914375 9.743125 26.14125 10.42375 26.375 11.125 C27.365 11.455 28.355 11.785 29.375 12.125 C29.375 13.115 29.375 14.105 29.375 15.125 C30.035 15.125 30.695 15.125 31.375 15.125 C31.87 17.6 31.87 17.6 32.375 20.125 C33.035 20.125 33.695 20.125 34.375 20.125 C34.87 23.095 34.87 23.095 35.375 26.125 C36.035 26.125 36.695 26.125 37.375 26.125 C37.375 28.105 37.375 30.085 37.375 32.125 C32.755 32.125 28.135 32.125 23.375 32.125 C23.375 32.785 23.375 33.445 23.375 34.125 C19.745 34.125 16.115 34.125 12.375 34.125 C11.88 30.66 11.88 30.66 11.375 27.125 C10.715 27.125 10.055 27.125 9.375 27.125 C9.375 26.135 9.375 25.145 9.375 24.125 C8.055 23.795 6.735 23.465 5.375 23.125 C5.375 22.465 5.375 21.805 5.375 21.125 C1.415 21.125 -2.545 21.125 -6.625 21.125 C-6.625 21.785 -6.625 22.445 -6.625 23.125 C-8.275 23.455 -9.925 23.785 -11.625 24.125 C-11.625 24.785 -11.625 25.445 -11.625 26.125 C-12.285 26.455 -12.945 26.785 -13.625 27.125 C-14.27713292 29.14963255 -14.27713292 29.14963255 -14.625 31.125 C-15.285 31.125 -15.945 31.125 -16.625 31.125 C-16.625 36.075 -16.625 41.025 -16.625 46.125 C-15.965 46.125 -15.305 46.125 -14.625 46.125 C-14.295 47.775 -13.965 49.425 -13.625 51.125 C-11.975 51.455 -10.325 51.785 -8.625 52.125 C-8.625 52.785 -8.625 53.445 -8.625 54.125 C-3.675 54.125 1.275 54.125 6.375 54.125 C6.375 53.465 6.375 52.805 6.375 52.125 C7.75 50.5 7.75 50.5 9.375 49.125 C10.035 49.125 10.695 49.125 11.375 49.125 C11.705 47.475 12.035 45.825 12.375 44.125 C13.035 44.125 13.695 44.125 14.375 44.125 C14.375 42.145 14.375 40.165 14.375 38.125 C21.965 38.125 29.555 38.125 37.375 38.125 C37.375 39.775 37.375 41.425 37.375 43.125 C36.715 43.125 36.055 43.125 35.375 43.125 C35.395625 44.3625 35.41625 45.6 35.4375 46.875 C35.44266681 49.7890825 35.30515558 52.33453327 34.375 55.125 C33.715 55.125 33.055 55.125 32.375 55.125 C32.045 57.105 31.715 59.085 31.375 61.125 C30.715 61.125 30.055 61.125 29.375 61.125 C29.045 62.115 28.715 63.105 28.375 64.125 C27.715 64.125 27.055 64.125 26.375 64.125 C25.88 65.61 25.88 65.61 25.375 67.125 C24.715 67.125 24.055 67.125 23.375 67.125 C22.88 69.105 22.88 69.105 22.375 71.125 C19.9 71.62 19.9 71.62 17.375 72.125 C17.375 72.785 17.375 73.445 17.375 74.125 C12.92 74.62 12.92 74.62 8.375 75.125 C8.375 75.785 8.375 76.445 8.375 77.125 C1.775 77.125 -4.825 77.125 -11.625 77.125 C-11.625 76.465 -11.625 75.805 -11.625 75.125 C-14.265 74.795 -16.905 74.465 -19.625 74.125 C-19.625 73.465 -19.625 72.805 -19.625 72.125 C-20.945 71.795 -22.265 71.465 -23.625 71.125 C-23.625 70.465 -23.625 69.805 -23.625 69.125 C-24.285 69.125 -24.945 69.125 -25.625 69.125 C-25.625 68.465 -25.625 67.805 -25.625 67.125 C-26.945 66.795 -28.265 66.465 -29.625 66.125 C-29.625 65.135 -29.625 64.145 -29.625 63.125 C-30.285 63.125 -30.945 63.125 -31.625 63.125 C-34.2370831 61.24430017 -34.61968505 60.14964205 -35.3125 56.9375 C-35.4671875 55.5453125 -35.4671875 55.5453125 -35.625 54.125 C-36.285 54.125 -36.945 54.125 -37.625 54.125 C-38.53523767 48.70691865 -38.7773077 43.48884757 -38.75 38 C-38.75386719 37.21496094 -38.75773437 36.42992187 -38.76171875 35.62109375 C-38.75503252 31.65616038 -38.60423946 27.99532739 -37.625 24.125 C-36.965 24.125 -36.305 24.125 -35.625 24.125 C-35.295 21.815 -34.965 19.505 -34.625 17.125 C-33.965 17.125 -33.305 17.125 -32.625 17.125 C-32.295 16.135 -31.965 15.145 -31.625 14.125 C-30.965 14.125 -30.305 14.125 -29.625 14.125 C-29.295 12.475 -28.965 10.825 -28.625 9.125 C-27.635 9.125 -26.645 9.125 -25.625 9.125 C-25.625 8.465 -25.625 7.805 -25.625 7.125 C-23.74430017 4.5129169 -22.64964205 4.13031495 -19.4375 3.4375 C-18.0453125 3.2828125 -18.0453125 3.2828125 -16.625 3.125 C-16.625 2.465 -16.625 1.805 -16.625 1.125 C-11.04437787 0.17734719 -5.65469942 -0.0265064 0 0 Z " fill="#3169BD" transform="translate(420.625,293.875)"/>
<path d="M0 0 C1.2684375 -0.00580078 1.2684375 -0.00580078 2.5625 -0.01171875 C3.78839844 -0.00978516 3.78839844 -0.00978516 5.0390625 -0.0078125 C5.77592285 -0.00668457 6.5127832 -0.00555664 7.27197266 -0.00439453 C9.41699006 0.12758355 11.31183128 0.53827001 13.375 1.125 C13.375 1.785 13.375 2.445 13.375 3.125 C14.138125 3.228125 14.90125 3.33125 15.6875 3.4375 C18.59155911 4.18039884 19.66495766 4.69493983 21.375 7.125 C21.375 8.445 21.375 9.765 21.375 11.125 C22.035 11.125 22.695 11.125 23.375 11.125 C24.45119365 14.35358094 24.49552496 16.67039279 24.48852539 20.06518555 C24.48844986 21.28622482 24.48837433 22.5072641 24.48829651 23.76530457 C24.48313522 25.08412125 24.47797394 26.40293793 24.47265625 27.76171875 C24.4707908 29.12506559 24.4693675 30.48841311 24.46836853 31.85176086 C24.46455332 35.43728491 24.45473155 39.02276835 24.44366455 42.60827637 C24.43342901 46.2681422 24.42886632 49.9280146 24.42382812 53.58789062 C24.41310838 60.76694773 24.39551965 67.945963 24.375 75.125 C17.445 75.125 10.515 75.125 3.375 75.125 C3.375 57.965 3.375 40.805 3.375 23.125 C2.715 23.125 2.055 23.125 1.375 23.125 C1.375 22.465 1.375 21.805 1.375 21.125 C-0.605 21.125 -2.585 21.125 -4.625 21.125 C-4.955 26.735 -5.285 32.345 -5.625 38.125 C-3.645 38.125 -1.665 38.125 0.375 38.125 C0.375 44.395 0.375 50.665 0.375 57.125 C-1.605 57.125 -3.585 57.125 -5.625 57.125 C-5.625 63.065 -5.625 69.005 -5.625 75.125 C-13.215 75.125 -20.805 75.125 -28.625 75.125 C-28.64970151 67.50781491 -28.66786075 59.8906531 -28.67993164 52.2734375 C-28.68496332 49.68163649 -28.69178927 47.08983833 -28.70043945 44.49804688 C-28.71255591 40.77473245 -28.71823995 37.05145553 -28.72265625 33.328125 C-28.72781754 32.16758606 -28.73297882 31.00704712 -28.73829651 29.81134033 C-28.73837204 28.73052185 -28.73844757 27.64970337 -28.73852539 26.53613281 C-28.740746 25.58571106 -28.74296661 24.63528931 -28.74525452 23.65606689 C-28.6346099 21.32726513 -28.28582137 19.35292724 -27.625 17.125 C-26.965 17.125 -26.305 17.125 -25.625 17.125 C-25.625 15.475 -25.625 13.825 -25.625 12.125 C-24.635 11.795 -23.645 11.465 -22.625 11.125 C-22.295 9.475 -21.965 7.825 -21.625 6.125 C-20.965 6.125 -20.305 6.125 -19.625 6.125 C-19.625 5.465 -19.625 4.805 -19.625 4.125 C-18.635 3.795 -17.645 3.465 -16.625 3.125 C-16.295 2.465 -15.965 1.805 -15.625 1.125 C-10.48142809 -0.16497518 -5.26710178 -0.0243097 0 0 Z " fill="#2E67BC" transform="translate(271.625,293.875)"/>
<path d="M0 0 C12.54 0 25.08 0 38 0 C38 0.66 38 1.32 38 2 C39.093125 2.103125 40.18625 2.20625 41.3125 2.3125 C45 3 45 3 46.875 4.125 C48.56642211 6.94403684 48.69526149 9.76977183 49 13 C49.66 13 50.32 13 51 13 C51 16.96 51 20.92 51 25 C50.34 25 49.68 25 49 25 C48.67 26.98 48.34 28.96 48 31 C47.34 31 46.68 31 46 31 C46 32.65 46 34.3 46 36 C46.99 36.33 47.98 36.66 49 37 C49 37.66 49 38.32 49 39 C49.66 39 50.32 39 51 39 C51.495 41.97 51.495 41.97 52 45 C52.66 45 53.32 45 54 45 C54 49.95 54 54.9 54 60 C53.34 60 52.68 60 52 60 C51.67 61.98 51.34 63.96 51 66 C50.34 66 49.68 66 49 66 C48.505 67.98 48.505 67.98 48 70 C45.525 70.495 45.525 70.495 43 71 C43 71.66 43 72.32 43 73 C39.37918537 74.20693821 36.0749281 74.10782079 32.3125 74.0625 C28.6928125 74.0315625 28.6928125 74.0315625 25 74 C25 67.4 25 60.8 25 54 C29.455 53.505 29.455 53.505 34 53 C34 51.35 34 49.7 34 48 C31.03 48 28.06 48 25 48 C25 41.4 25 34.8 25 28 C26.32 28 27.64 28 29 28 C29 27.34 29 26.68 29 26 C29.66 26 30.32 26 31 26 C31 24.02 31 22.04 31 20 C28.03 20 25.06 20 22 20 C22 37.82 22 55.64 22 74 C14.74 74 7.48 74 0 74 C0 49.58 0 25.16 0 0 Z " fill="#3068BC" transform="translate(134,295)"/>
<path d="M0 0 C1.29808594 -0.00257813 2.59617187 -0.00515625 3.93359375 -0.0078125 C6.96361541 0.10308173 9.62748638 0.41245334 12.5625 1.125 C12.5625 1.785 12.5625 2.445 12.5625 3.125 C13.5525 3.125 14.5425 3.125 15.5625 3.125 C15.5625 3.785 15.5625 4.445 15.5625 5.125 C16.5525 5.455 17.5425 5.785 18.5625 6.125 C18.5625 6.785 18.5625 7.445 18.5625 8.125 C19.5525 8.455 20.5425 8.785 21.5625 9.125 C21.5625 10.115 21.5625 11.105 21.5625 12.125 C22.2225 12.125 22.8825 12.125 23.5625 12.125 C24.0575 16.58 24.0575 16.58 24.5625 21.125 C25.2225 21.125 25.8825 21.125 26.5625 21.125 C26.5625 38.945 26.5625 56.765 26.5625 75.125 C19.3025 75.125 12.0425 75.125 4.5625 75.125 C4.2325 57.965 3.9025 40.805 3.5625 23.125 C0.9225 23.125 -1.7175 23.125 -4.4375 23.125 C-4.7675 40.285 -5.0975 57.445 -5.4375 75.125 C-12.6975 75.125 -19.9575 75.125 -27.4375 75.125 C-27.4375 57.305 -27.4375 39.485 -27.4375 21.125 C-26.7775 21.125 -26.1175 21.125 -25.4375 21.125 C-24.9425 16.67 -24.9425 16.67 -24.4375 12.125 C-23.1175 11.795 -21.7975 11.465 -20.4375 11.125 C-20.1075 9.475 -19.7775 7.825 -19.4375 6.125 C-17.7875 5.795 -16.1375 5.465 -14.4375 5.125 C-14.4375 4.465 -14.4375 3.805 -14.4375 3.125 C-13.4475 3.125 -12.4575 3.125 -11.4375 3.125 C-11.4375 2.465 -11.4375 1.805 -11.4375 1.125 C-7.63399826 -0.09444331 -3.96996937 -0.00786912 0 0 Z " fill="#2E67BC" transform="translate(518.4375,159.875)"/>
<path d="M0 0 C0.92748047 -0.00128906 1.85496094 -0.00257813 2.81054688 -0.00390625 C3.78185547 -0.00003906 4.75316406 0.00382812 5.75390625 0.0078125 C6.72134766 0.00394531 7.68878906 0.00007813 8.68554688 -0.00390625 C9.61431641 -0.00261719 10.54308594 -0.00132812 11.5 0 C12.77701782 0.00169189 12.77701782 0.00169189 14.07983398 0.00341797 C16.31640625 0.1328125 16.31640625 0.1328125 19.31640625 1.1328125 C19.31640625 1.7928125 19.31640625 2.4528125 19.31640625 3.1328125 C20.43015625 3.225625 20.43015625 3.225625 21.56640625 3.3203125 C25.18769738 4.39023943 26.3035274 6.00166762 28.31640625 9.1328125 C28.31640625 10.1228125 28.31640625 11.1128125 28.31640625 12.1328125 C28.97640625 12.1328125 29.63640625 12.1328125 30.31640625 12.1328125 C31.17094058 15.82858155 31.43818828 19.2348586 31.42993164 23.0246582 C31.42985611 24.18548416 31.42978058 25.34631012 31.42970276 26.54231262 C31.42454147 27.78518539 31.41938019 29.02805817 31.4140625 30.30859375 C31.41264755 31.58888962 31.4112326 32.86918549 31.40977478 34.1882782 C31.40597022 37.5797829 31.39615768 40.97124427 31.3850708 44.36273193 C31.37481222 47.82840387 31.37026766 51.29408286 31.36523438 54.75976562 C31.3542138 61.5508024 31.33695347 68.34179813 31.31640625 75.1328125 C24.38640625 75.1328125 17.45640625 75.1328125 10.31640625 75.1328125 C10.31640625 57.9728125 10.31640625 40.8128125 10.31640625 23.1328125 C9.65640625 23.1328125 8.99640625 23.1328125 8.31640625 23.1328125 C8.31640625 22.4728125 8.31640625 21.8128125 8.31640625 21.1328125 C6.33640625 21.1328125 4.35640625 21.1328125 2.31640625 21.1328125 C1.98640625 38.9528125 1.65640625 56.7728125 1.31640625 75.1328125 C-5.94359375 75.1328125 -13.20359375 75.1328125 -20.68359375 75.1328125 C-20.68359375 55.9928125 -20.68359375 36.8528125 -20.68359375 17.1328125 C-20.02359375 17.1328125 -19.36359375 17.1328125 -18.68359375 17.1328125 C-18.35359375 15.1528125 -18.02359375 13.1728125 -17.68359375 11.1328125 C-17.02359375 11.1328125 -16.36359375 11.1328125 -15.68359375 11.1328125 C-15.35359375 9.4828125 -15.02359375 7.8328125 -14.68359375 6.1328125 C-13.36359375 6.1328125 -12.04359375 6.1328125 -10.68359375 6.1328125 C-10.35359375 5.1428125 -10.02359375 4.1528125 -9.68359375 3.1328125 C-8.69359375 3.1328125 -7.70359375 3.1328125 -6.68359375 3.1328125 C-6.68359375 2.4728125 -6.68359375 1.8128125 -6.68359375 1.1328125 C-4.26292544 -0.07752165 -2.70192433 0.00358447 0 0 Z " fill="#2D66BC" transform="translate(334.68359375,293.8671875)"/>
<path d="M0 0 C8.58 0 17.16 0 26 0 C26 7.26 26 14.52 26 22 C20.06 22 14.12 22 8 22 C8 22.66 8 23.32 8 24 C7.34 24 6.68 24 6 24 C6 25.32 6 26.64 6 28 C6.66 28 7.32 28 8 28 C8 28.66 8 29.32 8 30 C12.95 30 17.9 30 23 30 C23 35.61 23 41.22 23 47 C14.585 47.495 14.585 47.495 6 48 C6 49.65 6 51.3 6 53 C12.27 53.33 18.54 53.66 25 54 C25 60.6 25 67.2 25 74 C20.4166276 74.02692582 15.83341277 74.04680338 11.25 74.0625 C9.94804687 74.07087891 8.64609375 74.07925781 7.3046875 74.08789062 C6.05429687 74.09111328 4.80390625 74.09433594 3.515625 74.09765625 C1.78747559 74.10551147 1.78747559 74.10551147 0.02441406 74.11352539 C-2.51926964 74.01804485 -4.58398313 73.74917261 -7 73 C-7 72.34 -7 71.68 -7 71 C-7.99 70.67 -8.98 70.34 -10 70 C-10 69.34 -10 68.68 -10 68 C-11.32 67.67 -12.64 67.34 -14 67 C-14.33 64.69 -14.66 62.38 -15 60 C-15.66 60 -16.32 60 -17 60 C-17 44.82 -17 29.64 -17 14 C-16.34 14 -15.68 14 -15 14 C-14.67 12.02 -14.34 10.04 -14 8 C-12.68 7.67 -11.36 7.34 -10 7 C-10 6.34 -10 5.68 -10 5 C-8.02 4.67 -6.04 4.34 -4 4 C-4 3.34 -4 2.68 -4 2 C-2.68 2 -1.36 2 0 2 C0 1.34 0 0.68 0 0 Z " fill="#3068BC" transform="translate(450,161)"/>
<path d="M0 0 C18.81 0 37.62 0 57 0 C57 7.26 57 14.52 57 22 C51.39 22 45.78 22 40 22 C40 39.82 40 57.64 40 76 C32.41 76 24.82 76 17 76 C17 58.18 17 40.36 17 22 C11.39 22 5.78 22 0 22 C0 14.74 0 7.48 0 0 Z " fill="#2D66BC" transform="translate(244,161)"/>
<path d="M0 0 C8.25 0 16.5 0 25 0 C25 1.65 25 3.3 25 5 C25.66 5 26.32 5 27 5 C27 6.65 27 8.3 27 10 C27.66 10 28.32 10 29 10 C29.33 13.3 29.66 16.6 30 20 C31.65 19.67 33.3 19.34 35 19 C35.33 15.37 35.66 11.74 36 8 C36.66 8 37.32 8 38 8 C38.33 5.36 38.66 2.72 39 0 C47.25 0 55.5 0 64 0 C64 1.32 64 2.64 64 4 C63.34 4 62.68 4 62 4 C61.67 6.31 61.34 8.62 61 11 C60.34 11 59.68 11 59 11 C58.67 13.64 58.34 16.28 58 19 C57.34 19 56.68 19 56 19 C56 19.99 56 20.98 56 22 C55.34 22 54.68 22 54 22 C53.67 24.64 53.34 27.28 53 30 C52.34 30 51.68 30 51 30 C50.67 32.31 50.34 34.62 50 37 C49.34 37 48.68 37 48 37 C47.67 39.31 47.34 41.62 47 44 C46.34 44 45.68 44 45 44 C44.67 46.97 44.34 49.94 44 53 C43.34 53 42.68 53 42 53 C41.67 55.31 41.34 57.62 41 60 C40.34 60 39.68 60 39 60 C38.67 62.31 38.34 64.62 38 67 C37.34 67 36.68 67 36 67 C35.67 69.31 35.34 71.62 35 74 C34.34 74 33.68 74 33 74 C33 74.99 33 75.98 33 77 C32.01 77 31.02 77 30 77 C29.67 74.69 29.34 72.38 29 70 C28.34 70 27.68 70 27 70 C27 68.35 27 66.7 27 65 C26.34 65 25.68 65 25 65 C24.67 63.02 24.34 61.04 24 59 C23.34 59 22.68 59 22 59 C21.67 56.03 21.34 53.06 21 50 C20.34 50 19.68 50 19 50 C18.67 48.02 18.34 46.04 18 44 C17.34 44 16.68 44 16 44 C15.67 41.36 15.34 38.72 15 36 C14.34 36 13.68 36 13 36 C12.67 33.36 12.34 30.72 12 28 C11.34 28 10.68 28 10 28 C9.67 25.36 9.34 22.72 9 20 C8.34 20 7.68 20 7 20 C6.67 17.69 6.34 15.38 6 13 C5.34 13 4.68 13 4 13 C3.67 10.36 3.34 7.72 3 5 C2.01 4.67 1.02 4.34 0 4 C0 2.68 0 1.36 0 0 Z " fill="#3168BD" transform="translate(89,161)"/>
<path d="M0 0 C7.26 0 14.52 0 22 0 C22.33 16.5 22.66 33 23 50 C23.66 50.33 24.32 50.66 25 51 C25 51.66 25 52.32 25 53 C26.98 53 28.96 53 31 53 C31 59.93 31 66.86 31 74 C17.375 74.125 17.375 74.125 14 73 C14 72.34 14 71.68 14 71 C12.02 70.67 10.04 70.34 8 70 C7.67 68.68 7.34 67.36 7 66 C6.34 66 5.68 66 5 66 C5 65.01 5 64.02 5 63 C4.01 62.67 3.02 62.34 2 62 C2 60.35 2 58.7 2 57 C1.34 57 0.68 57 0 57 C0 38.19 0 19.38 0 0 Z " fill="#2D66BC" transform="translate(201,295)"/>
<path d="M0 0 C3.96 0 7.92 0 12 0 C12 0.66 12 1.32 12 2 C14.475 2.495 14.475 2.495 17 3 C17.33 4.65 17.66 6.3 18 8 C18.66 8 19.32 8 20 8 C21.41880263 10.83760526 21.1320472 13.27682975 21.125 16.4375 C21.12886719 18.16806641 21.12886719 18.16806641 21.1328125 19.93359375 C21 23 21 23 20 26 C19.34 26 18.68 26 18 26 C17.896875 26.598125 17.79375 27.19625 17.6875 27.8125 C16.89363064 30.33844795 16.04427591 31.34885407 14 33 C11.18772378 33.93742541 9.41253156 34.13470844 6.5 34.125 C5.7265625 34.12757813 4.953125 34.13015625 4.15625 34.1328125 C2 34 2 34 -1 33 C-1 32.34 -1 31.68 -1 31 C-2.65 30.67 -4.3 30.34 -6 30 C-6 29.34 -6 28.68 -6 28 C-6.66 28 -7.32 28 -8 28 C-8.33 26.02 -8.66 24.04 -9 22 C-9.66 22 -10.32 22 -11 22 C-11 19.03 -11 16.06 -11 13 C-10.34 13 -9.68 13 -9 13 C-8.67 10.69 -8.34 8.38 -8 6 C-7.360625 5.896875 -6.72125 5.79375 -6.0625 5.6875 C-5.381875 5.460625 -4.70125 5.23375 -4 5 C-3.67 4.01 -3.34 3.02 -3 2 C-2.01 2 -1.02 2 0 2 C0 1.34 0 0.68 0 0 Z " fill="#F8F9FC" transform="translate(502,315)"/>
<path d="M0 0 C1.98 0 3.96 0 6 0 C6 0.66 6 1.32 6 2 C7.32 2 8.64 2 10 2 C10 2.66 10 3.32 10 4 C10.5775 4.061875 11.155 4.12375 11.75 4.1875 C14.94710041 5.34200848 16.1436532 7.21547979 18 10 C18 10.99 18 11.98 18 13 C18.66 13 19.32 13 20 13 C20 15.97 20 18.94 20 22 C19.34 22 18.68 22 18 22 C17.67 23.98 17.34 25.96 17 28 C16.34 28 15.68 28 15 28 C14.67 28.99 14.34 29.98 14 31 C13.34 31 12.68 31 12 31 C12 31.66 12 32.32 12 33 C9.16239474 34.41880263 6.72317025 34.1320472 3.5625 34.125 C1.83193359 34.12886719 1.83193359 34.12886719 0.06640625 34.1328125 C-3 34 -3 34 -6 33 C-6 32.34 -6 31.68 -6 31 C-6.99 30.67 -7.98 30.34 -9 30 C-9 29.34 -9 28.68 -9 28 C-9.66 28 -10.32 28 -11 28 C-12.16698437 24.49904689 -12.13268287 21.6877768 -12.125 18 C-12.12886719 16.14375 -12.12886719 16.14375 -12.1328125 14.25 C-12 11 -12 11 -11 8 C-6.65714286 4 -6.65714286 4 -3 4 C-3 3.34 -3 2.68 -3 2 C-2.01 2 -1.02 2 0 2 C0 1.34 0 0.68 0 0 Z " fill="#F9FAFC" transform="translate(194,181)"/>
<path d="M0 0 C4.62 0 9.24 0 14 0 C14 0.66 14 1.32 14 2 C15.1446875 2.1546875 15.1446875 2.1546875 16.3125 2.3125 C19.21867978 3.05594134 20.19913049 3.65886963 22 6 C23.17245774 9.51737321 23.13266285 12.3575132 23.125 16.0625 C23.12886719 17.93615234 23.12886719 17.93615234 23.1328125 19.84765625 C23 23 23 23 22 25 C21.34 25 20.68 25 20 25 C19.67 26.32 19.34 27.64 19 29 C18.34 29 17.68 29 17 29 C17 29.66 17 30.32 17 31 C13.77717587 32.07427471 11.38488847 32.1332963 8 32.125 C6.948125 32.12757813 5.89625 32.13015625 4.8125 32.1328125 C2 32 2 32 -1 31 C-1 30.34 -1 29.68 -1 29 C-1.99 28.67 -2.98 28.34 -4 28 C-4 27.34 -4 26.68 -4 26 C-4.99 25.67 -5.98 25.34 -7 25 C-7 24.01 -7 23.02 -7 22 C-7.66 22 -8.32 22 -9 22 C-9 18.37 -9 14.74 -9 11 C-8.34 11 -7.68 11 -7 11 C-6.9071875 9.88625 -6.9071875 9.88625 -6.8125 8.75 C-5.75439525 5.16872239 -3.96747764 4.15142129 -1 2 C-0.67 1.34 -0.34 0.68 0 0 Z " fill="#FAFBFD" transform="translate(340,183)"/>
<path d="M0 0 C0.33 0 0.66 0 1 0 C1 17.16 1 34.32 1 52 C7.6 52 14.2 52 21 52 C21 34.84 21 17.68 21 0 C21.66 0 22.32 0 23 0 C23 17.82 23 35.64 23 54 C15.41 54 7.82 54 0 54 C0 36.18 0 18.36 0 0 Z " fill="#809CD1" transform="translate(261,183)"/>
<path d="M0 0 C18.81 0 37.62 0 57 0 C57 7.26 57 14.52 57 22 C56.34 22 55.68 22 55 22 C55 15.4 55 8.8 55 2 C37.51 2 20.02 2 2 2 C2 8.6 2 15.2 2 22 C1.34 22 0.68 22 0 22 C0 14.74 0 7.48 0 0 Z " fill="#819DD2" transform="translate(244,161)"/>
<path d="M0 0 C8.25 0 16.5 0 25 0 C25 1.32 25 2.64 25 4 C24.34 4 23.68 4 23 4 C23 3.34 23 2.68 23 2 C15.41 2 7.82 2 0 2 C0 1.34 0 0.68 0 0 Z " fill="#7191CD" transform="translate(128,161)"/>
</svg>
